<svg width="14" height="14" viewBox="0 0 14 14" fill="none" xmlns="http://www.w3.org/2000/svg">
<path d="M1 10V13H4V14H0V10H1ZM14 10V14H10V13H13V10H14ZM7 3.5C9.025 3.5 10.858 4.667 12.5 7C10.858 9.333 9.025 10.5 7 10.5C4.975 10.5 3.142 9.333 1.5 7C3.142 4.667 4.975 3.5 7 3.5ZM7 4.5C5.546 4.5 4.177 5.256 2.873 6.844L2.747 7L2.873 7.156C4.115 8.669 5.416 9.426 6.793 9.495L7 9.5C8.454 9.5 9.823 8.744 11.127 7.156L11.252 7L11.127 6.844C9.885 5.331 8.584 4.574 7.207 4.505L7 4.5ZM7 5.25C7.46413 5.25 7.90925 5.43437 8.23744 5.76256C8.56563 6.09075 8.75 6.53587 8.75 7C8.75 7.46413 8.56563 7.90925 8.23744 8.23744C7.90925 8.56563 7.46413 8.75 7 8.75C6.53587 8.75 6.09075 8.56563 5.76256 8.23744C5.43437 7.90925 5.25 7.46413 5.25 7C5.25 6.53587 5.43437 6.09075 5.76256 5.76256C6.09075 5.43437 6.53587 5.25 7 5.25ZM7 6.25C6.80109 6.25 6.61032 6.32902 6.46967 6.46967C6.32902 6.61032 6.25 6.80109 6.25 7C6.25 7.19891 6.32902 7.38968 6.46967 7.53033C6.61032 7.67098 6.80109 7.75 7 7.75C7.19891 7.75 7.38968 7.67098 7.53033 7.53033C7.67098 7.38968 7.75 7.19891 7.75 7C7.75 6.80109 7.67098 6.61032 7.53033 6.46967C7.38968 6.32902 7.19891 6.25 7 6.25ZM4 0V1H1V4H0V0H4ZM14 0V4H13V1H10V0H14Z" fill="#57CCEF"/>
</svg>
