<svg width="14" height="14" viewBox="0 0 14 14" fill="none" xmlns="http://www.w3.org/2000/svg">
<path d="M0 7C0 5.61553 0.410543 4.26216 1.17971 3.11101C1.94888 1.95987 3.04213 1.06266 4.32122 0.532846C5.6003 0.00303304 7.00777 -0.13559 8.36563 0.134506C9.7235 0.404603 10.9708 1.07129 11.9497 2.05026C12.9287 3.02922 13.5954 4.2765 13.8655 5.63437C14.1356 6.99224 13.997 8.3997 13.4672 9.67879C12.9373 10.9579 12.0401 12.0511 10.889 12.8203C9.73785 13.5895 8.38447 14 7 14C5.14413 13.9979 3.36489 13.2597 2.05259 11.9474C0.740295 10.6351 0.00211736 8.85587 0 7H0ZM1.187 7C1.1872 8.14942 1.52821 9.27298 2.16692 10.2286C2.80562 11.1842 3.71334 11.929 4.77531 12.3688C5.83727 12.8086 7.00579 12.9236 8.13311 12.6993C9.26043 12.475 10.2959 11.9215 11.1087 11.1087C11.9215 10.2959 12.475 9.26044 12.6993 8.13311C12.9236 7.00579 12.8086 5.83727 12.3688 4.77531C11.929 3.71335 11.1842 2.80563 10.2286 2.16692C9.27297 1.52821 8.14942 1.1872 7 1.187C5.45878 1.18859 3.98115 1.80154 2.89134 2.89135C1.80154 3.98115 1.18859 5.45879 1.187 7V7ZM6.374 10.437C6.374 10.3134 6.41063 10.1926 6.47926 10.0899C6.54789 9.98712 6.64545 9.90701 6.75959 9.85967C6.87374 9.81234 6.99935 9.79991 7.12056 9.82394C7.24177 9.84798 7.35314 9.9074 7.44059 9.99471C7.52804 10.082 7.58764 10.1933 7.61187 10.3145C7.6361 10.4356 7.62386 10.5613 7.57671 10.6755C7.52956 10.7897 7.44961 10.8874 7.34696 10.9562C7.24431 11.025 7.12357 11.0618 7 11.062C6.83424 11.062 6.67527 10.9962 6.55806 10.8789C6.44085 10.7617 6.375 10.6028 6.375 10.437H6.374ZM6.622 8.813C6.58928 8.81196 6.55825 8.79823 6.53548 8.77471C6.51271 8.7512 6.49998 8.71974 6.5 8.687V8.352C6.49891 7.99036 6.60733 7.63685 6.811 7.338C7.01096 7.04815 7.29407 6.82571 7.623 6.7C7.86713 6.62159 8.08169 6.4709 8.23829 6.26787C8.3949 6.06484 8.48616 5.81904 8.5 5.563C8.46348 5.19972 8.2859 4.86526 8.00541 4.63152C7.72492 4.39777 7.36392 4.28341 7 4.313C6.63608 4.28341 6.27508 4.39777 5.99459 4.63152C5.7141 4.86526 5.53652 5.19972 5.5 5.563V5.681C5.5 5.71416 5.48683 5.74595 5.46339 5.76939C5.43995 5.79283 5.40815 5.806 5.375 5.806H4.625C4.59185 5.806 4.56005 5.79283 4.53661 5.76939C4.51317 5.74595 4.5 5.71416 4.5 5.681V5.563C4.50196 5.25519 4.57054 4.95145 4.70105 4.67267C4.83155 4.39388 5.02087 4.14666 5.256 3.948C5.74429 3.53766 6.36168 3.31269 6.9995 3.31269C7.63732 3.31269 8.25471 3.53766 8.743 3.948C8.97883 4.14613 9.1687 4.39322 9.29942 4.67211C9.43014 4.951 9.49859 5.255 9.5 5.563C9.48744 6.02131 9.33553 6.46492 9.06452 6.83473C8.7935 7.20453 8.41625 7.48299 7.983 7.633C7.84167 7.68781 7.72012 7.78389 7.63415 7.90874C7.54818 8.03359 7.50179 8.18142 7.501 8.333V8.688C7.50074 8.72107 7.48749 8.75272 7.4641 8.7761C7.44071 8.79949 7.40907 8.81274 7.376 8.813H6.622Z" fill="#6D7A87"/>
</svg>
