<svg width="16" height="16" viewBox="0 0 16 16" fill="none" xmlns="http://www.w3.org/2000/svg">
<path d="M8 0C3.58571 0 0 3.58571 0 8C0 12.4143 3.58571 16 8 16C12.4143 16 16 12.4143 16 8C16 3.58571 12.4143 0 8 0ZM7.71429 14.8429C4.15714 14.7 1.3 11.8286 1.15714 8.28572H3.44286C3.58571 10.5857 5.42857 12.4143 7.71429 12.5571V14.8429ZM7.71429 11.4143C6.05714 11.2714 4.72857 9.94286 4.58571 8.28572H6.9C7 8.68571 7.31429 9 7.71429 9.1V11.4143ZM7.71429 6.9C7.31429 7 7.01429 7.31429 6.9 7.71429H4.58571C4.72857 6.05714 6.05714 4.72857 7.71429 4.58571V6.9ZM7.71429 3.44286C5.41429 3.58571 3.58571 5.42857 3.44286 7.71429H1.15714C1.3 4.15714 4.17143 1.3 7.71429 1.15714V3.44286ZM8.28572 4.58571C8.6 4.61429 8.9 4.68571 9.17143 4.78571C9.25714 4.38571 9.48571 4.04286 9.8 3.8C9.32857 3.6 8.81429 3.47143 8.28572 3.42857V1.14286C9.92857 1.21429 11.4286 1.85714 12.5714 2.88571L11.7571 3.71429C11.9143 3.81429 12.0714 3.94286 12.1857 4.1L12.9857 3.3C14.0857 4.45714 14.7857 6.01429 14.8571 7.71429H12.5714C12.5429 7.18571 12.4143 6.67143 12.2143 6.2C11.9714 6.51429 11.6286 6.74286 11.2286 6.82857C11.3286 7.11429 11.4 7.4 11.4286 7.71429H9.11429C9.07143 7.57143 9.01429 7.45714 8.92857 7.34286L9.77143 6.5C9.62857 6.38571 9.5 6.22857 9.38571 6.07143L8.48571 6.97143C8.41429 6.94286 8.35714 6.91429 8.27143 6.9V4.58571H8.28572ZM8.28572 9.11429C8.68571 9.01429 9.01429 8.7 9.11429 8.28572H11.4143C11.2714 9.94286 9.94286 11.2714 8.28572 11.4143V9.11429ZM8.28572 14.8429V12.5571C10.5857 12.4143 12.4143 10.5714 12.5571 8.28572H14.8429C14.7 11.8429 11.8429 14.7 8.28572 14.8429ZM10.8429 6.3C10.2143 6.3 9.7 5.78571 9.7 5.15714C9.7 4.52857 10.2143 4.01429 10.8429 4.01429C11.4714 4.01429 11.9857 4.52857 11.9857 5.15714C11.9857 5.78571 11.4714 6.3 10.8429 6.3Z" fill="#57CCEF"/>
</svg>
