<svg width="16" height="16" viewBox="0 0 16 16" fill="none" xmlns="http://www.w3.org/2000/svg">
<path d="M7.6123 0.657058V1.87009L7.34767 1.8948C5.68271 2.05192 4.13805 2.79698 3.01368 3.98526C1.88931 5.17355 1.26549 6.72025 1.26336 8.32497C1.26615 10.0377 1.97686 11.6794 3.23967 12.8903C4.50247 14.1011 6.21432 14.7823 7.99989 14.7843C11.7118 14.7843 14.7341 11.8866 14.7341 8.32497C14.7341 7.49158 14.5666 6.67727 14.2458 5.91464L14.1463 5.67877L15.2716 5.11382L15.3945 5.39798C16.0378 6.89249 16.1725 8.54373 15.7794 10.116C15.3863 11.6883 14.4854 13.1014 13.2054 14.1534C11.9253 15.2055 10.3316 15.8428 8.65147 15.9745C6.97139 16.1062 5.29088 15.7254 3.84978 14.8866C2.40867 14.0478 1.28063 12.7938 0.626633 11.3036C-0.0273633 9.81333 -0.173887 8.16302 0.207974 6.58816C0.589835 5.01331 1.48056 3.59439 2.75304 2.53392C4.02551 1.47345 5.6147 0.825621 7.2938 0.682891L7.6123 0.657058ZM7.6123 3.47398V4.52976L7.3664 4.56795C6.43602 4.71268 5.58961 5.17005 4.97846 5.85832C4.3673 6.54659 4.03124 7.42089 4.03034 8.32497C4.03189 9.33375 4.45036 10.3008 5.19402 11.0141C5.93768 11.7274 6.94586 12.1288 7.99755 12.1303C8.62451 12.1292 9.24229 11.9858 9.80041 11.7118C10.3585 11.4379 10.8411 11.0411 11.2087 10.5539C11.5764 10.0668 11.8186 9.50313 11.9156 8.909C12.0126 8.31487 11.9616 7.70715 11.7669 7.13553L11.6896 6.90977L12.665 6.41894L12.7774 6.72557C12.9648 7.23774 13.0608 7.77574 13.0608 8.32497C13.0589 9.61237 12.5248 10.8465 11.5757 11.7567C10.6265 12.667 9.33972 13.179 7.99755 13.1805C6.65558 13.1787 5.3691 12.6665 4.42019 11.7563C3.47127 10.8462 2.93735 9.61218 2.93549 8.32497C2.93672 7.15722 3.37615 6.02892 4.17343 5.14642C4.9707 4.26391 6.07254 3.68619 7.27741 3.51891L7.6123 3.47398ZM8.0842 2.90619e-07C9.65655 -0.000400293 11.1988 0.413325 12.5429 1.19606C13.8869 1.97879 14.981 3.10047 15.706 4.43879L8.83713 7.88019C8.89568 7.98914 8.92963 8.11045 8.92963 8.24186C8.9294 8.40193 8.87972 8.55834 8.78686 8.69134C8.69401 8.82434 8.56214 8.92796 8.40792 8.98911C8.2537 9.05027 8.08404 9.06621 7.92038 9.03493C7.75672 9.00364 7.60639 8.92654 7.48839 8.81336C7.37039 8.70017 7.29 8.55598 7.25739 8.39899C7.22478 8.24201 7.2414 8.07928 7.30515 7.93135C7.36891 7.78343 7.47694 7.65694 7.6156 7.56787C7.75425 7.4788 7.91732 7.43115 8.0842 7.43092V2.90619e-07ZM11.4285 2.37664C11.296 2.37664 11.169 2.42711 11.0753 2.51694C10.9817 2.60678 10.929 2.72862 10.929 2.85567C10.929 2.98272 10.9817 3.10456 11.0753 3.1944C11.169 3.28424 11.296 3.33471 11.4285 3.33471C11.5609 3.33471 11.6879 3.28424 11.7816 3.1944C11.8753 3.10456 11.9279 2.98272 11.9279 2.85567C11.9279 2.72862 11.8753 2.60678 11.7816 2.51694C11.6879 2.42711 11.5609 2.37664 11.4285 2.37664Z" fill="#57CCEF"/>
</svg>
