<svg width="108" height="90" viewBox="0 0 108 90" fill="none" xmlns="http://www.w3.org/2000/svg">
<rect x="0.5" y="0.5" width="107" height="89" rx="3.5" fill="black"/>
<path fill-rule="evenodd" clip-rule="evenodd" d="M79.0098 19.1494C79.562 19.1494 80.0098 18.7017 80.0098 18.1494C80.0098 17.5971 79.562 17.1494 79.0098 17.1494C78.4575 17.1494 78.0098 17.5971 78.0098 18.1494C78.0098 18.7017 78.4575 19.1494 79.0098 19.1494ZM73.2871 20.3955C73.2871 20.9478 72.8394 21.3955 72.2871 21.3955C71.7348 21.3955 71.2871 20.9478 71.2871 20.3955C71.2871 19.8432 71.7348 19.3955 72.2871 19.3955C72.8394 19.3955 73.2871 19.8432 73.2871 20.3955ZM67.5312 26.4463C68.0835 26.4463 68.5312 25.9986 68.5312 25.4463C68.5312 24.894 68.0835 24.4463 67.5312 24.4463C66.979 24.4463 66.5312 24.894 66.5312 25.4463C66.5312 25.9986 66.979 26.4463 67.5312 26.4463ZM64.8848 30.9453C64.8848 31.4976 64.437 31.9453 63.8848 31.9453C63.3325 31.9453 62.8848 31.4976 62.8848 30.9453C62.8848 30.393 63.3325 29.9453 63.8848 29.9453C64.437 29.9453 64.8848 30.393 64.8848 30.9453ZM59.1777 36.0479C59.73 36.0479 60.1777 35.6001 60.1777 35.0479C60.1777 34.4956 59.73 34.0479 59.1777 34.0479C58.6255 34.0479 58.1777 34.4956 58.1777 35.0479C58.1777 35.6001 58.6255 36.0479 59.1777 36.0479ZM33.0508 36.6943C33.6031 36.6943 34.0508 36.2466 34.0508 35.6943C34.0508 35.1421 33.6031 34.6943 33.0508 34.6943C32.4985 34.6943 32.0508 35.1421 32.0508 35.6943C32.0508 36.2466 32.4985 36.6943 33.0508 36.6943ZM25.0078 37.5283C25.0078 38.0806 24.5601 38.5283 24.0078 38.5283C23.4555 38.5283 23.0078 38.0806 23.0078 37.5283C23.0078 36.976 23.4555 36.5283 24.0078 36.5283C24.5601 36.5283 25.0078 36.976 25.0078 37.5283ZM16.5918 42.8613C16.5918 43.4136 16.1441 43.8613 15.5918 43.8613C15.0395 43.8613 14.5918 43.4136 14.5918 42.8613C14.5918 42.309 15.0395 41.8613 15.5918 41.8613C16.1441 41.8613 16.5918 42.309 16.5918 42.8613ZM41.5352 37.5283C41.5352 38.0806 41.0874 38.5283 40.5352 38.5283C39.9829 38.5283 39.5352 38.0806 39.5352 37.5283C39.5352 36.976 39.9829 36.5283 40.5352 36.5283C41.0874 36.5283 41.5352 36.976 41.5352 37.5283ZM47.7969 39.7686C48.3492 39.7686 48.7969 39.3208 48.7969 38.7686C48.7969 38.2163 48.3492 37.7686 47.7969 37.7686C47.2446 37.7686 46.7969 38.2163 46.7969 38.7686C46.7969 39.3208 47.2446 39.7686 47.7969 39.7686ZM54.6309 37.7998C54.6309 38.3521 54.1831 38.7998 53.6309 38.7998C53.0786 38.7998 52.6309 38.3521 52.6309 37.7998C52.6309 37.2475 53.0786 36.7998 53.6309 36.7998C54.1831 36.7998 54.6309 37.2475 54.6309 37.7998ZM87.4961 18.5117C87.4961 19.064 87.0484 19.5117 86.4961 19.5117C85.9438 19.5117 85.4961 19.064 85.4961 18.5117C85.4961 17.9594 85.9438 17.5117 86.4961 17.5117C87.0484 17.5117 87.4961 17.9594 87.4961 18.5117ZM79.6816 20.6162C79.6816 21.1685 79.2339 21.6162 78.6816 21.6162C78.1294 21.6162 77.6816 21.1685 77.6816 20.6162C77.6816 20.0639 78.1294 19.6162 78.6816 19.6162C79.2339 19.6162 79.6816 20.0639 79.6816 20.6162ZM71.959 23.8623C72.5113 23.8623 72.959 23.4146 72.959 22.8623C72.959 22.31 72.5113 21.8623 71.959 21.8623C71.4067 21.8623 70.959 22.31 70.959 22.8623C70.959 23.4146 71.4067 23.8623 71.959 23.8623ZM68.2031 27.9131C68.2031 28.4654 67.7554 28.9131 67.2031 28.9131C66.6508 28.9131 66.2031 28.4654 66.2031 27.9131C66.2031 27.3608 66.6508 26.9131 67.2031 26.9131C67.7554 26.9131 68.2031 27.3608 68.2031 27.9131ZM63.5566 34.4121C64.1089 34.4121 64.5566 33.9644 64.5566 33.4121C64.5566 32.8598 64.1089 32.4121 63.5566 32.4121C63.0044 32.4121 62.5566 32.8598 62.5566 33.4121C62.5566 33.9644 63.0044 34.4121 63.5566 34.4121ZM59.8496 37.5146C59.8496 38.0669 59.4019 38.5146 58.8496 38.5146C58.2973 38.5146 57.8496 38.0669 57.8496 37.5146C57.8496 36.9624 58.2973 36.5146 58.8496 36.5146C59.4019 36.5146 59.8496 36.9624 59.8496 37.5146ZM33.7227 38.1611C33.7227 38.7134 33.2749 39.1611 32.7227 39.1611C32.1704 39.1611 31.7227 38.7134 31.7227 38.1611C31.7227 37.6088 32.1704 37.1611 32.7227 37.1611C33.2749 37.1611 33.7227 37.6088 33.7227 38.1611ZM23.6797 40.9951C24.232 40.9951 24.6797 40.5474 24.6797 39.9951C24.6797 39.4428 24.232 38.9951 23.6797 38.9951C23.1274 38.9951 22.6797 39.4428 22.6797 39.9951C22.6797 40.5474 23.1274 40.9951 23.6797 40.9951ZM15.2637 46.3281C15.816 46.3281 16.2637 45.8804 16.2637 45.3281C16.2637 44.7758 15.816 44.3281 15.2637 44.3281C14.7114 44.3281 14.2637 44.7758 14.2637 45.3281C14.2637 45.8804 14.7114 46.3281 15.2637 46.3281ZM40.207 40.9951C40.7593 40.9951 41.207 40.5474 41.207 39.9951C41.207 39.4428 40.7593 38.9951 40.207 38.9951C39.6547 38.9951 39.207 39.4428 39.207 39.9951C39.207 40.5474 39.6547 40.9951 40.207 40.9951ZM48.4688 41.2354C48.4688 41.7876 48.021 42.2354 47.4688 42.2354C46.9165 42.2354 46.4688 41.7876 46.4688 41.2354C46.4688 40.6831 46.9165 40.2354 47.4688 40.2354C48.021 40.2354 48.4688 40.6831 48.4688 41.2354ZM53.3027 41.2666C53.855 41.2666 54.3027 40.8189 54.3027 40.2666C54.3027 39.7143 53.855 39.2666 53.3027 39.2666C52.7505 39.2666 52.3027 39.7143 52.3027 40.2666C52.3027 40.8189 52.7505 41.2666 53.3027 41.2666ZM86.168 21.9785C86.7203 21.9785 87.168 21.5308 87.168 20.9785C87.168 20.4262 86.7203 19.9785 86.168 19.9785C85.6157 19.9785 85.168 20.4262 85.168 20.9785C85.168 21.5308 85.6157 21.9785 86.168 21.9785ZM78.4961 24.6162C79.0484 24.6162 79.4961 24.1685 79.4961 23.6162C79.4961 23.0639 79.0484 22.6162 78.4961 22.6162C77.9438 22.6162 77.4961 23.0639 77.4961 23.6162C77.4961 24.1685 77.9438 24.6162 78.4961 24.6162ZM72.7734 25.8623C72.7734 26.4146 72.3257 26.8623 71.7734 26.8623C71.2212 26.8623 70.7734 26.4146 70.7734 25.8623C70.7734 25.31 71.2212 24.8623 71.7734 24.8623C72.3257 24.8623 72.7734 25.31 72.7734 25.8623ZM67.0176 31.9131C67.5699 31.9131 68.0176 31.4654 68.0176 30.9131C68.0176 30.3608 67.5699 29.9131 67.0176 29.9131C66.4653 29.9131 66.0176 30.3608 66.0176 30.9131C66.0176 31.4654 66.4653 31.9131 67.0176 31.9131ZM64.3711 36.4121C64.3711 36.9644 63.9234 37.4121 63.3711 37.4121C62.8188 37.4121 62.3711 36.9644 62.3711 36.4121C62.3711 35.8598 62.8188 35.4121 63.3711 35.4121C63.9234 35.4121 64.3711 35.8598 64.3711 36.4121ZM58.6641 41.5146C59.2163 41.5146 59.6641 41.0669 59.6641 40.5146C59.6641 39.9624 59.2163 39.5146 58.6641 39.5146C58.1118 39.5146 57.6641 39.9624 57.6641 40.5146C57.6641 41.0669 58.1118 41.5146 58.6641 41.5146ZM32.5371 42.1611C33.0894 42.1611 33.5371 41.7134 33.5371 41.1611C33.5371 40.6088 33.0894 40.1611 32.5371 40.1611C31.9848 40.1611 31.5371 40.6088 31.5371 41.1611C31.5371 41.7134 31.9848 42.1611 32.5371 42.1611ZM24.4922 42.9951C24.4922 43.5474 24.0445 43.9951 23.4922 43.9951C22.9399 43.9951 22.4922 43.5474 22.4922 42.9951C22.4922 42.4428 22.9399 41.9951 23.4922 41.9951C24.0445 41.9951 24.4922 42.4428 24.4922 42.9951ZM16.0781 48.3281C16.0781 48.8804 15.6304 49.3281 15.0781 49.3281C14.5258 49.3281 14.0781 48.8804 14.0781 48.3281C14.0781 47.7758 14.5258 47.3281 15.0781 47.3281C15.6304 47.3281 16.0781 47.7758 16.0781 48.3281ZM41.0215 42.9951C41.0215 43.5474 40.5738 43.9951 40.0215 43.9951C39.4692 43.9951 39.0215 43.5474 39.0215 42.9951C39.0215 42.4428 39.4692 41.9951 40.0215 41.9951C40.5738 41.9951 41.0215 42.4428 41.0215 42.9951ZM47.2832 45.2354C47.8355 45.2354 48.2832 44.7876 48.2832 44.2354C48.2832 43.6831 47.8355 43.2354 47.2832 43.2354C46.7309 43.2354 46.2832 43.6831 46.2832 44.2354C46.2832 44.7876 46.7309 45.2354 47.2832 45.2354ZM54.1172 43.2666C54.1172 43.8189 53.6695 44.2666 53.1172 44.2666C52.5649 44.2666 52.1172 43.8189 52.1172 43.2666C52.1172 42.7143 52.5649 42.2666 53.1172 42.2666C53.6695 42.2666 54.1172 42.7143 54.1172 43.2666ZM86.9844 23.9785C86.9844 24.5308 86.5367 24.9785 85.9844 24.9785C85.4321 24.9785 84.9844 24.5308 84.9844 23.9785C84.9844 23.4262 85.4321 22.9785 85.9844 22.9785C86.5367 22.9785 86.9844 23.4262 86.9844 23.9785ZM79.4961 27.2949C79.4961 27.8472 79.0484 28.2949 78.4961 28.2949C77.9438 28.2949 77.4961 27.8472 77.4961 27.2949C77.4961 26.7426 77.9438 26.2949 78.4961 26.2949C79.0484 26.2949 79.4961 26.7426 79.4961 27.2949ZM71.7734 30.541C72.3257 30.541 72.7734 30.0933 72.7734 29.541C72.7734 28.9887 72.3257 28.541 71.7734 28.541C71.2212 28.541 70.7734 28.9887 70.7734 29.541C70.7734 30.0933 71.2212 30.541 71.7734 30.541ZM68.0176 34.5918C68.0176 35.1441 67.5699 35.5918 67.0176 35.5918C66.4653 35.5918 66.0176 35.1441 66.0176 34.5918C66.0176 34.0395 66.4653 33.5918 67.0176 33.5918C67.5699 33.5918 68.0176 34.0395 68.0176 34.5918ZM63.3711 41.0908C63.9234 41.0908 64.3711 40.6431 64.3711 40.0908C64.3711 39.5385 63.9234 39.0908 63.3711 39.0908C62.8188 39.0908 62.3711 39.5385 62.3711 40.0908C62.3711 40.6431 62.8188 41.0908 63.3711 41.0908ZM59.6641 44.1934C59.6641 44.7456 59.2163 45.1934 58.6641 45.1934C58.1118 45.1934 57.6641 44.7456 57.6641 44.1934C57.6641 43.6411 58.1118 43.1934 58.6641 43.1934C59.2163 43.1934 59.6641 43.6411 59.6641 44.1934ZM33.5371 44.8398C33.5371 45.3921 33.0894 45.8398 32.5371 45.8398C31.9848 45.8398 31.5371 45.3921 31.5371 44.8398C31.5371 44.2876 31.9848 43.8398 32.5371 43.8398C33.0894 43.8398 33.5371 44.2876 33.5371 44.8398ZM23.4922 47.6738C24.0445 47.6738 24.4922 47.2261 24.4922 46.6738C24.4922 46.1215 24.0445 45.6738 23.4922 45.6738C22.9399 45.6738 22.4922 46.1215 22.4922 46.6738C22.4922 47.2261 22.9399 47.6738 23.4922 47.6738ZM15.0781 53.0068C15.6304 53.0068 16.0781 52.5591 16.0781 52.0068C16.0781 51.4546 15.6304 51.0068 15.0781 51.0068C14.5258 51.0068 14.0781 51.4546 14.0781 52.0068C14.0781 52.5591 14.5258 53.0068 15.0781 53.0068ZM40.0215 47.6738C40.5738 47.6738 41.0215 47.2261 41.0215 46.6738C41.0215 46.1215 40.5738 45.6738 40.0215 45.6738C39.4692 45.6738 39.0215 46.1215 39.0215 46.6738C39.0215 47.2261 39.4692 47.6738 40.0215 47.6738ZM48.2832 47.9141C48.2832 48.4663 47.8355 48.9141 47.2832 48.9141C46.7309 48.9141 46.2832 48.4663 46.2832 47.9141C46.2832 47.3618 46.7309 46.9141 47.2832 46.9141C47.8355 46.9141 48.2832 47.3618 48.2832 47.9141ZM53.1172 47.9453C53.6695 47.9453 54.1172 47.4976 54.1172 46.9453C54.1172 46.393 53.6695 45.9453 53.1172 45.9453C52.5649 45.9453 52.1172 46.393 52.1172 46.9453C52.1172 47.4976 52.5649 47.9453 53.1172 47.9453ZM85.9844 28.6562C86.5367 28.6562 86.9844 28.2085 86.9844 27.6562C86.9844 27.104 86.5367 26.6562 85.9844 26.6562C85.4321 26.6562 84.9844 27.104 84.9844 27.6562C84.9844 28.2085 85.4321 28.6562 85.9844 28.6562ZM80.0098 32.2559C80.0098 32.8081 79.562 33.2559 79.0098 33.2559C78.4575 33.2559 78.0098 32.8081 78.0098 32.2559C78.0098 31.7036 78.4575 31.2559 79.0098 31.2559C79.562 31.2559 80.0098 31.7036 80.0098 32.2559ZM72.2871 35.502C72.8394 35.502 73.2871 35.0542 73.2871 34.502C73.2871 33.9497 72.8394 33.502 72.2871 33.502C71.7348 33.502 71.2871 33.9497 71.2871 34.502C71.2871 35.0542 71.7348 35.502 72.2871 35.502ZM68.5312 39.5527C68.5312 40.105 68.0835 40.5527 67.5312 40.5527C66.979 40.5527 66.5312 40.105 66.5312 39.5527C66.5312 39.0005 66.979 38.5527 67.5312 38.5527C68.0835 38.5527 68.5312 39.0005 68.5312 39.5527ZM63.8848 46.0518C64.437 46.0518 64.8848 45.604 64.8848 45.0518C64.8848 44.4995 64.437 44.0518 63.8848 44.0518C63.3325 44.0518 62.8848 44.4995 62.8848 45.0518C62.8848 45.604 63.3325 46.0518 63.8848 46.0518ZM60.1777 49.1543C60.1777 49.7066 59.73 50.1543 59.1777 50.1543C58.6255 50.1543 58.1777 49.7066 58.1777 49.1543C58.1777 48.602 58.6255 48.1543 59.1777 48.1543C59.73 48.1543 60.1777 48.602 60.1777 49.1543ZM34.0508 49.8008C34.0508 50.3531 33.6031 50.8008 33.0508 50.8008C32.4985 50.8008 32.0508 50.3531 32.0508 49.8008C32.0508 49.2485 32.4985 48.8008 33.0508 48.8008C33.6031 48.8008 34.0508 49.2485 34.0508 49.8008ZM24.0078 52.6348C24.5601 52.6348 25.0078 52.187 25.0078 51.6348C25.0078 51.0825 24.5601 50.6348 24.0078 50.6348C23.4555 50.6348 23.0078 51.0825 23.0078 51.6348C23.0078 52.187 23.4555 52.6348 24.0078 52.6348ZM15.5918 57.9678C16.1441 57.9678 16.5918 57.5201 16.5918 56.9678C16.5918 56.4155 16.1441 55.9678 15.5918 55.9678C15.0395 55.9678 14.5918 56.4155 14.5918 56.9678C14.5918 57.5201 15.0395 57.9678 15.5918 57.9678ZM40.5352 52.6348C41.0874 52.6348 41.5352 52.187 41.5352 51.6348C41.5352 51.0825 41.0874 50.6348 40.5352 50.6348C39.9829 50.6348 39.5352 51.0825 39.5352 51.6348C39.5352 52.187 39.9829 52.6348 40.5352 52.6348ZM48.7969 52.875C48.7969 53.4273 48.3492 53.875 47.7969 53.875C47.2446 53.875 46.7969 53.4273 46.7969 52.875C46.7969 52.3227 47.2446 51.875 47.7969 51.875C48.3492 51.875 48.7969 52.3227 48.7969 52.875ZM53.6309 52.9062C54.1831 52.9062 54.6309 52.4585 54.6309 51.9062C54.6309 51.354 54.1831 50.9062 53.6309 50.9062C53.0786 50.9062 52.6309 51.354 52.6309 51.9062C52.6309 52.4585 53.0786 52.9062 53.6309 52.9062ZM86.4961 33.6172C87.0484 33.6172 87.4961 33.1695 87.4961 32.6172C87.4961 32.0649 87.0484 31.6172 86.4961 31.6172C85.9438 31.6172 85.4961 32.0649 85.4961 32.6172C85.4961 33.1695 85.9438 33.6172 86.4961 33.6172ZM81.834 38.8691C81.834 39.4214 81.3863 39.8691 80.834 39.8691C80.2817 39.8691 79.834 39.4214 79.834 38.8691C79.834 38.3169 80.2817 37.8691 80.834 37.8691C81.3863 37.8691 81.834 38.3169 81.834 38.8691ZM74.1113 42.1152C74.6636 42.1152 75.1113 41.6675 75.1113 41.1152C75.1113 40.563 74.6636 40.1152 74.1113 40.1152C73.559 40.1152 73.1113 40.563 73.1113 41.1152C73.1113 41.6675 73.559 42.1152 74.1113 42.1152ZM70.3555 46.166C70.3555 46.7183 69.9078 47.166 69.3555 47.166C68.8032 47.166 68.3555 46.7183 68.3555 46.166C68.3555 45.6137 68.8032 45.166 69.3555 45.166C69.9078 45.166 70.3555 45.6137 70.3555 46.166ZM65.709 52.665C66.2613 52.665 66.709 52.2173 66.709 51.665C66.709 51.1128 66.2613 50.665 65.709 50.665C65.1567 50.665 64.709 51.1128 64.709 51.665C64.709 52.2173 65.1567 52.665 65.709 52.665ZM62.002 55.7676C62.002 56.3199 61.5542 56.7676 61.002 56.7676C60.4497 56.7676 60.002 56.3199 60.002 55.7676C60.002 55.2153 60.4497 54.7676 61.002 54.7676C61.5542 54.7676 62.002 55.2153 62.002 55.7676ZM35.875 56.4141C35.875 56.9663 35.4273 57.4141 34.875 57.4141C34.3227 57.4141 33.875 56.9663 33.875 56.4141C33.875 55.8618 34.3227 55.4141 34.875 55.4141C35.4273 55.4141 35.875 55.8618 35.875 56.4141ZM25.832 59.248C26.3843 59.248 26.832 58.8003 26.832 58.248C26.832 57.6958 26.3843 57.248 25.832 57.248C25.2797 57.248 24.832 57.6958 24.832 58.248C24.832 58.8003 25.2797 59.248 25.832 59.248ZM17.416 64.5811C17.9683 64.5811 18.416 64.1333 18.416 63.5811C18.416 63.0288 17.9683 62.5811 17.416 62.5811C16.8637 62.5811 16.416 63.0288 16.416 63.5811C16.416 64.1333 16.8637 64.5811 17.416 64.5811ZM42.3594 59.248C42.9117 59.248 43.3594 58.8003 43.3594 58.248C43.3594 57.6958 42.9117 57.248 42.3594 57.248C41.8071 57.248 41.3594 57.6958 41.3594 58.248C41.3594 58.8003 41.8071 59.248 42.3594 59.248ZM50.6211 59.4883C50.6211 60.0406 50.1734 60.4883 49.6211 60.4883C49.0688 60.4883 48.6211 60.0406 48.6211 59.4883C48.6211 58.936 49.0688 58.4883 49.6211 58.4883C50.1734 58.4883 50.6211 58.936 50.6211 59.4883ZM55.4551 59.5195C56.0074 59.5195 56.4551 59.0718 56.4551 58.5195C56.4551 57.9672 56.0074 57.5195 55.4551 57.5195C54.9028 57.5195 54.4551 57.9672 54.4551 58.5195C54.4551 59.0718 54.9028 59.5195 55.4551 59.5195ZM88.3203 40.2305C88.8726 40.2305 89.3203 39.7828 89.3203 39.2305C89.3203 38.6782 88.8726 38.2305 88.3203 38.2305C87.768 38.2305 87.3203 38.6782 87.3203 39.2305C87.3203 39.7828 87.768 40.2305 88.3203 40.2305ZM85.4336 48.1387C85.9859 48.1387 86.4336 47.691 86.4336 47.1387C86.4336 46.5864 85.9859 46.1387 85.4336 46.1387C84.8813 46.1387 84.4336 46.5864 84.4336 47.1387C84.4336 47.691 84.8813 48.1387 85.4336 48.1387ZM79.7109 49.3848C79.7109 49.937 79.2632 50.3848 78.7109 50.3848C78.1587 50.3848 77.7109 49.937 77.7109 49.3848C77.7109 48.8325 78.1587 48.3848 78.7109 48.3848C79.2632 48.3848 79.7109 48.8325 79.7109 49.3848ZM73.9551 55.4355C74.5074 55.4355 74.9551 54.9878 74.9551 54.4355C74.9551 53.8833 74.5074 53.4355 73.9551 53.4355C73.4028 53.4355 72.9551 53.8833 72.9551 54.4355C72.9551 54.9878 73.4028 55.4355 73.9551 55.4355ZM71.3086 59.9346C71.3086 60.4869 70.8609 60.9346 70.3086 60.9346C69.7563 60.9346 69.3086 60.4869 69.3086 59.9346C69.3086 59.3823 69.7563 58.9346 70.3086 58.9346C70.8609 58.9346 71.3086 59.3823 71.3086 59.9346ZM65.6016 65.0371C66.1538 65.0371 66.6016 64.5894 66.6016 64.0371C66.6016 63.4848 66.1538 63.0371 65.6016 63.0371C65.0493 63.0371 64.6016 63.4848 64.6016 64.0371C64.6016 64.5894 65.0493 65.0371 65.6016 65.0371ZM39.4746 65.6836C40.0269 65.6836 40.4746 65.2359 40.4746 64.6836C40.4746 64.1313 40.0269 63.6836 39.4746 63.6836C38.9223 63.6836 38.4746 64.1313 38.4746 64.6836C38.4746 65.2359 38.9223 65.6836 39.4746 65.6836ZM31.4297 66.5176C31.4297 67.0699 30.982 67.5176 30.4297 67.5176C29.8774 67.5176 29.4297 67.0699 29.4297 66.5176C29.4297 65.9653 29.8774 65.5176 30.4297 65.5176C30.982 65.5176 31.4297 65.9653 31.4297 66.5176ZM23.0156 71.8506C23.0156 72.4029 22.5679 72.8506 22.0156 72.8506C21.4633 72.8506 21.0156 72.4029 21.0156 71.8506C21.0156 71.2983 21.4633 70.8506 22.0156 70.8506C22.5679 70.8506 23.0156 71.2983 23.0156 71.8506ZM47.959 66.5176C47.959 67.0699 47.5113 67.5176 46.959 67.5176C46.4067 67.5176 45.959 67.0699 45.959 66.5176C45.959 65.9653 46.4067 65.5176 46.959 65.5176C47.5113 65.5176 47.959 65.9653 47.959 66.5176ZM54.2207 68.7578C54.773 68.7578 55.2207 68.3101 55.2207 67.7578C55.2207 67.2055 54.773 66.7578 54.2207 66.7578C53.6684 66.7578 53.2207 67.2055 53.2207 67.7578C53.2207 68.3101 53.6684 68.7578 54.2207 68.7578ZM61.0547 66.7891C61.0547 67.3413 60.607 67.7891 60.0547 67.7891C59.5024 67.7891 59.0547 67.3413 59.0547 66.7891C59.0547 66.2368 59.5024 65.7891 60.0547 65.7891C60.607 65.7891 61.0547 66.2368 61.0547 66.7891ZM93.9219 47.5C93.9219 48.0523 93.4742 48.5 92.9219 48.5C92.3696 48.5 91.9219 48.0523 91.9219 47.5C91.9219 46.9477 92.3696 46.5 92.9219 46.5C93.4742 46.5 93.9219 46.9477 93.9219 47.5Z" fill="url(#paint0_linear_6048_174043)"/>
<rect x="0.5" y="0.5" width="107" height="89" rx="3.5" stroke="#86AFFE"/>
<defs>
<linearGradient id="paint0_linear_6048_174043" x1="14.0781" y1="17.1494" x2="66.3537" y2="92.0829" gradientUnits="userSpaceOnUse">
<stop stop-color="#57CCEF"/>
<stop offset="1" stop-color="#86E5C9"/>
</linearGradient>
</defs>
</svg>
