<svg width="110" height="90" viewBox="0 0 110 90" fill="none" xmlns="http://www.w3.org/2000/svg">
<g clip-path="url(#clip0_6590_176135)">
<rect width="110" height="90" rx="2" fill="black"/>
<path fill-rule="evenodd" clip-rule="evenodd" d="M55.2917 27.6923C55.2917 34.248 50.0179 39.5385 43.5417 39.5385C37.0654 39.5385 31.7917 34.248 31.7917 27.6923C31.7917 21.1367 37.0654 15.8462 43.5417 15.8462C50.0179 15.8462 55.2917 21.1367 55.2917 27.6923ZM57.2917 27.6923C57.2917 35.3394 51.1356 41.5385 43.5417 41.5385C35.9478 41.5385 29.7917 35.3394 29.7917 27.6923C29.7917 20.0453 35.9478 13.8462 43.5417 13.8462C51.1356 13.8462 57.2917 20.0453 57.2917 27.6923ZM75.9099 36.8919C76.7042 36.0106 78.0867 36.0106 78.8811 36.8919L110.453 71.9195C110.823 72.3298 111.455 72.3626 111.865 71.9928C112.275 71.6231 112.308 70.9907 111.938 70.5805L80.3667 35.5528C78.778 33.7902 76.013 33.7902 74.4243 35.5528L45.0608 68.1305C44.2713 69.0064 42.8992 69.0126 42.1018 68.1438L24.7446 49.232C23.1595 47.505 20.4358 47.505 18.8507 49.232L-0.736734 70.5738C-1.11018 70.9807 -1.08306 71.6133 -0.676171 71.9868C-0.269281 72.3602 0.363303 72.3331 0.736745 71.9262L20.3242 50.5844C21.1167 49.7209 22.4786 49.7209 23.2711 50.5844L40.6283 69.4962C42.2231 71.2338 44.9674 71.2214 46.5464 69.4695L75.9099 36.8919Z" fill="url(#paint0_linear_6590_176135)"/>
</g>
<rect x="0.5" y="0.5" width="109" height="89" rx="1.5" stroke="#86AFFE"/>
<defs>
<linearGradient id="paint0_linear_6590_176135" x1="-1" y1="13.8462" x2="46.5968" y2="106.096" gradientUnits="userSpaceOnUse">
<stop stop-color="#57CCEF"/>
<stop offset="1" stop-color="#86E5C9"/>
</linearGradient>
<clipPath id="clip0_6590_176135">
<rect width="110" height="90" rx="2" fill="white"/>
</clipPath>
</defs>
</svg>
