<svg width="16" height="16" viewBox="0 0 16 16" fill="none" xmlns="http://www.w3.org/2000/svg">
<path d="M11.6362 8.87334C11.3171 6.31665 9.13327 4.33819 6.48693 4.33819C3.84058 4.33819 1.65676 6.31665 1.3376 8.87334H4.31056C4.5895 7.93667 5.45842 7.25364 6.48693 7.25364C7.51543 7.25364 8.38435 7.93667 8.66329 8.87334H11.6362ZM11.6362 10.1691H8.66329C8.5552 10.5299 8.359 10.8583 8.09234 11.1246C7.82567 11.3909 7.49691 11.5869 7.13562 11.6948V14.6641C9.48307 14.3717 11.3435 12.5136 11.6362 10.1691ZM1.3376 10.1691C1.63033 12.5136 3.49078 14.3717 5.83823 14.6641V11.6948C5.47694 11.5869 5.14818 11.3909 4.88151 11.1246C4.61485 10.8583 4.41865 10.5299 4.31056 10.1691H1.3376ZM6.48693 16C2.90436 16 0 13.0993 0 9.52122C0 5.94315 2.90436 3.04244 6.48693 3.04244C10.0695 3.04244 12.9739 5.94315 12.9739 9.52122C12.9739 13.0993 10.0695 16 6.48693 16ZM16 4.97149L14.7432 5.29284C14.2566 3.39504 12.8324 1.85957 10.9798 1.22579L11.4001 0C13.6657 0.775024 15.405 2.64982 16 4.97166V4.97149ZM13.803 5.08601L12.6514 5.6827C12.1409 4.70103 11.3626 3.88371 10.4065 3.32523L11.0612 2.20651C12.229 2.8886 13.1796 3.88692 13.803 5.08601ZM6.48693 10.493C6.74499 10.493 6.99249 10.3906 7.17497 10.2084C7.35745 10.0261 7.45996 9.77896 7.45996 9.52122C7.45996 9.26348 7.35745 9.01629 7.17497 8.83404C6.99249 8.65179 6.74499 8.5494 6.48693 8.5494C6.22886 8.5494 5.98136 8.65179 5.79888 8.83404C5.6164 9.01629 5.51389 9.26348 5.51389 9.52122C5.51389 9.77896 5.6164 10.0261 5.79888 10.2084C5.98136 10.3906 6.22886 10.493 6.48693 10.493Z" fill="#57CCEF"/>
</svg>
