<svg width="16" height="17" viewBox="0 0 16 17" fill="none" xmlns="http://www.w3.org/2000/svg">
<path fill-rule="evenodd" clip-rule="evenodd" d="M8 16.5C12.4183 16.5 16 12.9183 16 8.5C16 4.08172 12.4183 0.5 8 0.5C3.58172 0.5 0 4.08172 0 8.5C0 12.9183 3.58172 16.5 8 16.5ZM9 3.5C9 4.05228 8.55229 4.5 8 4.5C7.44772 4.5 7 4.05228 7 3.5C7 2.94772 7.44772 2.5 8 2.5C8.55229 2.5 9 2.94772 9 3.5ZM8 6.5C8.55229 6.5 9 6.94772 9 7.5V13.5C9 14.0523 8.55229 14.5 8 14.5C7.44772 14.5 7 14.0523 7 13.5V7.5C7 6.94772 7.44772 6.5 8 6.5Z" fill="#FAE69E"/>
</svg>
