<svg width="16" height="16" viewBox="0 0 16 16" fill="none" xmlns="http://www.w3.org/2000/svg">
    <circle cx="8" cy="8" r="8" fill="#F8827B" />
    <path
        d="M7.9987 3C6.67296 3 5.40152 3.52665 4.46408 4.46408C3.52665 5.40152 3 6.67296 3 7.9987L3 12.5027C3 12.6353 3.05266 12.7625 3.14641 12.8562C3.24015 12.9499 3.3673 13.0026 3.49987 13.0026H7.9987C9.32513 13.0026 10.5972 12.4757 11.5352 11.5378C12.4731 10.5998 13 9.32773 13 8.0013C13 6.67487 12.4731 5.40277 11.5352 4.46485C10.5972 3.52692 9.32513 3 7.9987 3V3Z"
        fill="white"
    />
    <path
        d="M10.3335 8.49821C10.1967 8.49821 10.063 8.45766 9.94933 8.38167C9.83562 8.30569 9.74698 8.19769 9.69464 8.07133C9.6423 7.94498 9.62861 7.80595 9.6553 7.67182C9.68198 7.53768 9.74785 7.41448 9.84455 7.31778C9.94126 7.22107 10.0645 7.1552 10.1986 7.12852C10.3327 7.10184 10.4718 7.11553 10.5981 7.16787C10.7245 7.2202 10.8325 7.30884 10.9084 7.42256C10.9844 7.53627 11.025 7.66996 11.025 7.80673C11.0247 7.99004 10.9518 8.16574 10.8221 8.29536C10.6925 8.42498 10.5168 8.49794 10.3335 8.49821ZM5.3348 8.49821C5.19804 8.49821 5.06435 8.45766 4.95063 8.38167C4.83692 8.30569 4.74829 8.19769 4.69596 8.07133C4.64362 7.94498 4.62991 7.80595 4.65659 7.67182C4.68328 7.53768 4.74914 7.41448 4.84585 7.31778C4.94256 7.22107 5.06577 7.1552 5.1999 7.12852C5.33404 7.10184 5.47307 7.11553 5.59942 7.16787C5.72577 7.2202 5.83376 7.30884 5.90975 7.42256C5.98573 7.53627 6.02629 7.66996 6.02629 7.80673C6.02601 7.98968 5.95336 8.16507 5.82419 8.29463C5.69502 8.42419 5.51983 8.49739 5.33688 8.49821H5.3348ZM7.94766 8.49821C7.8109 8.49821 7.67721 8.45766 7.5635 8.38167C7.44978 8.30569 7.36114 8.19769 7.3088 8.07133C7.25647 7.94498 7.24278 7.80595 7.26946 7.67182C7.29614 7.53768 7.36201 7.41448 7.45871 7.31778C7.55542 7.22107 7.67862 7.1552 7.81275 7.12852C7.94689 7.10184 8.08593 7.11553 8.21229 7.16787C8.33864 7.2202 8.44663 7.30884 8.52261 7.42256C8.59859 7.53627 8.63915 7.66996 8.63915 7.80673C8.63888 7.98968 8.56623 8.16507 8.43706 8.29463C8.30789 8.42419 8.13269 8.49739 7.94974 8.49821H7.94766Z"
        fill="#F8827B"
    />
</svg>
