<svg
    xmlns="http://www.w3.org/2000/svg"
    xmlns:xlink="http://www.w3.org/1999/xlink"
    aria-hidden="true"
    role="img"
    id="footer-sample-full"
    width="1em"
    height="1em"
    preserveAspectRatio="xMidYMid meet"
    viewBox="0 0 256 256"
    class="iconify iconify--ph"
>
    <path
        fill="currentColor"
        d="M180 146h-22v-36h22a34 34 0 1 0-34-34v22h-36V76a34 34 0 1 0-34 34h22v36H76a34 34 0 1 0 34 34v-22h36v22a34 34 0 1 0 34-34Zm-22-70a22 22 0 1 1 22 22h-22ZM54 76a22 22 0 0 1 44 0v22H76a22.1 22.1 0 0 1-22-22Zm44 104a22 22 0 1 1-22-22h22Zm12-70h36v36h-36Zm70 92a22.1 22.1 0 0 1-22-22v-22h22a22 22 0 0 1 0 44Z"
    ></path>
</svg>
