<svg width="17" height="31" viewBox="0 0 17 31" fill="none" xmlns="http://www.w3.org/2000/svg">
<path d="M8.5 0.5C6.37827 0.5 4.34344 1.34285 2.84315 2.84315C1.34285 4.34344 0.5 6.37827 0.5 8.5L0.5 15.7C0.5 15.9122 0.584285 16.1157 0.734315 16.2657C0.884344 16.4157 1.08783 16.5 1.3 16.5H8.5C10.6217 16.5 12.6566 15.6571 14.1569 14.1569C15.6571 12.6566 16.5 10.6217 16.5 8.5C16.5 6.37827 15.6571 4.34344 14.1569 2.84315C12.6566 1.34285 10.6217 0.5 8.5 0.5V0.5Z" fill="#57CCEF" stroke="#E6F7FD"/>
<path d="M8.45499 7.303V7.803H8.95499H11.432H11.4407L11.4494 7.8027C11.4931 7.80117 11.5367 7.80847 11.5776 7.82416C11.6184 7.83985 11.6557 7.8636 11.6872 7.89401L12.0345 7.53436L11.6872 7.89401C11.7187 7.92441 11.7437 7.96084 11.7608 8.00113C11.7779 8.04142 11.7867 8.08473 11.7867 8.1285C11.7867 8.17227 11.7779 8.21558 11.7608 8.25587C11.7437 8.29616 11.7187 8.33259 11.6872 8.36299L12.0345 8.72264L11.6872 8.36299C11.6557 8.3934 11.6184 8.41715 11.5776 8.43284C11.5367 8.44852 11.4931 8.45582 11.4494 8.4543L11.4407 8.454H11.432H8.95399H8.45399V8.954V11.431V11.4397L8.45429 11.4484C8.45581 11.4921 8.44851 11.5357 8.43283 11.5766C8.41714 11.6174 8.39338 11.6547 8.36298 11.6862C8.33258 11.7177 8.29614 11.7427 8.25586 11.7598C8.21557 11.7769 8.17225 11.7857 8.12849 11.7857C8.08472 11.7857 8.0414 11.7769 8.00112 11.7598C7.96083 11.7427 7.9244 11.7177 7.89399 11.6862C7.86359 11.6547 7.83984 11.6174 7.82415 11.5766C7.80846 11.5357 7.80116 11.4921 7.80269 11.4484L7.80299 11.4397V11.431V8.954V8.454H7.30299H4.82599H4.81729L4.80859 8.4543C4.76485 8.45582 4.72126 8.44852 4.6804 8.43284C4.63954 8.41715 4.60226 8.3934 4.57078 8.36299C4.5393 8.33259 4.51426 8.29616 4.49716 8.25587C4.48006 8.21558 4.47125 8.17227 4.47125 8.1285C4.47125 8.08473 4.48006 8.04142 4.49716 8.00113C4.51426 7.96084 4.5393 7.92441 4.57078 7.89401C4.60226 7.8636 4.63954 7.83985 4.6804 7.82416C4.72126 7.80847 4.76486 7.80117 4.80859 7.8027L4.81729 7.803H4.82599H7.30299H7.80299V7.303V4.826C7.80299 4.78319 7.81142 4.7408 7.8278 4.70125C7.84419 4.66169 7.8682 4.62575 7.89847 4.59548C7.92874 4.56521 7.96468 4.5412 8.00423 4.52482C8.04379 4.50843 8.08618 4.5 8.12899 4.5C8.21545 4.5 8.29837 4.53435 8.3595 4.59548C8.42064 4.65662 8.45499 4.73954 8.45499 4.826V7.303Z" fill="white" stroke="#E6F7FD"/>
<path d="M8.67201 23.3193L11.344 27.9513L7.85501 30.0723L5.08501 25.2643L2.25101 28.0103L1.49802 15.4023L12.034 22.3613L8.67201 23.3193Z" fill="black" stroke="white"/>
</svg>
