<svg width="20" height="20" viewBox="0 0 20 20" fill="none" xmlns="http://www.w3.org/2000/svg">
<circle cx="10" cy="10" r="10" fill="#CCCCCC"/>
<mask id="mask0_15520_206956" style="mask-type:alpha" maskUnits="userSpaceOnUse" x="0" y="0" width="20" height="20">
<circle cx="10" cy="10" r="10" fill="#CCCCCC"/>
</mask>
<g mask="url(#mask0_15520_206956)">
<path d="M17 17.5C17 17.5 15 15 13 14.7969L11.9763 14.9999C11.9763 14.9999 11.7278 16.2182 9.98817 16.2859C8.24852 16.3536 8 14.9999 8 14.9999L7.08876 14.7969C7.08876 14.7969 4 15.5 3 18C3 18 9.5 25.0034 17 17.5Z" fill="#95949D"/>
</g>
<path d="M11.3579 14.9658C11.3579 14.9658 9.99992 17 8.49992 14.9997C8.49992 14.9997 10.4467 15.1689 11.3579 14.9658Z" fill="#95949D"/>
<path fill-rule="evenodd" clip-rule="evenodd" d="M9.90229 14.6561C13.121 14.6561 15.7304 12.0468 15.7304 8.82807C15.7304 7.84866 15.4888 6.92568 15.0619 6.11546C15.169 5.72267 15.3661 4.99489 15.5933 4.13163C15.9361 2.82888 14.8391 3.13743 14.8391 3.13743L12.7149 3.72235C11.881 3.26199 10.9222 3 9.90229 3C6.68353 3 4.07422 5.60932 4.07422 8.82807C4.07422 12.0468 6.68353 14.6561 9.90229 14.6561ZM7.67392 10.0626C6.98826 10.0626 7.15968 10.4054 7.15968 10.4054C9.59375 13.4223 12.1992 11.0911 12.5078 10.6111C12.8163 10.1312 12.3364 10.0626 12.3364 10.0626H7.67392ZM7.34813 8.27913C7.67947 8.27913 7.94807 8.01053 7.94807 7.67918C7.94807 7.34784 7.67947 7.07924 7.34813 7.07924C7.01678 7.07924 6.74818 7.34784 6.74818 7.67918C6.74818 8.01053 7.01678 8.27913 7.34813 8.27913ZM13.022 7.67918C13.022 8.01053 12.7534 8.27913 12.4221 8.27913C12.0907 8.27913 11.8221 8.01053 11.8221 7.67918C11.8221 7.34784 12.0907 7.07924 12.4221 7.07924C12.7534 7.07924 13.022 7.34784 13.022 7.67918Z" fill="#95949D"/>
</svg>
