<svg width="201" height="114" viewBox="0 0 201 114" fill="none" xmlns="http://www.w3.org/2000/svg">
<path d="M100.39 167.646C155.883 167.646 200.868 144.046 200.868 114.934C200.868 85.821 155.883 62.2207 100.39 62.2207C44.8976 62.2207 -0.0878906 85.821 -0.0878906 114.934C-0.0878906 144.046 44.8976 167.646 100.39 167.646Z" fill="url(#paint0_linear_11045_184122)"/>
<g opacity="0.55">
<path d="M43.8294 34.5323C41.0102 23.8389 38.3232 13.5004 31.5395 12.3911C24.7558 11.2818 18.5447 34.4435 18.0161 36.5734C17.4875 38.6588 45.6795 41.4098 43.8294 34.5323Z" fill="url(#paint1_linear_11045_184122)"/>
<path d="M31.1872 24.2824C29.1609 16.6062 27.3108 9.24058 22.3772 8.4419C17.4877 7.64322 13.0827 24.2824 12.6422 25.791C12.3338 27.2552 32.4206 29.2076 31.1872 24.2824Z" fill="url(#paint2_linear_11045_184122)"/>
<path d="M64.5772 33.2459C60.877 19.4909 57.5292 6.17959 48.8513 4.80408C40.1735 3.42858 32.1123 33.1572 31.4516 35.8638C30.7468 38.5705 66.9118 42.0758 64.5772 33.2459Z" fill="url(#paint3_linear_11045_184122)"/>
</g>
<path opacity="0.3" d="M68.1895 88.6537L128.053 87.8994L162.412 106.092L123.472 140.213L68.1895 88.6537Z" fill="url(#paint4_linear_11045_184122)" fill-opacity="0.2"/>
<path d="M74.0923 82.3202C74.0923 82.3202 73.2554 75.7532 68.2337 71.9373L66.736 72.6029L67.617 71.4049C67.617 71.4049 64.0489 68.4764 61.7583 69.8519C60.4809 70.6062 61.2297 74.1115 64.0049 78.948L65.2823 78.8149L64.3573 79.791C64.3573 79.791 65.899 84.5387 69.9516 85.5593L72.1541 84.1838L74.0923 82.3202Z" fill="url(#paint5_linear_11045_184122)"/>
<path d="M72.1536 84.14C71.6691 83.0307 71.1405 81.9215 70.5238 80.8566C68.7618 77.6618 65.8104 72.4261 61.7578 69.8525" fill="url(#paint6_linear_11045_184122)"/>
<path d="M72.1536 84.14C71.6691 83.0307 71.1405 81.9215 70.5238 80.8566C68.7618 77.6618 65.8104 72.4261 61.7578 69.8525" stroke="#AAD0FF" stroke-miterlimit="10" stroke-linecap="round"/>
<path d="M67.1319 75.3543C67.1319 75.3543 65.1056 74.2893 63.3877 75.5761" stroke="#AAD0FF" stroke-miterlimit="10" stroke-linecap="round"/>
<path d="M65.8545 81.5653C68.2332 79.6573 70.4357 80.6335 70.4357 80.6335" stroke="#AAD0FF" stroke-miterlimit="10" stroke-linecap="round"/>
<path d="M69.6436 79.2588C69.6436 79.2588 68.1459 76.1972 68.6745 73.0469" stroke="#AAD0FF" stroke-miterlimit="10" stroke-linecap="round"/>
<path d="M57.4404 75.4873C57.4404 75.4873 58.9822 85.7814 69.2458 86.6688L71.5364 83.9622C71.5364 84.0066 58.5417 77.3065 57.4404 75.4873Z" fill="#AAD0FF"/>
<path d="M71.5364 84.0065C71.5364 84.0065 69.0696 80.1906 63.4312 78.2383C63.4312 78.2383 59.0262 76.9959 57.4404 75.4873C59.0262 77.6171 61.2287 79.1257 63.7396 79.88C63.7396 79.88 63.2991 80.1906 60.7001 79.2145C60.7001 79.2145 64.2241 83.7403 70.1268 84.9383L71.5364 84.0065Z" fill="#63A6F9"/>
<path fill-rule="evenodd" clip-rule="evenodd" d="M73.96 43.7617H122.239V59.2472H73.96V43.7617Z" fill="url(#paint7_linear_11045_184122)"/>
<path fill-rule="evenodd" clip-rule="evenodd" d="M67.1764 53.1683L79.9509 32.9795V48.3763L66.9121 78.1049V54.1001C66.9121 53.7452 67.0002 53.4346 67.1764 53.1683Z" fill="url(#paint8_linear_11045_184122)"/>
<path fill-rule="evenodd" clip-rule="evenodd" d="M67.1764 54.4105L79.9509 34.2217V49.6184L66.9121 79.3471V55.3423C66.9121 55.0317 67.0002 54.7211 67.1764 54.4105Z" fill="url(#paint9_linear_11045_184122)"/>
<path d="M116.689 32.9795H79.9512V48.465H116.689V32.9795Z" fill="#8BBAF2"/>
<path d="M116.689 33.8223H79.9512V47.7548H116.689V33.8223Z" fill="url(#paint10_linear_11045_184122)"/>
<path fill-rule="evenodd" clip-rule="evenodd" d="M129.022 52.8134L116.688 32.9795V48.3763L129.287 77.7499V53.7452C129.287 53.3902 129.199 53.0796 129.022 52.8134Z" fill="#6098F1"/>
<path fill-rule="evenodd" clip-rule="evenodd" d="M129.022 53.8776L116.732 34.2656V49.6624L129.287 78.8142V54.8094C129.287 54.4545 129.199 54.1439 129.022 53.8776Z" fill="url(#paint11_linear_11045_184122)"/>
<path fill-rule="evenodd" clip-rule="evenodd" d="M129.304 53.6475V86.837C129.304 88.7006 127.807 90.2092 125.957 90.2092H70.2775C68.4274 90.2092 66.9297 88.7006 66.9297 86.837V53.6475H92.4787C92.4787 56.7978 95.0336 59.3713 98.1611 59.3713C101.289 59.3713 103.844 56.7978 103.844 53.6475H129.304Z" fill="#8BBAF2"/>
<mask id="mask0_11045_184122" style="mask-type:alpha" maskUnits="userSpaceOnUse" x="66" y="53" width="64" height="38">
<path fill-rule="evenodd" clip-rule="evenodd" d="M129.304 53.6475V86.837C129.304 88.7006 127.807 90.2092 125.957 90.2092H70.2775C68.4274 90.2092 66.9297 88.7006 66.9297 86.837V53.6475H92.4787C92.4787 56.7978 95.0336 59.3713 98.1611 59.3713C101.289 59.3713 103.844 56.7978 103.844 53.6475H129.304Z" fill="white"/>
</mask>
<g mask="url(#mask0_11045_184122)">
<path fill-rule="evenodd" clip-rule="evenodd" d="M129.304 54.4902V85.2838C129.304 87.1473 127.807 88.656 125.957 88.656H70.2775C68.4274 88.656 66.9297 87.1473 66.9297 85.2838V54.4902H92.4787C92.4787 57.6406 95.0336 60.2141 98.1611 60.2141C101.289 60.2141 103.844 57.6406 103.844 54.4902H129.304Z" fill="url(#paint12_linear_11045_184122)"/>
</g>
<path fill-rule="evenodd" clip-rule="evenodd" d="M90.3905 65.2812H106.645C108.891 65.2812 110.698 67.1005 110.698 69.3634C110.698 71.6263 108.891 73.4455 106.645 73.4455H90.3905C88.1439 73.4455 86.3379 71.6263 86.3379 69.3634C86.3379 67.1005 88.188 65.2812 90.3905 65.2812Z" fill="#8BBAF2"/>
<path fill-rule="evenodd" clip-rule="evenodd" d="M90.1262 65.0156H106.953C109.024 65.0156 110.742 66.7017 110.742 68.8315C110.742 70.917 109.068 72.6474 106.953 72.6474H90.1262C88.0558 72.6474 86.3379 70.9613 86.3379 68.8315C86.3379 66.7017 88.0558 65.0156 90.1262 65.0156Z" fill="url(#paint13_linear_11045_184122)"/>
<g opacity="0.8969">
<path opacity="0.5969" d="M38.6754 85.7808C40.1838 85.7808 41.4065 85.4034 41.4065 84.9378C41.4065 84.4722 40.1838 84.0947 38.6754 84.0947C37.1671 84.0947 35.9443 84.4722 35.9443 84.9378C35.9443 85.4034 37.1671 85.7808 38.6754 85.7808Z" fill="#85A0C7"/>
<path opacity="0.5765" fill-rule="evenodd" clip-rule="evenodd" d="M36.694 85.0715C37.7071 85.4709 42.3764 78.549 43.0372 76.7298C43.6979 74.8662 42.9931 72.8695 41.4073 72.2483C39.8215 71.6271 38.0155 72.6033 37.3107 74.4668C36.694 76.2861 35.6808 84.6722 36.694 85.0715Z" fill="url(#paint14_linear_11045_184122)"/>
<path fill-rule="evenodd" clip-rule="evenodd" d="M36.6936 85.0712C37.927 84.7606 37.7508 75.0434 37.1341 72.8692C36.5174 70.695 34.447 69.3195 32.5088 69.852C30.5706 70.3844 29.4694 72.5586 30.042 74.7328C30.6587 76.907 35.4602 85.4262 36.6936 85.0712Z" fill="url(#paint15_linear_11045_184122)"/>
</g>
<g opacity="0.8969">
<path opacity="0.5969" d="M155.012 72.9578C157.031 72.9578 158.668 72.4612 158.668 71.8485C158.668 71.2359 157.031 70.7393 155.012 70.7393C152.992 70.7393 151.355 71.2359 151.355 71.8485C151.355 72.4612 152.992 72.9578 155.012 72.9578Z" fill="#85A0C7"/>
<path opacity="0.5765" fill-rule="evenodd" clip-rule="evenodd" d="M152.37 72.0707C153.692 72.6032 159.991 63.3296 160.916 60.8448C161.841 58.36 160.872 55.6978 158.757 54.8547C156.643 54.0117 154.176 55.3428 153.295 57.8276C152.326 60.268 151.004 71.5383 152.37 72.0707Z" fill="url(#paint16_linear_11045_184122)"/>
<path fill-rule="evenodd" clip-rule="evenodd" d="M152.369 72.0708C154.043 71.6271 153.779 58.6264 152.986 55.6979C152.193 52.7694 149.418 50.9502 146.775 51.6157C144.132 52.2813 142.678 55.2542 143.471 58.1826C144.264 61.1111 150.695 72.5145 152.369 72.0708Z" fill="url(#paint17_linear_11045_184122)"/>
</g>
<path d="M77.088 14.3444C77.088 14.3444 73.0354 9.81854 73.4759 6.93442C73.9604 4.0503 76.6034 8.88675 77.132 10.6616C77.7047 12.8801 77.088 14.3444 77.088 14.3444Z" fill="url(#paint18_linear_11045_184122)"/>
<path d="M94.5761 8.75325C94.5761 8.75325 87.1317 5.64727 86.0745 1.96447C85.0173 -1.71833 91.0081 2.45256 92.5498 4.36051C94.488 6.71218 94.5761 8.75325 94.5761 8.75325Z" fill="url(#paint19_linear_11045_184122)"/>
<path d="M96.5579 21.221C96.5579 21.221 91.0516 21.9753 89.1134 20.1561C87.1752 18.3369 92.1969 18.7362 93.7387 19.313C95.809 19.9786 96.5579 21.221 96.5579 21.221Z" fill="url(#paint20_linear_11045_184122)"/>
<path d="M108.01 25.393C108.01 25.393 101.844 18.2936 102.548 13.9009C103.253 9.46377 107.394 16.9625 108.099 19.6691C109.024 23.2188 108.01 25.393 108.01 25.393Z" fill="url(#paint21_linear_11045_184122)"/>
<g opacity="0.55">
<path d="M163.954 38.3047C161.135 27.6113 158.448 17.2729 151.664 16.1636C144.881 15.0543 138.67 38.216 138.141 40.3458C137.613 42.4313 165.849 45.1823 163.954 38.3047Z" fill="url(#paint22_linear_11045_184122)"/>
<path d="M151.312 28.0548C149.286 20.3786 147.436 13.013 142.502 12.2144C137.613 11.4157 133.208 28.0548 132.767 29.5635C132.459 31.0277 152.546 32.98 151.312 28.0548Z" fill="url(#paint23_linear_11045_184122)"/>
</g>
<defs>
<linearGradient id="paint0_linear_11045_184122" x1="100.398" y1="30.7145" x2="100.398" y2="108.674" gradientUnits="userSpaceOnUse">
<stop stop-color="#515C7A"/>
<stop offset="1" stop-color="#393C45" stop-opacity="0"/>
</linearGradient>
<linearGradient id="paint1_linear_11045_184122" x1="30.9573" y1="38.9165" x2="30.9573" y2="12.3497" gradientUnits="userSpaceOnUse">
<stop stop-color="#5F82C1" stop-opacity="0"/>
<stop offset="1" stop-color="#5F82C1" stop-opacity="0.5"/>
</linearGradient>
<linearGradient id="paint2_linear_11045_184122" x1="21.94" y1="27.4269" x2="21.94" y2="8.42988" gradientUnits="userSpaceOnUse">
<stop stop-color="#5F82C1" stop-opacity="0"/>
<stop offset="1" stop-color="#5F82C1" stop-opacity="0.5"/>
</linearGradient>
<linearGradient id="paint3_linear_11045_184122" x1="48.0497" y1="38.8969" x2="48.0497" y2="4.79365" gradientUnits="userSpaceOnUse">
<stop stop-color="#5F82C1" stop-opacity="0"/>
<stop offset="1" stop-color="#5F82C1" stop-opacity="0.5"/>
</linearGradient>
<linearGradient id="paint4_linear_11045_184122" x1="25.0885" y1="21.9239" x2="141.319" y2="123.348" gradientUnits="userSpaceOnUse">
<stop stop-color="#5792F0"/>
<stop offset="1" stop-color="#BFD4FA" stop-opacity="0"/>
</linearGradient>
<linearGradient id="paint5_linear_11045_184122" x1="1964.2" y1="1214.3" x2="1956.94" y2="1213.73" gradientUnits="userSpaceOnUse">
<stop stop-color="#63A6F9"/>
<stop offset="1" stop-color="#92C1FC"/>
</linearGradient>
<linearGradient id="paint6_linear_11045_184122" x1="1633.99" y1="1486.78" x2="1628.05" y2="1486.91" gradientUnits="userSpaceOnUse">
<stop stop-color="#63A6F9"/>
<stop offset="1" stop-color="#92C1FC"/>
</linearGradient>
<linearGradient id="paint7_linear_11045_184122" x1="98.1009" y1="59.237" x2="98.1009" y2="39.9807" gradientUnits="userSpaceOnUse">
<stop stop-color="#BFD4FA"/>
<stop offset="1" stop-color="#5792F0"/>
</linearGradient>
<linearGradient id="paint8_linear_11045_184122" x1="66.9096" y1="55.537" x2="79.9409" y2="55.537" gradientUnits="userSpaceOnUse">
<stop stop-color="#BFD4FA"/>
<stop offset="1" stop-color="#5792F0"/>
</linearGradient>
<linearGradient id="paint9_linear_11045_184122" x1="79.9451" y1="56.808" x2="66.9129" y2="56.808" gradientUnits="userSpaceOnUse">
<stop stop-color="#BFD4FA"/>
<stop offset="1" stop-color="#5792F0"/>
</linearGradient>
<linearGradient id="paint10_linear_11045_184122" x1="98.3153" y1="33.8287" x2="98.3153" y2="47.7478" gradientUnits="userSpaceOnUse">
<stop stop-color="#BFD4FA"/>
<stop offset="1" stop-color="#5792F0"/>
</linearGradient>
<linearGradient id="paint11_linear_11045_184122" x1="116.737" y1="56.5101" x2="129.289" y2="56.5101" gradientUnits="userSpaceOnUse">
<stop stop-color="#BFD4FA"/>
<stop offset="1" stop-color="#5792F0"/>
</linearGradient>
<linearGradient id="paint12_linear_11045_184122" x1="66.9094" y1="71.5793" x2="129.289" y2="71.5793" gradientUnits="userSpaceOnUse">
<stop stop-color="#BFD4FA"/>
<stop offset="1" stop-color="#60A9FE"/>
</linearGradient>
<linearGradient id="paint13_linear_11045_184122" x1="86.4003" y1="68.8022" x2="110.648" y2="68.8022" gradientUnits="userSpaceOnUse">
<stop stop-color="white"/>
<stop offset="1" stop-color="white" stop-opacity="0.0974377"/>
</linearGradient>
<linearGradient id="paint14_linear_11045_184122" x1="40.3338" y1="73.3516" x2="36.3785" y2="84.1201" gradientUnits="userSpaceOnUse">
<stop stop-color="#BFD4FA"/>
<stop offset="1" stop-color="#5792F0"/>
</linearGradient>
<linearGradient id="paint15_linear_11045_184122" x1="33.4034" y1="70.8541" x2="37.5518" y2="84.1005" gradientUnits="userSpaceOnUse">
<stop stop-color="#BFD4FA"/>
<stop offset="1" stop-color="#5792F0"/>
</linearGradient>
<linearGradient id="paint16_linear_11045_184122" x1="157.251" y1="56.3189" x2="151.939" y2="70.784" gradientUnits="userSpaceOnUse">
<stop stop-color="#BFD4FA"/>
<stop offset="1" stop-color="#5792F0"/>
</linearGradient>
<linearGradient id="paint17_linear_11045_184122" x1="147.941" y1="52.9702" x2="153.517" y2="70.7593" gradientUnits="userSpaceOnUse">
<stop stop-color="#BFD4FA"/>
<stop offset="1" stop-color="#5792F0"/>
</linearGradient>
<linearGradient id="paint18_linear_11045_184122" x1="74.2066" y1="11.4436" x2="76.9654" y2="8.75005" gradientUnits="userSpaceOnUse">
<stop stop-color="#5F82C1" stop-opacity="0"/>
<stop offset="1" stop-color="#5F82C1" stop-opacity="0.5"/>
</linearGradient>
<linearGradient id="paint19_linear_11045_184122" x1="89.5263" y1="6.90623" x2="91.2986" y2="2.08598" gradientUnits="userSpaceOnUse">
<stop stop-color="#5F82C1" stop-opacity="0"/>
<stop offset="1" stop-color="#5F82C1" stop-opacity="0.5"/>
</linearGradient>
<linearGradient id="paint20_linear_11045_184122" x1="92.9247" y1="21.8818" x2="92.2604" y2="18.4055" gradientUnits="userSpaceOnUse">
<stop stop-color="#5F82C1" stop-opacity="0"/>
<stop offset="1" stop-color="#5F82C1" stop-opacity="0.5"/>
</linearGradient>
<linearGradient id="paint21_linear_11045_184122" x1="103.659" y1="20.8253" x2="107.953" y2="16.6871" gradientUnits="userSpaceOnUse">
<stop stop-color="#5F82C1" stop-opacity="0"/>
<stop offset="1" stop-color="#5F82C1" stop-opacity="0.5"/>
</linearGradient>
<linearGradient id="paint22_linear_11045_184122" x1="151.095" y1="42.6889" x2="151.095" y2="16.1221" gradientUnits="userSpaceOnUse">
<stop stop-color="#5F82C1" stop-opacity="0"/>
<stop offset="1" stop-color="#5F82C1" stop-opacity="0.5"/>
</linearGradient>
<linearGradient id="paint23_linear_11045_184122" x1="142.078" y1="31.1992" x2="142.078" y2="12.2022" gradientUnits="userSpaceOnUse">
<stop stop-color="#5F82C1" stop-opacity="0"/>
<stop offset="1" stop-color="#5F82C1" stop-opacity="0.5"/>
</linearGradient>
</defs>
</svg>
