<svg width="32" height="32" viewBox="0 0 32 32" fill="none" xmlns="http://www.w3.org/2000/svg">
<path d="M6.21519 15.0201C5.54378 15.0201 5 15.5639 5 16.2353V28.7257C5 29.0497 5.1254 29.3583 5.35512 29.5869L5.46055 29.6812C5.93775 30.0596 6.62913 30.0285 7.07081 29.5869L8.92079 27.7358L10.581 31.2959C10.864 31.9063 11.5831 32.1693 12.1935 31.8863L13.9857 31.0506L14.1034 30.9885C14.6272 30.6733 14.8391 30.0075 14.575 29.4382L12.9659 25.9846L15.4839 25.7959C15.7204 25.7772 15.9462 25.6899 16.1337 25.5445C16.3212 25.3992 16.4622 25.2023 16.5393 24.978C16.6164 24.7536 16.6263 24.5117 16.5677 24.2818C16.5092 24.0519 16.3847 23.8442 16.2097 23.684L7.03197 15.3375C6.80866 15.1338 6.51745 15.0207 6.21519 15.0201Z" fill="white"/>
<path d="M6.21519 15.0201C5.54378 15.0201 5 15.5639 5 16.2353V28.7257C5 29.0497 5.1254 29.3583 5.35512 29.5869L5.46055 29.6812C5.93775 30.0596 6.62913 30.0285 7.07081 29.5869L8.92079 27.7358L10.581 31.2959C10.864 31.9063 11.5831 32.1693 12.1935 31.8863L13.9857 31.0506L14.1034 30.9885C14.6272 30.6733 14.8391 30.0075 14.575 29.4382L12.9659 25.9846L15.4839 25.7959C15.7204 25.7772 15.9463 25.6899 16.1337 25.5445C16.3212 25.3992 16.4622 25.2023 16.5393 24.978C16.6164 24.7536 16.6263 24.5117 16.5677 24.2818C16.5092 24.0519 16.3847 23.8442 16.2097 23.684L7.03197 15.3375C6.80866 15.1338 6.51745 15.0207 6.21519 15.0201ZM6.44158 16.7491L14.8491 24.3965L10.7774 24.7028L13.1701 29.8377L11.7928 30.4813L9.35914 25.2588L6.44158 28.1741V16.7491Z" fill="#000000"/>
<path d="M25.6804 12.7722L9.94528 13.2218H9.49571L8.59656 12.3226L17.1385 2.88159L21.6342 7.37733L25.6804 12.7722Z" fill="white"/>
<path d="M7.76211 12.4247L17.4682 22.847L27.2091 12.3872L17.5031 1.96495L18.3062 1.1026L17.2794 0L5.93505 12.1815L6.96193 13.284L7.76211 12.4263V12.4247ZM25.1555 12.3872H9.78092L17.4682 4.13272L25.1555 12.3872Z" fill="#000000"/>
</svg>
