<svg width="29" height="19" viewBox="0 0 29 19" fill="none" xmlns="http://www.w3.org/2000/svg">
<g clip-path="url(#clip0_8181_216844)">
<path d="M7.41673 7.85671H6.67096L6.95419 8.5466L8.36172 11.975L7.1981 12.4822L5.86922 9.24756L5.57957 8.54252L5.04824 9.08902L2.9375 11.26V0.579045L10.0129 7.85671H7.41673Z" fill="black" stroke="white"/>
</g>
<path d="M18 6.625C18.5908 6.625 19.1641 6.74023 19.7031 6.96875C20.2236 7.18945 20.6924 7.50488 21.0938 7.90625C21.4961 8.30859 21.8115 8.77637 22.0312 9.29688C22.2598 9.83594 22.375 10.4092 22.375 11C22.375 11.5908 22.2598 12.1641 22.0312 12.7031C21.8105 13.2236 21.4951 13.6924 21.0938 14.0938C20.6914 14.4961 20.2236 14.8115 19.7031 15.0312C19.1641 15.2598 18.5908 15.375 18 15.375C17.4092 15.375 16.8359 15.2598 16.2969 15.0312C15.7764 14.8105 15.3076 14.4951 14.9062 14.0938C14.5039 13.6914 14.1885 13.2236 13.9688 12.7031C13.7402 12.1641 13.625 11.5908 13.625 11C13.625 10.4092 13.7402 9.83594 13.9688 9.29688C14.1895 8.77637 14.5049 8.30762 14.9062 7.90625C15.3076 7.50488 15.7764 7.18848 16.2969 6.96875C16.8359 6.74023 17.4092 6.625 18 6.625ZM18 6C15.2383 6 13 8.23828 13 11C13 13.7617 15.2383 16 18 16C20.7617 16 23 13.7617 23 11C23 8.23828 20.7617 6 18 6Z" fill="#ff4e4e"/>
<path d="M17.0625 11C17.0625 11.2486 17.1613 11.4871 17.3371 11.6629C17.5129 11.8387 17.7514 11.9375 18 11.9375C18.2486 11.9375 18.4871 11.8387 18.6629 11.6629C18.8387 11.4871 18.9375 11.2486 18.9375 11C18.9375 10.7514 18.8387 10.5129 18.6629 10.3371C18.4871 10.1613 18.2486 10.0625 18 10.0625C17.7514 10.0625 17.5129 10.1613 17.3371 10.3371C17.1613 10.5129 17.0625 10.7514 17.0625 11Z" fill="#ff4e4e"/>
<path d="M28.4787 15.4805H23.5217C23.2357 15.4805 23.002 15.6716 23.002 15.9055C23.002 16.1393 23.2357 16.3305 23.5217 16.3305H28.4787C28.7646 16.3305 28.9984 16.1393 28.9984 15.9055C28.9984 15.6716 28.7646 15.4805 28.4787 15.4805Z" fill="#ff4e4e"/>
<defs>
<clipPath id="clip0_8181_216844">
<rect width="13" height="13" fill="white"/>
</clipPath>
</defs>
</svg>
