<svg width="16" height="17" viewBox="0 0 16 17" fill="none" xmlns="http://www.w3.org/2000/svg">
<path d="M15.7935 8.91925C15.3318 6.78388 13.8112 4.66508 12.5387 5.03307C12.0833 5.1645 11.7336 5.40506 11.5079 5.73705C11.0976 5.54677 10.6776 5.52849 10.2668 5.70963C9.96568 5.83904 9.71382 6.06127 9.54792 6.34389C9.07479 6.10447 8.53081 6.10961 7.96054 6.37704C7.83924 6.43305 7.72414 6.50161 7.61712 6.5816C6.22744 4.61766 5.09205 3.7314 4.06865 3.96339C2.61954 4.29138 2.61954 5.55534 3.71894 7.21073L5.82974 10.4746C4.67149 10.2569 3.8338 10.4438 3.33724 11.1072C2.52526 12.1929 3.38467 13.1957 5.38004 14.0934L9.2365 15.8088C9.37445 15.8674 9.52993 15.8695 9.66942 15.8146C9.80891 15.7597 9.92123 15.6522 9.98217 15.5152C10.0431 15.3783 10.0478 15.2229 9.99522 15.0825C9.94263 14.9421 9.83699 14.828 9.70106 14.7648L5.84688 13.0506C5.06919 12.7009 4.55549 12.3729 4.31892 12.0963C4.18179 11.9363 4.17779 11.8917 4.25264 11.7917C4.53492 11.4146 5.41204 11.4146 6.94114 11.9849C7.45655 12.1774 7.9194 11.6015 7.62055 11.1392L4.67492 6.58446C3.94294 5.4822 3.94294 5.16393 4.32121 5.07821C4.82234 4.96508 5.8766 5.96048 7.27713 8.12384C7.38227 8.37184 7.54626 8.63012 7.76626 8.89125C8.2211 9.43181 9.05936 8.82782 8.6908 8.22498C8.55601 8.00429 8.41886 7.78505 8.27939 7.56729C8.2891 7.50043 8.34853 7.45758 8.44567 7.41186C8.8468 7.22387 9.09708 7.2953 9.37764 7.69186C9.68963 8.13184 10.3816 7.93471 10.4142 7.39586C10.437 7.01759 10.5416 6.83702 10.7273 6.75531C10.8873 6.68503 11.0862 6.7456 11.3964 7.04102C11.4743 7.1152 11.5715 7.16592 11.6768 7.18735C11.7822 7.20878 11.8915 7.20004 11.9921 7.16214C12.0927 7.12424 12.1806 7.05872 12.2457 6.97311C12.3107 6.8875 12.3503 6.78527 12.3598 6.67817C12.3861 6.38275 12.521 6.22733 12.8564 6.13018C13.2084 6.02847 14.3409 7.60672 14.6769 9.16039C14.9186 10.2781 14.9186 11.6066 14.6712 13.1448C14.6472 13.2945 14.6836 13.4476 14.7724 13.5704C14.8613 13.6932 14.9953 13.7757 15.1449 13.7997C15.2946 13.8237 15.4476 13.7873 15.5704 13.6985C15.6932 13.6096 15.7757 13.4756 15.7997 13.326C16.0677 11.6563 16.0677 10.1872 15.7935 8.91925Z" fill="#DEE5EB"/>
<path d="M4.22845 15.3567H1.79024C1.43482 15.3567 1.14283 15.0602 1.14283 14.6899V2.30966C1.14283 1.93939 1.43482 1.64283 1.79024 1.64283H8.49462C8.85061 1.64283 9.1426 1.93939 9.1426 2.30966C9.1426 2.46121 9.2028 2.60655 9.30996 2.71371C9.41712 2.82087 9.56247 2.88108 9.71401 2.88108C9.86556 2.88108 10.0109 2.82087 10.1181 2.71371C10.2252 2.60655 10.2854 2.46121 10.2854 2.30966C10.2854 1.31198 9.48602 0.5 8.49519 0.5H1.79024C0.799406 0.5 0 1.31198 0 2.30966V14.6905C0 15.6876 0.799406 16.4996 1.79024 16.4996H4.22845C4.38 16.4996 4.52534 16.4394 4.6325 16.3322C4.73966 16.225 4.79987 16.0797 4.79987 15.9281C4.79987 15.7766 4.73966 15.6313 4.6325 15.5241C4.52534 15.4169 4.38 15.3567 4.22845 15.3567Z" fill="#DEE5EB"/>
</svg>
