<svg width="34" height="34" viewBox="0 0 34 34" fill="none" xmlns="http://www.w3.org/2000/svg">
<path d="M26.3267 31.8682H6.72694C6.27206 31.8682 5.85038 31.6889 5.53495 31.3635C5.21952 31.0381 5.0535 30.6098 5.0701 30.1549L5.54491 15.3264C5.73417 9.36309 10.5586 4.69141 16.5285 4.69141C22.4984 4.69141 27.3195 9.36309 27.5121 15.3264L27.9869 30.1549C28.0002 30.6064 27.8342 31.0381 27.5187 31.3635C27.2033 31.6889 26.7816 31.8682 26.3267 31.8682ZM16.5285 5.77383C11.1496 5.77383 6.80331 9.98398 6.63065 15.3596L6.15585 30.1881C6.14921 30.3441 6.20897 30.4936 6.31854 30.6064C6.42811 30.7193 6.57421 30.7824 6.73026 30.7824H26.3301C26.4861 30.7824 26.6322 30.7193 26.7418 30.6064C26.8514 30.4936 26.9078 30.3441 26.9045 30.1881L26.4297 15.3596C26.2537 9.9873 21.9041 5.77383 16.5285 5.77383Z" fill="#57CCEF"/>
<path d="M23.79 29.3549H9.26367C8.8752 29.3549 8.49668 29.1889 8.20117 28.8867C7.80938 28.485 7.59024 27.8906 7.60684 27.2564L8.09824 17.5445C8.12148 16.4455 8.85195 15.5723 9.75508 15.5723H23.2953C24.2018 15.5723 24.9289 16.4455 24.9522 17.5611L25.4436 27.2398C25.4568 27.8906 25.241 28.485 24.8492 28.8867C24.557 29.1889 24.1785 29.3549 23.79 29.3549ZM9.75508 16.658C9.49277 16.658 9.19395 17.0398 9.18066 17.5844L8.68926 27.2963C8.68262 27.615 8.79219 27.9404 8.9748 28.1297C9.03789 28.1961 9.14082 28.2725 9.26035 28.2725H23.7867C23.9096 28.2725 24.0092 28.1961 24.0723 28.1297C24.2549 27.9404 24.3645 27.615 24.3578 27.2797L23.873 17.601C23.8598 17.0398 23.5609 16.658 23.2986 16.658H9.75508Z" fill="#57CCEF"/>
<path d="M24.1553 20.6854H8.9615C8.66267 20.6854 8.42029 20.4363 8.42029 20.1375C8.42029 19.8387 8.66267 19.5896 8.9615 19.5896H24.1553C24.4541 19.5896 24.6965 19.8387 24.6965 20.1375C24.6965 20.4363 24.4541 20.6854 24.1553 20.6854ZM20.0049 6.08262C19.7691 6.08262 19.55 5.92656 19.4836 5.6875C19.0685 4.20996 17.8898 3.22051 16.5484 3.22051C15.207 3.22051 14.0283 4.20996 13.6133 5.6875C13.5336 5.97637 13.2314 6.14238 12.9426 6.0627C12.6537 5.98301 12.4844 5.68086 12.5674 5.39199C13.1152 3.44297 14.7156 2.13477 16.5484 2.13477C18.3812 2.13477 19.9816 3.44629 20.5295 5.39531C20.6092 5.68418 20.4431 5.98301 20.1543 6.0627C20.1045 6.07598 20.0547 6.08262 20.0049 6.08262ZM29.2021 29.0758H27.8209C27.522 29.0758 27.2797 28.8334 27.2797 28.5346C27.2797 28.2357 27.522 27.9934 27.8209 27.9934H29.2021L28.983 21.8375L27.2498 21.8242C26.951 21.8242 26.7086 21.5818 26.7086 21.283C26.7086 20.9842 26.951 20.7418 27.2498 20.7418H28.9697C29.564 20.7418 30.0455 21.2066 30.0687 21.801L30.3045 27.9402C30.3178 28.2391 30.2049 28.5312 29.999 28.7471C29.7898 28.9529 29.501 29.0758 29.2021 29.0758ZM5.3324 29.0758H3.85154C3.55271 29.0758 3.26385 28.9529 3.05799 28.7371C2.85213 28.5213 2.73924 28.2291 2.75252 27.9303L2.98826 21.7943C3.0115 21.2 3.49295 20.7352 4.08728 20.7352H5.61131C5.91014 20.7352 6.15252 20.9775 6.15252 21.2764C6.15252 21.5752 5.91014 21.8176 5.61131 21.8176H4.0906L3.83826 27.9734L5.3324 27.99C5.63123 27.99 5.87361 28.2324 5.87361 28.5312C5.87361 28.8301 5.63123 29.0758 5.3324 29.0758ZM22.4652 11.674C22.2892 11.674 22.1199 11.591 22.0137 11.435C20.7885 9.61211 18.7465 8.52637 16.5551 8.52637C14.3637 8.52637 12.3217 9.61543 11.0965 11.435C10.9304 11.684 10.5918 11.7504 10.3428 11.5811C10.0937 11.415 10.0273 11.0764 10.1967 10.8273C11.6244 8.70566 14.0017 7.4373 16.5551 7.4373C19.1084 7.4373 21.4857 8.70566 22.9135 10.8273C23.0795 11.0764 23.0164 11.4117 22.7674 11.5811C22.6744 11.6441 22.5681 11.674 22.4652 11.674Z" fill="#57CCEF"/>
</svg>
