<svg width="36" height="36" viewBox="0 0 36 36" fill="none" xmlns="http://www.w3.org/2000/svg">
<path d="M15.6099 30C14.7793 30.0014 13.9696 29.7361 13.2971 29.2421L12.1537 28.371L10.7436 28.1706C10.1525 28.0807 9.58896 27.857 9.09482 27.5162C8.60067 27.1754 8.18861 26.7262 7.88925 26.2019L7.30462 25.1653L6.28151 24.5555C5.73074 24.2198 5.26758 23.7549 4.93095 23.2001C4.59433 22.6453 4.39408 22.0167 4.34706 21.3672L4.2869 20.409L3.73664 19.625C3.34501 19.0695 3.09997 18.4218 3.02473 17.7433C2.9495 17.0649 3.04657 16.3783 3.30676 15.7485L3.65066 14.921L3.50452 14.0499C3.39395 13.3878 3.44936 12.7081 3.66569 12.0734C3.88202 11.4387 4.25233 10.8692 4.74257 10.4173L5.51634 9.69427L5.82584 8.68377C6.01126 8.08396 6.33134 7.53583 6.76095 7.08241C7.19056 6.62899 7.71801 6.28261 8.30194 6.07042C8.37016 6.05784 8.44006 6.05784 8.50828 6.07042C8.65481 6.06973 8.79686 6.12173 8.90911 6.21717C9.02136 6.31261 9.09656 6.44529 9.12132 6.59164C9.14608 6.73798 9.11881 6.88847 9.04434 7.01635C8.96987 7.14422 8.85303 7.24118 8.71463 7.28998C8.31021 7.43333 7.94427 7.6701 7.64582 7.98157C7.34736 8.29304 7.12459 8.67065 6.99512 9.08448L6.58243 10.426L5.55932 11.3755C5.22144 11.6864 4.96576 12.0781 4.81559 12.5148C4.66541 12.9515 4.62552 13.4193 4.69956 13.8756L4.9059 15.1213L4.42443 16.2886C4.24716 16.7203 4.18101 17.1906 4.23214 17.6553C4.28327 18.12 4.45002 18.564 4.71677 18.9455L5.47334 20.017L5.55932 21.3324C5.58896 21.7782 5.72495 22.21 5.95556 22.5909C6.18617 22.9717 6.50454 23.2902 6.88335 23.5189L8.18159 24.3029L8.92957 25.6096C9.13439 25.9701 9.41718 26.2789 9.75669 26.5127C10.0962 26.7466 10.4836 26.8994 10.8898 26.9598L12.6093 27.2211L13.9935 28.2316C14.4571 28.5694 15.0131 28.7521 15.5841 28.7543C15.7923 28.7536 15.9998 28.7302 16.2031 28.6846L17.9656 28.2665L19.7281 28.6846C19.9315 28.7298 20.1389 28.7532 20.3471 28.7543C20.9484 28.7493 21.5315 28.5442 22.0065 28.1706L23.3906 27.1601L25.1102 26.8988C25.5164 26.8384 25.9038 26.6856 26.2433 26.4517C26.5828 26.2179 26.8656 25.9091 27.0704 25.5486L27.8184 24.2419L29.1166 23.4579C29.4964 23.2303 29.8156 22.9121 30.0463 22.5311C30.2771 22.15 30.4125 21.7176 30.4407 21.2714L30.5266 19.956L31.2832 18.8845C31.55 18.503 31.7167 18.059 31.7679 17.5943C31.819 17.1296 31.7528 16.6594 31.5755 16.2276L31.0941 15.0604L31.3004 13.8146C31.3738 13.3597 31.3335 12.8933 31.1833 12.4581C31.0331 12.023 30.7778 11.6328 30.4407 11.3233L29.4175 10.365L29.0049 9.02349C28.8754 8.60967 28.6526 8.23209 28.3542 7.92061C28.0557 7.60914 27.6898 7.37234 27.2854 7.229C27.147 7.1802 27.0301 7.08324 26.9557 6.95536C26.8812 6.82749 26.8539 6.67699 26.8787 6.53065C26.9034 6.38431 26.9786 6.25163 27.0909 6.15618C27.2031 6.06074 27.3452 6.00874 27.4917 6.00944C27.5599 5.99685 27.6298 5.99685 27.698 6.00944C28.2833 6.21924 28.812 6.56481 29.242 7.01858C29.6719 7.47235 29.9911 8.02172 30.1741 8.62279L30.4836 9.64201L31.2574 10.3563C31.7477 10.8082 32.118 11.3777 32.3343 12.0124C32.5506 12.6471 32.6061 13.3268 32.4955 13.9889L32.3493 14.86L32.6932 15.6876C32.9534 16.3173 33.0505 17.0039 32.9753 17.6824C32.9 18.3608 32.655 19.0085 32.2633 19.564L31.7131 20.348L31.6529 21.3062C31.6095 21.9567 31.4107 22.5867 31.0737 23.1421C30.7368 23.6975 30.2717 24.1616 29.7185 24.4945L28.6954 25.1043L28.1107 26.141C27.8119 26.6656 27.3999 27.1151 26.9057 27.456C26.4115 27.7969 25.8477 28.0203 25.2563 28.1097L23.8549 28.3187L22.7029 29.1899C22.2425 29.5219 21.7178 29.7511 21.1635 29.8622C20.6091 29.9734 20.0378 29.9639 19.4874 29.8345L18.0086 29.486L16.5298 29.8345C16.2304 29.9248 15.9217 29.9804 15.6099 30Z" fill="#57CCEF"/>
<path d="M16.5195 22.9916C14.7928 22.9893 13.1375 22.2998 11.9166 21.0745C10.6957 19.8491 10.0087 18.1878 10.0065 16.4548V13.4678C9.99785 13.312 9.99785 13.156 10.0065 13.0002L11.0589 12.1128C11.0589 12.234 11.0589 13.3466 11.0589 13.4678V16.4634C11.0589 17.9132 11.6321 19.3036 12.6527 20.3296C13.6733 21.3555 15.0578 21.933 16.5022 21.9353H19.4956C20.9401 21.933 22.3246 21.3555 23.3452 20.3296C24.3657 19.3036 24.9389 17.9132 24.9389 16.4634V13.4678C24.9389 13.3725 24.9389 13.2859 24.9389 13.1907L26 13.0955C26 13.2167 26 13.3466 26 13.4678V16.4634C26 18.1956 25.315 19.857 24.0954 21.0826C22.8759 22.3082 21.2215 22.9979 19.4956 23.0002L16.5195 22.9916Z" fill="#57CCEF"/>
<path d="M17.9663 20C17.5398 19.9887 17.1352 19.8486 16.8364 19.6089L16.2602 19.1644C16.1779 19.1015 16.1124 19.0262 16.0678 18.943C16.0231 18.8597 16 18.7703 16 18.68C16 18.5897 16.0231 18.5002 16.0678 18.417C16.1124 18.3338 16.1779 18.2585 16.2602 18.1955C16.3405 18.133 16.4358 18.0835 16.5405 18.0499C16.6452 18.0164 16.7573 17.9994 16.8703 18H19.13C19.3588 18 19.5784 18.0709 19.7412 18.1973C19.904 18.3237 19.997 18.4956 20 18.6755C20.0008 18.7666 19.9782 18.8569 19.9335 18.9409C19.8889 19.0249 19.8231 19.1009 19.7401 19.1644L19.1639 19.6089C19.0074 19.7335 18.8209 19.8323 18.6152 19.8995C18.4096 19.9666 18.189 20.0008 17.9663 20Z" fill="#57CCEF"/>
<path d="M14.7439 16.5C14.6452 16.5 14.5475 16.4804 14.4564 16.4422C14.3654 16.4041 14.2828 16.3482 14.2136 16.2778C14.1444 16.2075 14.0898 16.124 14.0532 16.0324C14.0165 15.9407 13.9985 15.8427 14.0001 15.744C14.0001 15.5467 14.0785 15.3575 14.218 15.218C14.3575 15.0785 14.5467 15.0001 14.7439 15.0001C14.8427 14.9985 14.9407 15.0165 15.0324 15.0532C15.124 15.0899 15.2075 15.1444 15.2778 15.2136C15.3482 15.2829 15.4041 15.3654 15.4422 15.4565C15.4804 15.5475 15.5 15.6452 15.5 15.744C15.5 15.9445 15.4204 16.1368 15.2786 16.2785C15.1368 16.4203 14.9445 16.5 14.7439 16.5Z" fill="#57CCEF"/>
<path d="M21.7439 16.5C21.6452 16.5 21.5475 16.4804 21.4564 16.4422C21.3654 16.4041 21.2828 16.3482 21.2136 16.2778C21.1444 16.2075 21.0898 16.124 21.0532 16.0324C21.0165 15.9407 20.9985 15.8427 21.0001 15.744C21.0001 15.5467 21.0785 15.3575 21.218 15.218C21.3575 15.0785 21.5467 15.0001 21.7439 15.0001C21.8427 14.9985 21.9407 15.0165 22.0324 15.0532C22.124 15.0899 22.2075 15.1444 22.2778 15.2136C22.3482 15.2829 22.4041 15.3654 22.4422 15.4565C22.4804 15.5475 22.5 15.6452 22.5 15.744C22.5 15.9445 22.4204 16.1368 22.2786 16.2785C22.1368 16.4203 21.9445 16.5 21.7439 16.5Z" fill="#57CCEF"/>
<path d="M27.6229 13.9981C26.9909 13.9682 26.3713 13.8336 25.797 13.6016C24.8692 13.2742 23.4227 12.1432 22.7028 11.5366L23.5 10.9305C24.0608 11.382 25.3036 12.3996 26.0027 12.6663C26.5073 12.9001 27.0618 13.0402 27.6315 13.0778H27.8886L27.9315 12.9132C27.9695 12.406 27.8908 11.8972 27.7 11.4168C27.4901 10.7743 27.163 10.1655 26.7313 9.6137L27.5286 9.00766C28.1101 9.71845 28.5346 10.5177 28.7801 11.3645C28.9859 12.0379 29.2259 13.235 28.583 13.7213C28.3282 13.9165 27.9955 14.016 27.6572 13.9981H27.6229ZM8.25807 13.9532C8.01535 13.9626 7.7754 13.905 7.57227 13.7886C6.86077 13.3547 6.96364 12.1426 7.09223 11.4618C7.2281 10.595 8.00176 9.25907 8.5 8.5L9 9.5C8.63156 10.0854 8.28623 10.7513 8.15521 11.4094C8.02081 11.8998 8.0033 12.4092 8.10378 12.9058L8.14663 13.0554H8.32664C8.88735 12.949 9.4179 12.7455 9.8868 12.4568C10.5537 12.1262 11.6348 11.4321 12.1428 10.9305L13 11.4618C12.3534 12.1311 11.0831 12.9544 10.1954 13.3622C9.61308 13.6916 8.94872 13.8943 8.25807 13.9532Z" fill="#57CCEF"/>
<path d="M18.0042 13C17.374 12.997 16.7523 12.8605 16.1836 12.6004C15.615 12.3403 15.1136 11.9629 14.7153 11.4954L14.6213 11.381L14.4761 11.43C14.1824 11.5297 13.8735 11.5822 13.562 11.5854C13.0749 11.5846 12.5968 11.46 12.1766 11.2244C11.7563 10.9888 11.4089 10.6506 11.1699 10.2444L11.1016 10.1217H10.9564H10.5976C9.89563 10.0842 9.23532 9.79093 8.75225 9.30203C8.26917 8.81314 8 8.16577 8 7.49286C8 6.81995 8.26917 6.17257 8.75225 5.68368C9.23532 5.19479 9.89563 4.90148 10.5976 4.864H10.9564H11.1016L11.1699 4.74954C11.4089 4.34334 11.7563 4.00516 12.1766 3.76955C12.5968 3.53394 13.0749 3.40934 13.562 3.40852C13.8731 3.40882 14.182 3.45855 14.4761 3.5557L14.6213 3.60475L14.7153 3.49848C15.1117 3.03044 15.6123 2.65301 16.1806 2.39377C16.7489 2.13453 17.3705 2 18 2C18.6295 2 19.2511 2.13453 19.8194 2.39377C20.3876 2.65301 20.8883 3.03044 21.2847 3.49848L21.3787 3.61294L21.5239 3.56388C21.818 3.46673 22.1269 3.417 22.438 3.4167C22.9244 3.41587 23.4023 3.53885 23.8226 3.77307C24.243 4.00728 24.5906 4.3443 24.83 4.74954L24.9069 4.87218H25.0521C25.1687 4.86378 25.2858 4.86378 25.4024 4.87218C26.1043 4.90967 26.7647 5.20297 27.2477 5.69187C27.7308 6.18076 28 6.82813 28 7.50104C28 8.17395 27.7308 8.82133 27.2477 9.31022C26.7647 9.79911 26.1043 10.0924 25.4024 10.1299H25.0521H24.9069L24.83 10.2525C24.5911 10.6587 24.2437 10.9969 23.8234 11.2325C23.4032 11.4681 22.9251 11.5927 22.438 11.5936C22.1265 11.5903 21.8176 11.5378 21.5239 11.4382L21.3787 11.3891L21.2847 11.5036C20.8897 11.9721 20.39 12.3497 19.8222 12.6087C19.2544 12.8676 18.6332 13.0014 18.0042 13ZM15.2449 10.4733C15.5252 10.935 15.9272 11.3181 16.4106 11.5844C16.8941 11.8507 17.4422 11.9909 18 11.9909C18.5578 11.9909 19.1059 11.8507 19.5894 11.5844C20.0728 11.3181 20.4748 10.935 20.7551 10.4733L21.037 10.0073L21.4983 10.3016C21.7217 10.4389 21.9755 10.5246 22.2395 10.5517C22.5035 10.5788 22.7705 10.5466 23.0192 10.4577C23.268 10.3688 23.4917 10.2257 23.6725 10.0396C23.8534 9.85353 23.9865 9.62968 24.0612 9.3858L24.215 8.84613L24.7617 9.05055C24.9603 9.12567 25.1718 9.16451 25.3853 9.16504C25.8385 9.16504 26.2731 8.99274 26.5935 8.68605C26.9139 8.37936 27.0939 7.96339 27.0939 7.52966C27.0939 7.09594 26.9139 6.67997 26.5935 6.37328C26.2731 6.06659 25.8385 5.89429 25.3853 5.89429C25.1718 5.89482 24.9603 5.93363 24.7617 6.00875L24.215 6.22136L24.0526 5.6735C23.9779 5.42963 23.8448 5.2058 23.664 5.01974C23.4831 4.83367 23.2594 4.69052 23.0107 4.60163C22.7619 4.51275 22.495 4.48057 22.231 4.50766C21.967 4.53475 21.7132 4.62035 21.4898 4.7577L21.0284 5.05208L20.7465 4.58599C20.4663 4.12435 20.0643 3.74123 19.5808 3.47492C19.0973 3.20861 18.5493 3.06845 17.9914 3.06845C17.4336 3.06845 16.8856 3.20861 16.4021 3.47492C15.9186 3.74123 15.5166 4.12435 15.2364 4.58599L14.963 5.05208L14.4931 4.74954C14.2142 4.57359 13.8875 4.47976 13.5534 4.47969C13.1826 4.4802 12.8221 4.59614 12.5262 4.81002C12.2303 5.02391 12.0151 5.32413 11.9132 5.66534L11.7594 6.21318L11.2127 6.00875C11.0152 5.93016 10.8029 5.89121 10.589 5.89429C10.1359 5.89429 9.70129 6.06659 9.38087 6.37328C9.06045 6.67997 8.88044 7.09594 8.88044 7.52966C8.88044 7.96339 9.06045 8.37936 9.38087 8.68605C9.70129 8.99274 10.1359 9.16504 10.589 9.16504C10.8029 9.16811 11.0152 9.12914 11.2127 9.05055L11.7594 8.84613L11.9132 9.3858C12.0136 9.72854 12.2281 10.0306 12.5241 10.246C12.8201 10.4615 13.1815 10.5786 13.5534 10.5796C13.8875 10.5795 14.2142 10.4857 14.4931 10.3098L14.9545 10.0154L15.2449 10.4733Z" fill="#57CCEF"/>
<path d="M19.8522 32V29H21V32H19.8522ZM15 32V29H16.1571V32H15Z" fill="#57CCEF"/>
<path d="M15.5087 34C15.3124 34.0014 15.1178 33.9638 14.9362 33.8893C14.7545 33.8147 14.5895 33.7047 14.4507 33.5656C14.2371 33.3571 14.0909 33.0893 14.0307 32.7966C13.9705 32.5039 13.9992 32.2 14.1131 31.9238C14.227 31.6477 14.4208 31.4121 14.6696 31.2474C14.9183 31.0828 15.2106 30.9966 15.5087 31.0001C15.9057 31.0042 16.2854 31.1637 16.5667 31.4445C16.7054 31.5837 16.8151 31.7491 16.8895 31.9312C16.9639 32.1133 17.0014 32.3084 17 32.5051C17 32.7014 16.9614 32.8958 16.8864 33.0772C16.8115 33.2585 16.7017 33.4233 16.5632 33.5621C16.4247 33.7009 16.2603 33.8111 16.0794 33.8862C15.8984 33.9613 15.7045 34 15.5087 34Z" fill="#57CCEF"/>
<path d="M20.5101 34C20.213 34.002 19.922 33.9157 19.674 33.7521C19.426 33.5885 19.2322 33.3549 19.1171 33.081C19.002 32.8071 18.9709 32.5052 19.0276 32.2136C19.0843 31.9219 19.2264 31.6537 19.4358 31.4429C19.6452 31.2321 19.9124 31.0883 20.2036 31.0296C20.4949 30.9709 20.797 31 21.0717 31.1132C21.3464 31.2264 21.5812 31.4187 21.7465 31.6656C21.9118 31.9124 22 32.2029 22 32.5C22 32.8961 21.8434 33.2761 21.5642 33.5571C21.2851 33.8381 20.9061 33.9973 20.5101 34Z" fill="#57CCEF"/>
</svg>
