<svg width="36" height="36" viewBox="0 0 36 36" fill="none" xmlns="http://www.w3.org/2000/svg">
<path d="M5.58629 22.1418H4.34476V24.6417H5.58629V22.1418ZM5.58629 17.1422H4.34476V19.642H5.58629V17.1422ZM5.58629 12.1421H4.34476V14.6419H5.58629V12.1421ZM18.705 13.6736C18.4573 13.4347 18.0644 13.4436 17.8275 13.6927C17.5906 13.9421 17.599 14.3378 17.8464 14.5763C17.9328 14.6597 18.0816 14.8351 18.2325 15.0773C18.814 16.0119 18.814 16.9296 17.8464 17.8626C16.3977 19.2593 16.3977 20.7662 17.2829 22.0507C17.4989 22.3642 17.7165 22.5922 17.8761 22.7274C18.1383 22.9497 18.5301 22.9157 18.7509 22.6517C18.9717 22.3876 18.9379 21.9932 18.6757 21.7709C18.5936 21.7016 18.4492 21.5502 18.3032 21.338C17.7402 20.5208 17.7402 19.6955 18.7054 18.7648C20.1513 17.3706 20.1513 15.8054 19.285 14.4127C19.0734 14.0742 18.8603 13.8231 18.705 13.6736ZM24.0013 13.9729C23.7464 13.7421 23.3542 13.7631 23.1246 14.0195C22.8953 14.2762 22.9163 14.6711 23.1708 14.9023C23.2549 14.9784 23.4017 15.142 23.5505 15.3692C24.1232 16.2452 24.1232 17.1166 23.1568 18.0489C21.7093 19.4444 21.7093 20.98 22.5849 22.3188C22.7984 22.6452 23.0136 22.8849 23.1708 23.0275C23.4258 23.2583 23.8179 23.2373 24.0476 22.9809C24.2768 22.7242 24.2559 22.3293 24.0013 22.0981C23.9173 22.022 23.7705 21.8584 23.6217 21.6312C23.049 20.7552 23.049 19.8838 24.0154 18.9515C25.4629 17.556 25.4629 16.0204 24.5873 14.6816C24.3738 14.3552 24.1586 14.1151 24.0013 13.9729ZM31.6552 9.74996H9.31048C8.96783 9.74996 8.68992 10.0298 8.68992 10.3748V25.3743C8.68992 25.7193 8.96783 25.9991 9.31048 25.9991H31.6552C31.9979 25.9991 32.2758 25.7193 32.2758 25.3743V10.3752C32.2758 10.0298 31.9979 9.74996 31.6552 9.74996ZM31.0347 11.0001V24.7498H9.93105V11.0001H31.0347ZM9.31048 29.7495H26.8902V30.9996H31.6552V29.7495H34.1423C35.1679 29.7495 36 28.914 36 27.8826V7.86688C36 6.83341 35.1735 6 34.1423 6H1.85767C0.832111 6 0 6.83544 0 7.86688V27.883C0 28.9165 0.826481 29.7499 1.85767 29.7499H4.54505V31H9.31048V29.7495ZM4.54545 28.4998H1.85808C1.5126 28.4998 1.24153 28.2264 1.24153 27.883V7.86688C1.24153 7.52671 1.51703 7.25012 1.85808 7.25012H34.1423C34.4878 7.25012 34.7589 7.52347 34.7589 7.86688V27.883C34.7589 28.2232 34.4834 28.4998 34.1423 28.4998H4.54545Z" fill="#57CCEF"/>
</svg>
