<svg width="36" height="31" viewBox="0 0 36 31" fill="none" xmlns="http://www.w3.org/2000/svg">
<path d="M1.62591 16.5852L1.62593 16.5852C2.07634 17.0299 2.67504 17.2752 3.31049 17.2752H32.7327L32.7327 17.2752H32.7371C33.3735 17.2752 33.9725 17.0302 34.4227 16.5852C34.8738 16.1392 35.1227 15.5453 35.1227 14.9133V9.25913C35.1227 8.62753 34.8742 8.03333 34.423 7.587C33.9725 7.14136 33.3739 6.8957 32.7371 6.8957H3.31078C1.99591 6.8957 0.925 7.9552 0.925 9.25911V14.9133C0.925 15.545 1.17416 16.1389 1.62591 16.5852ZM1.70601 9.25947C1.70601 8.38779 2.42477 7.67712 3.31049 7.67712H32.7369C33.6226 7.67712 34.3413 8.38803 34.3413 9.25947V14.9137C34.3413 15.7844 33.6226 16.4945 32.7369 16.4945H3.31049C2.4247 16.4945 1.70601 15.7841 1.70601 14.9137V9.25947Z" fill="#57CCEF" stroke="#57CCEF" stroke-width="0.15"/>
<path d="M24.846 16.6593L24.8459 16.6594C24.7621 16.7786 24.7513 16.9344 24.8182 17.0641C24.8853 17.1939 25.0193 17.2751 25.1651 17.2751H27.2505L27.2506 17.2757H27.3226C27.4493 17.2757 27.5687 17.2141 27.6419 17.1097L34.1723 7.85336L34.1724 7.8533C34.2328 7.76753 34.2563 7.66129 34.2374 7.55783L34.2374 7.55778C34.2185 7.45455 34.1588 7.36335 34.0719 7.30452L34.0719 7.30448C33.676 7.03702 33.2141 6.8957 32.7364 6.8957H31.9389C31.8118 6.8957 31.6929 6.95771 31.6198 7.06117L31.6198 7.06119L24.846 16.6593ZM33.2752 7.76961L27.1202 16.4941H25.9188L32.1411 7.67676H32.7361C32.9217 7.67676 33.1035 7.70839 33.2752 7.76961Z" fill="#57CCEF" stroke="#57CCEF" stroke-width="0.15"/>
<path d="M17.0694 16.6593L17.0693 16.6594C16.9855 16.7786 16.9747 16.9344 17.0416 17.0641C17.1087 17.1939 17.2427 17.2751 17.3885 17.2751H19.5426C19.6696 17.2751 19.7886 17.2135 19.8617 17.1096C19.8617 17.1096 19.8617 17.1096 19.8617 17.1095L26.6345 7.5116C26.7189 7.39219 26.7292 7.23627 26.6623 7.10673C26.5953 6.97688 26.4613 6.8957 26.3154 6.8957H24.1614C24.0346 6.8957 23.9154 6.95767 23.8423 7.06117L23.8422 7.0612L17.0694 16.6593ZM25.5619 7.67739L19.3402 16.4941H18.1422L24.3639 7.67739H25.5619Z" fill="#57CCEF" stroke="#57CCEF" stroke-width="0.15"/>
<path d="M9.29142 16.6592C9.20707 16.7786 9.19676 16.9346 9.26365 17.0641C9.33069 17.1939 9.46469 17.2751 9.61051 17.2751H11.7655C11.8921 17.2751 12.0114 17.2136 12.0846 17.1096C12.0846 17.1096 12.0846 17.1096 12.0846 17.1095L18.8574 7.5116C18.9418 7.39219 18.9521 7.23627 18.8852 7.10673C18.8182 6.97688 18.6842 6.8957 18.5383 6.8957H16.3834C16.2566 6.8957 16.1374 6.95767 16.0643 7.06117L16.0643 7.0612L9.29142 16.6592ZM9.29142 16.6592L9.35268 16.7025L9.2914 16.6593L9.29142 16.6592ZM17.7847 7.67736L11.563 16.4941H10.3641L16.5858 7.67709L17.7847 7.67736Z" fill="#57CCEF" stroke="#57CCEF" stroke-width="0.15"/>
<path d="M4.05659 17.2755H3.98703H3.30996C3.04811 17.2755 2.79027 17.2335 2.54391 17.1503C2.54391 17.1503 2.5439 17.1503 2.54389 17.1503L2.56789 17.0792C2.3365 17.0011 2.12034 16.8879 1.92534 16.7424L4.05659 17.2755ZM4.05659 17.2755L4.05712 17.2685M4.05659 17.2755L4.05712 17.2685M4.05712 17.2685C4.15688 17.2504 4.24665 17.1939 4.30638 17.1098L4.3065 17.1096L11.0793 7.51159C11.1637 7.39219 11.174 7.23627 11.1071 7.10673C11.0401 6.97688 10.9061 6.8957 10.7603 6.8957H8.60617C8.47906 6.8957 8.36016 6.95771 8.28708 7.06117L8.28706 7.06121L1.79503 16.2643L4.05712 17.2685ZM3.30999 16.4941C3.08911 16.4941 2.87549 16.4507 2.67844 16.3669L8.80836 7.67746H10.0063L3.7846 16.4941H3.30999Z" fill="#57CCEF" stroke="#57CCEF" stroke-width="0.15"/>
<path d="M6.67139 30.0748H9.39961C9.6152 30.0748 9.79028 29.8998 9.79028 29.6842V25.4171C9.79028 25.2014 9.6151 25.0267 9.39961 25.0267H6.67139C6.45559 25.0267 6.28071 25.2011 6.28071 25.4171V29.6842C6.28071 29.9001 6.45585 30.0748 6.67139 30.0748ZM9.00892 25.8075V29.2935H7.06176V25.8078L9.00892 25.8075ZM6.67139 23.6767H9.39961C9.61515 23.6767 9.79028 23.502 9.79028 23.286V16.8854C9.79028 16.6697 9.6151 16.495 9.39961 16.495H6.67139C6.45554 16.495 6.28071 16.6697 6.28071 16.8854V23.286C6.28071 23.502 6.45585 23.6767 6.67139 23.6767ZM9.00892 17.2761V22.8956H7.06176V17.2761H9.00892ZM6.67139 7.6776H9.39961C9.61515 7.6776 9.79028 7.50287 9.79028 7.28693V4.08911C9.79028 3.87316 9.61515 3.69844 9.39961 3.69844H6.67139C6.45544 3.69844 6.28071 3.87357 6.28071 4.08911V7.28693C6.28071 7.50287 6.45585 7.6776 6.67139 7.6776ZM9.00892 4.4798V6.89656H7.06176V4.4798H9.00892Z" fill="#57CCEF" stroke="#57CCEF" stroke-width="0.15"/>
<path d="M26.6476 30.0748H29.3759C29.5915 30.0748 29.7665 29.8998 29.7665 29.6842V25.4171C29.7665 25.2014 29.5914 25.0267 29.3759 25.0267H26.6476C26.4321 25.0267 26.2573 25.2011 26.2573 25.4171V29.6842C26.2573 29.9 26.4316 30.0748 26.6476 30.0748ZM28.9855 25.8075V29.2935H27.0383V25.8075H28.9855ZM26.6476 23.6767H29.3759C29.5914 23.6767 29.7665 23.502 29.7665 23.286V16.8854C29.7665 16.6697 29.5914 16.495 29.3759 16.495H26.6476C26.4321 16.495 26.2573 16.6698 26.2573 16.8854V23.286C26.2573 23.5018 26.4316 23.6767 26.6476 23.6767ZM28.9855 17.2761V22.8956H27.0383V17.2761H28.9855ZM26.6476 7.6776H29.3759C29.5914 7.6776 29.7665 7.50287 29.7665 7.28693V4.08911C29.7665 3.87316 29.5914 3.69844 29.3759 3.69844H26.6476C26.432 3.69844 26.2573 3.87362 26.2573 4.08911V7.28693C26.2573 7.50273 26.4316 7.6776 26.6476 7.6776ZM28.9855 4.4798V6.89656H27.0383V4.4798H28.9855Z" fill="#57CCEF" stroke="#57CCEF" stroke-width="0.15"/>
<path d="M14.7922 7.67619H21.2588C21.4744 7.67619 21.6492 7.50137 21.6492 7.28552V5.15356C21.6492 4.93771 21.4744 4.76289 21.2588 4.76289H14.7922C14.5763 4.76289 14.4016 4.93802 14.4016 5.15356V7.28552C14.4016 7.50142 14.5763 7.67619 14.7922 7.67619ZM20.8681 5.54449V6.89515H15.1829V5.54449H20.8681Z" fill="#57CCEF" stroke="#57CCEF" stroke-width="0.15"/>
<path d="M20.1459 5.54425H20.1002H15.951C15.8221 5.54425 15.7012 5.4808 15.6284 5.37408C15.3094 4.90704 15.1411 4.3573 15.1411 3.78478C15.1411 3.39873 15.2174 3.02359 15.3679 2.67057L15.3679 2.67056C15.5132 2.32971 15.7212 2.024 15.9859 1.76159L15.9859 1.76156C16.2506 1.49947 16.5587 1.29347 16.902 1.14948L16.902 1.14946C17.2574 1.00066 17.6349 0.925 18.0236 0.925C18.4123 0.925 18.79 1.00066 19.1457 1.14945M20.1459 5.54425L15.951 5.46925C15.8468 5.46925 15.7491 5.41793 15.6904 5.33178C15.38 4.8774 15.2161 4.34243 15.2161 3.78478C15.2161 3.40877 15.2904 3.04364 15.4369 2.69998C15.5784 2.36812 15.7809 2.07049 16.0387 1.81485C16.2965 1.55951 16.5966 1.35891 16.931 1.21864C17.2771 1.07371 17.6447 1 18.0236 1C18.4024 1 18.7703 1.07371 19.1168 1.21864C19.4514 1.3586 19.7518 1.5592 20.01 1.81454M20.1459 5.54425L20.1474 5.54135M20.1459 5.54425L20.1474 5.54135M19.1457 1.14945L19.1168 1.21862L19.1457 1.14945C19.1457 1.14945 19.1457 1.14945 19.1457 1.14945ZM19.1457 1.14945C19.4893 1.29314 19.7978 1.49914 20.0627 1.76122L20.01 1.81454M20.01 1.81454L20.0627 1.76122C20.328 2.02363 20.5363 2.32934 20.682 2.67015C20.8331 3.02324 20.9095 3.39841 20.9095 3.78447C20.9095 4.35087 20.7417 4.89976 20.4246 5.37141L20.4246 5.37142C20.3608 5.46634 20.2592 5.52776 20.1474 5.54135M20.01 1.81454L20.1474 5.54135M16.1694 4.76321C16.0075 4.46648 15.9224 4.13197 15.9224 3.78485C15.9224 2.6399 16.8644 1.70671 18.0235 1.70671C19.1848 1.70671 20.1281 2.64001 20.1281 3.78485C20.1281 4.128 20.0431 4.46255 19.8806 4.76321H16.1694Z" fill="#57CCEF" stroke="#57CCEF" stroke-width="0.15"/>
<path d="M18.5504 5.54564H18.446H15.9507C15.821 5.54564 15.7002 5.48133 15.6275 5.3744L15.6274 5.37433C15.3118 4.90896 15.1437 4.36821 15.1408 3.81023L15.1408 3.80984L15.1408 3.80828V3.7862C15.1408 3.45282 15.1983 3.12567 15.3114 2.81477L15.3818 2.84037L15.3114 2.81477C15.4207 2.51442 15.5795 2.23587 15.7829 1.98683L15.7829 1.98681C16.1901 1.4886 16.7596 1.13772 17.3872 0.997833L17.3872 0.997832C17.458 0.982056 17.5319 0.986277 17.6004 1.01016L18.5504 5.54564ZM18.5504 5.54564L18.546 5.53264M18.5504 5.54564L18.546 5.53264M18.546 5.53264C18.6604 5.50243 18.757 5.42135 18.8051 5.30922L18.8051 5.30919C19.0001 4.8539 19.1026 4.32714 19.1026 3.78616C19.1026 3.15277 18.966 2.5534 18.705 2.05334L18.705 2.05332C18.5749 1.80426 18.4179 1.58892 18.238 1.41383L18.2379 1.41379C18.0453 1.22665 17.8308 1.09035 17.6004 1.01016L18.546 5.53264ZM16.1695 4.76459C16.0089 4.47009 15.9239 4.14291 15.9222 3.80748V3.78622C15.9222 2.86363 16.5541 2.04178 17.4415 1.78976C17.6532 1.89709 17.8548 2.11202 18.0125 2.41451L18.0125 2.41452C18.2107 2.79474 18.3215 3.28196 18.3215 3.78623C18.3215 4.13076 18.271 4.46412 18.175 4.76459H16.1695Z" fill="#57CCEF" stroke="#57CCEF" stroke-width="0.15"/>
<path d="M31.8869 25.4163V25.4162V23.2851C31.8869 23.0694 31.7117 22.8947 31.4962 22.8947H4.55078C4.33498 22.8947 4.16011 23.0691 4.16011 23.2851V25.4162C4.16011 25.6321 4.33488 25.8068 4.55078 25.8068H31.4962C31.7119 25.8068 31.8865 25.6317 31.8869 25.4163ZM31.1059 23.6758V25.0255H4.94187V23.6758H31.1059Z" fill="#57CCEF" stroke="#57CCEF" stroke-width="0.15"/>
</svg>
