<svg width="37" height="26" viewBox="0 0 37 26" fill="none" xmlns="http://www.w3.org/2000/svg">
<path d="M36.4033 19.6218C36.4034 20.3812 36.2539 21.1332 35.9633 21.8348C35.6727 22.5365 35.2468 23.174 34.7098 23.711C34.1729 24.248 33.5354 24.6739 32.8338 24.9646C32.1322 25.2552 31.3802 25.4048 30.6208 25.4048C29.8614 25.4048 29.1094 25.2552 28.4078 24.9646C27.7062 24.6739 27.0688 24.248 26.5318 23.711C25.9948 23.174 25.5689 22.5365 25.2783 21.8348C24.9878 21.1332 24.8383 20.3812 24.8383 19.6218C24.8383 18.8624 24.9878 18.1104 25.2783 17.4088C25.5689 16.7072 25.9948 16.0697 26.5318 15.5327C27.0688 14.9957 27.7062 14.5697 28.4078 14.2791C29.1094 13.9885 29.8614 13.8389 30.6208 13.8389C31.3802 13.8389 32.1322 13.9885 32.8338 14.2791C33.5354 14.5697 34.1729 14.9957 34.7098 15.5327C35.2468 16.0697 35.6727 16.7072 35.9633 17.4088C36.2539 18.1104 36.4034 18.8624 36.4033 19.6218Z" fill="white"/>
<path d="M30.6211 26.0005C34.1383 26.0005 36.9998 23.139 36.9998 19.6218C36.9998 16.1046 34.1383 13.2432 30.6211 13.2432C27.1039 13.2432 24.2425 16.1046 24.2425 19.6218C24.2425 23.139 27.1039 26.0005 30.6211 26.0005ZM30.6211 14.4354C33.4826 14.4354 35.8075 16.7604 35.8075 19.6218C35.8075 22.4833 33.4826 24.8082 30.6211 24.8082C27.7597 24.8082 25.4347 22.4833 25.4347 19.6218C25.4347 16.7604 27.7597 14.4354 30.6211 14.4354Z" fill="#57CCEF"/>
<path d="M10.9105 23.7106C10.3735 24.2476 9.73604 24.6736 9.03445 24.9642C8.33287 25.2549 7.5809 25.4045 6.82149 25.4045C6.06209 25.4045 5.31012 25.2549 4.60852 24.9643C3.90692 24.6737 3.26943 24.2477 2.73246 23.7108C2.19549 23.1738 1.76955 22.5363 1.47896 21.8347C1.18838 21.133 1.03883 20.3811 1.03888 19.6217C1.03892 18.8623 1.18854 18.1103 1.47921 17.4087C1.76987 16.7071 2.19588 16.0697 2.73291 15.5328C3.26986 14.9957 3.90733 14.5698 4.60891 14.2791C5.3105 13.9885 6.06247 13.8389 6.82187 13.8389C7.58128 13.8389 8.33325 13.9884 9.03485 14.279C9.73645 14.5696 10.3739 14.9956 10.9109 15.5326C11.4479 16.0696 11.8738 16.7071 12.1644 17.4087C12.455 18.1103 12.6045 18.8623 12.6045 19.6217C12.6045 20.3811 12.4548 21.1331 12.1642 21.8346C11.8735 22.5362 11.4475 23.1737 10.9105 23.7106Z" fill="white"/>
<path d="M6.82336 25.9937C8.45677 25.9937 10.0902 25.3737 11.3361 24.1278C12.5403 22.9236 13.202 21.32 13.202 19.6151C13.202 17.9101 12.5403 16.3065 11.3361 15.1023C10.1319 13.8981 8.5283 13.2364 6.82336 13.2364C5.11841 13.2364 3.51481 13.8981 2.31062 15.1023C-0.175261 17.5882 -0.175261 21.636 2.31062 24.1218C3.55654 25.3737 5.18995 25.9937 6.82336 25.9937ZM6.82336 14.4347C8.20639 14.4347 9.51193 14.9712 10.4896 15.9548C12.5105 17.9757 12.5105 21.2664 10.4896 23.2873C8.46869 25.3082 5.17803 25.3082 3.15713 23.2873C1.13623 21.2664 1.13623 17.9757 3.15713 15.9548C4.13479 14.9712 5.44033 14.4347 6.82336 14.4347ZM30.6211 20.4139C30.6747 20.4139 30.7343 20.4079 30.7939 20.39C31.1099 20.2947 31.2887 19.9668 31.1933 19.6508L26.1143 2.57755C26.1143 2.56563 26.1083 2.55966 26.1083 2.54774C25.7387 1.49258 24.9399 0.711649 24.0278 0.514924C24.0218 0.514924 24.0099 0.508963 24.004 0.508963L21.0948 0.00820994C20.7729 -0.0454422 20.4629 0.169167 20.4033 0.49704C20.3497 0.818953 20.5643 1.12894 20.8921 1.18856L23.7893 1.68931C24.1709 1.77277 24.7014 2.15429 24.9816 2.93523L30.0488 19.9906C30.1263 20.247 30.3647 20.4139 30.6211 20.4139Z" fill="#57CCEF"/>
<path d="M6.82335 20.2174C6.91874 20.2174 7.00816 20.1936 7.09758 20.1519L27.6821 9.54065C27.9265 9.41547 28.0517 9.13528 27.9861 8.87298C27.9206 8.61069 27.6821 8.41992 27.4079 8.41992H8.8204C8.53426 8.41992 8.28984 8.62261 8.23619 8.90279L7.85467 10.9237L6.23914 19.514C6.19741 19.7405 6.28683 19.967 6.47163 20.1042C6.57298 20.1757 6.69817 20.2174 6.82335 20.2174ZM24.9518 9.60623L7.6341 18.5304L9.02309 11.1383L9.3152 9.60623H24.9518Z" fill="#57CCEF"/>
<path d="M8.33189 12.2172C8.61803 12.2172 8.86841 12.0086 8.9161 11.7224L10.168 4.27075C10.2216 3.94883 10.0011 3.63884 9.67915 3.58519C9.35724 3.53154 9.04725 3.75211 8.9936 4.07402L7.74172 11.5257C7.68806 11.8476 7.90863 12.1576 8.23055 12.2113C8.26632 12.2172 8.30208 12.2172 8.33189 12.2172Z" fill="#57CCEF"/>
<path d="M12.5048 5.41605C12.779 5.41605 13.0234 5.22529 13.0831 4.95107C13.1546 4.62916 12.9519 4.3132 12.63 4.24167L6.84748 2.9421C6.52557 2.87056 6.20961 3.07324 6.13808 3.39516C6.06654 3.71707 6.26923 4.03302 6.59114 4.10456L12.3737 5.40413C12.4154 5.41009 12.4631 5.41605 12.5048 5.41605Z" fill="#57CCEF"/>
</svg>
