<svg width="40" height="41" viewBox="0 0 40 41" fill="none" xmlns="http://www.w3.org/2000/svg">
<g clip-path="url(#clip0_6017_172770)">
<path d="M0.533447 24.7309H39.4828V25.8242H0.533447V24.7309ZM39.4828 21.5876H31.9094C31.1468 21.5876 30.5494 20.7949 30.5494 19.7781V14.0928H31.6161V19.7781C31.6161 20.2428 31.8348 20.4942 31.9094 20.4942H39.4828V21.5876Z" fill="#57CCEF"/>
<path d="M11.4399 13.5244H12.5066V29.6839H11.4399V13.5244ZM27.9093 25.8244H22.5439V16.9465C22.5439 16.2851 23.0719 15.7439 23.7173 15.7439H26.7359C27.3813 15.7439 27.9093 16.2851 27.9093 16.9465V25.8244ZM23.6106 24.7311H26.8426V16.9465C26.8426 16.8864 26.7946 16.8372 26.7359 16.8372H23.7173C23.6586 16.8372 23.6106 16.8864 23.6106 16.9465V24.7311ZM19.0026 20.2101H15.6639C15.0186 20.2101 14.4906 19.6689 14.4906 19.0075V16.9465C14.4906 16.2851 15.0186 15.7439 15.6639 15.7439H19.0026C19.6479 15.7439 20.1759 16.2851 20.1759 16.9465V19.0075C20.1759 19.6689 19.6479 20.2101 19.0026 20.2101ZM15.6639 16.8372C15.6053 16.8372 15.5573 16.8864 15.5573 16.9465V19.0075C15.5573 19.0676 15.6053 19.1168 15.6639 19.1168H19.0026C19.0613 19.1168 19.1093 19.0676 19.1093 19.0075V16.9465C19.1093 16.8864 19.0613 16.8372 19.0026 16.8372H15.6639ZM7.84525 20.2101H4.50659C3.86125 20.2101 3.33325 19.6689 3.33325 19.0075V16.9465C3.33325 16.2851 3.86125 15.7439 4.50659 15.7439H7.84525C8.49059 15.7439 9.01859 16.2851 9.01859 16.9465V19.0075C9.01859 19.6689 8.49059 20.2101 7.84525 20.2101ZM4.50659 16.8372C4.44792 16.8372 4.39992 16.8864 4.39992 16.9465V19.0075C4.39992 19.0676 4.44792 19.1168 4.50659 19.1168H7.84525C7.90392 19.1168 7.95192 19.0676 7.95192 19.0075V16.9465C7.95192 16.8864 7.90392 16.8372 7.84525 16.8372H4.50659Z" fill="#57CCEF"/>
<path d="M37.8827 30.2303H2.13333C0.954667 30.2303 0 29.2518 0 28.0437V15.1642C0 13.9561 0.954667 12.9775 2.13333 12.9775H33.0773C36.9013 12.9775 40.0107 16.1646 40.0107 20.0842V28.0437C40.016 28.6231 39.792 29.1698 39.392 29.5853C38.9867 30.0007 38.4533 30.2303 37.8827 30.2303ZM2.13333 14.0709C1.54667 14.0709 1.06667 14.5629 1.06667 15.1642V28.0437C1.06667 28.645 1.54667 29.137 2.13333 29.137H37.8827C38.1653 29.137 38.432 29.0222 38.6347 28.8145C38.8373 28.6067 38.944 28.3334 38.944 28.0491V20.0842C38.944 16.7659 36.3147 14.0709 33.0773 14.0709H2.13333Z" fill="#57CCEF"/>
<path d="M3.71729 29.8375C3.71729 30.5059 3.97632 31.1469 4.43741 31.6195C4.8985 32.0921 5.52387 32.3576 6.17595 32.3576C6.82803 32.3576 7.4534 32.0921 7.91449 31.6195C8.37558 31.1469 8.63462 30.5059 8.63462 29.8375C8.63462 29.1691 8.37558 28.5281 7.91449 28.0555C7.4534 27.5829 6.82803 27.3174 6.17595 27.3174C5.52387 27.3174 4.8985 27.5829 4.43741 28.0555C3.97632 28.5281 3.71729 29.1691 3.71729 29.8375Z" fill="white"/>
<path d="M6.17608 32.9041C4.52808 32.9041 3.18408 31.5265 3.18408 29.8373C3.18408 28.1481 4.52808 26.7705 6.17608 26.7705C7.82408 26.7705 9.16808 28.1481 9.16808 29.8373C9.16808 31.5265 7.82408 32.9041 6.17608 32.9041ZM6.17608 27.8638C5.11475 27.8638 4.25075 28.7494 4.25075 29.8373C4.25075 30.9252 5.11475 31.8108 6.17608 31.8108C7.23742 31.8108 8.10142 30.9252 8.10142 29.8373C8.10142 28.7494 7.23742 27.8638 6.17608 27.8638Z" fill="#57CCEF"/>
<path d="M14.5012 29.8375C14.5012 30.5059 14.7603 31.1469 15.2213 31.6195C15.6824 32.0921 16.3078 32.3576 16.9599 32.3576C17.612 32.3576 18.2373 32.0921 18.6984 31.6195C19.1595 31.1469 19.4186 30.5059 19.4186 29.8375C19.4186 29.1691 19.1595 28.5281 18.6984 28.0555C18.2373 27.5829 17.612 27.3174 16.9599 27.3174C16.3078 27.3174 15.6824 27.5829 15.2213 28.0555C14.7603 28.5281 14.5012 29.1691 14.5012 29.8375Z" fill="white"/>
<path d="M16.96 32.9041C15.312 32.9041 13.968 31.5265 13.968 29.8373C13.968 28.1481 15.312 26.7705 16.96 26.7705C18.608 26.7705 19.952 28.1481 19.952 29.8373C19.952 31.5265 18.608 32.9041 16.96 32.9041ZM16.96 27.8638C15.8987 27.8638 15.0347 28.7494 15.0347 29.8373C15.0347 30.9252 15.8987 31.8108 16.96 31.8108C18.0213 31.8108 18.8854 30.9252 18.8854 29.8373C18.8854 28.7494 18.0213 27.8638 16.96 27.8638Z" fill="#57CCEF"/>
<path d="M25.2854 29.8375C25.2854 30.5059 25.5444 31.1469 26.0055 31.6195C26.4666 32.0921 27.092 32.3576 27.7441 32.3576C28.3961 32.3576 29.0215 32.0921 29.4826 31.6195C29.9437 31.1469 30.2027 30.5059 30.2027 29.8375C30.2027 29.1691 29.9437 28.5281 29.4826 28.0555C29.0215 27.5829 28.3961 27.3174 27.7441 27.3174C27.092 27.3174 26.4666 27.5829 26.0055 28.0555C25.5444 28.5281 25.2854 29.1691 25.2854 29.8375Z" fill="white"/>
<path d="M27.7439 32.9041C26.096 32.9041 24.752 31.5265 24.752 29.8373C24.752 28.1481 26.096 26.7705 27.7439 26.7705C29.3919 26.7705 30.7359 28.1481 30.7359 29.8373C30.7359 31.5265 29.3919 32.9041 27.7439 32.9041ZM27.7439 27.8638C26.6826 27.8638 25.8186 28.7494 25.8186 29.8373C25.8186 30.9252 26.6826 31.8108 27.7439 31.8108C28.8053 31.8108 29.6693 30.9252 29.6693 29.8373C29.6693 28.7494 28.8053 27.8638 27.7439 27.8638Z" fill="#57CCEF"/>
</g>
<defs>
<clipPath id="clip0_6017_172770">
<rect width="40" height="41" fill="white"/>
</clipPath>
</defs>
</svg>
