<svg width="40" height="40" viewBox="0 0 40 40" fill="none" xmlns="http://www.w3.org/2000/svg">
<g clip-path="url(#clip0_6008_172707)">
<path d="M1.77663 25.6104H38.2114C39.1951 25.6104 40 24.8055 40 23.8217V20.7512C40 19.0401 38.7301 17.5018 36.4346 16.4227C34.1631 15.3555 31.0687 14.7891 27.4795 14.7891H4.1615C1.86011 14.7891 -0.0120087 16.6612 -0.0120087 18.9626V23.8217C-0.0120087 24.8055 0.792881 25.6104 1.77663 25.6104ZM27.4795 15.9815C30.8421 15.9815 33.8411 16.524 35.9219 17.5018C37.7821 18.3783 38.8076 19.529 38.8076 20.7512V23.8217C38.8076 24.1496 38.5393 24.4179 38.2114 24.4179H1.77663C1.44872 24.4179 1.18042 24.1496 1.18042 23.8217V18.9626C1.18042 17.317 2.51595 15.9815 4.1615 15.9815H27.4795Z" fill="#57CCEF"/>
<path d="M34.3955 24.9547C34.3956 25.4253 34.3029 25.8913 34.1229 26.3261C33.9428 26.7608 33.6789 27.1559 33.3461 27.4887C33.0134 27.8214 32.6183 28.0854 32.1836 28.2655C31.7488 28.4456 31.2828 28.5383 30.8123 28.5383C30.3417 28.5383 29.8757 28.4456 29.4409 28.2655C29.0062 28.0854 28.6111 27.8214 28.2784 27.4887C27.9456 27.1559 27.6817 26.7608 27.5017 26.3261C27.3216 25.8913 27.229 25.4253 27.229 24.9547C27.229 24.4841 27.3216 24.0181 27.5017 23.5833C27.6817 23.1486 27.9456 22.7535 28.2784 22.4207C28.6111 22.088 29.0062 21.824 29.4409 21.6439C29.8757 21.4638 30.3417 21.3711 30.8123 21.3711C31.2828 21.3711 31.7488 21.4638 32.1836 21.6439C32.6183 21.824 33.0134 22.088 33.3461 22.4207C33.6789 22.7535 33.9428 23.1486 34.1229 23.5833C34.3029 24.0181 34.3956 24.4841 34.3955 24.9547Z" fill="white"/>
<path d="M30.8122 29.1343C33.1196 29.1343 34.9917 27.2622 34.9917 24.9549C34.9917 22.6475 33.1196 20.7754 30.8122 20.7754C28.5049 20.7754 26.6328 22.6475 26.6328 24.9549C26.6328 27.2622 28.5049 29.1343 30.8122 29.1343ZM30.8122 21.9678C32.4578 21.9678 33.7993 23.3093 33.7993 24.9549C33.7993 26.6004 32.4578 27.9419 30.8122 27.9419C29.1667 27.9419 27.8252 26.6004 27.8252 24.9549C27.8252 23.3093 29.1667 21.9678 30.8122 21.9678Z" fill="#57CCEF"/>
<path d="M13.0928 24.9547C13.0928 25.4253 13.0002 25.8913 12.8201 26.3261C12.6401 26.7608 12.3761 27.1559 12.0434 27.4887C11.7106 27.8214 11.3156 28.0854 10.8809 28.2655C10.4461 28.4456 9.98011 28.5383 9.50952 28.5383C9.03893 28.5383 8.57295 28.4456 8.13819 28.2655C7.70342 28.0854 7.30839 27.8214 6.97565 27.4887C6.64291 27.1559 6.37898 26.7608 6.19892 26.3261C6.01887 25.8913 5.92622 25.4253 5.92627 24.9547C5.92622 24.4841 6.01887 24.0181 6.19892 23.5833C6.37898 23.1486 6.64291 22.7535 6.97565 22.4207C7.30839 22.088 7.70342 21.824 8.13819 21.6439C8.57295 21.4638 9.03893 21.3711 9.50952 21.3711C9.98011 21.3711 10.4461 21.4638 10.8809 21.6439C11.3156 21.824 11.7106 22.088 12.0434 22.4207C12.3761 22.7535 12.6401 23.1486 12.8201 23.5833C13.0002 24.0181 13.0928 24.4841 13.0928 24.9547Z" fill="white"/>
<path d="M9.50945 29.1339C11.8168 29.1339 13.6889 27.2618 13.6889 24.9545C13.6889 22.6471 11.8168 20.775 9.50945 20.775C7.2021 20.775 5.32998 22.6471 5.32998 24.9545C5.32998 27.2618 7.2021 29.1339 9.50945 29.1339ZM9.50945 21.9674C11.155 21.9674 12.4965 23.3089 12.4965 24.9545C12.4965 26.6 11.155 27.9415 9.50945 27.9415C7.8639 27.9415 6.52241 26.6 6.52241 24.9545C6.52241 23.3089 7.8639 21.9674 9.50945 21.9674ZM1.39496 17.8357L4.4297 9.97753C4.73377 9.13091 5.54462 8.5645 6.43894 8.5645H22.4294C23.2284 8.5645 23.9796 8.958 24.4387 9.61384L24.4506 9.63173L29.2203 15.8264L30.1624 15.099L25.3986 8.91627C24.7129 7.9504 23.598 7.37207 22.4235 7.37207H6.43298C5.03784 7.37207 3.78578 8.25447 3.30285 9.56614L0.274073 17.4064L1.39496 17.8357Z" fill="#57CCEF"/>
<path d="M25.4681 15.0212L19.72 7.61035L18.7778 8.34119L24.5258 15.752L25.4681 15.0212ZM8.71803 8.1724L7.59392 7.77449L4.96968 15.188L6.09378 15.5859L8.71803 8.1724ZM39.4038 21.5804V20.388C37.7404 20.388 36.381 20.0243 35.4747 19.3327C34.5089 18.5993 34.02 17.4904 34.02 16.0237H32.8276C32.8276 17.854 33.4953 19.3207 34.7533 20.2806C35.8861 21.1452 37.4542 21.5804 39.4038 21.5804Z" fill="#57CCEF"/>
<path d="M16.5031 19.6963H24.6355C24.9634 19.6963 25.2317 19.428 25.2317 19.1001C25.2317 18.7722 24.9634 18.5039 24.6355 18.5039H16.5031C16.1752 18.5039 15.9069 18.7722 15.9069 19.1001C15.9069 19.428 16.1752 19.6963 16.5031 19.6963Z" fill="#57CCEF"/>
<path d="M0.846642 20.5667H2.99302C3.96485 20.5667 4.75781 19.7737 4.75781 18.8019C4.75781 17.8301 3.96485 17.0371 2.99302 17.0371H0.846642C0.518724 17.0371 0.250423 17.3054 0.250423 17.6333C0.250423 17.9612 0.518724 18.2295 0.846642 18.2295H2.99302C3.30901 18.2295 3.56538 18.4859 3.56538 18.8019C3.56538 19.1179 3.30901 19.3743 2.99302 19.3743H0.846642C0.518724 19.3743 0.250423 19.6426 0.250423 19.9705C0.250423 20.2984 0.518724 20.5667 0.846642 20.5667Z" fill="#57CCEF"/>
</g>
<defs>
<clipPath id="clip0_6008_172707">
<rect width="40" height="40" fill="white" transform="matrix(-1 0 0 1 40 0)"/>
</clipPath>
</defs>
</svg>
