<svg width="36" height="36" viewBox="0 0 36 36" fill="none" xmlns="http://www.w3.org/2000/svg">
<path d="M28.1775 27.7763H7.76437C6.50124 27.7748 5.29027 27.2723 4.3971 26.3792C3.50393 25.486 3.00149 24.275 3 23.0119L3 10.7644C3 8.13937 5.1375 6 7.76437 6H28.1775C30.8025 6 32.9419 8.13937 32.9419 10.7644V23.0138C32.9419 25.6388 30.8025 27.7763 28.1775 27.7763ZM7.76437 7.36313C6.86229 7.36362 5.99726 7.72207 5.35921 8.35976C4.72116 8.99746 4.36224 9.86229 4.36125 10.7644V23.0138C4.36125 24.8906 5.8875 26.415 7.76437 26.415H28.1775C29.0794 26.4145 29.9442 26.056 30.582 25.4183C31.2197 24.7805 31.5783 23.9157 31.5787 23.0138V10.7644C31.5783 9.86246 31.2197 8.99763 30.582 8.35988C29.9442 7.72213 29.0794 7.36362 28.1775 7.36313H7.76437ZM26.1375 30.4969H9.80437C9.62386 30.4969 9.45074 30.4252 9.3231 30.2975C9.19546 30.1699 9.12375 29.9968 9.12375 29.8163C9.12375 29.6357 9.19546 29.4626 9.3231 29.335C9.45074 29.2073 9.62386 29.1356 9.80437 29.1356H26.1375C26.3093 29.1484 26.4699 29.2256 26.5871 29.3519C26.7043 29.4781 26.7694 29.644 26.7694 29.8163C26.7694 29.9885 26.7043 30.1544 26.5871 30.2806C26.4699 30.4069 26.3093 30.4841 26.1375 30.4969Z" fill="#57CCEF"/>
<path d="M17.97 30.4967C17.7898 30.4967 17.617 30.4252 17.4894 30.298C17.3618 30.1708 17.2898 29.9981 17.2894 29.8179V27.0973C17.2824 27.0037 17.2948 26.9096 17.3259 26.821C17.3569 26.7324 17.4059 26.6512 17.4698 26.5824C17.5337 26.5136 17.6111 26.4587 17.6972 26.4212C17.7832 26.3836 17.8761 26.3643 17.97 26.3643C18.0639 26.3643 18.1567 26.3836 18.2428 26.4212C18.3289 26.4587 18.4062 26.5136 18.4701 26.5824C18.534 26.6512 18.583 26.7324 18.6141 26.821C18.6451 26.9096 18.6576 27.0037 18.6506 27.0973V29.8179C18.6506 29.9072 18.633 29.9956 18.5988 30.0781C18.5645 30.1606 18.5144 30.2355 18.4511 30.2986C18.3879 30.3616 18.3129 30.4116 18.2303 30.4456C18.1477 30.4796 18.0593 30.4969 17.97 30.4967Z" fill="#57CCEF"/>
</svg>
