<svg width="36" height="36" viewBox="0 0 36 36" fill="none" xmlns="http://www.w3.org/2000/svg">
<path d="M19.1125 9.31787L19.8574 9.27256C19.9574 9.2667 22.3226 9.10381 23.6984 7.31943C25.0461 5.571 24.805 2.90889 24.7922 2.79639L24.7234 2.08936H24.0132C23.9257 2.08936 21.8531 2.10967 20.3414 3.58389C19.6273 4.28037 19.1918 5.34521 19.0461 6.74795C18.9832 7.35482 18.9781 7.96629 19.0308 8.57412L19.1125 9.31787ZM21.4347 4.70342C22.0043 4.14795 22.7144 3.88584 23.2461 3.7624C23.2109 4.50459 23.0507 5.60068 22.4609 6.36553C21.9336 7.04912 21.1484 7.39014 20.5605 7.55732C20.5832 6.62842 20.7691 5.35303 21.4347 4.70342Z" fill="#57CCEF"/>
<path d="M28.573 11.558C25.8359 9.52871 22.075 10.1768 19.5863 10.6053C19.1718 10.6768 18.7882 10.7428 18.4535 10.7889C18.2527 8.72402 17.3129 6.86777 15.7043 5.37988C14.3441 4.12168 12.982 3.56855 12.9246 3.54395L12.3445 4.99473C12.3558 4.99902 13.4933 5.46113 14.6433 6.52481C15.939 7.72324 16.689 9.1502 16.8816 10.776C16.5984 10.7369 16.2812 10.685 15.9441 10.6299C13.4148 10.2209 9.59255 9.60137 6.89333 11.7822C6.04177 12.4709 5.36638 13.3959 4.88669 14.5311C4.37419 15.742 4.07067 17.2338 3.98434 18.96C3.85622 21.5236 4.21872 23.9209 5.06247 26.0861C5.75592 27.8772 6.79371 29.515 8.11716 30.9068C9.33903 32.1916 10.5308 32.9732 11.3156 33.4029C12.3183 33.9521 13.2394 34.2545 13.9082 34.2545C14.9129 34.2545 15.6316 34.1029 16.2656 33.9689C16.8316 33.8518 17.3203 33.7467 17.9711 33.7467C18.5918 33.7467 19.0215 33.8428 19.5191 33.9545C20.1472 34.0951 20.859 34.2545 22.034 34.2545C22.9992 34.2545 23.9824 33.9736 24.9566 33.4197C25.8457 32.9119 26.7074 32.1916 27.5183 31.2713C28.9375 29.6639 30.1363 27.5029 30.8937 25.1873C31.7047 22.7072 31.982 20.1822 31.6949 17.8857C31.3277 14.9529 30.2773 12.8217 28.573 11.558ZM29.4086 24.7025C28.716 26.8193 27.6281 28.7857 26.3449 30.2393C24.9488 31.8209 23.4152 32.692 22.032 32.692C21.0297 32.692 20.4343 32.5588 19.8586 32.4295C19.3199 32.3088 18.7625 32.1842 17.9691 32.1842C17.155 32.1842 16.5379 32.3143 15.9414 32.44C15.3273 32.5697 14.7476 32.692 13.9062 32.692C13.2308 32.692 11.1718 31.8525 9.24723 29.8299C7.40856 27.8975 5.27419 24.4564 5.54489 19.0381C5.68864 16.1639 6.47302 14.1326 7.87575 12.9975C8.81325 12.2408 10.0386 11.8467 11.6258 11.7932C13.0511 11.7447 14.5164 11.983 15.6922 12.174C16.4925 12.3041 17.184 12.4162 17.7136 12.4162C18.2754 12.4162 19.005 12.2908 19.85 12.1451C22.2093 11.7389 25.441 11.1822 27.6406 12.8131C28.989 13.8127 29.8308 15.5846 30.1429 18.0803C30.4031 20.1482 30.1484 22.4396 29.4086 24.7025Z" fill="#57CCEF"/>
</svg>
