<svg width="36" height="36" viewBox="0 0 36 36" fill="none" xmlns="http://www.w3.org/2000/svg">
<path d="M30.0664 24.1943H7.49609C6.87734 24.1943 6.37109 23.6881 6.37109 23.0693V19.7646C6.37109 17.4373 8.2625 15.5459 10.5898 15.5459H26.9727C29.3 15.5459 31.1914 17.4373 31.1914 19.7646V23.0693C31.1914 23.6916 30.6887 24.1943 30.0664 24.1943ZM7.77734 22.7881H29.7852V19.7646C29.7852 18.2143 28.523 16.9521 26.9727 16.9521H10.5898C9.03945 16.9521 7.77734 18.2143 7.77734 19.7646V22.7881Z" fill="#57CCEF"/>
<path d="M7.07422 33.7217C6.6875 33.7217 6.37109 33.4053 6.37109 33.0186V23.0693C6.37109 22.6826 6.6875 22.3662 7.07422 22.3662C7.46094 22.3662 7.77734 22.6826 7.77734 23.0693V33.0186C7.77734 33.4088 7.46445 33.7217 7.07422 33.7217ZM30.4883 33.7217C30.1016 33.7217 29.7852 33.4053 29.7852 33.0186V23.0693C29.7852 22.6826 30.1016 22.3662 30.4883 22.3662C30.875 22.3662 31.1914 22.6826 31.1914 23.0693V33.0186C31.1914 33.4088 30.8785 33.7217 30.4883 33.7217ZM11.2227 30.0303C10.8359 30.0303 10.5195 29.7139 10.5195 29.3271V23.4912C10.5195 23.1045 10.8359 22.7881 11.2227 22.7881C11.6094 22.7881 11.9258 23.1045 11.9258 23.4912V29.3271C11.9258 29.7174 11.6129 30.0303 11.2227 30.0303ZM27.2188 30.0303C26.832 30.0303 26.5156 29.7139 26.5156 29.3271V23.4912C26.5156 23.1045 26.832 22.7881 27.2188 22.7881C27.6055 22.7881 27.9219 23.1045 27.9219 23.4912V29.3271C27.9219 29.7174 27.609 30.0303 27.2188 30.0303Z" fill="#57CCEF"/>
<path d="M28.6426 17.0576C28.2559 17.0576 27.9395 16.7412 27.9395 16.3545V3.7334H9.62305V16.3545C9.62305 16.7412 9.30664 17.0576 8.91992 17.0576C8.5332 17.0576 8.2168 16.7412 8.2168 16.3545V3.61387C8.2168 2.89316 8.7125 2.32715 9.34531 2.32715H28.2137C28.8465 2.32715 29.3422 2.89316 29.3422 3.61387V16.3545C29.3457 16.7447 29.0328 17.0576 28.6426 17.0576Z" fill="#57CCEF"/>
</svg>
