<svg width="36" height="36" viewBox="0 0 36 36" fill="none" xmlns="http://www.w3.org/2000/svg">
<path d="M6.55689 34.11C6.39305 34.11 6.22921 34.0554 6.09267 33.9189C5.7923 33.6731 5.76499 33.2089 6.01075 32.8812L8.74142 29.6863L8.57758 29.5498C5.13694 26.7918 3.17086 22.6685 3.17086 18.2722C3.17086 16.5792 3.47124 14.9135 4.01737 13.3297L4.07198 13.1931L3.96276 13.1112C2.65204 12.1009 1.88745 10.5717 1.88745 8.9333C1.88745 6.0388 4.23582 3.69043 7.13032 3.69043C8.57758 3.69043 9.9156 4.26387 10.8986 5.27421L11.0079 5.38344L11.1444 5.32883C13.1924 4.26387 15.4862 3.71774 17.8072 3.71774C20.1556 3.71774 22.5313 4.31848 24.6612 5.43805L24.7977 5.51997L24.9069 5.41075C25.89 4.34579 27.2826 3.71774 28.7572 3.71774C31.6517 3.71774 34 6.06611 34 8.96061C34 10.7082 33.1262 12.3466 31.679 13.3297L31.5425 13.4116L31.5971 13.5481C32.1159 15.0773 32.389 16.6611 32.389 18.3268C32.389 22.7505 30.4229 26.8738 26.9822 29.6317L26.8184 29.741L29.4945 32.9358C29.631 33.0724 29.6856 33.2635 29.6583 33.4547C29.631 33.6458 29.5491 33.837 29.3852 33.9735C29.2487 34.0827 29.0849 34.1373 28.8937 34.1373C28.6753 34.1373 28.4841 34.0554 28.3203 33.8916L25.535 30.6148L25.3985 30.6967C23.0774 32.1166 20.4287 32.8812 17.7253 32.8812C14.9946 32.8812 12.3459 32.1166 10.0521 30.6967L9.9156 30.6148L7.10302 33.9189C6.96648 34.0008 6.74803 34.11 6.55689 34.11ZM17.7799 5.13768C10.5437 5.13768 4.67273 11.0086 4.67273 18.2449C4.67273 25.4811 10.5437 31.352 17.7799 31.352C25.0162 31.352 30.8871 25.4811 30.8871 18.2449C30.8871 11.0086 24.9889 5.13768 17.7799 5.13768ZM28.7026 5.13768C27.7741 5.13768 26.9003 5.46536 26.2177 6.09341L26.0265 6.25725L26.2177 6.39379C28.1564 7.78642 29.7402 9.64327 30.8052 11.7732L30.9144 11.9916L31.1055 11.8278C31.9794 11.1178 32.4709 10.0529 32.4709 8.9333C32.4709 6.83069 30.7779 5.13768 28.7026 5.13768ZM7.15763 5.13768C5.08233 5.13768 3.38932 6.83069 3.38932 8.906C3.38932 9.94365 3.79892 10.8994 4.53619 11.6094L4.72734 11.8005L4.83657 11.582C5.92883 9.47944 7.53992 7.62258 9.506 6.28456L9.72445 6.14803L9.53331 5.98419C8.85064 5.43805 8.00414 5.13768 7.15763 5.13768Z" fill="#57CCEF"/>
<path d="M17.7527 18.9821C17.3431 18.9821 17.0154 18.6544 17.0154 18.2448V9.75242C17.0154 9.34282 17.3431 9.01514 17.7527 9.01514C18.1623 9.01514 18.4899 9.34282 18.4899 9.75242V17.5075H25.7262C26.1358 17.5075 26.4635 17.8352 26.4635 18.2448C26.4635 18.6544 26.1358 18.9821 25.7262 18.9821H17.7527Z" fill="#57CCEF"/>
</svg>
