<svg width="34" height="34" viewBox="0 0 34 34" fill="none" xmlns="http://www.w3.org/2000/svg">
<path d="M26.9323 12.884C26.828 12.7118 26.6454 12.6075 26.4419 12.6075H17.3443C17.1461 12.6075 16.9583 12.7118 16.854 12.884C16.807 12.9622 16.2071 13.9794 15.6438 15.4818C15.1638 14.4281 14.4335 13.7604 13.8388 13.2231C13.6771 13.077 13.5206 12.9361 13.3798 12.7953C12.926 12.3362 12.8216 11.4651 12.8164 11.173V3.74465H12.8738C13.1868 3.74465 13.4424 3.48905 13.4424 3.17605C13.4424 2.86306 13.192 2.60224 12.8738 2.60224H12.3261V1.31898C12.3261 0.760811 11.8722 0.301758 11.3141 0.301758H9.6865C9.12834 0.301758 8.6745 0.755594 8.6745 1.31898V2.60224H8.12677C7.81377 2.60224 7.55817 2.85785 7.55817 3.17084C7.55817 3.48383 7.81377 3.73944 8.12677 3.73944H8.18415V11.1625C8.17893 11.4599 8.0746 12.3258 7.62076 12.7901C7.48513 12.9309 7.32864 13.0718 7.16171 13.2178C6.18622 14.0994 4.84558 15.3097 4.84558 18.0014V32.159C4.84558 32.9988 5.53416 33.6874 6.37923 33.6874H14.6213C15.4664 33.6874 16.155 33.0041 16.155 32.159V24.3707C16.4836 24.7046 16.8801 25.0124 17.36 25.268C17.4278 25.3045 18.951 26.0713 21.3193 26.1913V32.5554H18.6902C18.3772 32.5554 18.1216 32.8111 18.1216 33.124C18.1216 33.437 18.3772 33.6926 18.6902 33.6926H25.0909C25.4038 33.6926 25.6595 33.437 25.6595 33.124C25.6595 32.8111 25.4038 32.5554 25.0909 32.5554H22.4617V26.1913C24.8613 26.0765 26.3637 25.2993 26.4211 25.268C29.0971 23.8804 29.1493 20.7922 29.1493 20.667C29.2171 16.7442 27.0262 13.0405 26.9323 12.884ZM17.6782 13.7499H26.1081C26.5984 14.6524 28.059 17.631 28.0121 20.6514C28.0121 20.6931 27.9965 21.1521 27.8347 21.752H15.9567C15.7898 21.1574 15.7794 20.6931 15.7794 20.6514C15.7272 17.6414 17.1931 14.6576 17.6782 13.7499ZM15.0126 27.2972H5.98278V20.2288H14.6422C14.637 20.3749 14.5744 21.6008 15.0126 22.5397V27.2972ZM11.3767 1.25638V2.60224H9.63955V1.25638H11.3767ZM7.92332 14.0733C8.1059 13.9064 8.27804 13.7551 8.42932 13.5986C9.31091 12.7066 9.32135 11.2356 9.32135 11.173V3.74465H11.6792V11.173C11.6792 11.2356 11.6896 12.7066 12.5712 13.5986C12.7225 13.7499 12.8947 13.9064 13.0772 14.0733C13.9223 14.835 14.8769 15.7009 15.0021 17.5841C14.8717 18.1266 14.7674 18.6952 14.7048 19.2794H5.98278V18.0118C5.98278 15.8209 7.01565 14.8923 7.92332 14.0733ZM14.6213 32.5502H6.37923C6.16536 32.5502 5.988 32.3781 5.988 32.1642V28.2466H15.0178V32.1642C15.0126 32.3781 14.8404 32.5502 14.6213 32.5502ZM25.8942 24.2612C25.8785 24.2716 24.3345 25.075 21.8931 25.075C19.4935 25.075 17.9077 24.2664 17.8921 24.256C17.1357 23.8595 16.6505 23.2805 16.3376 22.7015H27.4592C27.1409 23.2805 26.6558 23.8647 25.8942 24.2612Z" fill="#57CCEF"/>
</svg>
