<svg width="40" height="40" viewBox="0 0 40 40" fill="none" xmlns="http://www.w3.org/2000/svg">
<g clip-path="url(#clip0_6024_172866)">
<path d="M0.63208 24.7536C0.632032 25.2523 0.730214 25.7461 0.92102 26.2068C1.11182 26.6676 1.39152 27.0862 1.74412 27.4389C2.09673 27.7915 2.51534 28.0712 2.97606 28.2621C3.43678 28.4529 3.93058 28.5511 4.42927 28.5511C4.92795 28.5511 5.42175 28.4529 5.88247 28.2621C6.34319 28.0712 6.7618 27.7915 7.11441 27.4389C7.46702 27.0862 7.74671 26.6676 7.93751 26.2068C8.12832 25.7461 8.2265 25.2523 8.22645 24.7536C8.2265 24.2549 8.12832 23.7611 7.93751 23.3004C7.74671 22.8396 7.46702 22.421 7.11441 22.0684C6.7618 21.7157 6.34319 21.436 5.88247 21.2451C5.42175 21.0543 4.92795 20.9561 4.42927 20.9561C3.93058 20.9561 3.43678 21.0543 2.97606 21.2451C2.51534 21.436 2.09673 21.7157 1.74412 22.0684C1.39152 22.421 1.11182 22.8396 0.92102 23.3004C0.730214 23.7611 0.632032 24.2549 0.63208 24.7536Z" fill="white"/>
<path d="M4.42923 29.1417C2.00801 29.1417 0.0415039 27.1752 0.0415039 24.7539C0.0415039 22.3327 2.00801 20.3662 4.42923 20.3662C6.85046 20.3662 8.81696 22.3327 8.81696 24.7539C8.81696 27.1752 6.85046 29.1417 4.42923 29.1417ZM4.42923 21.5473C2.66351 21.5473 1.22259 22.9882 1.22259 24.7539C1.22259 26.5197 2.66351 27.9606 4.42923 27.9606C6.19495 27.9606 7.63588 26.5197 7.63588 24.7539C7.63588 22.9882 6.19495 21.5473 4.42923 21.5473Z" fill="#57CCEF"/>
<path d="M31.8481 24.7536C31.8481 25.2523 31.9463 25.7461 32.1371 26.2068C32.3279 26.6676 32.6076 27.0862 32.9602 27.4389C33.3128 27.7915 33.7314 28.0712 34.1921 28.2621C34.6528 28.4529 35.1466 28.5511 35.6453 28.5511C36.144 28.5511 36.6378 28.4529 37.0985 28.2621C37.5593 28.0712 37.9779 27.7915 38.3305 27.4389C38.6831 27.0862 38.9628 26.6676 39.1536 26.2068C39.3444 25.7461 39.4426 25.2523 39.4425 24.7536C39.4426 24.2549 39.3444 23.7611 39.1536 23.3004C38.9628 22.8396 38.6831 22.421 38.3305 22.0684C37.9779 21.7157 37.5593 21.436 37.0985 21.2451C36.6378 21.0543 36.144 20.9561 35.6453 20.9561C35.1466 20.9561 34.6528 21.0543 34.1921 21.2451C33.7314 21.436 33.3128 21.7157 32.9602 22.0684C32.6076 22.421 32.3279 22.8396 32.1371 23.3004C31.9463 23.7611 31.8481 24.2549 31.8481 24.7536Z" fill="white"/>
<path d="M35.6454 29.1414C33.2242 29.1414 31.2576 27.1749 31.2576 24.7536C31.2576 22.3324 33.2242 20.3659 35.6454 20.3659C38.0666 20.3659 40.0331 22.3324 40.0331 24.7536C40.0331 27.1749 38.0666 29.1414 35.6454 29.1414ZM35.6454 21.547C33.8797 21.547 32.4387 22.9879 32.4387 24.7536C32.4387 26.5194 33.8797 27.9603 35.6454 27.9603C37.4111 27.9603 38.852 26.5194 38.852 24.7536C38.852 22.9879 37.4111 21.547 35.6454 21.547ZM25.4821 23.9446H12.6556C11.9292 23.9446 11.4745 23.4544 11.3269 23.295L11.2855 23.2478L8.47454 18.4289H1.14C0.655758 18.4289 0.319149 18.2813 0.130176 17.9919C-0.0233649 17.7557 -0.0410812 17.4486 0.0770272 17.177L0.100649 17.1356L1.41165 14.7499C1.71873 14.1416 2.14983 14.0176 2.46282 14.0176H18.2362C18.6555 14.0176 19.0393 14.2125 19.2342 14.5254C19.3878 14.7676 19.4055 15.0569 19.2874 15.305L19.2756 15.3345L18.4842 16.7695C18.3661 17.0175 18.2067 17.4782 18.4429 17.8502C18.7027 18.2636 19.3818 18.4939 20.3681 18.4939H27.7853C28.0805 18.4939 28.364 18.6356 28.5648 18.8896C28.7892 19.1789 28.8778 19.5628 28.7892 19.8994L28.7715 19.9761L26.9998 23.0411C26.5746 23.6493 26.0786 23.9446 25.4821 23.9446ZM12.2422 22.5391C12.3957 22.6985 12.5197 22.7635 12.6556 22.7635H25.4821C25.5766 22.7635 25.7479 22.7635 26.0195 22.3856L27.5727 19.6632H20.3562C18.5551 19.6632 17.7697 19.0136 17.4331 18.4644C17.0374 17.8325 17.0374 17.0175 17.4212 16.2262L17.4331 16.2026L17.9882 15.1928H2.51597C2.50416 15.2105 2.48644 15.24 2.46282 15.2872L2.45101 15.305L1.38213 17.2478H9.14775L12.2422 22.5391Z" fill="#57CCEF"/>
<path d="M20.8581 17.8213C20.2676 17.8213 19.7833 17.5969 19.5589 17.2131C19.3759 16.906 19.3877 16.534 19.5826 16.1914L21.2125 13.221C21.4192 12.725 21.8621 12.4297 22.4172 12.4297H30.3127C30.8796 12.4297 31.3462 12.8962 31.3462 13.4749V13.6226L29.5568 17.0182C29.3974 17.4139 28.984 17.8213 28.423 17.8213H20.8581ZM20.6928 16.6284C20.7459 16.6403 20.8109 16.6462 20.8936 16.6403H28.4053C28.423 16.6284 28.4525 16.593 28.4643 16.5694L28.4761 16.528L30.0174 13.6049H22.4172C22.3463 13.6049 22.3227 13.6167 22.305 13.6757L22.2872 13.7171L20.6928 16.6284Z" fill="#57CCEF"/>
<path d="M35.2142 21.5468C34.9544 21.5468 34.7182 21.3756 34.6473 21.1157L30.9564 7.82855H26.551C26.2262 7.82855 25.9604 7.5628 25.9604 7.238C25.9604 6.9132 26.2262 6.64746 26.551 6.64746H31.8541L35.7812 20.7969C35.8697 21.1098 35.6867 21.4346 35.3678 21.5232C35.3205 21.5409 35.2674 21.5468 35.2142 21.5468Z" fill="#57CCEF"/>
<path d="M34.7772 14.8441H34.7181L34.5174 14.8382C33.9091 14.8205 33.3422 14.5725 32.9229 14.1296C32.4977 13.6867 32.2733 13.1079 32.291 12.5056C32.3205 11.2418 33.3717 10.2438 34.6355 10.2792L34.8363 10.2851C35.6748 10.3088 36.0469 10.7753 36.2122 11.165C36.3776 11.5607 36.4071 12.0272 36.3894 12.6119C36.3717 13.1906 36.3244 13.6571 36.1414 14.0469C35.9583 14.4071 35.5803 14.8441 34.7772 14.8441ZM34.5764 11.4544C33.98 11.4544 33.4898 11.9328 33.4721 12.5351C33.4662 12.8245 33.5725 13.102 33.7792 13.3146C33.9859 13.5272 34.2575 13.6512 34.5528 13.6571L34.7536 13.663C35.0193 13.669 35.1788 13.6749 35.2083 12.5705C35.2201 12.2162 35.2142 11.8324 35.1256 11.6139C35.0902 11.5371 35.0607 11.4603 34.8067 11.4544L34.6059 11.4485C34.5941 11.4544 34.5823 11.4544 34.5764 11.4544Z" fill="#57CCEF"/>
</g>
<defs>
<clipPath id="clip0_6024_172866">
<rect width="40" height="40" fill="white"/>
</clipPath>
</defs>
</svg>
