<svg width="30" height="35" viewBox="0 0 30 35" fill="none" xmlns="http://www.w3.org/2000/svg">
<path d="M0 33.3545H29.102V34.4126H0V33.3545Z" fill="#57CCEF"/>
<path d="M0 23.8184V24.8771H8.45725L9.17309 23.8184H0Z" fill="#57CCEF"/>
<path d="M20.7168 23.8184L20.8891 24.8771H29.1022V23.8184H20.7168Z" fill="#57CCEF"/>
<path fill-rule="evenodd" clip-rule="evenodd" d="M12.9814 1.25511C13.6563 0.985392 14.4353 0.97603 15.1561 1.28905C16.6077 1.91302 17.2627 3.57467 16.6393 5.01921C16.013 6.46787 14.3528 7.12779 12.9039 6.50149C11.4599 5.88044 10.8017 4.21063 11.4233 2.77133C11.7363 2.04613 12.3094 1.52218 12.9814 1.25512V1.25511ZM12.5932 0.277134C11.6664 0.646316 10.8798 1.36947 10.4553 2.35501C9.60346 4.32288 10.5135 6.6237 12.4847 7.47325C14.4573 8.32279 16.758 7.41211 17.6105 5.43925C18.4571 3.47109 17.547 1.16764 15.5736 0.318697C14.588 -0.106359 13.52 -0.0920256 12.5932 0.277157V0.277134Z" fill="#57CCEF"/>
<path d="M12.1981 20.6874L14.0279 23.0248L13.7708 23.9884C13.6497 24.4418 13.6324 24.6124 13.4745 24.8452L9.65714 30.4929C9.39005 30.8858 9.10131 31.0432 8.80969 31.0917C8.52124 31.1383 8.21321 31.0604 7.96014 30.8905C7.70798 30.7208 7.52339 30.466 7.45815 30.1799C7.39233 29.8932 7.4289 29.5653 7.6954 29.173L11.3483 23.7584C11.3822 23.7099 11.4065 23.6564 11.4214 23.6005L12.1981 20.6874ZM14.1297 9.4196C14.8046 9.45558 15.3894 9.70804 15.6395 10.0679L18.7503 14.5232C18.7945 14.5843 18.8477 14.6349 18.9083 14.6741L21.7918 16.4337C22.0952 16.6201 22.2069 16.8219 22.2453 17.0399C22.2845 17.256 22.2309 17.5059 22.1022 17.7168C21.9735 17.928 21.7722 18.0933 21.5613 18.1562C21.3501 18.222 21.1219 18.2144 20.8191 18.0298L17.6761 16.1026H17.6708C17.5614 16.0374 17.4696 15.9499 17.3967 15.8455L16.2485 14.2052C15.9528 13.7854 15.2922 13.9914 15.2872 14.5033L15.2682 18.8647C15.2659 18.9858 15.3068 19.1029 15.38 19.1947L18.7196 23.4467C18.843 23.6047 18.9232 23.791 18.9548 23.9876L19.8792 29.6423C19.957 30.1084 19.8476 30.419 19.6704 30.6492C19.491 30.8803 19.216 31.0374 18.9156 31.0869C18.6175 31.1354 18.3042 31.0772 18.0614 30.914C17.8169 30.7519 17.622 30.4895 17.5445 30.0235L16.6853 24.8078C16.671 24.7206 16.6318 24.6381 16.5785 24.5673L12.1858 18.9565C12.0185 18.7453 11.9264 18.4905 11.9264 18.2281V13.5524C11.9264 13.118 11.4337 12.8702 11.0844 13.1274L10.0699 13.8821C9.97719 13.9506 9.90961 14.0497 9.87802 14.1635L8.73506 18.2973C8.54637 18.9866 8.00957 19.1515 7.52395 19.0591C7.28173 19.0129 7.07695 18.8871 6.96345 18.7291C6.84936 18.5688 6.7888 18.3725 6.88095 18.025L8.13123 13.3312C8.13357 13.3195 8.13649 13.3052 8.13825 13.2926C8.18242 13.0621 8.30821 12.8582 8.49807 12.7172L12.3546 9.85389C12.7293 9.57481 13.4524 9.3829 14.1297 9.41947L14.1297 9.4196ZM11.7248 9.00741L7.8683 11.8707C7.46752 12.1665 7.19342 12.6065 7.10098 13.0967L7.1083 13.0599L5.85802 17.7536C5.70092 18.3533 5.80712 18.9279 6.10345 19.343C6.39979 19.7581 6.85089 20.0062 7.32422 20.0978C8.2706 20.2771 9.42345 19.773 9.75348 18.5786L10.8458 14.6201L10.8701 14.6028V18.2285C10.8701 18.7337 11.0447 19.2163 11.3504 19.6072L11.3797 19.6464L10.4184 23.2405L6.81932 28.5793C6.41152 29.1813 6.29568 29.8445 6.42644 30.4167C6.55691 30.9871 6.91439 31.4605 7.37282 31.7685C7.82888 32.0765 8.39932 32.2252 8.97942 32.1324C9.55717 32.0406 10.1276 31.6854 10.5325 31.0846L14.348 25.4345C14.6245 25.0268 14.685 24.6628 14.7915 24.2571L14.8424 24.0655L15.6606 25.111L16.4976 30.1958C16.617 30.9117 16.9882 31.4704 17.4738 31.7951C17.9617 32.1207 18.5419 32.2178 19.0856 32.1274C19.6294 32.0402 20.1505 31.7588 20.5097 31.2958C20.8672 30.8315 21.0392 30.1885 20.9231 29.4729L20.0004 23.8179V23.8156C19.9405 23.4423 19.7825 23.0948 19.5493 22.7964L16.3233 18.6877L16.3358 16.1734L16.5298 16.4499V16.4551C16.6878 16.6783 16.8914 16.8676 17.1245 17.0083V17.0042L20.2652 18.9311C20.7947 19.2541 21.3818 19.3146 21.8718 19.1663C22.3621 19.0157 22.7503 18.6836 23.0028 18.2712C23.255 17.8587 23.377 17.3561 23.2842 16.8512C23.1947 16.346 22.8718 15.856 22.3429 15.533L19.5541 13.8292L16.5009 9.4608C15.9796 8.71571 15.0719 8.41467 14.0716 8.39513C13.0744 8.37348 12.3068 8.57503 11.7249 9.00741L11.7248 9.00741Z" fill="#57CCEF"/>
</svg>
