<svg width="32" height="32" viewBox="0 0 32 32" fill="none" xmlns="http://www.w3.org/2000/svg">
<path d="M29.6067 24.4668C29.2711 24.1298 28.8721 23.8626 28.4327 23.6807C27.9933 23.4988 27.5222 23.4057 27.0467 23.4068C26.0841 23.4104 25.162 23.7943 24.4814 24.4749C23.8008 25.1555 23.4169 26.0776 23.4133 27.0402C23.4125 27.5156 23.5052 27.9865 23.6863 28.426C23.8675 28.8655 24.1334 29.2651 24.4689 29.6019C24.8044 29.9386 25.203 30.206 25.6419 30.3887C26.0807 30.5715 26.5513 30.666 27.0267 30.6668C27.9904 30.6651 28.9142 30.2819 29.5962 29.6011C30.2783 28.9203 30.6632 27.9972 30.6667 27.0335C30.6687 26.5568 30.5761 26.0845 30.3941 25.6439C30.2122 25.2033 29.9445 24.8032 29.6067 24.4668ZM27.0267 29.3335C26.7258 29.3335 26.4279 29.2741 26.1501 29.1588C25.8722 29.0435 25.6198 28.8745 25.4074 28.6614C25.195 28.4484 25.0267 28.1955 24.9122 27.9173C24.7976 27.6391 24.7391 27.341 24.74 27.0402C24.7418 26.429 24.9854 25.8433 25.4176 25.4111C25.8498 24.9789 26.4354 24.7353 27.0467 24.7335C27.3475 24.7335 27.6454 24.7929 27.9233 24.9082C28.2012 25.0235 28.4535 25.1926 28.666 25.4056C28.8784 25.6187 29.0467 25.8715 29.1612 26.1497C29.2757 26.4279 29.3342 26.726 29.3333 27.0268C29.3316 27.6381 29.088 28.2238 28.6558 28.656C28.2236 29.0882 27.6379 29.3318 27.0267 29.3335ZM29.62 7.41351C29.9709 7.05845 30.2437 6.63393 30.4208 6.1672C30.5979 5.70047 30.6755 5.20186 30.6485 4.70338C30.6215 4.20491 30.4906 3.71759 30.2641 3.27272C30.0376 2.82785 29.7205 2.43526 29.3333 2.12018C28.6218 1.56271 27.7294 1.28772 26.8275 1.34801C25.9256 1.40831 25.0777 1.79963 24.4467 2.44684L18.3467 8.55351C16.9744 9.9404 15.7418 11.4588 14.6667 13.0868L13.7467 14.4668C12.7097 16.0243 11.5218 17.4758 10.2 18.8002L4.39334 24.6068C3.99612 24.4151 3.54996 24.3488 3.11413 24.4166C2.6783 24.4845 2.27345 24.6834 1.95334 24.9868C1.55682 25.3854 1.33423 25.9247 1.33423 26.4868C1.33423 27.049 1.55682 27.5883 1.95334 27.9868L4.00001 30.0468C4.35433 30.4068 4.82584 30.6279 5.32915 30.6702C5.83245 30.7125 6.33425 30.5731 6.74366 30.2774C7.15308 29.9816 7.44302 29.549 7.56097 29.0579C7.67893 28.5667 7.6171 28.0496 7.38668 27.6002L11.1067 23.8735L13.18 21.7935C14.502 20.4698 15.9512 19.2796 17.5067 18.2402L18.9 17.3335C20.5295 16.2452 22.0479 14.9992 23.4333 13.6135L29.62 7.41351ZM8.59334 22.2868L9.70668 23.4002L6.54001 26.5735L5.42668 25.4602L8.59334 22.2868ZM6.06668 29.1002C5.91665 29.2432 5.71731 29.323 5.51001 29.323C5.30271 29.323 5.10337 29.2432 4.95334 29.1002L2.90001 27.0468C2.82684 26.9738 2.76879 26.887 2.72918 26.7915C2.68958 26.696 2.66919 26.5936 2.66919 26.4902C2.66919 26.3868 2.68958 26.2844 2.72918 26.1889C2.76879 26.0933 2.82684 26.0066 2.90001 25.9335C3.047 25.7898 3.24442 25.7093 3.45001 25.7093C3.6556 25.7093 3.85302 25.7898 4.00001 25.9335L6.06668 28.0002C6.21041 28.1472 6.2909 28.3446 6.2909 28.5502C6.2909 28.7558 6.21041 28.9532 6.06668 29.1002ZM18.16 16.2135L16.7867 17.1335C15.1569 18.2215 13.6385 19.4675 12.2533 20.8535L10.6667 22.4602L9.53334 21.3335L11.14 19.7268C12.5235 18.3412 13.7673 16.8228 14.8533 15.1935L15.7733 13.8135C16.8152 12.2601 18.0077 10.8131 19.3333 9.49351L25.4333 3.38684C25.8291 2.97334 26.3635 2.72024 26.9342 2.67597C27.5049 2.63169 28.0718 2.79934 28.5267 3.14684C28.7706 3.34557 28.9701 3.59332 29.1122 3.87404C29.2542 4.15476 29.3358 4.4622 29.3515 4.77644C29.3672 5.09068 29.3167 5.40471 29.2034 5.69821C29.09 5.9917 28.9162 6.25811 28.6933 6.48018L22.4933 12.6668C21.1688 13.9884 19.7173 15.1763 18.16 16.2135Z" fill="#57CCEF"/>
</svg>
