<svg width="28" height="36" viewBox="0 0 28 36" fill="none" xmlns="http://www.w3.org/2000/svg">
<path d="M27.2145 27.1238L22.078 24.1953L15.68 1.39667C15.4546 0.585816 14.6887 0 13.8326 0C12.9764 0 12.2106 0.585832 11.9852 1.39667L5.58715 24.1953L0.450694 27.1238C0.180403 27.3039 0 27.5745 0 27.8897C0 28.2053 0.180089 28.5205 0.450694 28.6557L12.7962 35.7297C13.1118 35.9098 13.4719 36 13.8324 36C14.1929 36 14.5534 35.9098 14.8687 35.7297L27.2142 28.6557C27.4845 28.4756 27.6649 28.205 27.6649 27.8897C27.6649 27.6198 27.4845 27.3042 27.2142 27.1241L27.2145 27.1238ZM12.9315 1.66685C13.0217 1.26142 13.4272 0.991132 13.8326 0.991132C14.238 0.991132 14.5985 1.26142 14.7336 1.66685L16.7162 8.6956C16.4909 8.87569 15.4996 9.14629 13.8326 9.14629C12.0754 9.14629 11.0841 8.83074 10.949 8.74086L12.9315 1.66685ZM10.6787 9.68692C10.8588 9.77712 11.0841 9.86701 11.3544 9.91227C11.9852 10.0924 12.8863 10.1376 13.7873 10.1376C14.5532 10.1376 16.0402 10.0927 16.9412 9.64198L17.9325 13.1564C17.8875 13.2466 17.6622 13.4267 16.8962 13.6071C16.1303 13.7872 15.0488 13.9226 13.9224 13.9226C11.174 13.9226 9.77721 13.3368 9.68701 13.0665L10.6787 9.68692ZM9.4621 14.1476C9.73239 14.3277 10.1378 14.4632 10.5885 14.5983C11.4896 14.8236 12.7062 14.9588 13.9678 14.9588C14.8239 14.9588 17.0767 14.8686 18.2481 14.1929L19.2843 17.9326C19.0589 18.4732 17.1666 19.1492 13.8323 19.1492C10.453 19.1492 8.51575 18.4282 8.38026 17.9778L9.4621 14.1476ZM8.06543 18.9688C9.55229 20.005 12.9765 20.0952 13.7877 20.0952C14.5986 20.0952 18.0231 20.0503 19.51 18.9688L20.6814 23.1589C20.5912 23.9698 17.8427 24.8712 13.7428 24.8712C9.64257 24.8712 6.89411 24.015 6.80424 23.1589L8.06543 18.9688ZM6.48828 24.6459L6.57849 24.3756C7.02918 24.7361 7.7049 25.0513 8.60595 25.2766C10.0026 25.6371 11.85 25.8625 13.8326 25.8625C14.914 25.8625 19.3745 25.7723 21.0867 24.3756L22.0331 27.7548C21.9429 28.9714 18.2934 29.9627 13.8328 29.9627C9.37216 29.9627 5.72257 28.9714 5.63246 27.7548L6.48828 24.6459ZM14.3732 34.9188C14.0576 35.0989 13.6522 35.0989 13.337 34.9188L1.08157 27.9349L5.22678 25.5469L4.64094 27.5744V27.6646V27.7095V27.7545V27.7994C4.68589 28.8809 5.72238 29.6918 7.70463 30.2323C9.32667 30.683 11.4893 30.9533 13.8323 30.9533C18.0224 30.9533 22.8887 30.1424 23.0239 27.7994V27.7545V27.7095V27.6646V27.5744L22.4381 25.5469L26.6282 27.9349L14.3732 34.9188Z" fill="#57CCEF"/>
</svg>
