<svg width="40" height="30" viewBox="0 0 40 30" fill="none" xmlns="http://www.w3.org/2000/svg">
<path d="M32.6639 29.6538C33.396 29.6504 34.1122 29.4358 34.7292 29.0349C35.3463 28.634 35.8389 28.0632 36.1499 27.3888L36.2399 27.1853H38.7179C38.9641 27.187 39.201 27.0899 39.3773 26.9151C39.5537 26.7402 39.6552 26.5017 39.6599 26.2513V19.7149C39.6597 19.6546 39.6529 19.5946 39.6399 19.5358V19.5052V19.493C39.3859 16.06 36.4399 13.3718 32.9299 13.3718H26.8759C26.7538 13.372 26.6329 13.3968 26.5202 13.4446C26.4074 13.4924 26.3051 13.5623 26.2189 13.6503C26.1327 13.7384 26.0644 13.8429 26.0179 13.9578C25.9714 14.0727 25.9476 14.1958 25.9479 14.3201V19.4584V19.493C25.9292 19.5655 25.9191 19.64 25.9179 19.7149V22.6575H21.3219V15.1463C21.3197 13.6291 20.8002 12.1597 19.8519 10.9888L19.6239 10.7079L31.1159 1.98185V7.88335C31.1159 8.46894 31.3445 9.03055 31.7515 9.44463C32.1584 9.8587 32.7104 10.0913 33.2859 10.0913C33.8614 10.0913 34.4134 9.8587 34.8203 9.44463C35.2273 9.03055 35.4559 8.46894 35.4559 7.88335V7.18128C35.4472 7.02943 35.3817 6.88671 35.273 6.78234C35.1642 6.67797 35.0204 6.61984 34.8709 6.61984C34.7214 6.61984 34.5776 6.67797 34.4688 6.78234C34.3601 6.88671 34.2946 7.02943 34.2859 7.18128V7.87521C34.2859 8.14507 34.1806 8.40388 33.993 8.59469C33.8055 8.78551 33.5511 8.89271 33.2859 8.89271C33.0207 8.89271 32.7663 8.78551 32.5788 8.59469C32.3913 8.40388 32.2859 8.14507 32.2859 7.87521V1.08848C32.2865 0.950977 32.2494 0.81603 32.1787 0.698825C32.1081 0.58162 32.0067 0.486811 31.8859 0.425069C31.7835 0.372768 31.6705 0.345588 31.5559 0.345703C31.3992 0.345699 31.2468 0.397872 31.1219 0.494259L18.7359 9.89393L18.5359 9.75352C17.4638 8.99743 16.1903 8.59271 14.8859 8.59357H13.5379C13.0665 8.59411 12.6146 8.78488 12.2813 9.12404C11.9479 9.4632 11.7604 9.92304 11.7599 10.4027V11.8516H3.35991C3.09469 11.8516 2.84034 11.9588 2.6528 12.1496C2.46526 12.3404 2.35991 12.5992 2.35991 12.8691V19.3201C2.35991 19.3587 2.35991 19.377 2.36991 19.3954V22.6514H1.65591C1.3097 22.6519 0.977818 22.7921 0.733009 23.0412C0.488201 23.2903 0.350437 23.6279 0.349907 23.9802V25.1341C0.350437 25.4863 0.488201 25.824 0.733009 26.0731C0.977818 26.3222 1.3097 26.4624 1.65591 26.4629H3.77191L3.83991 26.7153C4.03706 27.4417 4.43636 28.0946 4.98974 28.5955C5.54311 29.0964 6.22698 29.4238 6.959 29.5384C7.69102 29.653 8.44 29.5499 9.11576 29.2415C9.79152 28.933 10.3653 28.4324 10.7679 27.7999L11.0519 27.3583L11.3359 27.7999C11.7388 28.4318 12.3124 28.9318 12.9879 29.2398C13.6634 29.5478 14.412 29.6508 15.1436 29.5362C15.8752 29.4216 16.5587 29.0944 17.1119 28.594C17.6651 28.0935 18.0644 27.4412 18.2619 26.7153L18.3319 26.4629H25.9159L25.9999 26.6583C26.0649 26.7894 26.1585 26.9036 26.2736 26.9922C26.3887 27.0807 26.5222 27.1412 26.6639 27.1691C26.7296 27.184 26.7966 27.1915 26.8639 27.1915H29.0899L29.1799 27.395C29.4916 28.0679 29.9843 28.6372 30.6009 29.037C31.2175 29.4367 31.9328 29.6506 32.6639 29.6538ZM32.6639 23.0116C33.1934 23.012 33.7109 23.1721 34.151 23.4716C34.5911 23.7712 34.934 24.1968 35.1364 24.6946C35.3389 25.1924 35.3918 25.7401 35.2884 26.2685C35.185 26.7969 34.9299 27.2822 34.5555 27.6632C34.1811 28.0442 33.7041 28.3036 33.1849 28.4088C32.6656 28.514 32.1273 28.4603 31.638 28.2543C31.1488 28.0483 30.7305 27.6993 30.4361 27.2516C30.1417 26.8038 29.9843 26.2772 29.9839 25.7385C29.9844 25.0154 30.267 24.3221 30.7695 23.8108C31.2719 23.2996 31.9533 23.0121 32.6639 23.0116ZM7.54391 22.9444C8.07396 22.9444 8.59211 23.1043 9.03284 23.404C9.47356 23.7036 9.81706 24.1295 10.0199 24.6278C10.2227 25.126 10.2758 25.6743 10.1724 26.2033C10.069 26.7323 9.81376 27.2182 9.43896 27.5995C9.06415 27.9809 8.58662 28.2406 8.06675 28.3458C7.54688 28.451 7.00803 28.397 6.51832 28.1906C6.02861 27.9842 5.61005 27.6347 5.31557 27.1863C5.02109 26.7379 4.86391 26.2106 4.86391 25.6713C4.86444 24.9483 5.14697 24.255 5.64945 23.7437C6.15193 23.2324 6.83329 22.9449 7.54391 22.9444ZM14.5579 22.9444C15.088 22.9444 15.6061 23.1043 16.0468 23.404C16.4876 23.7036 16.8311 24.1295 17.0339 24.6278C17.2367 25.126 17.2898 25.6743 17.1864 26.2033C17.083 26.7323 16.8278 27.2182 16.453 27.5995C16.0781 27.9809 15.6006 28.2406 15.0808 28.3458C14.5609 28.451 14.022 28.397 13.5323 28.1906C13.0426 27.9842 12.6241 27.6347 12.3296 27.1863C12.0351 26.7379 11.8779 26.2106 11.8779 25.6713C11.8784 24.9483 12.161 24.255 12.6634 23.7437C13.1659 23.2324 13.8473 22.9449 14.5579 22.9444ZM27.1159 25.9969V14.5521H30.0219V19.9794L38.4859 19.9591V25.9989H36.5119V25.6611C36.5119 24.6233 36.1067 23.6279 35.3854 22.894C34.6642 22.1601 33.6859 21.7478 32.6659 21.7478C31.6459 21.7478 30.6676 22.1601 29.9464 22.894C29.2251 23.6279 28.8199 24.6233 28.8199 25.6611V25.9989L27.1159 25.9969ZM1.51591 25.2765V23.852H4.11591L3.94591 24.3201C3.86392 24.5402 3.80297 24.7678 3.76391 24.9998L3.71391 25.2847L1.51591 25.2765ZM18.4019 25.2765L18.3519 24.9916C18.3115 24.7599 18.2506 24.5324 18.1699 24.3119L17.9979 23.8439H25.9079V25.2684L18.4019 25.2765ZM11.0519 23.852L10.4998 23.0645L9.94191 22.6147C9.26866 22.0658 8.43279 21.7647 7.57009 21.7603C6.70739 21.7559 5.86857 22.0484 5.18991 22.5903L5.09791 22.6636H3.53591V20.3335H20.1519V22.6575H17.0001L17.5019 23.0645L16.9499 22.6168C16.2776 22.0671 15.4422 21.7651 14.5798 21.76C13.7173 21.7548 12.8786 22.0467 12.1999 22.5883L12.1059 22.6615L11.0519 23.852ZM3.51991 19.143V13.038H11.7559V19.143H3.51991ZM12.9199 19.143V10.4027C12.9199 10.2408 12.9831 10.0855 13.0956 9.971C13.2082 9.8565 13.3608 9.79218 13.5199 9.79218H14.6699V14.3302H20.1019L20.1299 14.6518C20.1459 14.8329 20.1539 14.9977 20.1539 15.1524V19.143H12.9199ZM31.1899 18.7889V14.5521H32.9259C35.3559 14.5521 37.4859 16.0641 38.2259 18.3168L38.3759 18.7706L31.1899 18.7889ZM15.8519 13.1418V9.85934L16.2839 9.98144C16.9733 10.1764 17.6168 10.5113 18.1757 10.9659C18.7346 11.4206 19.1973 11.9856 19.5359 12.6269L19.7999 13.1418H15.8519Z" fill="#57CCEF"/>
</svg>
