<svg width="33" height="24" viewBox="0 0 33 24" fill="none" xmlns="http://www.w3.org/2000/svg">
<path d="M0.0185076 1.47416C0.55523 0.324117 1.49912 -0.0173025 2.77615 0.000666996C8.56905 0.0545754 14.3805 0.0186362 20.1734 0.0186362C22.0056 0.0186362 22.6719 0.683506 22.6904 2.46248V4.02583C23.5047 4.02583 24.2636 3.93598 24.9854 4.04379C25.6701 4.15161 26.4105 4.31334 26.9657 4.6907C28.7054 5.87668 30.3711 7.18845 32.0738 8.42834C32.7216 8.89555 33.0177 9.47057 32.9992 10.2792C32.9622 13.1903 32.9807 16.1013 32.9807 19.0124C32.9807 20.5577 32.2219 21.2765 30.6302 21.2945H29.4642C28.3538 21.2765 27.5024 21.2226 26.7436 22.5344C25.4666 24.7626 22.0611 24.3493 20.9877 21.9773C20.7286 21.4203 20.4325 21.2945 19.8772 21.2945C17.1566 21.3124 14.436 21.3124 11.7154 21.2945C11.1786 21.2945 10.901 21.4023 10.6789 21.9414C10.1237 23.2531 9.03174 23.954 7.55113 23.936C6.07052 23.936 4.99707 23.2352 4.44184 21.9054C4.23826 21.4023 3.97915 21.2406 3.46093 21.2945C3.27586 21.3124 3.07227 21.2765 2.8872 21.2945C1.61017 21.4203 0.610753 21.0429 0 19.8929C0.0185077 13.7653 0.0185076 7.61972 0.0185076 1.47416ZM1.35106 13.2801H21.3579V2.06715C21.3579 1.54604 21.0432 1.29447 20.5065 1.29447H2.60958C1.51763 1.29447 1.36957 1.43822 1.36957 2.51639V4.29537C1.35106 7.26033 1.35106 10.2073 1.35106 13.2801ZM31.6666 14.6098H2.53555C2.36898 14.6098 2.20241 14.6278 2.03584 14.6098C1.53614 14.5559 1.35106 14.7536 1.36957 15.2567C1.40658 16.1372 1.36957 17.0357 1.36957 17.9162C1.36957 20.1085 1.36957 20.1085 3.6275 20.0007C3.88661 19.9827 4.27527 19.7311 4.38632 19.4975C5.03409 18.1678 6.25559 17.2873 7.62516 17.3592C9.10578 17.431 10.1607 18.1498 10.79 19.4796C10.901 19.7132 11.2712 20.0007 11.5303 20.0007C14.3805 20.0366 17.2492 20.0366 20.0993 20.0007C20.3584 20.0007 20.7471 19.7491 20.8581 19.4975C21.5059 18.1498 22.7089 17.2873 24.097 17.3412C25.6146 17.4131 26.6881 18.1498 27.2988 19.5335C27.3914 19.7311 27.6505 19.9827 27.8355 19.9827C28.835 20.0186 29.8344 20.0186 30.8338 20.0007C31.3705 20.0007 31.6481 19.7132 31.6666 19.192V14.6098ZM31.6666 13.2981C31.6666 12.4894 31.6296 11.7527 31.6666 11.0339C31.7036 10.2612 31.4075 9.70417 30.7783 9.23697C29.3902 8.24865 27.9836 7.2783 26.7066 6.16419C25.4851 5.10399 24.1525 5.26572 22.7459 5.3376V13.2801C25.7257 13.2981 28.6314 13.2981 31.6666 13.2981ZM7.58815 22.6781C8.77264 22.6602 9.71653 21.7437 9.67951 20.6116C9.6425 19.5155 8.6801 18.617 7.56964 18.617C6.40366 18.617 5.47827 19.5514 5.49678 20.7015C5.51529 21.8336 6.42216 22.6961 7.58815 22.6781ZM24.06 22.6781C25.263 22.6781 26.1884 21.7617 26.1513 20.6296C26.1328 19.5335 25.1889 18.635 24.06 18.617C22.9125 18.617 21.9501 19.5514 21.9686 20.7015C22.0056 21.8156 22.9125 22.6781 24.06 22.6781Z" fill="#57CCEF"/>
</svg>
