<svg width="40" height="40" viewBox="0 0 40 40" fill="none" xmlns="http://www.w3.org/2000/svg">
<g clip-path="url(#clip0_6017_172744)">
<path d="M27.207 30.8811H38.8302C39.4739 30.8811 40 30.355 40 29.7113V21.7768L38.756 13.8299C38.725 13.211 38.2113 12.7158 37.5862 12.7158H28.3767C27.733 12.7158 27.207 13.2419 27.207 13.8856V30.8811ZM38.7622 29.6432H28.4448V13.9537H37.5243L38.7622 21.8758V29.6432Z" fill="#57CCEF"/>
<path d="M1.3301 30.8805H28.4387V20.5879H1.3301C0.581211 20.5879 -0.031517 21.2006 -0.031517 21.9495V29.5189C-0.031517 30.2678 0.581211 30.8805 1.3301 30.8805ZM27.2009 29.6427H1.3301C1.26202 29.6427 1.20632 29.587 1.20632 29.5189V21.9495C1.20632 21.8814 1.26202 21.8257 1.3301 21.8257H27.2009V29.6427Z" fill="#57CCEF"/>
<path d="M36.3484 30.305C36.3484 31.065 36.0465 31.7939 35.5091 32.3313C34.9717 32.8687 34.2428 33.1706 33.4828 33.1706C32.7228 33.1706 31.9939 32.8687 31.4565 32.3313C30.9191 31.7939 30.6172 31.065 30.6172 30.305C30.6172 29.545 30.9191 28.8162 31.4565 28.2788C31.9939 27.7414 32.7228 27.4395 33.4828 27.4395C34.2428 27.4395 34.9717 27.7414 35.5091 28.2788C36.0465 28.8162 36.3484 29.545 36.3484 30.305Z" fill="white"/>
<path d="M33.4828 33.7893C35.4014 33.7893 36.9673 32.2235 36.9673 30.3048C36.9673 28.3862 35.4014 26.8203 33.4828 26.8203C31.5641 26.8203 29.9983 28.3862 29.9983 30.3048C29.9983 32.2235 31.5641 33.7893 33.4828 33.7893ZM33.4828 28.0581C34.7206 28.0581 35.7294 29.067 35.7294 30.3048C35.7294 31.5427 34.7206 32.5515 33.4828 32.5515C32.2449 32.5515 31.2361 31.5427 31.2361 30.3048C31.2361 29.067 32.2449 28.0581 33.4828 28.0581Z" fill="#57CCEF"/>
<path d="M17.9294 30.305C17.9294 31.065 17.6275 31.7939 17.0901 32.3313C16.5527 32.8687 15.8239 33.1706 15.0639 33.1706C14.3039 33.1706 13.575 32.8687 13.0376 32.3313C12.5002 31.7939 12.1983 31.065 12.1983 30.305C12.1983 29.545 12.5002 28.8162 13.0376 28.2788C13.575 27.7414 14.3039 27.4395 15.0639 27.4395C15.8239 27.4395 16.5527 27.7414 17.0901 28.2788C17.6275 28.8162 17.9294 29.545 17.9294 30.305Z" fill="white"/>
<path d="M15.0638 33.7893C16.9825 33.7893 18.5483 32.2235 18.5483 30.3048C18.5483 28.3862 16.9825 26.8203 15.0638 26.8203C13.1452 26.8203 11.5793 28.3862 11.5793 30.3048C11.5793 32.2235 13.1452 33.7893 15.0638 33.7893ZM15.0638 28.0581C16.3017 28.0581 17.3105 29.067 17.3105 30.3048C17.3105 31.5427 16.3017 32.5515 15.0638 32.5515C13.826 32.5515 12.8172 31.5427 12.8172 30.3048C12.8172 29.067 13.826 28.0581 15.0638 28.0581Z" fill="#57CCEF"/>
<path d="M9.00464 30.3054C9.00468 30.6817 8.93059 31.0544 8.7866 31.4021C8.64261 31.7498 8.43154 32.0657 8.16544 32.3319C7.89934 32.598 7.58343 32.8091 7.23574 32.9531C6.88805 33.0971 6.51539 33.1713 6.13905 33.1713C5.76271 33.1713 5.39005 33.0971 5.04236 32.9531C4.69467 32.8091 4.37876 32.598 4.11266 32.3319C3.84656 32.0657 3.63548 31.7498 3.49149 31.4021C3.3475 31.0544 3.27341 30.6817 3.27346 30.3054C3.27341 29.929 3.3475 29.5564 3.49149 29.2087C3.63548 28.8609 3.84656 28.545 4.11266 28.2789C4.37876 28.0127 4.69467 27.8016 5.04236 27.6576C5.39005 27.5136 5.76271 27.4395 6.13905 27.4395C6.51539 27.4395 6.88805 27.5136 7.23574 27.6576C7.58343 27.8016 7.89934 28.0127 8.16544 28.2789C8.43154 28.545 8.64261 28.8609 8.7866 29.2087C8.93059 29.5564 9.00468 29.929 9.00464 30.3054Z" fill="white"/>
<path d="M6.13908 33.7892C8.05773 33.7892 9.62359 32.2234 9.62359 30.3047C9.62359 28.3861 8.05773 26.8202 6.13908 26.8202C4.22044 26.8202 2.65458 28.3861 2.65458 30.3047C2.65458 32.2234 4.22044 33.7892 6.13908 33.7892ZM6.13908 28.0581C7.37692 28.0581 8.38576 29.0669 8.38576 30.3047C8.38576 31.5426 7.37692 32.5514 6.13908 32.5514C4.90125 32.5514 3.89241 31.5426 3.89241 30.3047C3.89241 29.0669 4.90125 28.0581 6.13908 28.0581ZM39.2574 22.4321L39.5173 21.219L31.2362 19.4798V13.334H29.9984V20.4825L39.2574 22.4321Z" fill="#57CCEF"/>
<path d="M35.8285 24.9263H39.0654C39.4058 24.9263 39.6843 24.6478 39.6843 24.3074C39.6843 23.967 39.4058 23.6885 39.0654 23.6885H35.8285C35.4881 23.6885 35.2095 23.967 35.2095 24.3074C35.2095 24.6478 35.4881 24.9263 35.8285 24.9263Z" fill="#57CCEF"/>
<path d="M14.4758 21.6525L19.5571 16.5712C19.6128 16.5155 19.6747 16.5093 19.7118 16.5093C19.7428 16.5093 19.8109 16.5155 19.8666 16.5712L24.9479 21.6525L25.8206 20.7799L20.7392 15.6985C20.4669 15.4262 20.1018 15.2715 19.7118 15.2715C19.3219 15.2715 18.9568 15.42 18.6844 15.6985L13.6031 20.7799L14.4758 21.6525Z" fill="#57CCEF"/>
<path d="M2.5554 21.2686H3.79323V18.6382C3.79323 18.3968 3.99129 18.1988 4.23886 18.1988H17.3909V16.9609H4.23886C3.31048 16.9609 2.5554 17.716 2.5554 18.6382V21.2686Z" fill="#57CCEF"/>
</g>
<defs>
<clipPath id="clip0_6017_172744">
<rect width="40" height="40" fill="white" transform="matrix(-1 0 0 1 40 0)"/>
</clipPath>
</defs>
</svg>
