<svg width="24" height="24" viewBox="0 0 24 24" fill="none" xmlns="http://www.w3.org/2000/svg">
  <path d="M10.1962 3C10.5288 3 10.8134 3.11834 11.0501 3.35501C11.2868 3.59168 11.4051 3.87633 11.4051 4.20896V10.1962C11.4051 10.5288 11.2868 10.8134 11.0501 11.0501C10.8134 11.2868 10.5288 11.4051 10.1962 11.4051H4.20896C3.87633 11.4051 3.59168 11.2868 3.35501 11.0501C3.11834 10.8134 3 10.5288 3 10.1962V4.20896C3 3.87633 3.11834 3.59168 3.35501 3.35501C3.59168 3.11834 3.87633 3 4.20896 3H10.1962V3ZM19.8102 3C20.1429 3 20.4243 3.11834 20.6546 3.35501C20.8849 3.59168 21 3.87633 21 4.20896V10.1962C21 10.5288 20.8849 10.8134 20.6546 11.0501C20.4243 11.2868 20.1429 11.4051 19.8102 11.4051H13.8038C13.4712 11.4051 13.1866 11.2868 12.9499 11.0501C12.7132 10.8134 12.5949 10.5288 12.5949 10.1962V4.20896C12.5949 3.87633 12.7132 3.59168 12.9499 3.35501C13.1866 3.11834 13.4712 3 13.8038 3H19.8102V3ZM10.1962 12.5949C10.5288 12.5949 10.8134 12.7132 11.0501 12.9499C11.2868 13.1866 11.4051 13.4712 11.4051 13.8038V19.8102C11.4051 20.1429 11.2868 20.4243 11.0501 20.6546C10.8134 20.8849 10.5288 21 10.1962 21H4.20896C3.87633 21 3.59168 20.8849 3.35501 20.6546C3.11834 20.4243 3 20.1429 3 19.8102V13.8038C3 13.4712 3.11834 13.1866 3.35501 12.9499C3.59168 12.7132 3.87633 12.5949 4.20896 12.5949H10.1962ZM19.8102 12.5949C20.1429 12.5949 20.4243 12.7132 20.6546 12.9499C20.8849 13.1866 21 13.4712 21 13.8038V19.8102C21 20.1429 20.8849 20.4243 20.6546 20.6546C20.4243 20.8849 20.1429 21 19.8102 21H13.8038C13.4712 21 13.1866 20.8849 12.9499 20.6546C12.7132 20.4243 12.5949 20.1429 12.5949 19.8102V13.8038C12.5949 13.4712 12.7132 13.1866 12.9499 12.9499C13.1866 12.7132 13.4712 12.5949 13.8038 12.5949H19.8102Z" fill="url(#paint0_linear_6590_175635)"/>
  <defs>
  <linearGradient id="paint0_linear_6590_175635" x1="3" y1="3" x2="21" y2="21" gradientUnits="userSpaceOnUse">
  <stop stop-color="#07B9EE"/>
  <stop offset="1" stop-color="#3CEFBA"/>
  </linearGradient>
  </defs>
  </svg>
  