<svg width="24" height="24" viewBox="0 0 24 24" fill="none" xmlns="http://www.w3.org/2000/svg">
<mask id="path-1-inside-1_4542_130747" fill="white">
<path fill-rule="evenodd" clip-rule="evenodd" d="M4.99956 2.70078C4.55773 2.70078 4.19956 3.05895 4.19956 3.50078C4.19956 3.94261 4.55773 4.30078 4.99956 4.30078C5.44139 4.30078 5.79956 3.94261 5.79956 3.50078C5.79956 3.05895 5.44139 2.70078 4.99956 2.70078ZM2.79956 3.50078C2.79956 2.28575 3.78453 1.30078 4.99956 1.30078C6.21459 1.30078 7.19956 2.28575 7.19956 3.50078C7.19956 4.47101 6.5715 5.29455 5.69976 5.58701V8.5C5.69976 9.21797 6.28179 9.8 6.99976 9.8H16.9133C17.2055 8.9278 18.0292 8.29932 18.9998 8.29932C20.2148 8.29932 21.1998 9.28429 21.1998 10.4993C21.1998 11.7143 20.2148 12.6993 18.9998 12.6993C18.0298 12.6993 17.2063 12.0715 16.9137 11.2H6.99976C6.52847 11.2 6.08539 11.0793 5.69976 10.867V13.5C5.69976 14.218 6.28179 14.8 6.99976 14.8H16.9134C17.2056 13.9278 18.0294 13.2993 18.9999 13.2993C20.215 13.2993 21.1999 14.2843 21.1999 15.4993C21.1999 16.7143 20.215 17.6993 18.9999 17.6993C18.0299 17.6993 17.2065 17.0715 16.9139 16.2H6.99976C6.52847 16.2 6.08539 16.0793 5.69976 15.867V18.5C5.69976 19.218 6.28179 19.8 6.99976 19.8H16.9134C17.2056 18.9278 18.0294 18.2993 18.9999 18.2993C20.215 18.2993 21.1999 19.2843 21.1999 20.4993C21.1999 21.7143 20.215 22.6993 18.9999 22.6993C18.0299 22.6993 17.2065 22.0715 16.9139 21.2H6.99976C5.50859 21.2 4.29976 19.9912 4.29976 18.5V13.5V8.5V5.58714C3.42781 5.2948 2.79956 4.47116 2.79956 3.50078ZM18.1998 10.4993C18.1998 10.0575 18.558 9.69932 18.9998 9.69932C19.4416 9.69932 19.7998 10.0575 19.7998 10.4993C19.7998 10.9411 19.4416 11.2993 18.9998 11.2993C18.558 11.2993 18.1998 10.9411 18.1998 10.4993ZM18.9999 14.6993C18.5581 14.6993 18.1999 15.0575 18.1999 15.4993C18.1999 15.9411 18.5581 16.2993 18.9999 16.2993C19.4418 16.2993 19.7999 15.9411 19.7999 15.4993C19.7999 15.0575 19.4418 14.6993 18.9999 14.6993ZM18.1999 20.4993C18.1999 20.0575 18.5581 19.6993 18.9999 19.6993C19.4418 19.6993 19.7999 20.0575 19.7999 20.4993C19.7999 20.9411 19.4418 21.2993 18.9999 21.2993C18.5581 21.2993 18.1999 20.9411 18.1999 20.4993Z"/>
</mask>
<path fill-rule="evenodd" clip-rule="evenodd" d="M4.99956 2.70078C4.55773 2.70078 4.19956 3.05895 4.19956 3.50078C4.19956 3.94261 4.55773 4.30078 4.99956 4.30078C5.44139 4.30078 5.79956 3.94261 5.79956 3.50078C5.79956 3.05895 5.44139 2.70078 4.99956 2.70078ZM2.79956 3.50078C2.79956 2.28575 3.78453 1.30078 4.99956 1.30078C6.21459 1.30078 7.19956 2.28575 7.19956 3.50078C7.19956 4.47101 6.5715 5.29455 5.69976 5.58701V8.5C5.69976 9.21797 6.28179 9.8 6.99976 9.8H16.9133C17.2055 8.9278 18.0292 8.29932 18.9998 8.29932C20.2148 8.29932 21.1998 9.28429 21.1998 10.4993C21.1998 11.7143 20.2148 12.6993 18.9998 12.6993C18.0298 12.6993 17.2063 12.0715 16.9137 11.2H6.99976C6.52847 11.2 6.08539 11.0793 5.69976 10.867V13.5C5.69976 14.218 6.28179 14.8 6.99976 14.8H16.9134C17.2056 13.9278 18.0294 13.2993 18.9999 13.2993C20.215 13.2993 21.1999 14.2843 21.1999 15.4993C21.1999 16.7143 20.215 17.6993 18.9999 17.6993C18.0299 17.6993 17.2065 17.0715 16.9139 16.2H6.99976C6.52847 16.2 6.08539 16.0793 5.69976 15.867V18.5C5.69976 19.218 6.28179 19.8 6.99976 19.8H16.9134C17.2056 18.9278 18.0294 18.2993 18.9999 18.2993C20.215 18.2993 21.1999 19.2843 21.1999 20.4993C21.1999 21.7143 20.215 22.6993 18.9999 22.6993C18.0299 22.6993 17.2065 22.0715 16.9139 21.2H6.99976C5.50859 21.2 4.29976 19.9912 4.29976 18.5V13.5V8.5V5.58714C3.42781 5.2948 2.79956 4.47116 2.79956 3.50078ZM18.1998 10.4993C18.1998 10.0575 18.558 9.69932 18.9998 9.69932C19.4416 9.69932 19.7998 10.0575 19.7998 10.4993C19.7998 10.9411 19.4416 11.2993 18.9998 11.2993C18.558 11.2993 18.1998 10.9411 18.1998 10.4993ZM18.9999 14.6993C18.5581 14.6993 18.1999 15.0575 18.1999 15.4993C18.1999 15.9411 18.5581 16.2993 18.9999 16.2993C19.4418 16.2993 19.7999 15.9411 19.7999 15.4993C19.7999 15.0575 19.4418 14.6993 18.9999 14.6993ZM18.1999 20.4993C18.1999 20.0575 18.5581 19.6993 18.9999 19.6993C19.4418 19.6993 19.7999 20.0575 19.7999 20.4993C19.7999 20.9411 19.4418 21.2993 18.9999 21.2993C18.5581 21.2993 18.1999 20.9411 18.1999 20.4993Z" fill="url(#paint0_linear_4542_130747)"/>
<path d="M5.69976 5.58701L5.38169 4.63894L4.69976 4.86772V5.58701H5.69976ZM16.9133 9.8V10.8H17.6329L17.8615 10.1177L16.9133 9.8ZM16.9137 11.2L17.8617 10.8817L17.6328 10.2H16.9137V11.2ZM5.69976 10.867L6.18194 9.99093L4.69976 9.17516V10.867H5.69976ZM16.9134 14.8V15.8H17.633L17.8616 15.1177L16.9134 14.8ZM16.9139 16.2L17.8619 15.8817L17.633 15.2H16.9139V16.2ZM5.69976 15.867L6.18194 14.9909L4.69976 14.1752V15.867H5.69976ZM16.9134 19.8V20.8H17.633L17.8616 20.1177L16.9134 19.8ZM16.9139 21.2L17.8619 20.8817L17.633 20.2H16.9139V21.2ZM4.29976 5.58714H5.29976V4.86771L4.61764 4.63901L4.29976 5.58714ZM5.19956 3.50078C5.19956 3.61124 5.11002 3.70078 4.99956 3.70078V1.70078C4.00545 1.70078 3.19956 2.50667 3.19956 3.50078H5.19956ZM4.99956 3.30078C5.11002 3.30078 5.19956 3.39032 5.19956 3.50078H3.19956C3.19956 4.49489 4.00545 5.30078 4.99956 5.30078V3.30078ZM4.79956 3.50078C4.79956 3.39032 4.8891 3.30078 4.99956 3.30078V5.30078C5.99367 5.30078 6.79956 4.49489 6.79956 3.50078H4.79956ZM4.99956 3.70078C4.8891 3.70078 4.79956 3.61124 4.79956 3.50078H6.79956C6.79956 2.50667 5.99367 1.70078 4.99956 1.70078V3.70078ZM4.99956 0.300781C3.23225 0.300781 1.79956 1.73347 1.79956 3.50078H3.79956C3.79956 2.83804 4.33682 2.30078 4.99956 2.30078V0.300781ZM8.19956 3.50078C8.19956 1.73347 6.76687 0.300781 4.99956 0.300781V2.30078C5.6623 2.30078 6.19956 2.83804 6.19956 3.50078H8.19956ZM6.01782 6.53508C7.28466 6.11007 8.19956 4.91357 8.19956 3.50078H6.19956C6.19956 4.02846 5.85834 4.47903 5.38169 4.63894L6.01782 6.53508ZM6.69976 8.5V5.58701H4.69976V8.5H6.69976ZM6.99976 8.8C6.83407 8.8 6.69976 8.66569 6.69976 8.5H4.69976C4.69976 9.77025 5.7295 10.8 6.99976 10.8V8.8ZM16.9133 8.8H6.99976V10.8H16.9133V8.8ZM18.9998 7.29932C17.5865 7.29932 16.3897 8.21483 15.9651 9.48234L17.8615 10.1177C18.0212 9.64077 18.472 9.29932 18.9998 9.29932V7.29932ZM22.1998 10.4993C22.1998 8.732 20.7671 7.29932 18.9998 7.29932V9.29932C19.6625 9.29932 20.1998 9.83657 20.1998 10.4993H22.1998ZM18.9998 13.6993C20.7671 13.6993 22.1998 12.2666 22.1998 10.4993H20.1998C20.1998 11.1621 19.6625 11.6993 18.9998 11.6993V13.6993ZM15.9657 11.5183C16.391 12.7847 17.5873 13.6993 18.9998 13.6993V11.6993C18.4722 11.6993 18.0217 11.3582 17.8617 10.8817L15.9657 11.5183ZM6.99976 12.2H16.9137V10.2H6.99976V12.2ZM5.21758 11.7431C5.74717 12.0346 6.35564 12.2 6.99976 12.2V10.2C6.7013 10.2 6.4236 10.1239 6.18194 9.99093L5.21758 11.7431ZM6.69976 13.5V10.867H4.69976V13.5H6.69976ZM6.99976 13.8C6.83407 13.8 6.69976 13.6657 6.69976 13.5H4.69976C4.69976 14.7703 5.7295 15.8 6.99976 15.8V13.8ZM16.9134 13.8H6.99976V15.8H16.9134V13.8ZM18.9999 12.2993C17.5867 12.2993 16.3898 13.2148 15.9652 14.4823L17.8616 15.1177C18.0214 14.6408 18.4721 14.2993 18.9999 14.2993V12.2993ZM22.1999 15.4993C22.1999 13.732 20.7672 12.2993 18.9999 12.2993V14.2993C19.6627 14.2993 20.1999 14.8366 20.1999 15.4993H22.1999ZM18.9999 18.6993C20.7672 18.6993 22.1999 17.2666 22.1999 15.4993H20.1999C20.1999 16.1621 19.6627 16.6993 18.9999 16.6993V18.6993ZM15.9659 16.5183C16.3911 17.7847 17.5874 18.6993 18.9999 18.6993V16.6993C18.4724 16.6993 18.0218 16.3582 17.8619 15.8817L15.9659 16.5183ZM6.99976 17.2H16.9139V15.2H6.99976V17.2ZM5.21758 16.7431C5.74717 17.0346 6.35564 17.2 6.99976 17.2V15.2C6.7013 15.2 6.4236 15.1239 6.18194 14.9909L5.21758 16.7431ZM6.69976 18.5V15.867H4.69976V18.5H6.69976ZM6.99976 18.8C6.83407 18.8 6.69976 18.6657 6.69976 18.5H4.69976C4.69976 19.7703 5.7295 20.8 6.99976 20.8V18.8ZM16.9134 18.8H6.99976V20.8H16.9134V18.8ZM17.8616 20.1177C18.0214 19.6408 18.4721 19.2993 18.9999 19.2993V17.2993C17.5867 17.2993 16.3898 18.2148 15.9652 19.4823L17.8616 20.1177ZM18.9999 19.2993C19.6627 19.2993 20.1999 19.8366 20.1999 20.4993H22.1999C22.1999 18.732 20.7672 17.2993 18.9999 17.2993V19.2993ZM20.1999 20.4993C20.1999 21.1621 19.6627 21.6993 18.9999 21.6993V23.6993C20.7672 23.6993 22.1999 22.2666 22.1999 20.4993H20.1999ZM18.9999 21.6993C18.4724 21.6993 18.0218 21.3582 17.8619 20.8817L15.9659 21.5183C16.3911 22.7848 17.5874 23.6993 18.9999 23.6993V21.6993ZM6.99976 22.2H16.9139V20.2H6.99976V22.2ZM3.29976 18.5C3.29976 20.5435 4.9563 22.2 6.99976 22.2V20.2C6.06087 20.2 5.29976 19.4389 5.29976 18.5H3.29976ZM3.29976 13.5V18.5H5.29976V13.5H3.29976ZM3.29976 8.5V13.5H5.29976V8.5H3.29976ZM3.29976 5.58714V8.5H5.29976V5.58714H3.29976ZM1.79956 3.50078C1.79956 4.91378 2.71474 6.11043 3.98187 6.53527L4.61764 4.63901C4.14089 4.47917 3.79956 4.02853 3.79956 3.50078H1.79956ZM18.9998 8.69932C18.0057 8.69932 17.1998 9.5052 17.1998 10.4993H19.1998C19.1998 10.6098 19.1103 10.6993 18.9998 10.6993V8.69932ZM20.7998 10.4993C20.7998 9.50521 19.9939 8.69932 18.9998 8.69932V10.6993C18.8893 10.6993 18.7998 10.6098 18.7998 10.4993H20.7998ZM18.9998 12.2993C19.9939 12.2993 20.7998 11.4934 20.7998 10.4993H18.7998C18.7998 10.3889 18.8893 10.2993 18.9998 10.2993V12.2993ZM17.1998 10.4993C17.1998 11.4934 18.0057 12.2993 18.9998 12.2993V10.2993C19.1103 10.2993 19.1998 10.3889 19.1998 10.4993H17.1998ZM19.1999 15.4993C19.1999 15.6098 19.1104 15.6993 18.9999 15.6993V13.6993C18.0058 13.6993 17.1999 14.5052 17.1999 15.4993H19.1999ZM18.9999 15.2993C19.1104 15.2993 19.1999 15.3889 19.1999 15.4993H17.1999C17.1999 16.4934 18.0058 17.2993 18.9999 17.2993V15.2993ZM18.7999 15.4993C18.7999 15.3889 18.8895 15.2993 18.9999 15.2993V17.2993C19.994 17.2993 20.7999 16.4934 20.7999 15.4993H18.7999ZM18.9999 15.6993C18.8895 15.6993 18.7999 15.6098 18.7999 15.4993H20.7999C20.7999 14.5052 19.994 13.6993 18.9999 13.6993V15.6993ZM18.9999 18.6993C18.0058 18.6993 17.1999 19.5052 17.1999 20.4993H19.1999C19.1999 20.6098 19.1104 20.6993 18.9999 20.6993V18.6993ZM20.7999 20.4993C20.7999 19.5052 19.994 18.6993 18.9999 18.6993V20.6993C18.8895 20.6993 18.7999 20.6098 18.7999 20.4993H20.7999ZM18.9999 22.2993C19.994 22.2993 20.7999 21.4934 20.7999 20.4993H18.7999C18.7999 20.3889 18.8895 20.2993 18.9999 20.2993V22.2993ZM17.1999 20.4993C17.1999 21.4934 18.0058 22.2993 18.9999 22.2993V20.2993C19.1104 20.2993 19.1999 20.3889 19.1999 20.4993H17.1999Z" fill="url(#paint1_linear_4542_130747)" mask="url(#path-1-inside-1_4542_130747)"/>
<defs>
<linearGradient id="paint0_linear_4542_130747" x1="2.79956" y1="1.30078" x2="23.9566" y2="19.4935" gradientUnits="userSpaceOnUse">
<stop stop-color="#57CCEF"/>
<stop offset="1" stop-color="#86E5C9"/>
</linearGradient>
<linearGradient id="paint1_linear_4542_130747" x1="2.79956" y1="1.30078" x2="23.9566" y2="19.4935" gradientUnits="userSpaceOnUse">
<stop stop-color="#57CCEF"/>
<stop offset="1" stop-color="#86E5C9"/>
</linearGradient>
</defs>
</svg>
