<svg width="24" height="24" viewBox="0 0 24 24" fill="none" xmlns="http://www.w3.org/2000/svg">
<mask id="path-1-inside-1_6930_2488" fill="white">
<path fill-rule="evenodd" clip-rule="evenodd" d="M4.99962 2.70103C4.55779 2.70103 4.19962 3.0592 4.19962 3.50103C4.19962 3.94285 4.55779 4.30103 4.99962 4.30103C5.44145 4.30103 5.79962 3.94285 5.79962 3.50103C5.79962 3.0592 5.44145 2.70103 4.99962 2.70103ZM2.79962 3.50103C2.79962 2.286 3.7846 1.30103 4.99962 1.30103C6.21465 1.30103 7.19962 2.286 7.19962 3.50103C7.19962 4.47126 6.57156 5.2948 5.69982 5.58726V8.50024C5.69982 9.21821 6.28185 9.80024 6.99982 9.80024H16.9133C17.2055 8.92805 18.0293 8.29956 18.9999 8.29956C20.2149 8.29956 21.1999 9.28453 21.1999 10.4996C21.1999 11.7146 20.2149 12.6996 18.9999 12.6996C18.0298 12.6996 17.2064 12.0717 16.9138 11.2002H6.99982C6.52853 11.2002 6.08545 11.0795 5.69982 10.8672V13.5002C5.69982 14.2182 6.28185 14.8002 6.99982 14.8002H16.9135C17.2057 13.928 18.0294 13.2996 19 13.2996C20.215 13.2996 21.2 14.2845 21.2 15.4996C21.2 16.7146 20.215 17.6996 19 17.6996C18.0299 17.6996 17.2065 17.0717 16.9139 16.2002H6.99982C6.52853 16.2002 6.08545 16.0795 5.69982 15.8672V18.5002C5.69982 19.2182 6.28185 19.8002 6.99982 19.8002H16.9135C17.2057 18.928 18.0294 18.2996 19 18.2996C20.215 18.2996 21.2 19.2845 21.2 20.4996C21.2 21.7146 20.215 22.6996 19 22.6996C18.0299 22.6996 17.2065 22.0717 16.9139 21.2002H6.99982C5.50865 21.2002 4.29982 19.9914 4.29982 18.5002V13.5002V8.50024V5.58739C3.42787 5.29504 2.79962 4.4714 2.79962 3.50103ZM18.1999 10.4996C18.1999 10.0577 18.558 9.69956 18.9999 9.69956C19.4417 9.69956 19.7999 10.0577 19.7999 10.4996C19.7999 10.9414 19.4417 11.2996 18.9999 11.2996C18.558 11.2996 18.1999 10.9414 18.1999 10.4996ZM19 14.6996C18.5582 14.6996 18.2 15.0577 18.2 15.4996C18.2 15.9414 18.5582 16.2996 19 16.2996C19.4418 16.2996 19.8 15.9414 19.8 15.4996C19.8 15.0577 19.4418 14.6996 19 14.6996ZM18.2 20.4996C18.2 20.0577 18.5582 19.6996 19 19.6996C19.4418 19.6996 19.8 20.0577 19.8 20.4996C19.8 20.9414 19.4418 21.2996 19 21.2996C18.5582 21.2996 18.2 20.9414 18.2 20.4996Z"/>
</mask>
<path fill-rule="evenodd" clip-rule="evenodd" d="M4.99962 2.70103C4.55779 2.70103 4.19962 3.0592 4.19962 3.50103C4.19962 3.94285 4.55779 4.30103 4.99962 4.30103C5.44145 4.30103 5.79962 3.94285 5.79962 3.50103C5.79962 3.0592 5.44145 2.70103 4.99962 2.70103ZM2.79962 3.50103C2.79962 2.286 3.7846 1.30103 4.99962 1.30103C6.21465 1.30103 7.19962 2.286 7.19962 3.50103C7.19962 4.47126 6.57156 5.2948 5.69982 5.58726V8.50024C5.69982 9.21821 6.28185 9.80024 6.99982 9.80024H16.9133C17.2055 8.92805 18.0293 8.29956 18.9999 8.29956C20.2149 8.29956 21.1999 9.28453 21.1999 10.4996C21.1999 11.7146 20.2149 12.6996 18.9999 12.6996C18.0298 12.6996 17.2064 12.0717 16.9138 11.2002H6.99982C6.52853 11.2002 6.08545 11.0795 5.69982 10.8672V13.5002C5.69982 14.2182 6.28185 14.8002 6.99982 14.8002H16.9135C17.2057 13.928 18.0294 13.2996 19 13.2996C20.215 13.2996 21.2 14.2845 21.2 15.4996C21.2 16.7146 20.215 17.6996 19 17.6996C18.0299 17.6996 17.2065 17.0717 16.9139 16.2002H6.99982C6.52853 16.2002 6.08545 16.0795 5.69982 15.8672V18.5002C5.69982 19.2182 6.28185 19.8002 6.99982 19.8002H16.9135C17.2057 18.928 18.0294 18.2996 19 18.2996C20.215 18.2996 21.2 19.2845 21.2 20.4996C21.2 21.7146 20.215 22.6996 19 22.6996C18.0299 22.6996 17.2065 22.0717 16.9139 21.2002H6.99982C5.50865 21.2002 4.29982 19.9914 4.29982 18.5002V13.5002V8.50024V5.58739C3.42787 5.29504 2.79962 4.4714 2.79962 3.50103ZM18.1999 10.4996C18.1999 10.0577 18.558 9.69956 18.9999 9.69956C19.4417 9.69956 19.7999 10.0577 19.7999 10.4996C19.7999 10.9414 19.4417 11.2996 18.9999 11.2996C18.558 11.2996 18.1999 10.9414 18.1999 10.4996ZM19 14.6996C18.5582 14.6996 18.2 15.0577 18.2 15.4996C18.2 15.9414 18.5582 16.2996 19 16.2996C19.4418 16.2996 19.8 15.9414 19.8 15.4996C19.8 15.0577 19.4418 14.6996 19 14.6996ZM18.2 20.4996C18.2 20.0577 18.5582 19.6996 19 19.6996C19.4418 19.6996 19.8 20.0577 19.8 20.4996C19.8 20.9414 19.4418 21.2996 19 21.2996C18.5582 21.2996 18.2 20.9414 18.2 20.4996Z" fill="#CCCCCC"/>
<path d="M5.69982 5.58726L5.38175 4.63919L4.69982 4.86797V5.58726H5.69982ZM16.9133 9.80024V10.8002H17.633L17.8615 10.1179L16.9133 9.80024ZM16.9138 11.2002L17.8618 10.882L17.6329 10.2002H16.9138V11.2002ZM5.69982 10.8672L6.182 9.99118L4.69982 9.1754V10.8672H5.69982ZM16.9135 14.8002V15.8002H17.6331L17.8617 15.1179L16.9135 14.8002ZM16.9139 16.2002L17.8619 15.882L17.633 15.2002H16.9139V16.2002ZM5.69982 15.8672L6.182 14.9912L4.69982 14.1754V15.8672H5.69982ZM16.9135 19.8002V20.8002H17.6331L17.8617 20.1179L16.9135 19.8002ZM16.9139 21.2002L17.8619 20.882L17.633 20.2002H16.9139V21.2002ZM4.29982 5.58739H5.29982V4.86796L4.6177 4.63926L4.29982 5.58739ZM5.19962 3.50103C5.19962 3.61148 5.11008 3.70103 4.99962 3.70103V1.70103C4.00551 1.70103 3.19962 2.50691 3.19962 3.50103H5.19962ZM4.99962 3.30103C5.11008 3.30103 5.19962 3.39057 5.19962 3.50103H3.19962C3.19962 4.49514 4.00551 5.30103 4.99962 5.30103V3.30103ZM4.79962 3.50103C4.79962 3.39057 4.88916 3.30103 4.99962 3.30103V5.30103C5.99373 5.30103 6.79962 4.49514 6.79962 3.50103H4.79962ZM4.99962 3.70103C4.88916 3.70103 4.79962 3.61148 4.79962 3.50103H6.79962C6.79962 2.50691 5.99373 1.70103 4.99962 1.70103V3.70103ZM4.99962 0.301025C3.23231 0.301025 1.79962 1.73371 1.79962 3.50103H3.79962C3.79962 2.83828 4.33688 2.30103 4.99962 2.30103V0.301025ZM8.19962 3.50103C8.19962 1.73371 6.76693 0.301025 4.99962 0.301025V2.30103C5.66236 2.30103 6.19962 2.83828 6.19962 3.50103H8.19962ZM6.01788 6.53532C7.28472 6.11032 8.19962 4.91382 8.19962 3.50103H6.19962C6.19962 4.0287 5.8584 4.47928 5.38175 4.63919L6.01788 6.53532ZM6.69982 8.50024V5.58726H4.69982V8.50024H6.69982ZM6.99982 8.80024C6.83413 8.80024 6.69982 8.66593 6.69982 8.50024H4.69982C4.69982 9.7705 5.72956 10.8002 6.99982 10.8002V8.80024ZM16.9133 8.80024H6.99982V10.8002H16.9133V8.80024ZM18.9999 7.29956C17.5866 7.29956 16.3898 8.21508 15.9651 9.48258L17.8615 10.1179C18.0213 9.64102 18.472 9.29956 18.9999 9.29956V7.29956ZM22.1999 10.4996C22.1999 8.73225 20.7672 7.29956 18.9999 7.29956V9.29956C19.6626 9.29956 20.1999 9.83682 20.1999 10.4996H22.1999ZM18.9999 13.6996C20.7672 13.6996 22.1999 12.2669 22.1999 10.4996H20.1999C20.1999 11.1623 19.6626 11.6996 18.9999 11.6996V13.6996ZM15.9658 11.5185C16.391 12.785 17.5873 13.6996 18.9999 13.6996V11.6996C18.4723 11.6996 18.0218 11.3585 17.8618 10.882L15.9658 11.5185ZM6.99982 12.2002H16.9138V10.2002H6.99982V12.2002ZM5.21764 11.7433C5.74723 12.0348 6.3557 12.2002 6.99982 12.2002V10.2002C6.70136 10.2002 6.42367 10.1242 6.182 9.99118L5.21764 11.7433ZM6.69982 13.5002V10.8672H4.69982V13.5002H6.69982ZM6.99982 13.8002C6.83413 13.8002 6.69982 13.6659 6.69982 13.5002H4.69982C4.69982 14.7705 5.72956 15.8002 6.99982 15.8002V13.8002ZM16.9135 13.8002H6.99982V15.8002H16.9135V13.8002ZM19 12.2996C17.5867 12.2996 16.3899 13.2151 15.9653 14.4826L17.8617 15.1179C18.0214 14.641 18.4721 14.2996 19 14.2996V12.2996ZM22.2 15.4996C22.2 13.7322 20.7673 12.2996 19 12.2996V14.2996C19.6627 14.2996 20.2 14.8368 20.2 15.4996H22.2ZM19 18.6996C20.7673 18.6996 22.2 17.2669 22.2 15.4996H20.2C20.2 16.1623 19.6627 16.6996 19 16.6996V18.6996ZM15.9659 16.5185C16.3911 17.785 17.5875 18.6996 19 18.6996V16.6996C18.4724 16.6996 18.0219 16.3585 17.8619 15.882L15.9659 16.5185ZM6.99982 17.2002H16.9139V15.2002H6.99982V17.2002ZM5.21764 16.7433C5.74723 17.0348 6.3557 17.2002 6.99982 17.2002V15.2002C6.70136 15.2002 6.42367 15.1242 6.182 14.9912L5.21764 16.7433ZM6.69982 18.5002V15.8672H4.69982V18.5002H6.69982ZM6.99982 18.8002C6.83413 18.8002 6.69982 18.6659 6.69982 18.5002H4.69982C4.69982 19.7705 5.72956 20.8002 6.99982 20.8002V18.8002ZM16.9135 18.8002H6.99982V20.8002H16.9135V18.8002ZM17.8617 20.1179C18.0214 19.641 18.4721 19.2996 19 19.2996V17.2996C17.5867 17.2996 16.3899 18.2151 15.9653 19.4826L17.8617 20.1179ZM19 19.2996C19.6627 19.2996 20.2 19.8368 20.2 20.4996H22.2C22.2 18.7323 20.7673 17.2996 19 17.2996V19.2996ZM20.2 20.4996C20.2 21.1623 19.6627 21.6996 19 21.6996V23.6996C20.7673 23.6996 22.2 22.2669 22.2 20.4996H20.2ZM19 21.6996C18.4724 21.6996 18.0219 21.3585 17.8619 20.882L15.9659 21.5185C16.3911 22.785 17.5875 23.6996 19 23.6996V21.6996ZM6.99982 22.2002H16.9139V20.2002H6.99982V22.2002ZM3.29982 18.5002C3.29982 20.5437 4.95636 22.2002 6.99982 22.2002V20.2002C6.06093 20.2002 5.29982 19.4391 5.29982 18.5002H3.29982ZM3.29982 13.5002V18.5002H5.29982V13.5002H3.29982ZM3.29982 8.50024V13.5002H5.29982V8.50024H3.29982ZM3.29982 5.58739V8.50024H5.29982V5.58739H3.29982ZM1.79962 3.50103C1.79962 4.91403 2.7148 6.11067 3.98193 6.53552L4.6177 4.63926C4.14095 4.47941 3.79962 4.02878 3.79962 3.50103H1.79962ZM18.9999 8.69956C18.0058 8.69956 17.1999 9.50545 17.1999 10.4996H19.1999C19.1999 10.61 19.1103 10.6996 18.9999 10.6996V8.69956ZM20.7999 10.4996C20.7999 9.50545 19.994 8.69956 18.9999 8.69956V10.6996C18.8894 10.6996 18.7999 10.61 18.7999 10.4996H20.7999ZM18.9999 12.2996C19.994 12.2996 20.7999 11.4937 20.7999 10.4996H18.7999C18.7999 10.3891 18.8894 10.2996 18.9999 10.2996V12.2996ZM17.1999 10.4996C17.1999 11.4937 18.0058 12.2996 18.9999 12.2996V10.2996C19.1103 10.2996 19.1999 10.3891 19.1999 10.4996H17.1999ZM19.2 15.4996C19.2 15.61 19.1104 15.6996 19 15.6996V13.6996C18.0059 13.6996 17.2 14.5054 17.2 15.4996H19.2ZM19 15.2996C19.1104 15.2996 19.2 15.3891 19.2 15.4996H17.2C17.2 16.4937 18.0059 17.2996 19 17.2996V15.2996ZM18.8 15.4996C18.8 15.3891 18.8895 15.2996 19 15.2996V17.2996C19.9941 17.2996 20.8 16.4937 20.8 15.4996H18.8ZM19 15.6996C18.8895 15.6996 18.8 15.61 18.8 15.4996H20.8C20.8 14.5054 19.9941 13.6996 19 13.6996V15.6996ZM19 18.6996C18.0059 18.6996 17.2 19.5054 17.2 20.4996H19.2C19.2 20.61 19.1104 20.6996 19 20.6996V18.6996ZM20.8 20.4996C20.8 19.5054 19.9941 18.6996 19 18.6996V20.6996C18.8895 20.6996 18.8 20.61 18.8 20.4996H20.8ZM19 22.2996C19.9941 22.2996 20.8 21.4937 20.8 20.4996H18.8C18.8 20.3891 18.8895 20.2996 19 20.2996V22.2996ZM17.2 20.4996C17.2 21.4937 18.0059 22.2996 19 22.2996V20.2996C19.1104 20.2996 19.2 20.3891 19.2 20.4996H17.2Z" fill="#CCCCCC" mask="url(#path-1-inside-1_6930_2488)"/>
</svg>
