<svg width="24" height="24" viewBox="0 0 24 24" fill="none" xmlns="http://www.w3.org/2000/svg">
<path d="M20.3328 16.0001C20.1661 16.0001 19.9828 15.9335 19.8661 15.8001L16.9994 12.9501L14.9661 14.9668C14.6994 15.2334 14.2827 15.2334 14.0161 14.9668L8.66601 9.61673L4.13263 14.1334C3.9493 14.3168 3.6493 14.3834 3.39929 14.2834C3.16596 14.1834 2.99929 13.9334 2.99929 13.6668V5.33335C2.99929 4.05001 4.0493 3 5.33264 3H18.6661C19.9494 3 20.9995 4.05001 20.9995 5.33335V15.3334C20.9984 15.5099 20.9278 15.6789 20.803 15.8036C20.6782 15.9284 20.5093 15.999 20.3328 16.0001V16.0001ZM16.9994 11.3334C17.1661 11.3334 17.3328 11.4001 17.4661 11.5334L19.6661 13.7168V5.33335C19.6661 4.78335 19.2161 4.33335 18.6661 4.33335H5.33264C4.78264 4.33335 4.33264 4.78335 4.33264 5.33335V12.0501L8.19934 8.18338C8.46601 7.91671 8.88268 7.91671 9.14935 8.18338L14.4994 13.5501L16.5327 11.5167C16.6661 11.4001 16.8327 11.3334 16.9994 11.3334Z" fill="url(#paint0_linear_6932_175793)"/>
<path d="M19.8494 20.5167C19.6828 20.5167 19.5161 20.4501 19.3828 20.3167L14.0327 14.9667C13.7661 14.7 13.7661 14.2833 14.0327 14.0167L16.5327 11.5167C16.7994 11.25 17.2161 11.25 17.4828 11.5167L20.8161 14.85C20.9495 14.9833 21.0161 15.15 21.0161 15.3167V18.6501C21.0161 19.2667 20.7661 19.8501 20.3328 20.3001C20.1828 20.4501 20.0161 20.5167 19.8494 20.5167V20.5167ZM15.4494 14.5L19.6661 18.7167V15.6167L16.9994 12.95L15.4494 14.5Z" fill="url(#paint1_linear_6932_175793)"/>
<path d="M18.6661 21.0001H5.33264C4.0493 21.0001 2.99929 19.9501 2.99929 18.6668V13.6667C2.99929 13.4834 3.06596 13.3167 3.19929 13.2L8.19934 8.2C8.46601 7.93333 8.88268 7.93333 9.14935 8.2L20.3328 19.3834C20.5994 19.6501 20.5994 20.0668 20.3328 20.3334C19.8661 20.7501 19.2828 21.0001 18.6661 21.0001ZM4.33264 13.9501V18.6668C4.33264 19.2168 4.78264 19.6668 5.33264 19.6668H18.7161L8.66601 9.61668L4.33264 13.9501V13.9501Z" fill="url(#paint2_linear_6932_175793)"/>
<path d="M16.1661 10.1667C14.8827 10.1667 13.8327 9.1167 13.8327 7.83335C13.8327 6.55001 14.8827 5.5 16.1661 5.5C17.4494 5.5 18.4994 6.55001 18.4994 7.83335C18.4994 9.1167 17.4494 10.1667 16.1661 10.1667ZM16.1661 6.83335C15.6161 6.83335 15.1661 7.28335 15.1661 7.83335C15.1661 8.38336 15.6161 8.83336 16.1661 8.83336C16.7161 8.83336 17.1661 8.38336 17.1661 7.83335C17.1661 7.28335 16.7161 6.83335 16.1661 6.83335Z" fill="url(#paint3_linear_6932_175793)"/>
<defs>
<linearGradient id="paint0_linear_6932_175793" x1="2.99929" y1="3" x2="15.3402" y2="20.0874" gradientUnits="userSpaceOnUse">
<stop stop-color="#07B9EE"/>
<stop offset="1" stop-color="#3CEFBA"/>
</linearGradient>
<linearGradient id="paint1_linear_6932_175793" x1="13.8327" y1="11.3167" x2="22.7582" y2="18.2856" gradientUnits="userSpaceOnUse">
<stop stop-color="#07B9EE"/>
<stop offset="1" stop-color="#3CEFBA"/>
</linearGradient>
<linearGradient id="paint2_linear_6932_175793" x1="2.99929" y1="8" x2="15.4386" y2="24.7772" gradientUnits="userSpaceOnUse">
<stop stop-color="#07B9EE"/>
<stop offset="1" stop-color="#3CEFBA"/>
</linearGradient>
<linearGradient id="paint3_linear_6932_175793" x1="13.8327" y1="5.5" x2="18.4994" y2="10.1667" gradientUnits="userSpaceOnUse">
<stop stop-color="#07B9EE"/>
<stop offset="1" stop-color="#3CEFBA"/>
</linearGradient>
</defs>
</svg>
