<svg width="24" height="24" viewBox="0 0 24 24" fill="none" xmlns="http://www.w3.org/2000/svg">
<g clip-path="url(#clip0_6932_175764)">
<path d="M6.14314 16.5013C6.14314 17.6443 5.21584 18.571 4.07167 18.571C2.92751 18.571 2.00031 17.6443 2.00031 16.5013C2.00031 15.3583 2.92747 14.4321 4.07167 14.4321C5.21581 14.4321 6.14314 15.3583 6.14314 16.5013Z" fill="url(#paint0_linear_6932_175764)"/>
<path d="M11.3667 19.3933C11.3667 20.1017 10.7919 20.676 10.0833 20.676C9.37417 20.676 8.79947 20.1017 8.79947 19.3933C8.79947 18.6853 9.37414 18.1108 10.0833 18.1108C10.7919 18.1108 11.3667 18.6853 11.3667 19.3933V19.3933Z" fill="url(#paint1_linear_6932_175764)"/>
<path d="M20.1366 15.3451C20.1366 17.2086 18.6239 18.719 16.7593 18.719C14.8933 18.719 13.3822 17.2086 13.3822 15.3451C13.3822 13.4809 14.8933 11.9702 16.7593 11.9702C18.6239 11.9702 20.1366 13.4809 20.1366 15.3451V15.3451Z" fill="url(#paint2_linear_6932_175764)"/>
<path d="M18.3552 7.06448C18.3552 8.15554 17.4708 9.03924 16.3792 9.03924C15.2877 9.03924 14.4032 8.15554 14.4032 7.06448C14.4032 5.97441 15.2877 5.09028 16.3792 5.09028C17.4708 5.09028 18.3552 5.97441 18.3552 7.06448ZM22.0003 4.62171C22.0003 5.33034 21.4255 5.90471 20.7164 5.90471C20.008 5.90471 19.4329 5.33038 19.4329 4.62171C19.4329 3.91388 20.008 3.33984 20.7164 3.33984C21.4255 3.33984 22.0003 3.91388 22.0003 4.62171Z" fill="url(#paint3_linear_6932_175764)"/>
</g>
<defs>
<linearGradient id="paint0_linear_6932_175764" x1="2.00031" y1="14.4321" x2="6.13914" y2="18.575" gradientUnits="userSpaceOnUse">
<stop stop-color="#07B9EE"/>
<stop offset="1" stop-color="#3CEFBA"/>
</linearGradient>
<linearGradient id="paint1_linear_6932_175764" x1="8.79947" y1="18.1108" x2="11.3646" y2="20.6781" gradientUnits="userSpaceOnUse">
<stop stop-color="#07B9EE"/>
<stop offset="1" stop-color="#3CEFBA"/>
</linearGradient>
<linearGradient id="paint2_linear_6932_175764" x1="13.3822" y1="11.9702" x2="20.1311" y2="18.7246" gradientUnits="userSpaceOnUse">
<stop stop-color="#07B9EE"/>
<stop offset="1" stop-color="#3CEFBA"/>
</linearGradient>
<linearGradient id="paint3_linear_6932_175764" x1="14.4032" y1="3.33984" x2="19.875" y2="10.6336" gradientUnits="userSpaceOnUse">
<stop stop-color="#07B9EE"/>
<stop offset="1" stop-color="#3CEFBA"/>
</linearGradient>
<clipPath id="clip0_6932_175764">
<rect width="20" height="20" fill="white" transform="translate(2 2)"/>
</clipPath>
</defs>
</svg>
