<svg width="20" height="22" viewBox="0 0 20 22" fill="none" xmlns="http://www.w3.org/2000/svg">
<mask id="path-1-inside-1_15784_2353" fill="white">
<path fill-rule="evenodd" clip-rule="evenodd" d="M2.99956 1.70078C2.55773 1.70078 2.19956 2.05895 2.19956 2.50078C2.19956 2.94261 2.55773 3.30078 2.99956 3.30078C3.44139 3.30078 3.79956 2.94261 3.79956 2.50078C3.79956 2.05895 3.44139 1.70078 2.99956 1.70078ZM0.799561 2.50078C0.799561 1.28575 1.78453 0.300781 2.99956 0.300781C4.21459 0.300781 5.19956 1.28575 5.19956 2.50078C5.19956 3.47101 4.5715 4.29455 3.69976 4.58701V7.5C3.69976 8.21797 4.28179 8.8 4.99976 8.8H14.9133C15.2055 7.9278 16.0292 7.29932 16.9998 7.29932C18.2148 7.29932 19.1998 8.28429 19.1998 9.49932C19.1998 10.7143 18.2148 11.6993 16.9998 11.6993C16.0298 11.6993 15.2063 11.0715 14.9137 10.2H4.99976C4.52847 10.2 4.08539 10.0793 3.69976 9.86701V12.5C3.69976 13.218 4.28179 13.8 4.99976 13.8H14.9134C15.2056 12.9278 16.0294 12.2993 16.9999 12.2993C18.215 12.2993 19.1999 13.2843 19.1999 14.4993C19.1999 15.7143 18.215 16.6993 16.9999 16.6993C16.0299 16.6993 15.2065 16.0715 14.9139 15.2H4.99976C4.52847 15.2 4.08539 15.0793 3.69976 14.867V17.5C3.69976 18.218 4.28179 18.8 4.99976 18.8H14.9134C15.2056 17.9278 16.0294 17.2993 16.9999 17.2993C18.215 17.2993 19.1999 18.2843 19.1999 19.4993C19.1999 20.7143 18.215 21.6993 16.9999 21.6993C16.0299 21.6993 15.2065 21.0715 14.9139 20.2H4.99976C3.50859 20.2 2.29976 18.9912 2.29976 17.5V12.5V7.5V4.58714C1.42781 4.2948 0.799561 3.47116 0.799561 2.50078ZM16.1998 9.49932C16.1998 9.05749 16.558 8.69932 16.9998 8.69932C17.4416 8.69932 17.7998 9.05749 17.7998 9.49932C17.7998 9.94114 17.4416 10.2993 16.9998 10.2993C16.558 10.2993 16.1998 9.94114 16.1998 9.49932ZM16.9999 13.6993C16.5581 13.6993 16.1999 14.0575 16.1999 14.4993C16.1999 14.9411 16.5581 15.2993 16.9999 15.2993C17.4418 15.2993 17.7999 14.9411 17.7999 14.4993C17.7999 14.0575 17.4418 13.6993 16.9999 13.6993ZM16.1999 19.4993C16.1999 19.0575 16.5581 18.6993 16.9999 18.6993C17.4418 18.6993 17.7999 19.0575 17.7999 19.4993C17.7999 19.9411 17.4418 20.2993 16.9999 20.2993C16.5581 20.2993 16.1999 19.9411 16.1999 19.4993Z"/>
</mask>
<path fill-rule="evenodd" clip-rule="evenodd" d="M2.99956 1.70078C2.55773 1.70078 2.19956 2.05895 2.19956 2.50078C2.19956 2.94261 2.55773 3.30078 2.99956 3.30078C3.44139 3.30078 3.79956 2.94261 3.79956 2.50078C3.79956 2.05895 3.44139 1.70078 2.99956 1.70078ZM0.799561 2.50078C0.799561 1.28575 1.78453 0.300781 2.99956 0.300781C4.21459 0.300781 5.19956 1.28575 5.19956 2.50078C5.19956 3.47101 4.5715 4.29455 3.69976 4.58701V7.5C3.69976 8.21797 4.28179 8.8 4.99976 8.8H14.9133C15.2055 7.9278 16.0292 7.29932 16.9998 7.29932C18.2148 7.29932 19.1998 8.28429 19.1998 9.49932C19.1998 10.7143 18.2148 11.6993 16.9998 11.6993C16.0298 11.6993 15.2063 11.0715 14.9137 10.2H4.99976C4.52847 10.2 4.08539 10.0793 3.69976 9.86701V12.5C3.69976 13.218 4.28179 13.8 4.99976 13.8H14.9134C15.2056 12.9278 16.0294 12.2993 16.9999 12.2993C18.215 12.2993 19.1999 13.2843 19.1999 14.4993C19.1999 15.7143 18.215 16.6993 16.9999 16.6993C16.0299 16.6993 15.2065 16.0715 14.9139 15.2H4.99976C4.52847 15.2 4.08539 15.0793 3.69976 14.867V17.5C3.69976 18.218 4.28179 18.8 4.99976 18.8H14.9134C15.2056 17.9278 16.0294 17.2993 16.9999 17.2993C18.215 17.2993 19.1999 18.2843 19.1999 19.4993C19.1999 20.7143 18.215 21.6993 16.9999 21.6993C16.0299 21.6993 15.2065 21.0715 14.9139 20.2H4.99976C3.50859 20.2 2.29976 18.9912 2.29976 17.5V12.5V7.5V4.58714C1.42781 4.2948 0.799561 3.47116 0.799561 2.50078ZM16.1998 9.49932C16.1998 9.05749 16.558 8.69932 16.9998 8.69932C17.4416 8.69932 17.7998 9.05749 17.7998 9.49932C17.7998 9.94114 17.4416 10.2993 16.9998 10.2993C16.558 10.2993 16.1998 9.94114 16.1998 9.49932ZM16.9999 13.6993C16.5581 13.6993 16.1999 14.0575 16.1999 14.4993C16.1999 14.9411 16.5581 15.2993 16.9999 15.2993C17.4418 15.2993 17.7999 14.9411 17.7999 14.4993C17.7999 14.0575 17.4418 13.6993 16.9999 13.6993ZM16.1999 19.4993C16.1999 19.0575 16.5581 18.6993 16.9999 18.6993C17.4418 18.6993 17.7999 19.0575 17.7999 19.4993C17.7999 19.9411 17.4418 20.2993 16.9999 20.2993C16.5581 20.2993 16.1999 19.9411 16.1999 19.4993Z" fill="#60A9FE"/>
<path d="M3.69976 4.58701L3.38169 3.63894L2.69976 3.86772V4.58701H3.69976ZM14.9133 8.8V9.8H15.6329L15.8615 9.11766L14.9133 8.8ZM14.9137 10.2L15.8617 9.88171L15.6328 9.2H14.9137V10.2ZM3.69976 9.86701L4.18194 8.99093L2.69976 8.17516V9.86701H3.69976ZM14.9134 13.8V14.8H15.633L15.8616 14.1177L14.9134 13.8ZM14.9139 15.2L15.8619 14.8817L15.633 14.2H14.9139V15.2ZM3.69976 14.867L4.18194 13.9909L2.69976 13.1752V14.867H3.69976ZM14.9134 18.8V19.8H15.633L15.8616 19.1177L14.9134 18.8ZM14.9139 20.2L15.8619 19.8817L15.633 19.2H14.9139V20.2ZM2.29976 4.58714H3.29976V3.86771L2.61764 3.63901L2.29976 4.58714ZM3.19956 2.50078C3.19956 2.61124 3.11002 2.70078 2.99956 2.70078V0.700781C2.00545 0.700781 1.19956 1.50667 1.19956 2.50078H3.19956ZM2.99956 2.30078C3.11002 2.30078 3.19956 2.39032 3.19956 2.50078H1.19956C1.19956 3.49489 2.00545 4.30078 2.99956 4.30078V2.30078ZM2.79956 2.50078C2.79956 2.39032 2.8891 2.30078 2.99956 2.30078V4.30078C3.99367 4.30078 4.79956 3.49489 4.79956 2.50078H2.79956ZM2.99956 2.70078C2.8891 2.70078 2.79956 2.61124 2.79956 2.50078H4.79956C4.79956 1.50667 3.99367 0.700781 2.99956 0.700781V2.70078ZM2.99956 -0.699219C1.23225 -0.699219 -0.200439 0.73347 -0.200439 2.50078H1.79956C1.79956 1.83804 2.33682 1.30078 2.99956 1.30078V-0.699219ZM6.19956 2.50078C6.19956 0.73347 4.76687 -0.699219 2.99956 -0.699219V1.30078C3.6623 1.30078 4.19956 1.83804 4.19956 2.50078H6.19956ZM4.01782 5.53508C5.28466 5.11007 6.19956 3.91357 6.19956 2.50078H4.19956C4.19956 3.02846 3.85834 3.47903 3.38169 3.63894L4.01782 5.53508ZM4.69976 7.5V4.58701H2.69976V7.5H4.69976ZM4.99976 7.8C4.83407 7.8 4.69976 7.66569 4.69976 7.5H2.69976C2.69976 8.77025 3.7295 9.8 4.99976 9.8V7.8ZM14.9133 7.8H4.99976V9.8H14.9133V7.8ZM16.9998 6.29932C15.5865 6.29932 14.3897 7.21483 13.9651 8.48234L15.8615 9.11766C16.0212 8.64077 16.472 8.29932 16.9998 8.29932V6.29932ZM20.1998 9.49932C20.1998 7.732 18.7671 6.29932 16.9998 6.29932V8.29932C17.6625 8.29932 18.1998 8.83657 18.1998 9.49932H20.1998ZM16.9998 12.6993C18.7671 12.6993 20.1998 11.2666 20.1998 9.49932H18.1998C18.1998 10.1621 17.6625 10.6993 16.9998 10.6993V12.6993ZM13.9657 10.5183C14.391 11.7847 15.5873 12.6993 16.9998 12.6993V10.6993C16.4722 10.6993 16.0217 10.3582 15.8617 9.88171L13.9657 10.5183ZM4.99976 11.2H14.9137V9.2H4.99976V11.2ZM3.21758 10.7431C3.74717 11.0346 4.35564 11.2 4.99976 11.2V9.2C4.7013 9.2 4.4236 9.12394 4.18194 8.99093L3.21758 10.7431ZM4.69976 12.5V9.86701H2.69976V12.5H4.69976ZM4.99976 12.8C4.83407 12.8 4.69976 12.6657 4.69976 12.5H2.69976C2.69976 13.7703 3.7295 14.8 4.99976 14.8V12.8ZM14.9134 12.8H4.99976V14.8H14.9134V12.8ZM16.9999 11.2993C15.5867 11.2993 14.3898 12.2148 13.9652 13.4823L15.8616 14.1177C16.0214 13.6408 16.4721 13.2993 16.9999 13.2993V11.2993ZM20.1999 14.4993C20.1999 12.732 18.7672 11.2993 16.9999 11.2993V13.2993C17.6627 13.2993 18.1999 13.8366 18.1999 14.4993H20.1999ZM16.9999 17.6993C18.7672 17.6993 20.1999 16.2666 20.1999 14.4993H18.1999C18.1999 15.1621 17.6627 15.6993 16.9999 15.6993V17.6993ZM13.9659 15.5183C14.3911 16.7847 15.5874 17.6993 16.9999 17.6993V15.6993C16.4724 15.6993 16.0218 15.3582 15.8619 14.8817L13.9659 15.5183ZM4.99976 16.2H14.9139V14.2H4.99976V16.2ZM3.21758 15.7431C3.74717 16.0346 4.35564 16.2 4.99976 16.2V14.2C4.7013 14.2 4.4236 14.1239 4.18194 13.9909L3.21758 15.7431ZM4.69976 17.5V14.867H2.69976V17.5H4.69976ZM4.99976 17.8C4.83407 17.8 4.69976 17.6657 4.69976 17.5H2.69976C2.69976 18.7703 3.7295 19.8 4.99976 19.8V17.8ZM14.9134 17.8H4.99976V19.8H14.9134V17.8ZM15.8616 19.1177C16.0214 18.6408 16.4721 18.2993 16.9999 18.2993V16.2993C15.5867 16.2993 14.3898 17.2148 13.9652 18.4823L15.8616 19.1177ZM16.9999 18.2993C17.6627 18.2993 18.1999 18.8366 18.1999 19.4993H20.1999C20.1999 17.732 18.7672 16.2993 16.9999 16.2993V18.2993ZM18.1999 19.4993C18.1999 20.1621 17.6627 20.6993 16.9999 20.6993V22.6993C18.7672 22.6993 20.1999 21.2666 20.1999 19.4993H18.1999ZM16.9999 20.6993C16.4724 20.6993 16.0218 20.3582 15.8619 19.8817L13.9659 20.5183C14.3911 21.7848 15.5874 22.6993 16.9999 22.6993V20.6993ZM4.99976 21.2H14.9139V19.2H4.99976V21.2ZM1.29976 17.5C1.29976 19.5435 2.9563 21.2 4.99976 21.2V19.2C4.06087 19.2 3.29976 18.4389 3.29976 17.5H1.29976ZM1.29976 12.5V17.5H3.29976V12.5H1.29976ZM1.29976 7.5V12.5H3.29976V7.5H1.29976ZM1.29976 4.58714V7.5H3.29976V4.58714H1.29976ZM-0.200439 2.50078C-0.200439 3.91378 0.714738 5.11043 1.98187 5.53527L2.61764 3.63901C2.14089 3.47917 1.79956 3.02853 1.79956 2.50078H-0.200439ZM16.9998 7.69932C16.0057 7.69932 15.1998 8.5052 15.1998 9.49932H17.1998C17.1998 9.60977 17.1103 9.69932 16.9998 9.69932V7.69932ZM18.7998 9.49932C18.7998 8.50521 17.9939 7.69932 16.9998 7.69932V9.69932C16.8893 9.69932 16.7998 9.60977 16.7998 9.49932H18.7998ZM16.9998 11.2993C17.9939 11.2993 18.7998 10.4934 18.7998 9.49932H16.7998C16.7998 9.38886 16.8893 9.29932 16.9998 9.29932V11.2993ZM15.1998 9.49932C15.1998 10.4934 16.0057 11.2993 16.9998 11.2993V9.29932C17.1103 9.29932 17.1998 9.38886 17.1998 9.49932H15.1998ZM17.1999 14.4993C17.1999 14.6098 17.1104 14.6993 16.9999 14.6993V12.6993C16.0058 12.6993 15.1999 13.5052 15.1999 14.4993H17.1999ZM16.9999 14.2993C17.1104 14.2993 17.1999 14.3889 17.1999 14.4993H15.1999C15.1999 15.4934 16.0058 16.2993 16.9999 16.2993V14.2993ZM16.7999 14.4993C16.7999 14.3889 16.8895 14.2993 16.9999 14.2993V16.2993C17.994 16.2993 18.7999 15.4934 18.7999 14.4993H16.7999ZM16.9999 14.6993C16.8895 14.6993 16.7999 14.6098 16.7999 14.4993H18.7999C18.7999 13.5052 17.994 12.6993 16.9999 12.6993V14.6993ZM16.9999 17.6993C16.0058 17.6993 15.1999 18.5052 15.1999 19.4993H17.1999C17.1999 19.6098 17.1104 19.6993 16.9999 19.6993V17.6993ZM18.7999 19.4993C18.7999 18.5052 17.994 17.6993 16.9999 17.6993V19.6993C16.8895 19.6993 16.7999 19.6098 16.7999 19.4993H18.7999ZM16.9999 21.2993C17.994 21.2993 18.7999 20.4934 18.7999 19.4993H16.7999C16.7999 19.3889 16.8895 19.2993 16.9999 19.2993V21.2993ZM15.1999 19.4993C15.1999 20.4934 16.0058 21.2993 16.9999 21.2993V19.2993C17.1104 19.2993 17.1999 19.3889 17.1999 19.4993H15.1999Z" fill="#60A9FE" mask="url(#path-1-inside-1_15784_2353)"/>
</svg>
