<svg width="99" height="118" viewBox="0 0 99 118" fill="none" xmlns="http://www.w3.org/2000/svg">
<g clip-path="url(#clip0_13665_200680)">
<path fill-rule="evenodd" clip-rule="evenodd" d="M3.09072 49.9804L31.502 38.4693C33.265 37.7549 35.2746 38.6022 35.9902 40.3617L51.283 77.9547C51.9989 79.7142 51.1499 81.7194 49.3868 82.4339L20.9755 93.9449C19.2125 94.6591 17.203 93.8118 16.4871 92.0524L1.19433 54.4596C0.478664 52.7001 1.32769 50.6946 3.09072 49.9804Z" fill="url(#paint0_linear_13665_200680)" stroke="#57CCEF" stroke-width="2"/>
<path fill-rule="evenodd" clip-rule="evenodd" d="M22.0332 38.7798L25.642 37.3177C26.1711 37.1034 26.7739 37.3575 26.9886 37.8853L28.5439 41.7084C28.7586 42.2362 28.504 42.8378 27.9749 43.0521L9.61919 50.489C9.09032 50.7035 8.48756 50.4491 8.27284 49.9213L6.71754 46.0985C6.50282 45.5704 6.7575 44.9689 7.2866 44.7546L10.8149 43.3251C10.3773 42.4857 10.1299 41.5314 10.1299 40.5193C10.1299 37.1626 12.8511 34.4414 16.2079 34.4414C18.9601 34.4414 21.2851 36.2707 22.0332 38.7798Z" fill="url(#paint1_linear_13665_200680)"/>
<path d="M22.0332 38.7798L21.0749 39.0656L21.3892 40.1197L22.4087 39.7066L22.0332 38.7798ZM25.642 37.3177L25.2666 36.3908L25.2665 36.3908L25.642 37.3177ZM26.9886 37.8853L27.9149 37.5085L27.9149 37.5085L26.9886 37.8853ZM28.5439 41.7084L27.6176 42.0852L27.6176 42.0853L28.5439 41.7084ZM27.9749 43.0521L27.5995 42.1252L27.5993 42.1252L27.9749 43.0521ZM9.61919 50.489L9.24368 49.5622L9.24329 49.5623L9.61919 50.489ZM8.27284 49.9213L9.19911 49.5445L9.19911 49.5445L8.27284 49.9213ZM6.71754 46.0985L5.7912 46.4752L5.79127 46.4753L6.71754 46.0985ZM7.2866 44.7546L7.66199 45.6815L7.66212 45.6814L7.2866 44.7546ZM10.8149 43.3251L11.1904 44.2519L12.2103 43.8386L11.7016 42.8628L10.8149 43.3251ZM22.4087 39.7066L26.0175 38.2445L25.2665 36.3908L21.6577 37.853L22.4087 39.7066ZM26.0174 38.2445C26.0237 38.242 26.0278 38.2416 26.031 38.2416C26.0349 38.2417 26.0397 38.2425 26.0447 38.2447C26.0498 38.2468 26.0535 38.2495 26.0559 38.252C26.0579 38.2539 26.0601 38.2566 26.0623 38.2622L27.9149 37.5085C27.4917 36.4683 26.3056 35.97 25.2666 36.3908L26.0174 38.2445ZM26.0623 38.2622L27.6176 42.0852L29.4702 41.3316L27.9149 37.5085L26.0623 38.2622ZM27.6176 42.0853C27.6235 42.0996 27.6175 42.1179 27.5995 42.1252L28.3502 43.9789C29.3904 43.5576 29.8938 42.3729 29.4702 41.3316L27.6176 42.0853ZM27.5993 42.1252L9.24368 49.5622L9.99469 51.4158L28.3504 43.9789L27.5993 42.1252ZM9.24329 49.5623C9.23722 49.5648 9.23329 49.5652 9.23027 49.5651C9.22653 49.5651 9.22184 49.5642 9.21683 49.5621C9.21182 49.56 9.20807 49.5573 9.2056 49.5548C9.20364 49.5529 9.2014 49.5501 9.19911 49.5445L7.34656 50.2981C7.76953 51.3378 8.95549 51.8373 9.99508 51.4156L9.24329 49.5623ZM9.19911 49.5445L7.64382 45.7216L5.79127 46.4753L7.34656 50.2982L9.19911 49.5445ZM7.64388 45.7218C7.63787 45.707 7.64414 45.6887 7.66199 45.6815L6.91122 43.8277C5.87086 44.2491 5.36776 45.4339 5.7912 46.4752L7.64388 45.7218ZM7.66212 45.6814L11.1904 44.2519L10.4394 42.3982L6.91109 43.8278L7.66212 45.6814ZM11.7016 42.8628C11.3367 42.1628 11.1299 41.3667 11.1299 40.5193H9.12993C9.12993 41.6962 9.41793 42.8086 9.92814 43.7873L11.7016 42.8628ZM11.1299 40.5193C11.1299 37.7149 13.4034 35.4414 16.2079 35.4414V33.4414C12.2988 33.4414 9.12993 36.6103 9.12993 40.5193H11.1299ZM16.2079 35.4414C18.5058 35.4414 20.4496 36.9686 21.0749 39.0656L22.9915 38.4941C22.1205 35.5729 19.4144 33.4414 16.2079 33.4414V35.4414Z" fill="#57CCEF"/>
<path fill-rule="evenodd" clip-rule="evenodd" d="M18.2908 57.1817L35.0502 50.3915C35.5793 50.1772 36.1821 50.4313 36.3968 50.9591C36.6115 51.4872 36.3568 52.0887 35.828 52.303L19.0683 59.0932C18.5394 59.3075 17.9367 59.0533 17.7219 58.5255C17.5072 57.9975 17.7619 57.396 18.2908 57.1817Z" fill="#57CCEF"/>
<path fill-rule="evenodd" clip-rule="evenodd" d="M11.1833 58.8774C12.047 58.5266 13.0315 58.9427 13.3822 59.8064C13.7327 60.6701 13.3168 61.6546 12.4532 62.0051C11.5895 62.3558 10.605 61.9398 10.2543 61.0761C9.9036 60.2123 10.3196 59.2281 11.1833 58.8774Z" fill="#57CCEF"/>
<path fill-rule="evenodd" clip-rule="evenodd" d="M15.9106 69.683C16.7743 69.3323 17.7588 69.7484 18.1095 70.6121C18.4599 71.4758 18.0441 72.4603 17.1805 72.8108C16.3168 73.1615 15.3323 72.7455 14.9816 71.8817C14.6309 71.018 15.0469 70.0338 15.9106 69.683Z" fill="#57CCEF"/>
<path fill-rule="evenodd" clip-rule="evenodd" d="M19.9626 79.8129C20.8263 79.4622 21.8108 79.8782 22.1615 80.742C22.5119 81.6057 22.0961 82.5902 21.2325 82.9407C20.3688 83.2914 19.3843 82.8753 19.0336 82.0116C18.6829 81.1479 19.0989 80.1636 19.9626 79.8129Z" fill="#57CCEF"/>
<path fill-rule="evenodd" clip-rule="evenodd" d="M22.5029 67.5348L34.4739 62.6844C35.0028 62.4701 35.6056 62.7243 35.8203 63.2523C36.035 63.7801 35.7803 64.3817 35.2515 64.596L23.2804 69.4461C22.7516 69.6603 22.1486 69.4062 21.9338 68.8784C21.7191 68.3506 21.9738 67.749 22.5029 67.5348Z" fill="#57CCEF"/>
<path fill-rule="evenodd" clip-rule="evenodd" d="M26.5203 77.4113L35.2991 73.8543C35.828 73.6401 36.431 73.8942 36.6457 74.4223C36.8604 74.9501 36.6057 75.5516 36.0766 75.7659L27.298 79.3228C26.7689 79.5371 26.1662 79.2829 25.9514 78.7549C25.7367 78.2271 25.9914 77.6255 26.5203 77.4113Z" fill="#57CCEF"/>
<circle cx="17" cy="42.3291" r="2" fill="white"/>
</g>
<g filter="url(#filter0_d_13665_200680)">
<path fill-rule="evenodd" clip-rule="evenodd" d="M39.1743 25.0387L84.4969 30.5614C87.3092 30.9039 89.3077 33.4334 88.9609 36.2107L81.5463 95.5529C81.1994 98.3305 78.638 100.304 75.8257 99.9613L30.5031 94.4387C27.6908 94.0961 25.6923 91.5666 26.0391 88.7893L33.4537 29.4471C33.8006 26.6695 36.362 24.6959 39.1743 25.0387Z" fill="url(#paint2_linear_13665_200680)"/>
</g>
<path fill-rule="evenodd" clip-rule="evenodd" d="M82.2066 17.8965C86.1483 17.8965 88.7089 17.8965 88.7089 17.8965C91.706 17.8965 94.1356 20.3044 94.1356 23.2749V86.7408C94.1356 89.7113 91.706 92.1192 88.7089 92.1192H40.4111C37.4139 92.1192 34.9844 89.7113 34.9844 86.7408V23.2749C34.9844 20.3044 37.4139 17.8965 40.4111 17.8965C40.4111 17.8965 43.5084 17.8965 48.1341 17.8965" fill="url(#paint3_linear_13665_200680)"/>
<path d="M82.2066 17.8965C86.1483 17.8965 88.7089 17.8965 88.7089 17.8965C91.706 17.8965 94.1356 20.3044 94.1356 23.2749V86.7408C94.1356 89.7113 91.706 92.1192 88.7089 92.1192H40.4111C37.4139 92.1192 34.9844 89.7113 34.9844 86.7408V23.2749C34.9844 20.3044 37.4139 17.8965 40.4111 17.8965C40.4111 17.8965 43.5084 17.8965 48.1341 17.8965" stroke="#57CCEF" stroke-width="2"/>
<path fill-rule="evenodd" clip-rule="evenodd" d="M75.5567 12.7867C75.5695 12.5782 75.576 12.368 75.576 12.1562C75.576 6.56167 71.0407 2.02637 65.4461 2.02637C59.8515 2.02637 55.3162 6.56167 55.3162 12.1562C55.3162 12.368 55.3227 12.5782 55.3355 12.7867H49.576C48.6768 12.7867 47.948 13.509 47.948 14.4003V20.8544C47.948 21.7456 48.6768 22.4679 49.576 22.4679H80.7796C81.6788 22.4679 82.4076 21.7456 82.4076 20.8544V14.4003C82.4076 13.509 81.6788 12.7867 80.7796 12.7867H75.5567Z" fill="url(#paint4_linear_13665_200680)"/>
<path d="M75.5567 12.7867L74.5585 12.7254L74.4934 13.7867H75.5567V12.7867ZM55.3355 12.7867V13.7867H56.3988L56.3336 12.7254L55.3355 12.7867ZM74.576 12.1562C74.576 12.3475 74.5701 12.5373 74.5585 12.7254L76.5548 12.848C76.5688 12.6191 76.576 12.3884 76.576 12.1562H74.576ZM65.4461 3.02637C70.4884 3.02637 74.576 7.11395 74.576 12.1562H76.576C76.576 6.00938 71.593 1.02637 65.4461 1.02637V3.02637ZM56.3162 12.1562C56.3162 7.11395 60.4038 3.02637 65.4461 3.02637V1.02637C59.2992 1.02637 54.3162 6.00938 54.3162 12.1562H56.3162ZM56.3336 12.7254C56.3221 12.5373 56.3162 12.3475 56.3162 12.1562H54.3162C54.3162 12.3884 54.3233 12.6191 54.3374 12.848L56.3336 12.7254ZM49.576 13.7867H55.3355V11.7867H49.576V13.7867ZM48.948 14.4003C48.948 14.0697 49.2207 13.7867 49.576 13.7867V11.7867C48.133 11.7867 46.948 12.9484 46.948 14.4003H48.948ZM48.948 20.8544V14.4003H46.948V20.8544H48.948ZM49.576 21.4679C49.2207 21.4679 48.948 21.1849 48.948 20.8544H46.948C46.948 22.3063 48.133 23.4679 49.576 23.4679V21.4679ZM80.7796 21.4679H49.576V23.4679H80.7796V21.4679ZM81.4076 20.8544C81.4076 21.1849 81.135 21.4679 80.7796 21.4679V23.4679C82.2227 23.4679 83.4076 22.3063 83.4076 20.8544H81.4076ZM81.4076 14.4003V20.8544H83.4076V14.4003H81.4076ZM80.7796 13.7867C81.135 13.7867 81.4076 14.0697 81.4076 14.4003H83.4076C83.4076 12.9484 82.2227 11.7867 80.7796 11.7867V13.7867ZM75.5567 13.7867H80.7796V11.7867H75.5567V13.7867Z" fill="#57CCEF"/>
<path fill-rule="evenodd" clip-rule="evenodd" d="M57.0047 37.1426H85.495C86.3942 37.1426 87.123 37.7472 87.123 38.4932C87.123 39.2392 86.3942 39.8439 85.495 39.8439H57.0047C56.1055 39.8439 55.3767 39.2392 55.3767 38.4932C55.3767 37.7472 56.1055 37.1426 57.0047 37.1426Z" fill="#57CCEF"/>
<path fill-rule="evenodd" clip-rule="evenodd" d="M57.0047 54.7012H75.3651C76.2643 54.7012 76.9931 55.3058 76.9931 56.0518C76.9931 56.7978 76.2643 57.4025 75.3651 57.4025H57.0047C56.1055 57.4025 55.3767 56.7978 55.3767 56.0518C55.3767 55.3058 56.1055 54.7012 57.0047 54.7012Z" fill="#57CCEF"/>
<path fill-rule="evenodd" clip-rule="evenodd" d="M57.0047 72.2598H67.2612C68.1604 72.2598 68.8892 72.8644 68.8892 73.6104C68.8892 74.3564 68.1604 74.9611 67.2612 74.9611H57.0047C56.1055 74.9611 55.3767 74.3564 55.3767 73.6104C55.3767 72.8644 56.1055 72.2598 57.0047 72.2598Z" fill="#57CCEF"/>
<path fill-rule="evenodd" clip-rule="evenodd" d="M47.2728 35.792C48.7648 35.792 49.9741 37.0014 49.9741 38.4933C49.9741 39.9852 48.7648 41.1946 47.2728 41.1946C45.7809 41.1946 44.5715 39.9852 44.5715 38.4933C44.5715 37.0014 45.7809 35.792 47.2728 35.792Z" fill="#57CCEF"/>
<path fill-rule="evenodd" clip-rule="evenodd" d="M47.2728 53.3506C48.7648 53.3506 49.9741 54.56 49.9741 56.0519C49.9741 57.5438 48.7648 58.7532 47.2728 58.7532C45.7809 58.7532 44.5715 57.5438 44.5715 56.0519C44.5715 54.56 45.7809 53.3506 47.2728 53.3506Z" fill="#57CCEF"/>
<path fill-rule="evenodd" clip-rule="evenodd" d="M47.2728 70.9092C48.7648 70.9092 49.9741 72.1186 49.9741 73.6105C49.9741 75.1024 48.7648 76.3118 47.2728 76.3118C45.7809 76.3118 44.5715 75.1024 44.5715 73.6105C44.5715 72.1186 45.7809 70.9092 47.2728 70.9092Z" fill="#57CCEF"/>
<circle cx="65" cy="16" r="3" fill="white"/>
<defs>
<filter id="filter0_d_13665_200680" x="20" y="25" width="75" height="93" filterUnits="userSpaceOnUse" color-interpolation-filters="sRGB">
<feFlood flood-opacity="0" result="BackgroundImageFix"/>
<feColorMatrix in="SourceAlpha" type="matrix" values="0 0 0 0 0 0 0 0 0 0 0 0 0 0 0 0 0 0 127 0" result="hardAlpha"/>
<feOffset dy="12"/>
<feGaussianBlur stdDeviation="3"/>
<feComposite in2="hardAlpha" operator="out"/>
<feColorMatrix type="matrix" values="0 0 0 0 0.603922 0 0 0 0 0.886275 0 0 0 0 0.972549 0 0 0 0.2 0"/>
<feBlend mode="normal" in2="BackgroundImageFix" result="effect1_dropShadow_13665_200680"/>
<feBlend mode="normal" in="SourceGraphic" in2="effect1_dropShadow_13665_200680" result="shape"/>
</filter>
<linearGradient id="paint0_linear_13665_200680" x1="26.2387" y1="38.2158" x2="26.2387" y2="94.1983" gradientUnits="userSpaceOnUse">
<stop stop-color="#EBFAFE"/>
<stop offset="1" stop-color="#F1FDF9"/>
</linearGradient>
<linearGradient id="paint1_linear_13665_200680" x1="6.64136" y1="34.4414" x2="22.0212" y2="55.4061" gradientUnits="userSpaceOnUse">
<stop stop-color="#8CDFF8"/>
<stop offset="1" stop-color="#D7FAEF"/>
</linearGradient>
<linearGradient id="paint2_linear_13665_200680" x1="26" y1="25" x2="99.8743" y2="87.0544" gradientUnits="userSpaceOnUse">
<stop stop-color="#8CDFF8"/>
<stop offset="1" stop-color="#D7FAEF"/>
</linearGradient>
<linearGradient id="paint3_linear_13665_200680" x1="64.56" y1="17.8965" x2="64.56" y2="92.1192" gradientUnits="userSpaceOnUse">
<stop stop-color="#EBFAFE"/>
<stop offset="1" stop-color="#F1FDF9"/>
</linearGradient>
<linearGradient id="paint4_linear_13665_200680" x1="47.948" y1="12.7867" x2="52.9898" y2="30.7327" gradientUnits="userSpaceOnUse">
<stop stop-color="#8CDFF8"/>
<stop offset="1" stop-color="#D7FAEF"/>
</linearGradient>
<clipPath id="clip0_13665_200680">
<rect width="53.3507" height="72.2597" fill="white" transform="translate(0 31.7402)"/>
</clipPath>
</defs>
</svg>
