<svg width="15" height="16" viewBox="0 0 15 16" fill="none" xmlns="http://www.w3.org/2000/svg">
<g clip-path="url(#clip0_7793_203151)">
<path d="M1.06756 13.6379H13.941C14.5306 13.6379 15.0085 13.9693 15.0085 14.378C15.0085 14.7868 14.5306 15.1182 13.941 15.1182H1.06756C0.477994 15.1182 0 14.7868 0 14.378C0 13.9693 0.477994 13.6379 1.06756 13.6379ZM7.54092 0.882812C7.94966 0.882812 8.28108 1.38939 8.28108 2.01413V10.8027C8.28108 11.4275 7.94966 11.934 7.54092 11.934C7.13217 11.934 6.80075 11.4275 6.80075 10.8027V2.01413C6.80075 1.38939 7.13217 0.882812 7.54092 0.882812Z" fill="#57CCEF"/>
<path d="M8.06299 11.259L11.877 7.32251C11.9489 7.24476 12.0372 7.18401 12.1354 7.14469C12.2337 7.10536 12.3395 7.08845 12.4452 7.09519C12.5508 7.10193 12.6536 7.13215 12.7461 7.18365C12.8386 7.23514 12.9184 7.30661 12.9798 7.39286C13.0826 7.53569 13.132 7.71014 13.1192 7.88568C13.1064 8.06121 13.0323 8.22666 12.9098 8.35307L8.05071 13.3206C7.98447 13.389 7.90517 13.4433 7.81752 13.4804C7.72987 13.5176 7.63566 13.5367 7.54047 13.5367C7.44529 13.5367 7.35107 13.5176 7.26342 13.4804C7.17577 13.4433 7.09647 13.389 7.03023 13.3206L2.17132 8.35307C2.04886 8.22666 1.97474 8.06121 1.96195 7.88568C1.94915 7.71014 1.99849 7.53569 2.10134 7.39286C2.16271 7.30661 2.24254 7.23514 2.33503 7.18365C2.42752 7.13215 2.53032 7.10193 2.63596 7.09519C2.7416 7.08845 2.84742 7.10536 2.94569 7.14469C3.04397 7.18401 3.13225 7.24476 3.20408 7.32251L7.01796 11.259C7.08452 11.3311 7.16532 11.3887 7.25525 11.4281C7.34518 11.4675 7.44229 11.4878 7.54047 11.4878C7.63865 11.4878 7.73577 11.4675 7.8257 11.4281C7.91562 11.3887 7.99642 11.3311 8.06299 11.259Z" fill="#57CCEF"/>
</g>
<defs>
<clipPath id="clip0_7793_203151">
<rect width="15" height="15" fill="white" transform="translate(0 0.5)"/>
</clipPath>
</defs>
</svg>
