<svg width="16" height="12" viewBox="0 0 16 12" fill="none" xmlns="http://www.w3.org/2000/svg">
  <path d="M16 9.32846L12.3768 6.91239V8.42132H9.7875L8.20179 6.48203L7.03214 7.91239L8.65714 9.89989C8.82857 10.1106 9.08571 10.232 9.35714 10.232H12.375V11.7427L16 9.32846ZM3.925 1.78024H0.905357C0.405357 1.78024 0 2.1856 0 2.6856C0 3.1856 0.405357 3.59096 0.905357 3.59096H3.49464L5.08036 5.52846L6.25 4.0981L4.625 2.1106C4.45357 1.90346 4.19643 1.78024 3.925 1.78024Z" fill="#CCCCCC"/>
  <path d="M16 2.68476L12.3768 0.270477V1.77941H9.35893C9.08571 1.77941 8.83036 1.90083 8.65893 2.11155L3.49464 8.42048H0.905357C0.405357 8.42048 0 8.82584 0 9.32584C0 9.82584 0.405357 10.2312 0.905357 10.2312H3.925C4.19643 10.2312 4.45357 10.1098 4.62679 9.89905L9.7875 3.59012H12.3768V5.10084L16 2.68476Z" fill="#CCCCCC"/>
  </svg>
  