<svg width="20" height="19" viewBox="0 0 20 19" fill="none" xmlns="http://www.w3.org/2000/svg">
<path fill-rule="evenodd" clip-rule="evenodd" d="M6.73804 5.50994C6.73804 4.55413 7.51288 3.7793 8.46868 3.7793C9.42449 3.7793 10.1993 4.55413 10.1993 5.50994C10.1993 6.23572 9.75257 6.85715 9.11906 7.11423V9.19038H11.3315C12.795 9.19038 13.9815 10.3768 13.9815 11.8404V12.4704C15.2119 12.6995 16.1434 13.7788 16.1434 15.0756V15.2797C16.6237 15.5189 16.9537 16.0148 16.9537 16.5878C16.9537 17.3944 16.2998 18.0483 15.4932 18.0483C14.6866 18.0483 14.0327 17.3944 14.0327 16.5878C14.0327 16.0146 14.3629 15.5186 14.8434 15.2795V15.0756C14.8434 14.33 14.239 13.7256 13.4934 13.7256H13.1708C12.4252 13.7256 11.8208 14.33 11.8208 15.0756V15.2799C12.3009 15.5192 12.6306 16.015 12.6306 16.5878C12.6306 17.3944 11.9768 18.0483 11.1702 18.0483C10.3635 18.0483 9.70967 17.3944 9.70967 16.5878C9.70967 16.0145 10.04 15.5183 10.5208 15.2793V15.0756C10.5208 13.7792 11.4517 12.7003 12.6815 12.4707V11.8404C12.6815 11.0948 12.077 10.4904 11.3315 10.4904H5.60564C4.86006 10.4904 4.25564 11.0948 4.25564 11.8404V12.4705C5.48593 12.6997 6.41731 13.7789 6.41731 15.0756V15.2798C6.89751 15.519 7.22741 16.0149 7.22741 16.5878C7.22741 17.3944 6.57353 18.0483 5.76693 18.0483C4.96033 18.0483 4.30645 17.3944 4.30645 16.5878C4.30645 16.0146 4.63669 15.5185 5.11731 15.2794V15.0756C5.11731 14.33 4.51289 13.7256 3.76731 13.7256H3.44472C2.69914 13.7256 2.09472 14.33 2.09472 15.0756V15.2796C2.57507 15.5188 2.9051 16.0148 2.9051 16.5878C2.9051 17.3944 2.25122 18.0483 1.44462 18.0483C0.638012 18.0483 -0.0158691 17.3944 -0.0158691 16.5878C-0.0158691 16.0147 0.314255 15.5187 0.794721 15.2795V15.0756C0.794721 13.7791 1.72572 12.7001 2.95564 12.4706V11.8404C2.95564 10.3768 4.14209 9.19038 5.60564 9.19038H7.81906V7.11453C7.18515 6.85764 6.73804 6.23601 6.73804 5.50994ZM8.46868 5.0793C8.23084 5.0793 8.03804 5.2721 8.03804 5.50994C8.03804 5.74778 8.23084 5.94059 8.46868 5.94059C8.70652 5.94059 8.89933 5.74778 8.89933 5.50994C8.89933 5.2721 8.70652 5.0793 8.46868 5.0793ZM1.28413 16.5878C1.28413 16.4992 1.35598 16.4273 1.44462 16.4273C1.53325 16.4273 1.6051 16.4992 1.6051 16.5878C1.6051 16.6764 1.53325 16.7483 1.44462 16.7483C1.35598 16.7483 1.28413 16.6764 1.28413 16.5878ZM5.76693 16.4273C5.6783 16.4273 5.60645 16.4992 5.60645 16.5878C5.60645 16.6764 5.6783 16.7483 5.76693 16.7483C5.85556 16.7483 5.92741 16.6764 5.92741 16.5878C5.92741 16.4992 5.85556 16.4273 5.76693 16.4273ZM11.0097 16.5878C11.0097 16.4992 11.0815 16.4273 11.1702 16.4273C11.2588 16.4273 11.3306 16.4992 11.3306 16.5878C11.3306 16.6764 11.2588 16.7483 11.1702 16.7483C11.0815 16.7483 11.0097 16.6764 11.0097 16.5878ZM15.4932 16.4273C15.4045 16.4273 15.3327 16.4992 15.3327 16.5878C15.3327 16.6764 15.4045 16.7483 15.4932 16.7483C15.5818 16.7483 15.6537 16.6764 15.6537 16.5878C15.6537 16.4992 15.5818 16.4273 15.4932 16.4273Z" fill="#60A9FE"/>
<path d="M15.0174 9.50539C15.1849 9.6763 15.391 9.75519 15.61 9.75519C15.8291 9.75519 16.0352 9.6763 16.2027 9.50539L19.7583 5.87678C20.0804 5.5481 20.0804 4.99592 19.7583 4.66724C19.4363 4.33856 18.8952 4.33856 18.5731 4.66724L16.4346 6.84967V0.854565C16.4346 0.381267 16.0609 0 15.5972 0C15.1334 0 14.7598 0.381267 14.7598 0.854565V6.82337L12.647 4.68039C12.3249 4.35171 11.7838 4.35171 11.4618 4.68039C11.1397 5.00907 11.1397 5.56124 11.4618 5.88992L15.0174 9.50539Z" fill="#60A9FE"/>
</svg>
