<svg width="11" height="14" viewBox="0 0 11 14" fill="none" xmlns="http://www.w3.org/2000/svg">
<path d="M10.9683 10.2514C10.9683 9.39911 9.96328 8.34952 9.16406 8.23107L10.2482 6.44755H7.73958C8.19066 5.80046 8.4914 4.94807 8.4914 4.00107V3.7801C9.4648 3.60648 10.0978 3.33027 10.0978 3.05406C10.0978 2.75423 9.39356 2.47795 8.31729 2.30432C8.26982 2.05175 7.54177 0.00783057 6.68716 0.00783057C6.30732 0.00783057 6.0065 0.20509 5.8087 0.505001C5.8087 0.654992 5.65836 0.80484 5.46048 0.80484C5.28638 0.80484 5.13604 0.678554 5.11234 0.528635C4.93809 0.228866 4.61365 0 4.23381 0C3.4029 0 2.62738 1.8782 2.45327 2.35173C1.52741 2.52536 0.925928 2.77786 0.925928 3.07777C0.925928 3.37761 1.55111 3.63011 2.53244 3.80381V4.02477C2.53244 4.97177 2.80941 5.82409 3.28426 6.47125H0.775593L1.85186 8.22324C1.05256 8.22324 0 9.32023 0 10.2751L0.0237711 13.1477C0.0237711 13.6212 0.395684 14 0.878458 14H10.1453C10.2577 14.0005 10.369 13.9787 10.4729 13.9361C10.5768 13.8934 10.6713 13.8306 10.7507 13.7514C10.8302 13.6722 10.8931 13.578 10.9359 13.4744C10.9787 13.3708 11.0005 13.2597 11 13.1477L10.9683 10.2514ZM4.83523 13.2976H4.43162L3.6798 7.77334L5.25468 9.14646L4.83523 13.2976ZM6.56045 13.2976H6.15684L5.72946 9.14646L7.3122 7.74963L6.56045 13.2976ZM7.51008 4.57718V4.75081H7.31227C7.31227 4.75081 7.18563 5.82409 6.51298 5.82409C5.8324 5.82409 5.70583 4.75081 5.70583 4.75081H5.25483C5.15196 5.62676 4.70088 5.82409 4.45553 5.82409C3.85412 5.82409 3.67994 5.02701 3.65624 4.75081H3.45051V4.40363H4.95408V4.57725H5.95918V4.40363H7.46275V4.57725H7.51008V4.57718Z" fill="url(#paint0_linear_9602_192795)"/>
<defs>
<linearGradient id="paint0_linear_9602_192795" x1="0" y1="0" x2="12.7247" y2="15.6612" gradientUnits="userSpaceOnUse">
<stop stop-color="#57CCEF"/>
<stop offset="1" stop-color="#86E5C9"/>
</linearGradient>
</defs>
</svg>
