<svg width="16" height="16" viewBox="0 0 16 16" fill="none" xmlns="http://www.w3.org/2000/svg">
<path d="M6.30461 13.7661C5.62595 13.4306 4.89634 13.2195 4.15732 13.1302C4.18281 12.9462 4.20695 12.7649 4.23109 12.5849C4.39606 12.4753 4.51409 12.3143 4.52481 12.1804C4.54494 12.0126 4.5637 11.8448 4.58248 11.6743C4.60528 11.7001 4.6348 11.7176 4.66965 11.7217C4.74878 11.7298 4.81853 11.6716 4.82792 11.5905L4.90572 10.8111C4.91376 10.7313 4.85609 10.6582 4.7783 10.6501C4.7488 10.646 4.71928 10.6542 4.69514 10.6663C4.71258 10.5189 4.72867 10.3714 4.74611 10.2239C4.75951 10.0196 4.85475 9.47971 4.47653 9.12929C3.93065 8.57455 2.7249 8.57455 2.17769 9.12929C1.79947 9.47973 1.89604 10.0196 1.90946 10.2239C1.9269 10.3727 1.94299 10.5202 1.96043 10.6663C1.93629 10.6542 1.90679 10.646 1.87861 10.6501C1.80082 10.6582 1.74315 10.7313 1.75119 10.8111L1.82899 11.5905C1.83704 11.6703 1.90679 11.7298 1.98591 11.7217C2.02079 11.719 2.05163 11.7001 2.07443 11.6743C2.09187 11.8448 2.11197 12.0126 2.13076 12.1804C2.14283 12.3143 2.25951 12.474 2.42582 12.5849C2.44996 12.7649 2.4741 12.9462 2.49824 13.1289C1.7579 13.2195 1.03096 13.4292 0.350954 13.7648C0.132344 13.8838 -0.0205474 14.191 0.00224955 14.4291C0.027734 14.7024 0.0545622 14.9757 0.0827186 15.2504C0.105516 15.4872 0.304016 15.724 0.523986 15.7686C2.38424 16.0771 4.27401 16.0771 6.13563 15.7686C6.35558 15.7226 6.55141 15.4872 6.5769 15.2504C6.60238 14.9757 6.62921 14.7038 6.65469 14.4291C6.67747 14.191 6.52324 13.8838 6.30461 13.7661ZM15.6475 13.7661C14.9688 13.4306 14.2406 13.2195 13.5016 13.1302C13.5257 12.9475 13.5498 12.7662 13.5767 12.5849C13.7403 12.4753 13.8583 12.3143 13.8704 12.1804C13.8892 12.0126 13.9093 11.8448 13.9267 11.6743C13.9509 11.7001 13.979 11.7176 14.0152 11.7217C14.0944 11.7298 14.1628 11.6716 14.1708 11.5905L14.2499 10.8111C14.258 10.7313 14.2017 10.6582 14.1225 10.6501C14.0943 10.646 14.0648 10.6542 14.0394 10.6663C14.0568 10.5189 14.0742 10.3714 14.0903 10.2239C14.1024 10.0196 14.2017 9.47971 13.8234 9.12929C13.2749 8.57455 12.0691 8.57455 11.5232 9.12929C11.145 9.47973 11.2416 10.0196 11.255 10.2239C11.2711 10.3714 11.2858 10.5188 11.3046 10.6663C11.2805 10.6542 11.251 10.646 11.2201 10.6501C11.1423 10.6582 11.086 10.7313 11.0941 10.8111L11.1732 11.5905C11.1799 11.6703 11.251 11.7298 11.3288 11.7217C11.365 11.719 11.3958 11.7001 11.4173 11.6743C11.4361 11.8448 11.4548 12.0126 11.4736 12.1804C11.487 12.3143 11.6037 12.474 11.7687 12.5849C11.7928 12.7649 11.8169 12.9462 11.8424 13.1289C11.1021 13.2195 10.3738 13.4292 9.69514 13.7648C9.47651 13.8839 9.32228 14.191 9.34508 14.4291C9.3719 14.7024 9.39873 14.9757 9.42554 15.2504C9.44969 15.4872 9.64684 15.724 9.86547 15.7686C11.7271 16.0771 13.6168 16.0771 15.4771 15.7686C15.6971 15.7226 15.8942 15.4872 15.9184 15.2504C15.9452 14.9757 15.972 14.7038 15.9975 14.4291C16.0217 14.191 15.8675 13.8838 15.6475 13.7661ZM10.9761 5.05258C10.2961 4.71838 9.56914 4.50866 8.82878 4.41665C8.85426 4.2367 8.8784 4.05269 8.90254 3.87139C9.06886 3.76314 9.18554 3.60348 9.19626 3.46953C9.21639 3.29904 9.23515 3.13128 9.25528 2.9635C9.27808 2.98785 9.30892 3.00409 9.34379 3.00949C9.42159 3.01626 9.49133 2.95808 9.49803 2.87825L9.57715 2.09891C9.58654 2.01909 9.52753 1.94737 9.44973 1.93789C9.42156 1.93518 9.39206 1.94196 9.36658 1.95549C9.38536 1.80665 9.40279 1.65918 9.41755 1.51033C9.43095 1.30737 9.52887 0.766153 9.14929 0.417071C8.60342 -0.139024 7.39766 -0.139024 6.8518 0.417071C6.47358 0.766153 6.57014 1.30737 6.58357 1.51033C6.59966 1.65916 6.61844 1.80664 6.63454 1.95549C6.60905 1.94196 6.58089 1.93518 6.55138 1.93789C6.47225 1.94737 6.41458 2.01907 6.42263 2.09891L6.50043 2.87825C6.50982 2.95808 6.57955 3.01626 6.656 3.00949C6.69088 3.00543 6.72307 2.98785 6.74586 2.9635C6.7633 3.13128 6.78341 3.29906 6.80219 3.46953C6.81427 3.60348 6.93229 3.76314 7.09726 3.87139C7.1214 4.05269 7.14554 4.23399 7.16968 4.41665C6.42933 4.50866 5.70239 4.71974 5.02373 5.05392C4.80378 5.17164 4.64953 5.48013 4.67367 5.71826C4.69915 5.99157 4.72598 6.26624 4.75414 6.53955C4.77694 6.77768 4.97544 7.01311 5.19406 7.05641C7.05566 7.36626 8.94543 7.36626 10.8057 7.05641C11.0257 7.01311 11.2215 6.77768 11.247 6.53955C11.2738 6.26624 11.3006 5.99157 11.3248 5.71826C11.3476 5.48015 11.1947 5.17166 10.9761 5.05258ZM10.2263 11.7149L8.40495 10.6284V8.45682C8.40495 8.22546 8.22388 8.03873 7.99856 8.03873C7.77457 8.03873 7.59351 8.22546 7.59351 8.45682V10.6271L5.77349 11.7149C5.57902 11.8313 5.51195 12.0884 5.62595 12.2886C5.70106 12.4239 5.83652 12.4997 5.97869 12.4997C6.0471 12.4997 6.11817 12.4807 6.17988 12.4429L7.9999 11.3577L9.82127 12.4429C9.8843 12.4807 9.95539 12.4997 10.0238 12.4997C10.1646 12.4997 10.3014 12.4239 10.3752 12.2886C10.4865 12.0884 10.4208 11.8313 10.2263 11.7149Z" fill="url(#paint0_linear_9602_192795)"/>
<defs>
<linearGradient id="paint0_linear_9602_192795" x1="0" y1="0" x2="12.7247" y2="15.6612" gradientUnits="userSpaceOnUse">
<stop stop-color="#57CCEF"/>
<stop offset="1" stop-color="#86E5C9"/>
</linearGradient>
</defs>
</svg>
