<svg width="20" height="20" viewBox="0 0 20 20" fill="none" xmlns="http://www.w3.org/2000/svg">
<path d="M11.7891 17.291H3.24219C2.94922 17.291 2.70898 17.0527 2.70898 16.7578V7.82422C2.70898 7.42383 2.38281 7.0957 1.98047 7.0957C1.58008 7.0957 1.25195 7.42188 1.25195 7.82422V16.7578C1.25195 17.8535 2.14258 18.7461 3.24023 18.7461H11.7871C12.1875 18.7461 12.5156 18.4199 12.5156 18.0176C12.5156 17.6152 12.1895 17.291 11.7891 17.291Z" fill="#60A9FE"/>
<path d="M18.0293 4.11133C18.4297 4.11133 18.7578 3.78516 18.7578 3.38281V3.25391C18.7578 3.11914 18.7422 2.98047 18.7129 2.8418C18.707 2.81641 18.6992 2.79492 18.6934 2.77539L18.6816 2.74023C18.6582 2.65234 18.6289 2.55273 18.5879 2.45703C18.5742 2.42383 18.5566 2.39453 18.541 2.36719C18.5332 2.35352 18.5254 2.33984 18.5176 2.32422L18.5117 2.31445C18.4746 2.24609 18.4375 2.17578 18.3906 2.10937C18.3652 2.07227 18.3359 2.04102 18.3105 2.00977C18.3008 1.99805 18.291 1.98828 18.2812 1.97656C18.2285 1.91406 18.1816 1.85937 18.127 1.80859C18.125 1.80664 18.1211 1.80078 18.1172 1.79687C18.1094 1.78711 18.0996 1.77539 18.0859 1.76367C18.0586 1.74023 18.0312 1.7207 18.0059 1.70312L17.9648 1.67383C17.957 1.66797 17.9473 1.66016 17.9395 1.6543C17.9102 1.63086 17.8789 1.60742 17.8437 1.58398C17.7793 1.54297 17.7129 1.50977 17.6465 1.47656L17.6113 1.45898C17.5801 1.44336 17.5488 1.42578 17.5137 1.41211C17.4375 1.38086 17.3613 1.36133 17.2871 1.3418C17.2734 1.33789 17.2578 1.33398 17.2441 1.33008C17.2168 1.32227 17.1875 1.3125 17.1543 1.30664C17.0234 1.28125 16.8965 1.26758 16.7754 1.26758H5.42969C5.30859 1.26758 5.18164 1.28125 5.05078 1.30664C5.01758 1.3125 4.98828 1.32227 4.96094 1.33008C4.94727 1.33398 4.93359 1.33789 4.91797 1.3418C4.84375 1.36133 4.76563 1.38281 4.68945 1.41211C4.6543 1.42578 4.62109 1.44336 4.5918 1.45898L4.55664 1.47656C4.48828 1.50977 4.42383 1.54297 4.35938 1.58398C4.32422 1.60547 4.29297 1.63086 4.26367 1.6543C4.25586 1.66016 4.24609 1.66797 4.23828 1.67383L4.19727 1.70312C4.16992 1.7207 4.14258 1.74023 4.11719 1.76367C4.10352 1.77539 4.09375 1.78711 4.08594 1.79687C4.08203 1.80078 4.07812 1.80664 4.07617 1.80859C4.02148 1.85937 3.97266 1.91602 3.92188 1.97656C3.91211 1.98828 3.90234 2 3.89258 2.00977C3.86523 2.04102 3.83789 2.07227 3.8125 2.10937C3.76563 2.17578 3.72852 2.24609 3.69141 2.31445L3.68555 2.32422C3.67773 2.33789 3.66992 2.35156 3.66211 2.36719C3.64648 2.39453 3.62891 2.42383 3.61523 2.45703C3.57227 2.55273 3.54492 2.6543 3.52148 2.74219C3.51953 2.75195 3.51367 2.76367 3.50977 2.77734C3.50391 2.79687 3.49609 2.81836 3.49023 2.84375C3.46094 2.98242 3.44531 3.12109 3.44531 3.25586V14.5957C3.44531 15.6914 4.33594 16.584 5.43359 16.584H16.7734C17.8691 16.584 18.7617 15.6914 18.7617 14.5957V3.42773C18.7617 3.02734 18.4355 2.69922 18.0332 2.69922C17.6309 2.69922 17.3047 3.02539 17.3047 3.42773V14.5937C17.3047 14.8867 17.0664 15.127 16.7715 15.127H5.42969C5.13672 15.127 4.89648 14.8887 4.89648 14.5937V3.25391C4.89648 3.21875 4.90039 3.18164 4.9082 3.14453L4.91016 3.13672C4.91211 3.13086 4.91406 3.12305 4.91602 3.11523C4.92383 3.08984 4.92969 3.0625 4.94141 3.03906C4.94336 3.03516 4.94531 3.0293 4.94922 3.02344C4.95312 3.01758 4.95703 3.01172 4.95898 3.00586C4.9707 2.98242 4.98242 2.96289 4.99414 2.94531C4.99805 2.94141 5.00195 2.93555 5.00781 2.92773C5.01172 2.92383 5.01562 2.91797 5.01953 2.91406C5.03711 2.89258 5.05078 2.87695 5.06641 2.86133C5.06836 2.85937 5.07227 2.85742 5.07422 2.85352C5.07812 2.84961 5.08203 2.84766 5.08594 2.84375C5.13281 2.80469 5.18164 2.77539 5.23242 2.75391L5.23633 2.75195C5.24219 2.75 5.24609 2.75 5.25195 2.74805C5.3125 2.72656 5.37305 2.71484 5.42773 2.71484H16.7676C16.8223 2.71484 16.8828 2.72656 16.9434 2.74805C16.9492 2.75 16.9531 2.75195 16.959 2.75195H16.9609C17.0117 2.77148 17.0625 2.80273 17.1074 2.8418C17.1113 2.8457 17.1152 2.84766 17.1191 2.85156C17.1211 2.85352 17.125 2.85547 17.127 2.85937C17.1426 2.87305 17.1582 2.89062 17.1738 2.91211C17.1777 2.91602 17.1816 2.92187 17.1855 2.92578C17.1914 2.93164 17.1953 2.9375 17.1992 2.94141C17.2129 2.95898 17.2227 2.98047 17.2344 3.00195C17.2383 3.00781 17.2402 3.01367 17.2441 3.01953C17.248 3.02539 17.25 3.03125 17.252 3.0332C17.2617 3.05664 17.2695 3.08398 17.2773 3.10937C17.2793 3.11719 17.2812 3.12305 17.2832 3.12891C17.2832 3.12891 17.2852 3.13281 17.2852 3.13672C17.293 3.17383 17.2969 3.21094 17.2969 3.24609V3.375C17.3008 3.78516 17.627 4.11133 18.0293 4.11133Z" fill="#60A9FE"/>
</svg>
