<svg width="13" height="13" viewBox="0 0 13 13" fill="none" xmlns="http://www.w3.org/2000/svg">
<path d="M12.8453 7.67186C13.2137 6.19811 12.8084 5.23625 12.8084 5.23625L11.3988 5.16705C11.2753 4.72462 11.0943 4.30742 10.8645 3.92148L11.8155 2.84183C11.0339 1.53927 10.0671 1.14568 10.0671 1.14568L9.02005 2.0948C8.62998 1.86789 8.20805 1.69212 7.76174 1.57311L7.67189 0.154721C6.19819 -0.213765 5.23627 0.191631 5.23627 0.191631L5.16933 1.555C4.72945 1.66556 4.31093 1.82872 3.92404 2.04405L2.93291 1.14566C2.93291 1.14566 1.96614 1.53925 1.18457 2.84182C1.43299 3.1238 1.92177 3.44757 1.9511 3.86217C1.95832 3.96452 1.48067 5.17295 1.46007 5.17399L0.191581 5.23623C0.191581 5.23623 -0.213701 6.19808 0.15467 7.67185L1.41182 7.75151C1.53054 8.25139 1.72107 8.72221 1.97332 9.154L1.14563 10.0671C1.14563 10.0671 1.53922 11.0338 2.84179 11.8154L3.78512 10.9846C4.2125 11.2404 4.67905 11.4353 5.17494 11.5594L5.23627 12.8084C5.23627 12.8084 6.19817 13.2137 7.67189 12.8453L7.75451 11.5417C8.2567 11.4086 8.72805 11.2028 9.15792 10.9344L10.1582 11.8154C11.4608 11.0339 11.8544 10.0671 11.8544 10.0671L10.9432 9.06189C11.1677 8.65853 11.3362 8.22107 11.4464 7.76048L12.8453 7.67186ZM6.50001 9.52806C4.82769 9.52806 3.472 8.17237 3.472 6.5C3.472 4.82768 4.82769 3.472 6.50001 3.472C8.17233 3.472 9.52807 4.82768 9.52807 6.5C9.52807 8.17239 8.17233 9.52806 6.50001 9.52806Z" fill="url(#paint0_linear_9602_192795)"/>
<defs>
<linearGradient id="paint0_linear_9602_192795" x1="0" y1="0" x2="12.7247" y2="15.6612" gradientUnits="userSpaceOnUse">
<stop stop-color="#57CCEF"/>
<stop offset="1" stop-color="#86E5C9"/>
</linearGradient>
</defs>
</svg>
