<svg width="14" height="13" viewBox="0 0 14 13" fill="none" xmlns="http://www.w3.org/2000/svg">
<path d="M12.5929 12.3599H1.40705C1.034 12.3595 0.676356 12.2111 0.412573 11.9473C0.148789 11.6835 0.000413807 11.3259 0 10.9528L0 3.33771C0.000413807 2.96467 0.148789 2.60702 0.412573 2.34324C0.676356 2.07945 1.034 1.93108 1.40705 1.93066H12.5929C12.966 1.93108 13.3236 2.07945 13.5874 2.34324C13.8512 2.60702 13.9996 2.96467 14 3.33771V10.9528C13.9996 11.3259 13.8512 11.6835 13.5874 11.9473C13.3236 12.2111 12.966 12.3595 12.5929 12.3599ZM1.40705 3.02504C1.32412 3.02504 1.24459 3.05798 1.18595 3.11662C1.12732 3.17526 1.09437 3.25479 1.09437 3.33771V10.9528C1.09437 11.0358 1.12732 11.1153 1.18595 11.1739C1.24459 11.2326 1.32412 11.2655 1.40705 11.2655H12.5929C12.634 11.2655 12.6747 11.2574 12.7126 11.2417C12.7505 11.226 12.785 11.203 12.814 11.1739C12.8431 11.1449 12.8661 11.1104 12.8818 11.0725C12.8975 11.0345 12.9056 10.9939 12.9056 10.9528V3.33771C12.9056 3.29665 12.8975 3.25599 12.8818 3.21806C12.8661 3.18012 12.8431 3.14565 12.814 3.11662C12.785 3.08758 12.7505 3.06455 12.7126 3.04884C12.6747 3.03312 12.634 3.02504 12.5929 3.02504H1.40705Z" fill="#7FF0B3"/>
<path d="M1.11 3.25185H0.015625V1.64156C0.0159149 1.20628 0.188957 0.788911 0.496747 0.481122C0.804536 0.173332 1.2219 0.000289897 1.65718 0L7.30993 0C7.7452 0.000331252 8.16254 0.173387 8.47032 0.481167C8.7781 0.788948 8.95116 1.20629 8.95149 1.64156V2.69638H7.85712V1.64156C7.85712 1.49644 7.79947 1.35726 7.69685 1.25464C7.59423 1.15202 7.45506 1.09437 7.30993 1.09437H1.65718C1.51206 1.09437 1.37288 1.15202 1.27027 1.25464C1.16765 1.35726 1.11 1.49644 1.11 1.64156V3.25185Z" fill="#7FF0B3"/>
<path d="M4.53062 6.75596C4.78856 6.49801 5.04651 6.49801 5.30446 6.75596L6.68675 8.13826C6.9447 8.3962 6.9447 8.65415 6.68675 8.9121C6.42881 9.17004 6.17086 9.17004 5.91291 8.9121L4.53062 7.5298C4.27267 7.27185 4.27267 7.01391 4.53062 6.75596Z" fill="#7FF0B3"/>
<path d="M9.46917 5.37803C9.72711 5.63598 9.72711 5.89392 9.46917 6.15187L6.709 8.91204C6.45105 9.16999 6.1931 9.16999 5.93516 8.91204C5.67721 8.65409 5.67721 8.39615 5.93516 8.1382L8.69533 5.37803C8.95328 5.12008 9.21122 5.12008 9.46917 5.37803Z" fill="#7FF0B3"/>
</svg>
