<svg width="17" height="12" viewBox="0 0 17 12" fill="none" xmlns="http://www.w3.org/2000/svg">
<path d="M16.1945 8.98065C15.9397 8.72661 15.6367 8.5252 15.3029 8.38808C14.9692 8.25096 14.6113 8.18085 14.25 8.18182H8.75C8.02065 8.18182 7.32118 8.46916 6.80546 8.98062C6.28973 9.49208 6 10.1858 6 10.9091V11.3182C6.0002 11.4989 6.0727 11.6723 6.20159 11.8001C6.33048 11.9279 6.50523 11.9998 6.6875 12H16.3125C16.4948 11.9998 16.6695 11.9279 16.7984 11.8001C16.9273 11.6723 16.9998 11.4989 17 11.3182V10.9091C17.001 10.5508 16.9303 10.1959 16.792 9.86486C16.6537 9.53384 16.4507 9.23331 16.1945 8.98065ZM14.8 3.27273C14.8 5.08023 13.3226 6.54545 11.5 6.54545C9.67743 6.54545 8.2 5.08023 8.2 3.27273C8.2 1.46523 9.67743 0 11.5 0C13.3226 0 14.8 1.46523 14.8 3.27273Z" fill="#AAAAAA"/>
<path d="M4.80995 6.29494L3.90503 7.19998L4.89491 8.18985L7.48989 5.59499L4.89491 3L3.90503 3.98987L4.80995 4.89491H1V6.29494H4.80995Z" fill="#AAAAAA" stroke="#AAAAAA" stroke-width="0.1"/>
</svg>
