<svg width="15" height="13" viewBox="0 0 15 13" fill="none" xmlns="http://www.w3.org/2000/svg">
<path d="M15 1.77158C15 0.793082 14.2069 0 13.2284 0H2.07284C1.09435 0 0.30127 0.793082 0.30127 1.77158V10.5155C0.30127 11.494 1.09435 12.2871 2.07284 12.2871H13.2284C14.2069 12.2871 15 11.494 15 10.5155V1.77158Z" fill="#AAAAAA"/>
<path d="M11.5864 8.66122L10.5375 7.61236C10.4541 7.52897 10.4072 7.41586 10.4072 7.29792C10.4072 7.17997 10.4541 7.06686 10.5375 6.98347V6.98236C10.7108 6.81157 10.9931 6.81157 11.1664 6.98236L12.2164 8.03235L13.2652 6.98236C13.4389 6.81116 13.7221 6.81167 13.8952 6.98347C14.0666 7.15647 14.0666 7.43935 13.8952 7.61236L12.8452 8.66122L13.8952 9.71121C14.0665 9.88383 14.0665 10.1664 13.8952 10.339L13.8941 10.3401C13.8107 10.4235 13.6976 10.4704 13.5797 10.4704C13.4617 10.4704 13.3486 10.4235 13.2652 10.3401L12.2164 9.29121L11.1664 10.3401C11.1252 10.3817 11.0763 10.4147 11.0223 10.4372C10.9683 10.4597 10.9104 10.4713 10.8519 10.4713C10.7934 10.4713 10.7355 10.4597 10.6816 10.4372C10.6276 10.4147 10.5786 10.3817 10.5375 10.3401V10.339C10.4958 10.298 10.4627 10.2492 10.4401 10.1953C10.4175 10.1414 10.4059 10.0835 10.4059 10.0251C10.4059 9.96666 10.4175 9.90881 10.4401 9.85492C10.4627 9.80103 10.4958 9.75218 10.5375 9.71121L11.5864 8.66122ZM8.12028 8.99186C8.12028 8.68548 7.86817 8.43335 7.56178 8.43335H3.09366C2.78727 8.43335 2.53516 8.68548 2.53516 8.99186C2.53516 9.29825 2.78727 9.55036 3.09366 9.55036H7.56178C7.86817 9.55036 8.12028 9.29825 8.12028 8.99186ZM9.23729 6.14237C9.23705 5.99424 9.17846 5.85218 9.07421 5.74695C8.96898 5.6427 8.82692 5.58411 8.67879 5.58387H3.09374C2.94562 5.58411 2.80355 5.6427 2.69832 5.74695C2.48339 5.96476 2.48339 6.31998 2.69832 6.53779C2.80355 6.64203 2.94562 6.70063 3.09374 6.70087H8.67879C8.82736 6.70087 8.96921 6.64168 9.07421 6.53779C9.17846 6.43256 9.23705 6.29049 9.23729 6.14237ZM12.5883 3.29287C12.5883 2.98649 12.3362 2.73438 12.0298 2.73438H3.09374C2.78739 2.73441 2.53532 2.98652 2.53532 3.29287C2.53532 3.59924 2.78739 3.85134 3.09374 3.85139H12.0298C12.3362 3.85139 12.5883 3.59926 12.5883 3.29287Z" fill="white"/>
</svg>
