<svg width="28" height="26" viewBox="0 0 28 26" fill="none" xmlns="http://www.w3.org/2000/svg">
<path fill-rule="evenodd" clip-rule="evenodd" d="M13.6758 0.268577C13.8822 0.177137 14.1176 0.177137 14.324 0.268577L20.824 3.14858C21.1133 3.27678 21.2999 3.56351 21.2999 3.88V11.0394L27.324 13.7086C27.6133 13.8368 27.7999 14.1235 27.7999 14.44V22.12C27.7999 22.4365 27.6133 22.7232 27.324 22.8514L20.824 25.7314C20.6176 25.8229 20.3822 25.8229 20.1758 25.7314L13.9999 22.995L7.82409 25.7314C7.61771 25.8229 7.38231 25.8229 7.17593 25.7314L0.675937 22.8514C0.386585 22.7232 0.200012 22.4365 0.200012 22.12V14.44C0.200012 14.1235 0.386583 13.8368 0.675932 13.7086L6.69991 11.0395V3.88C6.69991 3.56351 6.88648 3.27678 7.17583 3.14858L13.6758 0.268577ZM13.9999 5.88499L9.47476 3.88L13.9999 1.87501L18.525 3.88L13.9999 5.88499ZM7.49991 12.435L2.97485 14.44L7.50001 16.445L12.0251 14.44L7.49991 12.435ZM8.30001 17.8405L13.1999 15.6695V21.5994L8.30001 23.7705V17.8405ZM26.1999 15.6695L21.2999 17.8405V23.7705L26.1999 21.5994V15.6695ZM20.4999 16.445L15.9748 14.44L20.4999 12.435L25.025 14.44L20.4999 16.445ZM19.6999 11.0394V5.10947L14.7999 7.28055V13.2105L19.6999 11.0394Z" fill="url(#paint0_linear_5286_57512)"/>
<defs>
<linearGradient id="paint0_linear_5286_57512" x1="0.200012" y1="0.199997" x2="25.7278" y2="27.722" gradientUnits="userSpaceOnUse">
<stop stop-color="#57CCEF"/>
<stop offset="1" stop-color="#86E5C9"/>
</linearGradient>
</defs>
</svg>
