<svg width="24" height="24" viewBox="0 0 24 24" fill="none" xmlns="http://www.w3.org/2000/svg">
<path d="M4.23363 7.52498C4.71424 6.1029 5.85028 5.04725 7.51054 4.48694C10.2631 3.5174 14.1954 4.03439 16.8388 5.69348C18.368 6.66302 19.3293 8.02046 19.6133 9.61487C19.8754 11.037 19.526 12.3513 19.1327 13.1699C19.3075 13.2777 19.4385 13.4069 19.5696 13.5577C19.941 13.9885 20.072 14.4841 19.9627 15.0227C19.8097 15.8415 19.0015 16.4231 17.8219 16.5526C17.6253 16.5741 17.4505 16.5957 17.2539 16.5957C16.9043 16.5957 16.533 16.5526 16.2053 16.4664C15.8558 17.0912 15.8995 17.6515 16.0305 18.0178C16.1835 18.5133 16.533 18.9227 16.9263 19.0951L16.5331 20C15.8777 19.7199 15.3315 19.0951 15.0912 18.3194C14.8509 17.5652 14.9382 16.7896 15.3098 16.0787C15.0912 15.9278 14.9166 15.7339 14.8073 15.5185C14.72 15.3246 14.6543 15.1523 14.6325 14.9584C11.1153 15.3461 7.05195 14.032 5.17319 11.8342C4.037 10.5198 3.73115 9.0547 4.23357 7.525L4.23363 7.52498ZM17.7127 15.6048C18.2806 15.5401 18.9142 15.3031 19.0235 14.8506C19.0672 14.6136 19.0017 14.398 18.8487 14.2042C18.7832 14.1395 18.7177 14.0749 18.6302 14.0103C18.2588 14.4412 17.8655 14.7859 17.4942 15.1091C17.2976 15.2815 17.1228 15.4322 16.948 15.6046C17.1665 15.6262 17.4506 15.6262 17.7127 15.6048L17.7127 15.6048ZM15.6811 15.0876C15.7029 15.1522 15.7903 15.2169 15.8558 15.2815C16.1617 14.9367 16.4675 14.6567 16.7952 14.3766C17.0792 14.1395 17.3413 13.881 17.6253 13.6009C17.4068 13.5578 17.1885 13.5363 16.9482 13.5363C16.3583 13.5578 15.8996 13.7733 15.6811 14.1181C15.55 14.4197 15.5281 14.7645 15.6811 15.0876L15.6811 15.0876ZM5.89401 11.1878C7.598 13.17 11.5085 14.3766 14.698 13.9457C14.7417 13.8379 14.7853 13.7302 14.851 13.6225C15.2441 12.9761 16.0088 12.5884 16.9263 12.5667C17.3852 12.5453 17.8439 12.6314 18.2372 12.7606C18.5648 12.0711 18.827 10.9508 18.6303 9.78723C18.39 8.45141 17.6036 7.35248 16.2927 6.53381C13.9115 5.04709 10.2632 4.57307 7.81642 5.41337C6.87712 5.7365 5.65362 6.42604 5.1512 7.84812C4.77998 9.03319 5.0203 10.1536 5.89408 11.1878L5.89401 11.1878Z" fill="#666666"/>
</svg>
