<svg width="18" height="14" viewBox="0 0 18 14" fill="none" xmlns="http://www.w3.org/2000/svg">
  <path
    d="M16.0909 13H1.90909C1.66807 12.9997 1.43699 12.9021 1.26657 12.7285C1.09614 12.5549 1.00027 12.3196 1 12.0741V1.92593C1.00027 1.68044 1.09614 1.44509 1.26657 1.2715C1.43699 1.09792 1.66807 1.00028 1.90909 1H16.0909C16.3319 1.00028 16.563 1.09792 16.7334 1.2715C16.9039 1.44509 16.9997 1.68044 17 1.92593V12.0741C16.9997 12.3196 16.9039 12.5549 16.7334 12.7285C16.563 12.9021 16.3319 12.9997 16.0909 13ZM1.90909 1.74074C1.86087 1.74074 1.81462 1.76025 1.78053 1.79498C1.74643 1.82971 1.72727 1.87681 1.72727 1.92593V12.0741C1.72727 12.1232 1.74643 12.1703 1.78053 12.205C1.81462 12.2397 1.86087 12.2593 1.90909 12.2593H16.0909C16.1391 12.2593 16.1854 12.2397 16.2195 12.205C16.2536 12.1703 16.2727 12.1232 16.2727 12.0741V1.92593C16.2727 1.87681 16.2536 1.82971 16.2195 1.79498C16.1854 1.76025 16.1391 1.74074 16.0909 1.74074H1.90909Z"
    fill="#fff"
    stroke-width="0.2"
  />
</svg>
