<svg width="16" height="14" viewBox="0 0 16 14" fill="none" xmlns="http://www.w3.org/2000/svg">
<path d="M9.3083 12.6627C8.57952 12.8597 7.81552 12.8885 7.07397 12.747C6.33243 12.6055 5.63272 12.2973 5.02767 11.8459C5.27158 11.4812 5.40211 11.0525 5.40284 10.6137C5.40357 10.175 5.27446 9.74584 5.03176 9.38034C4.78907 9.01484 4.44365 8.72932 4.03901 8.55975C3.63437 8.39018 3.1886 8.34414 2.75784 8.42742C2.32707 8.5107 1.93059 8.71958 1.61831 9.02776C1.30604 9.33594 1.09193 9.72963 1.00297 10.1593C0.914006 10.5889 0.954157 11.0352 1.11837 11.4421C1.28258 11.8489 1.56351 12.1981 1.92577 12.4456C2.25356 12.666 2.63392 12.7955 3.02808 12.8209C3.42224 12.8463 3.81609 12.7668 4.16947 12.5903C4.91882 13.1976 5.80211 13.6175 6.74613 13.8153C7.69015 14.0131 8.66772 13.9831 9.59781 13.7277C9.73869 13.6847 9.85686 13.5877 9.92659 13.458C9.99631 13.3282 10.0119 13.1761 9.97004 13.0349C9.92486 12.8995 9.83127 12.7856 9.70722 12.715C9.58318 12.6444 9.43743 12.6221 9.29795 12.6524L9.3083 12.6627ZM7.99516 0.0586262C7.43434 0.060045 6.89499 0.274364 6.48615 0.65825C6.07731 1.04214 5.82949 1.56694 5.7928 2.12656C4.89226 2.47337 4.08701 3.02921 3.44344 3.74829C2.79987 4.46737 2.33639 5.32909 2.0912 6.26244C2.05599 6.40491 2.07721 6.55548 2.15044 6.68266C2.22366 6.80984 2.34322 6.90379 2.48411 6.94486C2.62657 6.98008 2.77714 6.95886 2.90433 6.88563C3.03151 6.81241 3.12546 6.69285 3.16654 6.55196C3.35715 5.8203 3.7124 5.14186 4.20519 4.56844C4.69797 3.99501 5.31526 3.54175 6.00992 3.24326C6.18199 3.60189 6.44714 3.90779 6.77771 4.12904C7.10828 4.35029 7.49216 4.47879 7.88931 4.50114C8.28646 4.52349 8.68234 4.43886 9.03564 4.25609C9.38894 4.07331 9.68673 3.79909 9.89794 3.46202C10.1092 3.12495 10.2261 2.73738 10.2365 2.33974C10.2469 1.9421 10.1504 1.54895 9.95707 1.2013C9.76376 0.853648 9.48071 0.564235 9.13744 0.363246C8.79418 0.162257 8.40327 0.057054 8.00549 0.0586108L7.99516 0.0586262ZM14.0335 8.76465C14.1862 7.81425 14.1122 6.84123 13.8175 5.92486C13.5228 5.00849 13.0158 4.17469 12.3378 3.49141C12.2884 3.43114 12.2269 3.38189 12.1573 3.34683C12.0876 3.31177 12.0114 3.29168 11.9336 3.28785C11.8557 3.28401 11.7779 3.29653 11.7052 3.32457C11.6325 3.35262 11.5664 3.39559 11.5113 3.45071C11.4562 3.50583 11.4132 3.57188 11.3852 3.6446C11.3571 3.71733 11.3446 3.79513 11.3485 3.87298C11.3523 3.95084 11.3724 4.02703 11.4074 4.09665C11.4425 4.16627 11.4918 4.22777 11.552 4.27721C12.0912 4.81164 12.5017 5.46174 12.7525 6.1783C13.0033 6.89485 13.0878 7.65907 12.9996 8.41309C12.4551 8.35948 11.9098 8.50666 11.4662 8.82695C11.0226 9.14725 10.7114 9.61858 10.591 10.1523C10.4706 10.686 10.5494 11.2453 10.8125 11.725C11.0756 12.2047 11.5049 12.5717 12.0197 12.7571C12.5345 12.9424 13.0992 12.9332 13.6077 12.7313C14.1162 12.5294 14.5334 12.1486 14.7809 11.6607C15.0283 11.1727 15.0889 10.6111 14.9513 10.0816C14.8136 9.55206 14.4873 9.09107 14.0335 8.78532V8.76465Z" fill="#32D583"/>
</svg>
