<svg width="21" height="22" viewBox="0 0 21 22" fill="none" xmlns="http://www.w3.org/2000/svg">
<path d="M16.0913 2.92361C16.0969 2.87842 16.0969 2.83274 16.0913 2.78755C16.0752 2.70399 16.0389 2.62539 15.9853 2.55833C15.9317 2.49127 15.8625 2.43769 15.7834 2.40206L10.7876 0.0550864C10.7095 0.0188193 10.6242 0 10.5378 0C10.4513 0 10.366 0.0188193 10.288 0.0550864L5.31536 2.39072C5.23783 2.4285 5.16994 2.48272 5.11667 2.54943C5.06339 2.61613 5.02609 2.69362 5.00748 2.77622C5.00188 2.8214 5.00188 2.86709 5.00748 2.91227V9.51101L0.493791 11.5915C0.414622 11.5998 0.338783 11.6271 0.273044 11.6709C0.190158 11.7215 0.121682 11.7916 0.0739563 11.8748C0.0262308 11.9581 0.000798551 12.0517 1.48914e-05 12.1471V19.0803C-0.00077605 19.1881 0.0299555 19.2939 0.0886041 19.3853C0.147253 19.4767 0.231386 19.5498 0.331135 19.5962L5.30375 21.9035H5.33279C5.40134 21.9369 5.47691 21.9543 5.55354 21.9543C5.63017 21.9543 5.70574 21.9369 5.77429 21.9035H5.80333L10.4506 19.7323L15.2257 21.9545C15.2953 21.9845 15.3705 22 15.4465 22C15.5225 22 15.5977 21.9845 15.6672 21.9545H15.6963L20.6689 19.6416C20.7677 19.5956 20.8513 19.5233 20.9099 19.4331C20.9684 19.3428 20.9997 19.2382 21 19.1313V12.1981C20.9982 12.1284 20.9845 12.0594 20.9593 11.994C20.9376 11.9171 20.8994 11.8455 20.8474 11.784C20.7953 11.7225 20.7305 11.6723 20.6573 11.6369L16.01 9.48834V2.92928L16.0913 2.92361ZM4.98424 20.4976L1.17346 18.7288V13.0598L4.98424 14.7945V20.4976ZM5.56516 13.8365L1.97512 12.1698L5.57097 10.4974L9.16101 12.1641L5.56516 13.8365ZM9.95685 18.7288L6.14607 20.5032V14.7945L9.95685 13.0258V18.7288ZM9.95685 11.2797L6.14607 9.51101V3.84199L9.95685 5.6164V11.2797ZM6.88383 2.8896L10.5378 1.18889L14.1917 2.8896L10.5378 4.5903L6.88383 2.8896ZM14.9295 3.80231V9.47133L11.1187 11.2401V5.57104L14.9295 3.80231ZM14.9295 20.5203L11.1187 18.7629V13.0938L14.9295 14.8682V20.5203ZM19.9021 18.7629L16.0913 20.5316V14.8626L19.9021 13.0938V18.7629ZM19.1759 12.1755L15.5104 13.8762L11.8622 12.1755L15.5278 10.4747L19.1759 12.1755Z" fill="white"/>
</svg>
