<svg width="10" height="9" viewBox="0 0 10 9" fill="none" xmlns="http://www.w3.org/2000/svg">
<path d="M2.33333 1.23529C2.33333 0.553059 1.811 0 1.16667 0C0.522333 0 0 0.553059 0 1.23529C0 1.23529 0 1.23618 0 1.23671L9.76562e-09 9H2.33467V1.23671H2.33333C2.33333 1.23618 2.33333 1.23529 2.33333 1.23529ZM5 2.64706C4.35567 2.64706 3.83333 3.20012 3.83333 3.88235L3.835 9H6.16483L6.16667 3.88235C6.16667 3.20012 5.64433 2.64706 5 2.64706ZM8.83333 4.94118C8.1895 4.94118 7.6675 5.49353 7.66667 6.17506H7.66533V9H10V6.17841V6.17647C10 5.49424 9.47767 4.94118 8.83333 4.94118Z" fill="#576FF3"/>
</svg>
