<svg width="20" height="20" viewBox="0 0 20 20" fill="none" xmlns="http://www.w3.org/2000/svg">
  <path d="M13.0054 5.75861L15.2993 8.17341L10.3181 13.417L8.27284 13.6547C7.99904 13.6866 7.76771 13.4429 7.79817 13.1547L8.02574 11.0002L13.0054 5.75861ZM16.7181 5.39909L15.641 4.26526C15.3051 3.91158 14.7602 3.91158 14.4242 4.26526L13.4109 5.33194L15.7048 7.74674L16.7181 6.68005C17.0541 6.32619 17.0541 5.75277 16.7181 5.39909Z" fill="#AAAAAA"/>
  <path fill-rule="evenodd" clip-rule="evenodd" d="M13.231 4.52745C13.0044 4.48759 12.7712 4.4668 12.5332 4.4668H8C5.79086 4.4668 4 6.25765 4 8.46679V13C4 15.2092 5.79086 17 8 17H12.5332C14.7424 17 16.5332 15.2092 16.5332 13V9.10283L14.5332 11.1028V13C14.5332 14.1046 13.6378 15 12.5332 15H10.636L10.4562 15.1799L10.2763 15H8C6.89543 15 6 14.1046 6 13V8.46679C6 7.36223 6.89543 6.4668 8 6.4668H11.2916L13.231 4.52745Z" fill="#AAAAAA"/>
  </svg>
  