<svg width="28" height="28" viewBox="0 0 28 28" fill="none" xmlns="http://www.w3.org/2000/svg">
<rect width="28" height="28" rx="6" fill="#F3F3F3"/>
<path d="M12.5383 11.8058C14.3858 11.8058 16.3059 11.3995 17.4589 10.6259V12.0358H18.527V8.94742C18.527 7.09072 15.4414 6.08887 12.5383 6.08887C9.63522 6.08887 6.5498 7.09072 6.5498 8.94742V17.3731C6.5498 19.2297 9.63525 20.2315 12.5384 20.2315V19.1634C9.48979 19.1634 7.61794 18.1206 7.61794 17.3731V14.8389C8.77096 15.6124 10.691 16.0187 12.5384 16.0187V14.9506C9.48979 14.9506 7.61794 13.9078 7.61794 13.1602V10.626C8.77074 11.3995 10.6908 11.8058 12.5383 11.8058ZM12.5383 7.15698C15.587 7.15698 17.4589 8.19981 17.4589 8.94742C17.4589 9.69495 15.587 10.7377 12.5383 10.7377C9.48977 10.7377 7.61792 9.69495 7.61792 8.94742C7.61792 8.19981 9.48977 7.15698 12.5383 7.15698ZM17.3254 12.3896C14.6737 12.3896 13.2861 13.4098 13.2861 14.4174V19.8318C13.2861 20.8394 14.6737 21.8594 17.3254 21.8594C19.9573 21.8594 21.343 20.8545 21.3635 19.8542H21.3645V14.4173C21.3645 13.4097 19.9772 12.3896 17.3254 12.3896ZM17.3254 13.4577C19.2856 13.4577 20.2964 14.1303 20.2964 14.4174C20.2964 14.7045 19.2856 15.3771 17.3254 15.3771C15.3651 15.3771 14.3543 14.7045 14.3543 14.4174C14.3543 14.1303 15.3653 13.4577 17.3254 13.4577ZM17.3254 20.7911C15.3651 20.7911 14.3543 20.1185 14.3543 19.8315V18.5389C15.032 18.907 16.0267 19.1521 17.3254 19.1521C18.6241 19.1521 19.6186 18.907 20.2964 18.5389V19.8315C20.2964 20.1185 19.2856 20.7911 17.3254 20.7911ZM17.3254 18.084C15.3651 18.084 14.3543 17.4114 14.3543 17.1244V15.8318C15.032 16.1999 16.0267 16.4451 17.3254 16.4451C18.6241 16.4451 19.6186 16.2001 20.2964 15.832V17.1245C20.2964 17.4114 19.2856 18.084 17.3254 18.084Z" fill="#60A9FE"/>
</svg>
