<svg width="15" height="14" viewBox="0 0 15 14" fill="none" xmlns="http://www.w3.org/2000/svg">
<g clip-path="url(#clip0_12093_195786)">
<path d="M13.2222 0.0136723C13.5011 0.013452 13.7725 0.104354 13.9951 0.27255C14.2176 0.440745 14.3791 0.677029 14.4551 0.945458C14.531 1.21389 14.5171 1.49977 14.4157 1.75961C14.3142 2.01946 14.1306 2.23904 13.8929 2.38497L9.42283 5.13612V12.7515C9.4228 12.9751 9.3621 13.1945 9.24719 13.3863C9.13229 13.5781 8.96749 13.7352 8.77036 13.8407C8.57323 13.9462 8.35116 13.9963 8.12781 13.9856C7.90446 13.9748 7.68821 13.9037 7.50211 13.7798L6.43566 13.0685C6.17261 12.8931 5.95694 12.6555 5.80777 12.3767C5.65861 12.0979 5.58058 11.7866 5.58059 11.4704V5.13533L1.11136 2.38497C0.873617 2.23904 0.69004 2.01946 0.588558 1.75961C0.487077 1.49977 0.473245 1.21389 0.549168 0.945458C0.625091 0.677029 0.786612 0.440745 1.00916 0.27255C1.23171 0.104354 1.50311 0.013452 1.78207 0.0136723H13.2253H13.2222Z" fill="#CCCCCC"/>
<path d="M10.8596 6.41629H13.7411C13.8057 6.40765 13.8715 6.41404 13.9333 6.43495C13.9951 6.45585 14.0512 6.49072 14.0973 6.53685C14.1434 6.58297 14.1783 6.6391 14.1992 6.70088C14.2201 6.76267 14.2265 6.82844 14.2179 6.89309C14.2265 6.95774 14.2201 7.02352 14.1992 7.0853C14.1783 7.14709 14.1434 7.20322 14.0973 7.24934C14.0512 7.29546 13.9951 7.33033 13.9333 7.35124C13.8715 7.37215 13.8057 7.37853 13.7411 7.3699H10.8596C10.7949 7.37853 10.7292 7.37215 10.6674 7.35124C10.6056 7.33033 10.5495 7.29546 10.5033 7.24934C10.4572 7.20322 10.4224 7.14709 10.4014 7.0853C10.3805 7.02352 10.3742 6.95774 10.3828 6.89309C10.374 6.82814 10.3805 6.76204 10.4015 6.69998C10.4226 6.63793 10.4578 6.58159 10.5043 6.5354C10.5508 6.48922 10.6073 6.45442 10.6695 6.43376C10.7317 6.41309 10.7979 6.40711 10.8628 6.41629H10.8596Z" fill="#CCCCCC"/>
<path d="M10.8596 8.6575H13.7411C13.8057 8.64887 13.8715 8.65525 13.9333 8.67616C13.9951 8.69707 14.0512 8.73193 14.0973 8.77806C14.1434 8.82418 14.1783 8.88031 14.1992 8.94209C14.2201 9.00388 14.2265 9.06965 14.2179 9.1343C14.2265 9.19896 14.2201 9.26473 14.1992 9.32651C14.1783 9.3883 14.1434 9.44443 14.0973 9.49055C14.0512 9.53667 13.9951 9.57154 13.9333 9.59245C13.8715 9.61336 13.8057 9.61974 13.7411 9.61111H10.8596C10.7949 9.61974 10.7292 9.61336 10.6674 9.59245C10.6056 9.57154 10.5495 9.53667 10.5033 9.49055C10.4572 9.44443 10.4224 9.3883 10.4014 9.32651C10.3805 9.26473 10.3742 9.19896 10.3828 9.1343C10.374 9.06935 10.3805 9.00325 10.4015 8.94119C10.4226 8.87914 10.4578 8.8228 10.5043 8.77661C10.5508 8.73043 10.6073 8.69563 10.6695 8.67497C10.7317 8.6543 10.7979 8.64832 10.8628 8.6575H10.8596Z" fill="#CCCCCC"/>
<path d="M10.8596 10.8977H13.7411C13.8057 10.8891 13.8715 10.8955 13.9333 10.9164C13.9951 10.9373 14.0512 10.9722 14.0973 11.0183C14.1434 11.0644 14.1783 11.1205 14.1992 11.1823C14.2201 11.2441 14.2265 11.3099 14.2179 11.3745C14.2265 11.4392 14.2201 11.505 14.1992 11.5667C14.1783 11.6285 14.1434 11.6847 14.0973 11.7308C14.0512 11.7769 13.9951 11.8118 13.9333 11.8327C13.8715 11.8536 13.8057 11.86 13.7411 11.8513H10.8596C10.7949 11.86 10.7292 11.8536 10.6674 11.8327C10.6056 11.8118 10.5495 11.7769 10.5033 11.7308C10.4572 11.6847 10.4224 11.6285 10.4014 11.5667C10.3805 11.505 10.3742 11.4392 10.3828 11.3745C10.374 11.3096 10.3805 11.2435 10.4015 11.1814C10.4226 11.1194 10.4578 11.063 10.5043 11.0168C10.5508 10.9707 10.6073 10.9359 10.6695 10.9152C10.7317 10.8945 10.7979 10.8886 10.8628 10.8977H10.8596Z" fill="#CCCCCC"/>
</g>
<defs>
<clipPath id="clip0_12093_195786">
<rect width="14" height="14" fill="white" transform="translate(0.5)"/>
</clipPath>
</defs>
</svg>
