<svg width="22" height="26" viewBox="0 0 22 26" fill="none" xmlns="http://www.w3.org/2000/svg">
<path fill-rule="evenodd" clip-rule="evenodd" d="M0.823656 6.92798C0.306168 7.30434 0 7.90558 0 8.54545V23.527C0 24.6316 0.89543 25.527 2 25.527H20C21.1046 25.527 22 24.6316 22 23.527V8.54545C22 7.90558 21.6938 7.30434 21.1763 6.92798L12.1763 0.382528C11.475 -0.127509 10.525 -0.127509 9.82366 0.382528L0.823656 6.92798ZM1.6 22.927C1.6 23.4793 2.04772 23.927 2.6 23.927H5.4C5.95229 23.927 6.4 23.4793 6.4 22.927V14.927C6.4 14.3747 6.84772 13.927 7.4 13.927H14.6C15.1523 13.927 15.6 14.3747 15.6 14.927V22.927C15.6 23.4793 16.0477 23.927 16.6 23.927H19.4C19.9523 23.927 20.4 23.4793 20.4 22.927V10.027C20.4 9.47472 19.9523 9.027 19.4 9.027L2.6 9.02701C2.04772 9.02701 1.6 9.47472 1.6 10.027V22.927ZM14 22.927C14 23.4793 13.5523 23.927 13 23.927H9C8.44772 23.927 8 23.4793 8 22.927V16.527C8 15.9747 8.44772 15.527 9 15.527H13C13.5523 15.527 14 15.9747 14 16.527V22.927ZM18.992 7.16526C19.1486 7.27918 19.068 7.52701 18.8743 7.52701H3.20561C3.01192 7.52701 2.93133 7.27918 3.08798 7.16526L10.4518 1.80975C10.8025 1.55473 11.2775 1.55473 11.6281 1.80975L18.992 7.16526Z" fill="url(#paint0_linear_1530_17663)"/>
<defs>
<linearGradient id="paint0_linear_1530_17663" x1="0" y1="0" x2="25.2474" y2="21.759" gradientUnits="userSpaceOnUse">
<stop stop-color="#57CCEF"/>
<stop offset="1" stop-color="#86E5C9"/>
</linearGradient>
</defs>
</svg>
