<svg width="10" height="13" viewBox="0 0 10 13" fill="none" xmlns="http://www.w3.org/2000/svg">
<path d="M6.36203 8.07162L6.41732 8.12616L7.70714 9.55022L8.99636 8.12616C9.09764 8.01436 9.23238 7.94719 9.37532 7.93727C9.51826 7.92735 9.65956 7.97535 9.77272 8.07227L9.82801 8.12616C9.93809 8.24791 9.99992 8.41291 9.99992 8.58494C9.99992 8.75697 9.93809 8.92197 9.82801 9.04372L8.53761 10.4684L9.82801 11.8925C9.92912 12.0043 9.98985 12.1529 9.99884 12.3106C10.0078 12.4682 9.96445 12.6241 9.87683 12.749L9.82801 12.81L9.77272 12.8639C9.66963 12.9521 9.5429 13 9.41248 13C9.28206 13 9.15533 12.9521 9.05224 12.8639L8.99636 12.81L7.70714 11.386L6.41732 12.81C6.31608 12.9217 6.18145 12.9887 6.03865 12.9986C5.89585 13.0086 5.75467 12.9607 5.64155 12.8639L5.58626 12.81C5.47618 12.6883 5.41435 12.5233 5.41435 12.3513C5.41435 12.1792 5.47618 12.0142 5.58626 11.8925L6.87608 10.4684L5.58626 9.04372C5.48515 8.93194 5.42442 8.7833 5.41543 8.62563C5.40645 8.46797 5.44983 8.3121 5.53745 8.18721L5.58626 8.12616L5.64155 8.07227C5.74464 7.98407 5.87137 7.93621 6.00179 7.93621C6.13221 7.93621 6.25894 7.98342 6.36203 8.07162ZM8.23412 0C8.38859 0 8.54156 0.0335927 8.68427 0.0988601C8.82699 0.164127 8.95666 0.259791 9.06589 0.38039C9.17512 0.500988 9.26177 0.644159 9.32088 0.801729C9.38 0.959298 9.41042 1.12818 9.41042 1.29873V5.84429H9.39866C9.41601 5.9386 9.41415 6.03599 9.39322 6.12941C9.37229 6.22284 9.33282 6.30995 9.27766 6.38447C9.2225 6.45898 9.15303 6.51902 9.07427 6.56026C8.99551 6.60149 8.90944 6.62288 8.82227 6.62288C8.73511 6.62288 8.64903 6.60149 8.57028 6.56026C8.49152 6.51902 8.42204 6.45898 8.36688 6.38447C8.31172 6.30995 8.27225 6.22284 8.25132 6.12941C8.2304 6.03599 8.22854 5.9386 8.24588 5.84429H8.23412V1.29873H1.1763V11.0392H3.64654C3.80251 11.0392 3.95209 11.1077 4.06237 11.2295C4.17265 11.3512 4.2346 11.5164 4.2346 11.6886C4.2346 11.8608 4.17265 12.0259 4.06237 12.1477C3.95209 12.2695 3.80251 12.3379 3.64654 12.338H1.1763C0.864328 12.338 0.565131 12.2011 0.344531 11.9576C0.123931 11.714 0 11.3837 0 11.0392V1.29873C-1.81025e-09 1.12818 0.0304259 0.959298 0.0895406 0.801729C0.148655 0.644159 0.235301 0.500988 0.344531 0.38039C0.453761 0.259791 0.583436 0.164127 0.726151 0.0988601C0.868867 0.0335927 1.02183 0 1.1763 0H8.23412Z" fill="#F8827B"/>
</svg>
