<svg width="16" height="13" viewBox="0 0 16 13" fill="none" xmlns="http://www.w3.org/2000/svg">
<path d="M5.48571 2.5355C5.84591 2.5355 6.20258 2.60611 6.53536 2.7433C6.86814 2.88049 7.17051 3.08157 7.42521 3.33506C7.6799 3.58856 7.88194 3.88949 8.01978 4.2207C8.15763 4.5519 8.22857 4.90688 8.22857 5.26537V6.17533C8.22857 6.89933 7.93959 7.59369 7.42521 8.10564C6.91082 8.61759 6.21316 8.9052 5.48571 8.9052C4.75826 8.9052 4.06061 8.61759 3.54622 8.10564C3.03184 7.59369 2.74286 6.89933 2.74286 6.17533V5.26537C2.74286 4.54137 3.03184 3.84701 3.54622 3.33506C4.06061 2.82312 4.75826 2.5355 5.48571 2.5355ZM2.79131 8.63676C3.13355 9.00867 3.54989 9.30554 4.0138 9.50842C4.4777 9.71131 4.97899 9.81577 5.48571 9.81515C5.99243 9.81577 6.49372 9.71131 6.95763 9.50842C7.42154 9.30554 7.83788 9.00867 8.18011 8.63676C9.43698 9.27477 10.426 10.3355 10.9714 11.6305V12.09C10.9714 12.3314 10.8751 12.5628 10.7036 12.7335C10.5322 12.9041 10.2996 13 10.0571 13H0.914286C0.671802 13 0.43925 12.9041 0.267788 12.7335C0.0963263 12.5628 0 12.3314 0 12.09V11.631C0.545376 10.3358 1.53437 9.27488 2.79131 8.63676ZM8.75063 7.81643C8.99536 7.33532 9.12905 6.80588 9.14194 6.26678C9.17303 6.25086 9.20411 6.23493 9.23566 6.21992C9.82862 6.77674 10.6133 7.0864 11.4286 7.08528C12.2438 7.0864 13.0285 6.77674 13.6215 6.21992C14.6712 6.72781 15.5118 7.58203 16 8.63721V8.9052C16 9.14653 15.9037 9.37798 15.7322 9.54863C15.5608 9.71928 15.3282 9.81515 15.0857 9.81515H11.0853C10.4747 8.9765 9.67507 8.29196 8.75063 7.81643ZM11.4286 0.715593C12.0348 0.715593 12.6162 0.955268 13.0448 1.38189C13.4735 1.80852 13.7143 2.38714 13.7143 2.99048V3.90044C13.7142 4.50374 13.4734 5.08231 13.0447 5.50889C12.6161 5.93546 12.0347 6.17511 11.4286 6.17511C10.8224 6.17511 10.2411 5.93546 9.81241 5.50889C9.38376 5.08231 9.14292 4.50374 9.14286 3.90044V2.99048C9.14286 2.38714 9.38367 1.80852 9.81233 1.38189C10.241 0.955268 10.8224 0.715593 11.4286 0.715593ZM2.61029 1.24655C3.32709 0.812048 4.0736 0.491289 4.8512 0.283819C5.62834 0.0763488 6.43657 -0.0173765 7.27497 0.00264252C7.37365 0.00496923 7.46892 0.0390216 7.54654 0.0997088C7.62416 0.160396 7.67996 0.244458 7.7056 0.339326L7.73714 0.456256C7.75053 0.5064 7.75209 0.558945 7.74171 0.60979C7.73132 0.660634 7.70927 0.708402 7.67728 0.749364C7.64528 0.790327 7.6042 0.823375 7.55726 0.845929C7.51031 0.868484 7.45876 0.879933 7.40663 0.879385C6.62418 0.867335 5.84381 0.962717 5.08754 1.16284C4.3322 1.36591 3.60859 1.67165 2.93714 2.07143C2.89229 2.09793 2.84189 2.11373 2.78988 2.1176C2.73787 2.12147 2.68566 2.1133 2.63735 2.09373C2.58904 2.07416 2.54594 2.04373 2.51142 2.00481C2.47691 1.9659 2.45191 1.91955 2.4384 1.86942L2.40686 1.75249C2.38139 1.65755 2.38749 1.55696 2.42424 1.46577C2.46099 1.37457 2.52642 1.29766 2.61074 1.24655H2.61029Z" fill="#AAAAAA"/>
</svg>
  