<svg width="18" height="18" viewBox="0 0 18 18" fill="none" xmlns="http://www.w3.org/2000/svg">
<path d="M17.2094 18H0.822758C0.377098 18 0.0342817 17.6565 0.0342817 17.2099C0.0342817 16.7634 0.377098 16.4198 0.822758 16.4198H17.2094C17.655 16.4198 17.9978 16.7634 17.9978 17.2099C18.0321 17.6565 17.655 18 17.2094 18ZM17.1751 9.79008H7.88476C7.4391 9.79008 7.09629 9.44656 7.09629 9C7.09629 8.55344 7.4391 8.20992 7.88476 8.20992H17.1751C17.6207 8.20992 17.9635 8.55344 17.9635 9C17.9978 9.44656 17.6207 9.79008 17.1751 9.79008ZM17.1751 1.58015H0.788477C0.342816 1.58015 0 1.23664 0 0.790076C0 0.343512 0.342816 0 0.788477 0H17.1751C17.6207 0 17.9635 0.343512 17.9635 0.790076C17.9635 1.23664 17.6207 1.58015 17.1751 1.58015ZM3.80526 13.0191L0.239971 9.44656C1.02167e-07 9.20611 1.02167e-07 8.79389 0.239971 8.51908L3.80526 4.94656C4.04523 4.70611 4.45661 4.70611 4.73086 4.94656C4.86799 5.08397 4.90227 5.22137 4.93655 5.39313V12.5382C4.93655 12.8817 4.6623 13.1908 4.2852 13.1908C4.07951 13.2252 3.9081 13.1565 3.80526 13.0191Z" fill="#717C99"/>
</svg>
