<svg width="28" height="25" viewBox="0 0 28 25" fill="none" xmlns="http://www.w3.org/2000/svg">
<path d="M10.1111 0C8.65764 0 7.45208 0.996528 7.10694 2.34306C7.0875 2.34306 7.07049 2.34063 7.05347 2.33819C7.03646 2.33576 7.01944 2.33333 7 2.33333C5.28403 2.33333 3.88889 3.72847 3.88889 5.44445C3.88889 5.67778 3.91806 5.90625 3.97153 6.125C2.55208 6.70833 1.55556 8.09861 1.55556 9.72222C1.55556 10.3347 1.71111 10.9035 1.95903 11.4188C0.792361 12.0896 0 13.334 0 14.7778C0 16.3965 0.991667 17.7868 2.40139 18.3701C2.35764 18.5938 2.33333 18.8222 2.33333 19.0556C2.33333 20.9903 3.89861 22.5556 5.83333 22.5556C6.03264 22.5556 6.22708 22.5313 6.41667 22.4972C6.88333 23.8826 8.17639 24.8889 9.72222 24.8889C11.6569 24.8889 13.2222 23.3236 13.2222 21.3889V16.6001H9.5999V18.1606C9.95853 18.3681 10.1998 18.7559 10.1998 19.2C10.1998 19.8627 9.66255 20.4 8.9998 20.4C8.33706 20.4 7.7998 19.8627 7.7998 19.2C7.7998 18.7558 8.04117 18.368 8.3999 18.1605V16.0001C8.3999 15.6687 8.66853 15.4001 8.9999 15.4001H13.2222V13.0999H7.23955C7.03208 13.4587 6.64423 13.7 6.2 13.7C5.53726 13.7 5 13.1628 5 12.5C5 11.8373 5.53726 11.3 6.2 11.3C6.64411 11.3 7.03187 11.5413 7.23938 11.8999H13.2222V9.5999H8.9999C8.66853 9.5999 8.3999 9.33127 8.3999 8.9999V6.83962C8.04117 6.63214 7.7998 6.24431 7.7998 5.8001C7.7998 5.13736 8.33706 4.6001 8.9998 4.6001C9.66255 4.6001 10.1998 5.13736 10.1998 5.8001C10.1998 6.24423 9.95853 6.632 9.5999 6.8395V8.3999H13.2222V3.11111C13.2222 1.39514 11.8271 0 10.1111 0Z" fill="url(#paint0_linear_5756_6103)"/>
<path d="M17.8889 0C19.3424 0 20.5479 0.996528 20.8931 2.34306C20.9125 2.34306 20.9295 2.34063 20.9465 2.33819C20.9635 2.33576 20.9806 2.33333 21 2.33333C22.716 2.33333 24.1111 3.72847 24.1111 5.44445C24.1111 5.67778 24.0819 5.90625 24.0285 6.125C25.4479 6.70833 26.4444 8.09861 26.4444 9.72222C26.4444 10.3347 26.2889 10.9035 26.041 11.4188C27.2076 12.0896 28 13.334 28 14.7778C28 16.3965 27.0083 17.7868 25.5986 18.3701C25.6424 18.5938 25.6667 18.8222 25.6667 19.0556C25.6667 20.9903 24.1014 22.5556 22.1667 22.5556C21.9674 22.5556 21.7729 22.5313 21.5833 22.4972C21.1167 23.8826 19.8236 24.8889 18.2778 24.8889C16.3431 24.8889 14.7778 23.3236 14.7778 21.3889V16.6001H18.4001V18.1606C18.0415 18.3681 17.8002 18.7559 17.8002 19.2C17.8002 19.8627 18.3375 20.4 19.0002 20.4C19.6629 20.4 20.2002 19.8627 20.2002 19.2C20.2002 18.7558 19.9588 18.368 19.6001 18.1605V16.0001C19.6001 15.6687 19.3315 15.4001 19.0001 15.4001H14.7778V13.0999H20.7605C20.9679 13.4587 21.3558 13.7 21.8 13.7C22.4627 13.7 23 13.1628 23 12.5C23 11.8373 22.4627 11.3 21.8 11.3C21.3559 11.3 20.9681 11.5413 20.7606 11.8999H14.7778V9.5999H19.0001C19.3315 9.5999 19.6001 9.33127 19.6001 8.9999V6.83962C19.9588 6.63214 20.2002 6.24431 20.2002 5.8001C20.2002 5.13736 19.6629 4.6001 19.0002 4.6001C18.3375 4.6001 17.8002 5.13736 17.8002 5.8001C17.8002 6.24423 18.0415 6.632 18.4001 6.8395V8.3999H14.7778V3.11111C14.7778 1.39514 16.1729 0 17.8889 0Z" fill="url(#paint1_linear_5756_6103)"/>
<defs>
<linearGradient id="paint0_linear_5756_6103" x1="0" y1="0" x2="24.7172" y2="27.8069" gradientUnits="userSpaceOnUse">
<stop stop-color="#57CCEF"/>
<stop offset="1" stop-color="#86E5C9"/>
</linearGradient>
<linearGradient id="paint1_linear_5756_6103" x1="0" y1="0" x2="24.7172" y2="27.8069" gradientUnits="userSpaceOnUse">
<stop stop-color="#57CCEF"/>
<stop offset="1" stop-color="#86E5C9"/>
</linearGradient>
</defs>
</svg>
