<svg width="14" height="14" viewBox="0 0 14 14" fill="none" xmlns="http://www.w3.org/2000/svg">
<path d="M13.8618 5.85349C13.3129 2.46179 10.417 0 6.97591 0C3.12944 0 0 3.12944 0 6.97591C0 10.8224 3.12944 13.9518 6.97591 13.9518C7.2087 13.9518 7.44259 13.9404 7.67083 13.9176C7.95097 13.8897 8.15554 13.64 8.12764 13.3599C8.09974 13.0798 7.84845 12.8777 7.56988 12.9031C7.50984 12.909 7.4476 12.9079 7.38662 12.912V11.2797C7.38662 10.9981 7.15838 10.7699 6.87683 10.7699C6.59529 10.7699 6.36704 10.9981 6.36704 11.2797V12.9012C3.53545 12.6123 1.28827 10.3306 1.04545 7.4857H2.57309C2.85464 7.4857 3.08288 7.25745 3.08288 6.97591C3.08288 6.69436 2.85464 6.46612 2.57309 6.46612H1.04545C1.28827 3.6212 3.5353 1.33937 6.36704 1.05046V2.67216C6.36704 2.95371 6.59529 3.18195 6.87683 3.18195C7.15838 3.18195 7.38662 2.95371 7.38662 2.67216V1.03792C10.1412 1.22384 12.4087 3.25751 12.8553 6.01668C12.9062 6.33146 12.9321 6.65408 12.9321 6.97591C12.9321 7.27517 12.9095 7.57646 12.8651 7.87149C12.8233 8.1499 13.0152 8.40965 13.2934 8.45151C13.5707 8.49211 13.8316 8.30164 13.8734 8.02324C13.9254 7.67654 13.9515 7.32647 13.9517 6.97591C13.9518 6.59968 13.9214 6.22204 13.8618 5.85349Z" fill="#FCB17A"/>
<path d="M12.6534 9.09435H9.10622C8.82468 9.09435 8.59643 9.3226 8.59643 9.60414C8.59643 9.88569 8.82468 10.1139 9.10622 10.1139H12.6534C12.935 10.1139 13.1632 9.88569 13.1632 9.60414C13.1632 9.3226 12.935 9.09435 12.6534 9.09435ZM12.6269 10.9561H9.07957C8.79803 10.9561 8.56978 11.1843 8.56978 11.4658C8.56978 11.7474 8.79803 11.9756 9.07957 11.9756H12.6268C12.9083 11.9756 13.1366 11.7474 13.1366 11.4658C13.1366 11.1843 12.9085 10.9561 12.6269 10.9561ZM12.6269 12.8178H9.07957C8.79803 12.8178 8.56978 13.046 8.56978 13.3276C8.56978 13.6091 8.79803 13.8373 9.07957 13.8373H12.6268C12.9083 13.8373 13.1366 13.6091 13.1366 13.3276C13.1366 13.046 12.9085 12.8178 12.6269 12.8178ZM10.0963 4.32314C9.89724 4.12406 9.57447 4.12406 9.37538 4.32314L6.80213 6.89623L5.16836 5.26246C4.96927 5.06337 4.6465 5.06337 4.44741 5.26246C4.24832 5.46155 4.24832 5.78432 4.44741 5.98341L6.08134 7.61734L5.75606 7.94262C5.55697 8.14171 5.55697 8.46448 5.75606 8.66357C5.95515 8.86266 6.27792 8.86266 6.47701 8.66357L6.80245 8.33813L7.12773 8.66357C7.32682 8.86266 7.64959 8.86266 7.84868 8.66357C8.04776 8.46448 8.04776 8.14171 7.84868 7.94262L7.5234 7.61718L10.0965 5.04409C10.2954 4.845 10.2954 4.52223 10.0963 4.32314Z" fill="#FCB17A"/>
</svg>
