<svg width="32" height="26" viewBox="0 0 32 26" fill="none" xmlns="http://www.w3.org/2000/svg">
<path fill-rule="evenodd" clip-rule="evenodd" d="M13 3C13 1.34315 14.3431 0 16 0C17.6569 0 19 1.34315 19 3C19 4.30622 18.1652 5.41746 17 5.82929V10H23C24.6569 10 26 11.3431 26 13V16H27C28.6569 16 30 17.3431 30 19V21.208C30.883 21.5938 31.5 22.4748 31.5 23.5C31.5 24.8807 30.3807 26 29 26C27.6193 26 26.5 24.8807 26.5 23.5C26.5 22.4748 27.117 21.5938 28 21.208V19C28 18.4477 27.5523 18 27 18H23C22.4477 18 22 18.4477 22 19V21.208C22.8829 21.5938 23.5 22.4748 23.5 23.5C23.5 24.8807 22.3807 26 21 26C19.6193 26 18.5 24.8807 18.5 23.5C18.5 22.4748 19.117 21.5938 20 21.208V19C20 17.3431 21.3431 16 23 16H24V13C24 12.4477 23.5523 12 23 12H9C8.44772 12 8 12.4477 8 13V16H9.00001C10.6569 16 12 17.3431 12 19V21.208C12.883 21.5938 13.5 22.4748 13.5 23.5C13.5 24.8807 12.3807 26 11 26C9.61929 26 8.5 24.8807 8.5 23.5C8.5 22.4748 9.11705 21.5938 10 21.208V19C10 18.4477 9.55229 18 9.00001 18H5C4.44772 18 4 18.4477 4 19V21.208C4.88295 21.5938 5.5 22.4748 5.5 23.5C5.5 24.8807 4.38071 26 3 26C1.61929 26 0.5 24.8807 0.5 23.5C0.5 22.4748 1.11705 21.5938 2 21.208V19C2 17.3431 3.34315 16 5 16H6V13C6 11.3431 7.34315 10 9 10H15V5.82929C13.8348 5.41746 13 4.30622 13 3ZM16 2C15.4477 2 15 2.44772 15 3C15 3.55228 15.4477 4 16 4C16.5523 4 17 3.55228 17 3C17 2.44772 16.5523 2 16 2ZM2.5 23.5C2.5 23.2239 2.72386 23 3 23C3.27614 23 3.5 23.2239 3.5 23.5C3.5 23.7761 3.27614 24 3 24C2.72386 24 2.5 23.7761 2.5 23.5ZM11 23C10.7239 23 10.5 23.2239 10.5 23.5C10.5 23.7761 10.7239 24 11 24C11.2761 24 11.5 23.7761 11.5 23.5C11.5 23.2239 11.2761 23 11 23ZM20.5 23.5C20.5 23.2239 20.7239 23 21 23C21.2761 23 21.5 23.2239 21.5 23.5C21.5 23.7761 21.2761 24 21 24C20.7239 24 20.5 23.7761 20.5 23.5ZM29 23C28.7239 23 28.5 23.2239 28.5 23.5C28.5 23.7761 28.7239 24 29 24C29.2761 24 29.5 23.7761 29.5 23.5C29.5 23.2239 29.2761 23 29 23Z" fill="url(#paint0_linear_4882_137901)"/>
<defs>
<linearGradient id="paint0_linear_4882_137901" x1="0.5" y1="0" x2="26.1029" y2="30.5266" gradientUnits="userSpaceOnUse">
<stop stop-color="#57CCEF"/>
<stop offset="1" stop-color="#86E5C9"/>
</linearGradient>
</defs>
</svg>
