<svg width="20" height="20" viewBox="0 0 20 20" fill="none" xmlns="http://www.w3.org/2000/svg">
<g clip-path="url(#clip0_15972_152649)">
<path d="M11.6488 13.9211C11.6488 14.2885 11.5644 14.5803 11.3939 14.7965C11.2234 15.0127 10.9843 15.1217 10.6785 15.1217C10.3779 15.1217 10.1423 15.0092 9.97007 14.7824C9.7978 14.5557 9.71167 14.2639 9.71167 13.907C9.71167 13.5449 9.79956 13.2514 9.97534 13.0246C10.1529 12.7979 10.3937 12.6836 10.6996 12.6836C11.0019 12.6836 11.2357 12.7943 11.4009 13.0158C11.5662 13.2373 11.6488 13.5396 11.6488 13.9211Z" fill="#60A9FE"/>
<path fill-rule="evenodd" clip-rule="evenodd" d="M2.57975 10.1523C2.5692 10.1549 2.55819 10.1562 2.54688 10.1562H1.28125C1.12656 10.1562 1 10.2828 1 10.4375V17.4688C1 17.6234 1.12656 17.75 1.28125 17.75H2.6875C2.6875 18.3705 2.93887 18.933 3.34668 19.3408C3.75449 19.7486 4.31699 20 4.9375 20H16.4688C16.9346 20 17.3125 19.6221 17.3125 19.1562V18.0312C17.3125 17.8766 17.4391 17.75 17.5938 17.75H18.7188C18.8734 17.75 19 17.6234 19 17.4688V10.4375C19 10.2828 18.8734 10.1562 18.7188 10.1562H17.4531C17.3758 10.1562 17.3125 10.093 17.3125 10.0156V7.52832C17.3125 7.22949 17.1947 6.94297 16.9838 6.73203L12.5787 2.32871C12.3678 2.11777 12.083 2 11.7842 2H9.5H6V3.125H9.5H11.125C11.7455 3.125 12.25 3.62949 12.25 4.25V6.78125C12.25 6.93594 12.3766 7.0625 12.5312 7.0625H15.0625C15.683 7.0625 16.1875 7.56699 16.1875 8.1875V10.0156C16.1875 10.093 16.1242 10.1562 16.0469 10.1562H3.95312C3.94181 10.1562 3.9308 10.1549 3.92025 10.1523H2.57975ZM14.5967 5.9375L13.375 4.71582V5.86719C13.375 5.90586 13.4066 5.9375 13.4453 5.9375H14.5967ZM11.967 15.2645C12.2992 14.9094 12.4662 14.4453 12.4662 13.874C12.4662 13.3273 12.3062 12.8773 11.9863 12.5293C11.6664 12.1795 11.2445 12.0055 10.7207 12.0055C10.1705 12.0055 9.72754 12.1865 9.3918 12.5469C9.05606 12.9072 8.88906 13.3748 8.88906 13.9496C8.88906 14.4928 9.0543 14.9375 9.37949 15.282C9.7082 15.6266 10.1354 15.7988 10.6609 15.7988C11.1988 15.7988 11.6348 15.6213 11.967 15.2645ZM7.0416 15.1783C6.66543 15.1783 6.33145 15.0553 6.03437 14.8109L6.03613 15.5949C6.30332 15.7303 6.64785 15.7988 7.06797 15.7988C7.52676 15.7988 7.88184 15.7057 8.13144 15.5211C8.38105 15.3365 8.50586 15.0676 8.50586 14.716C8.50586 14.4752 8.4373 14.2695 8.3002 14.0955C8.16309 13.9215 7.91172 13.7562 7.54785 13.5998C7.23672 13.4645 7.0416 13.3555 6.9625 13.2764C6.8834 13.1973 6.84473 13.1094 6.84473 13.0145C6.84473 12.8967 6.90098 12.8018 7.01699 12.7314C7.13301 12.6611 7.28594 12.626 7.4793 12.626C7.80977 12.626 8.09805 12.7104 8.34414 12.8773V12.1426C8.10156 12.0512 7.80098 12.0037 7.44238 12.0037C7.01348 12.0037 6.6707 12.0986 6.41055 12.2867C6.15039 12.4748 6.02031 12.7402 6.02031 13.0812C6.02031 13.5471 6.30684 13.9004 6.87988 14.143C7.24551 14.2941 7.46875 14.4154 7.55488 14.5033C7.64102 14.5912 7.6832 14.6844 7.6832 14.7846C7.6832 14.9006 7.62871 14.9937 7.52148 15.0676C7.41426 15.1414 7.2543 15.1783 7.0416 15.1783ZM4.04453 15.1221C3.87051 15.1221 3.71582 15.0693 3.58047 14.9674V15.7039C3.73691 15.7672 3.90918 15.7988 4.09375 15.7988C4.51035 15.7988 4.83027 15.6687 5.05352 15.4121C5.27676 15.152 5.38926 14.7811 5.38926 14.2959H5.39102V12.067H4.60879V14.2678C4.60879 14.8373 4.4207 15.1221 4.04453 15.1221ZM16.0469 18.875C16.1242 18.875 16.1875 18.8117 16.1875 18.7344V17.8906C16.1875 17.8133 16.1242 17.75 16.0469 17.75H3.8125C3.8125 18.3705 4.31699 18.875 4.9375 18.875H16.0469ZM15.5494 15.7355H16.3492V12.067H15.6074V14.1588C15.6074 14.4084 15.6145 14.5771 15.6303 14.665H15.618C15.5951 14.6229 15.5354 14.5262 15.4352 14.3732L13.9393 12.067H13.0867V15.7355H13.8285V13.649C13.8285 13.3854 13.8215 13.1902 13.8074 13.0637H13.8197C13.8566 13.1393 13.9146 13.2395 13.9955 13.3625L15.5494 15.7355Z" fill="#60A9FE"/>
<path d="M1.72982 1.00829C1.85997 1.00829 2.00824 1.30552 2.08567 1.54298C2.51236 3.01586 4.44152 4.57509 6.18122 4.76771V4.74944C6.18122 4.25793 6.35585 3.90756 6.70346 3.68007C6.88633 3.56549 7.07743 3.50405 7.27677 3.50405C7.50247 3.50405 7.72817 3.58376 7.92092 3.73154L10.5305 5.81051C10.8254 6.0297 11 6.38837 11 6.76531C11 7.13394 10.8254 7.49262 10.5387 7.71181L7.92092 9.79908C7.89456 9.81734 7.87809 9.83395 7.85173 9.84225C7.72982 9.91199 7.53048 10 7.28666 10C7.08731 10 6.89621 9.94686 6.72158 9.83395C6.28666 9.55332 6.21746 9.10664 6.1911 8.91402L6.18287 8.87915C6.17463 8.85258 6.17463 8.81771 6.17463 8.79114V8.70314C3.49588 8.25646 1 5.50498 1 2.85811C1 2.3666 1.06919 1.86844 1.20923 1.39519C1.27842 1.16604 1.51236 0.955154 1.72982 1.00829ZM7.25206 8.76458C7.2603 8.80775 7.27018 8.87915 7.28666 8.90406L9.85997 6.85332C9.88633 6.83505 9.9028 6.80018 9.9028 6.76531C9.9028 6.73044 9.89456 6.70387 9.85997 6.6773L7.26853 4.60996C7.26853 4.62822 7.2603 4.66309 7.2603 4.74114V5.319C7.2603 5.60793 7.04283 5.84538 6.75618 5.86199C5.0346 5.98487 3.23394 4.84575 2.13839 3.44261C2.50412 5.48505 4.6771 7.5524 6.74629 7.66697C7.03295 7.68524 7.25865 7.92103 7.25865 8.20996V8.75295L7.25206 8.76458Z" fill="#60A9FE"/>
</g>
<defs>
<clipPath id="clip0_15972_152649">
<rect width="20" height="20" fill="white"/>
</clipPath>
</defs>
</svg>
