<svg width="18" height="19" viewBox="0 0 18 19" fill="none" xmlns="http://www.w3.org/2000/svg">
<path d="M9.53599 15.0657L5.31702 7.75824C5.03576 7.27108 5.13871 6.88686 5.62587 6.6056C6.11304 6.32433 6.49725 6.42728 6.77852 6.91445L10.9975 14.2219C11.2788 14.7091 11.1758 15.0933 10.6886 15.3746C10.2015 15.6558 9.81726 15.5529 9.53599 15.0657Z" fill="#60A9FE"/>
<path d="M10.9964 7.76605L6.77742 15.0735C6.49615 15.5607 6.11194 15.6636 5.62477 15.3824C5.13761 15.1011 5.03466 14.7169 5.31592 14.2297L9.53489 6.92226C9.81616 6.43509 10.2004 6.33214 10.6875 6.61341C11.1747 6.89467 11.2777 7.27889 10.9964 7.76605Z" fill="#60A9FE"/>
<path d="M15.9421 1.25536L17.911 4.37177C17.9655 4.45669 17.9961 4.55471 17.9997 4.65554C18.0033 4.75638 17.9797 4.85632 17.9314 4.9449C17.883 5.03348 17.8118 5.10744 17.7251 5.15901C17.6383 5.21059 17.5393 5.2379 17.4384 5.23806H16.3134C16.3134 5.01428 16.2245 4.79965 16.0662 4.64141C15.908 4.48317 15.6934 4.39427 15.4696 4.39427C15.2458 4.39427 15.0312 4.48317 14.8729 4.64141C14.7147 4.79965 14.6258 5.01428 14.6258 5.23806H13.5007C13.4008 5.23591 13.3032 5.20717 13.2181 5.15479C13.133 5.10241 13.0633 5.02829 13.0163 4.94005C12.9693 4.85181 12.9467 4.75265 12.9508 4.65277C12.9549 4.55288 12.9855 4.45589 13.0395 4.37177L14.9971 1.25536C15.0481 1.17641 15.118 1.11149 15.2006 1.06654C15.2831 1.0216 15.3756 0.998047 15.4696 0.998047C15.5636 0.998047 15.6561 1.0216 15.7386 1.06654C15.8212 1.11149 15.8911 1.17641 15.9421 1.25536Z" fill="#60A9FE"/>
<path d="M2.25012 2.97656H7.61665C7.7245 2.97656 7.8313 2.99781 7.93094 3.03908C8.03059 3.08035 8.12113 3.14085 8.19739 3.21711C8.27365 3.29338 8.33415 3.38392 8.37542 3.48356C8.4167 3.5832 8.43794 3.69 8.43794 3.79786C8.43794 3.90571 8.4167 4.01251 8.37542 4.11215C8.33415 4.21179 8.27365 4.30233 8.19739 4.3786C8.12113 4.45486 8.03059 4.51536 7.93094 4.55663C7.8313 4.59791 7.7245 4.61915 7.61665 4.61915H2.76764C2.46926 4.61915 2.1831 4.73768 1.97211 4.94867C1.76112 5.15966 1.64259 5.44582 1.64259 5.74421V16.241C1.64259 16.5394 1.76112 16.8256 1.97211 17.0365C2.1831 17.2475 2.46926 17.3661 2.76764 17.3661H13.5007C13.7991 17.3661 14.0853 17.2475 14.2962 17.0365C14.5072 16.8256 14.6258 16.5394 14.6258 16.241V5.14793C14.6258 4.92414 14.7147 4.70952 14.8729 4.55127C15.0311 4.39303 15.2458 4.30413 15.4696 4.30413C15.6933 4.30413 15.908 4.39303 16.0662 4.55127C16.2245 4.70952 16.3134 4.92414 16.3134 5.14793V16.7473C16.3134 17.3441 16.0763 17.9164 15.6543 18.3384C15.2323 18.7603 14.66 18.9974 14.0632 18.9974H2.25012C1.65335 18.9974 1.08102 18.7603 0.659044 18.3384C0.237065 17.9164 0 17.3441 0 16.7473V5.22668C0 4.62991 0.237065 4.05759 0.659044 3.63561C1.08102 3.21363 1.65335 2.97656 2.25012 2.97656Z" fill="#60A9FE"/>
</svg>
