<svg width="18" height="19" viewBox="0 0 18 19" fill="none" xmlns="http://www.w3.org/2000/svg">
<path fill-rule="evenodd" clip-rule="evenodd" d="M10 1H9.5H7.21582C6.91699 1 6.63223 1.11777 6.42129 1.32871L2.01621 5.73203C1.80527 5.94297 1.6875 6.22949 1.6875 6.52832V9.01562C1.6875 9.09297 1.62422 9.15625 1.54688 9.15625H0.28125C0.126563 9.15625 0 9.28281 0 9.4375V16.4688C0 16.6234 0.126563 16.75 0.28125 16.75H1.40625C1.56094 16.75 1.6875 16.8766 1.6875 17.0312V18.1562C1.6875 18.6221 2.06543 19 2.53125 19H14.0625C14.683 19 15.2455 18.7486 15.6533 18.3408C16.0611 17.933 16.3125 17.3705 16.3125 16.75H17.7188C17.8734 16.75 18 16.6234 18 16.4688V9.4375C18 9.28281 17.8734 9.15625 17.7188 9.15625H16.4531C16.4385 9.15625 16.4243 9.15397 16.411 9.14975H15.089C15.0757 9.15397 15.0615 9.15625 15.0469 9.15625H2.95312C2.87578 9.15625 2.8125 9.09297 2.8125 9.01562V7.1875C2.8125 6.56699 3.31699 6.0625 3.9375 6.0625H6.46875C6.62344 6.0625 6.75 5.93594 6.75 5.78125V3.25C6.75 2.62949 7.25449 2.125 7.875 2.125H9.5H10V1ZM4.40332 4.9375L5.625 3.71582V4.86719C5.625 4.90586 5.59336 4.9375 5.55469 4.9375H4.40332ZM2.95312 17.875C2.87578 17.875 2.8125 17.8117 2.8125 17.7344V16.8906C2.8125 16.8133 2.87578 16.75 2.95312 16.75H15.1875C15.1875 17.3705 14.683 17.875 14.0625 17.875H2.95312Z" fill="#60A9FE"/>
<path d="M11.5365 12.8742C11.5365 13.4455 11.3695 13.9096 11.0373 14.2646C10.7051 14.6215 10.2691 14.799 9.73123 14.799C9.20564 14.799 8.77849 14.6268 8.44978 14.2822C8.12458 13.9377 7.95935 13.493 7.95935 12.9498C7.95935 12.375 8.12634 11.9074 8.46209 11.5471C8.79783 11.1867 9.2408 11.0057 9.79099 11.0057C10.3148 11.0057 10.7367 11.1797 11.0566 11.5295C11.3765 11.8775 11.5365 12.3275 11.5365 12.8742ZM5.10466 13.8111C5.40173 14.0555 5.73572 14.1785 6.11189 14.1785C6.32458 14.1785 6.48455 14.1416 6.59177 14.0678C6.699 13.9939 6.75349 13.9008 6.75349 13.7848C6.75349 13.6846 6.7113 13.5914 6.62517 13.5035C6.53904 13.4156 6.3158 13.2943 5.95017 13.1432C5.37712 12.9006 5.0906 12.5473 5.0906 12.0814C5.0906 11.7404 5.22068 11.475 5.48083 11.2869C5.74099 11.0988 6.08376 11.0039 6.51267 11.0039C6.87126 11.0039 7.17185 11.0514 7.41443 11.1428V11.8775C7.16833 11.7105 6.88005 11.6262 6.54958 11.6262C6.35623 11.6262 6.2033 11.6613 6.08728 11.7316C5.97126 11.802 5.91501 11.8969 5.91501 12.0146C5.91501 12.1096 5.95369 12.1975 6.03279 12.2766C6.11189 12.3557 6.30701 12.4646 6.61814 12.6C6.98201 12.7564 7.23337 12.9217 7.37048 13.0957C7.50759 13.2697 7.57615 13.4754 7.57615 13.7162C7.57615 14.0678 7.45134 14.3367 7.20173 14.5213C6.95212 14.7059 6.59705 14.799 6.13826 14.799C5.71814 14.799 5.37361 14.7305 5.10642 14.5951L5.10466 13.8111ZM2.65076 13.9676C2.78611 14.0695 2.9408 14.1223 3.11482 14.1223C3.49099 14.1223 3.67908 13.8375 3.67908 13.268V11.0672H4.4613V13.2961H4.45955C4.45955 13.7813 4.34705 14.1521 4.1238 14.4123C3.90056 14.6689 3.58064 14.799 3.16404 14.799C2.97947 14.799 2.8072 14.7674 2.65076 14.7041V13.9676ZM15.4195 14.7357H14.6197L13.0658 12.3627C12.9849 12.2396 12.9269 12.1395 12.89 12.0639H12.8777C12.8918 12.1904 12.8988 12.3855 12.8988 12.6492V14.7357H12.157V11.0672H13.0095L14.5054 13.3734C14.6056 13.5264 14.6654 13.623 14.6883 13.6652H14.7006C14.6847 13.5773 14.6777 13.4086 14.6777 13.159V11.0672H15.4195V14.7357Z" fill="white"/>
<path d="M10.6488 12.9211C10.6488 13.2885 10.5644 13.5803 10.3939 13.7965C10.2234 14.0127 9.98433 14.1217 9.67847 14.1217C9.37788 14.1217 9.14233 14.0092 8.97007 13.7824C8.7978 13.5557 8.71167 13.2639 8.71167 12.907C8.71167 12.5449 8.79956 12.2514 8.97534 12.0246C9.15288 11.7979 9.3937 11.6836 9.69956 11.6836C10.0019 11.6836 10.2357 11.7943 10.4009 12.0158C10.5662 12.2373 10.6488 12.5396 10.6488 12.9211Z" fill="#60A9FE"/>
<path d="M8.72982 8.99171C8.85997 8.99171 9.00824 8.69448 9.08567 8.45702C9.51236 6.98414 11.4415 5.42491 13.1812 5.23229V5.25056C13.1812 5.74207 13.3558 6.09244 13.7035 6.31993C13.8863 6.43451 14.0774 6.49595 14.2768 6.49595C14.5025 6.49595 14.7282 6.41624 14.9209 6.26846L17.5305 4.18949C17.8254 3.9703 18 3.61163 18 3.23469C18 2.86606 17.8254 2.50738 17.5387 2.28819L14.9209 0.200922C14.8946 0.182656 14.8781 0.166052 14.8517 0.157749C14.7298 0.088007 14.5305 0 14.2867 0C14.0873 0 13.8962 0.0531359 13.7216 0.166052C13.2867 0.446679 13.2175 0.893358 13.1911 1.08598L13.1829 1.12085C13.1746 1.14742 13.1746 1.18229 13.1746 1.20886V1.29686C10.4959 1.74354 8 4.49502 8 7.14189C8 7.6334 8.06919 8.13156 8.20923 8.60481C8.27842 8.83396 8.51236 9.04485 8.72982 8.99171ZM14.2521 1.23542C14.2603 1.19225 14.2702 1.12085 14.2867 1.09594L16.86 3.14668C16.8863 3.16495 16.9028 3.19982 16.9028 3.23469C16.9028 3.26956 16.8946 3.29613 16.86 3.3227L14.2685 5.39004C14.2685 5.37178 14.2603 5.33691 14.2603 5.25886V4.681C14.2603 4.39207 14.0428 4.15462 13.7562 4.13801C12.0346 4.01513 10.2339 5.15425 9.13839 6.55739C9.50412 4.51495 11.6771 2.4476 13.7463 2.33303C14.0329 2.31476 14.2586 2.07897 14.2586 1.79004V1.24705L14.2521 1.23542Z" fill="#60A9FE"/>
</svg>
