<svg width="19" height="18" viewBox="0 0 19 18" fill="none" xmlns="http://www.w3.org/2000/svg">
<path d="M5.16933 11.3864L9.38851 4.07853C9.66979 3.59134 10.054 3.48839 10.5412 3.76967C11.0284 4.05095 11.1314 4.43518 10.8501 4.92237L6.6309 12.2302C6.34962 12.7174 5.96538 12.8204 5.47819 12.5391C4.991 12.2578 4.88805 11.8736 5.16933 11.3864Z" fill="#60A9FE"/>
<path d="M6.63395 4.08049L10.8531 11.3883C11.1344 11.8755 11.0315 12.2598 10.5443 12.541C10.0571 12.8223 9.67285 12.7194 9.39157 12.2322L5.17238 4.92432C4.8911 4.43713 4.99405 4.0529 5.48124 3.77162C5.96843 3.49034 6.35267 3.5933 6.63395 4.08049Z" fill="#60A9FE"/>
<path d="M17.7431 15.9426L14.6827 17.9115C14.5978 17.966 14.4998 17.9967 14.399 18.0003C14.2981 18.0038 14.1982 17.9802 14.1096 17.9319C14.021 17.8836 13.947 17.8123 13.8955 17.7256C13.8439 17.6389 13.8166 17.5399 13.8164 17.439V16.3139C14.0402 16.3139 14.2548 16.225 14.4131 16.0667C14.5713 15.9085 14.6602 15.6938 14.6602 15.47C14.6602 15.2462 14.5713 15.0316 14.4131 14.8733C14.2548 14.7151 14.0402 14.6262 13.8164 14.6262V13.5011C13.8166 13.4002 13.8439 13.3012 13.8955 13.2144C13.947 13.1277 14.021 13.0565 14.1096 13.0081C14.1982 12.9598 14.2981 12.9362 14.399 12.9398C14.4998 12.9434 14.5978 12.974 14.6827 13.0285L17.7431 14.9862C17.8245 15.0367 17.8917 15.1071 17.9382 15.1908C17.9848 15.2744 18.0093 15.3686 18.0093 15.4644C18.0093 15.5602 17.9848 15.6544 17.9382 15.738C17.8917 15.8217 17.8245 15.8921 17.7431 15.9426Z" fill="#60A9FE"/>
<path d="M16.0217 2.25023V7.61704C16.0217 7.83487 15.9351 8.04378 15.7811 8.19781C15.6271 8.35184 15.4182 8.43838 15.2003 8.43838C14.9825 8.43838 14.7736 8.35184 14.6196 8.19781C14.4655 8.04378 14.379 7.83487 14.379 7.61704V2.76779C14.379 2.46939 14.2605 2.18321 14.0495 1.97221C13.8385 1.76121 13.5523 1.64267 13.2539 1.64267H2.75654C2.45814 1.64267 2.17196 1.76121 1.96096 1.97221C1.74996 2.18321 1.63142 2.46939 1.63142 2.76779V13.5014C1.63142 13.7998 1.74996 14.086 1.96096 14.297C2.17196 14.508 2.45814 14.6265 2.75654 14.6265H13.8502C14.074 14.6265 14.2886 14.7154 14.4469 14.8737C14.6051 15.0319 14.694 15.2466 14.694 15.4704C14.694 15.6942 14.6051 15.9088 14.4469 16.067C14.2886 16.2253 14.074 16.3142 13.8502 16.3142H2.25023C1.65343 16.3142 1.08108 16.0771 0.659078 15.6551C0.237078 15.2331 0 14.6608 0 14.064V2.25023C0 1.65343 0.237078 1.08108 0.659078 0.659078C1.08108 0.237078 1.65343 0 2.25023 0L13.7714 0C14.3682 0 14.9406 0.237078 15.3626 0.659078C15.7846 1.08108 16.0217 1.65343 16.0217 2.25023Z" fill="#60A9FE"/>
<path d="M17.7431 15.9426L14.6827 17.9115C14.5978 17.966 14.4998 17.9967 14.399 18.0003C14.2981 18.0038 14.1982 17.9802 14.1096 17.9319C14.021 17.8836 13.947 17.8123 13.8955 17.7256C13.8439 17.6389 13.8166 17.5399 13.8164 17.439V16.3139C14.0402 16.3139 14.2548 16.225 14.4131 16.0667C14.5713 15.9085 14.6602 15.6938 14.6602 15.47C14.6602 15.2462 14.5713 15.0316 14.4131 14.8733C14.2548 14.7151 14.0402 14.6262 13.8164 14.6262V13.5011C13.8166 13.4002 13.8439 13.3012 13.8955 13.2144C13.947 13.1277 14.021 13.0565 14.1096 13.0081C14.1982 12.9598 14.2981 12.9362 14.399 12.9398C14.4998 12.9434 14.5978 12.974 14.6827 13.0285L17.7431 14.9862C17.8245 15.0367 17.8917 15.1071 17.9382 15.1908C17.9848 15.2744 18.0093 15.3686 18.0093 15.4644C18.0093 15.5602 17.9848 15.6544 17.9382 15.738C17.8917 15.8217 17.8245 15.8921 17.7431 15.9426Z" fill="#60A9FE"/>
</svg>
