<svg width="18" height="19" viewBox="0 0 18 19" fill="none" xmlns="http://www.w3.org/2000/svg">
<path d="M11.25 17.8125H2.5C1.875 17.8125 1.25 17.3375 1.25 16.625V5.9375C1.25 5.225 1.875 4.75 2.5 4.75V3.5625C1.125 3.5625 0 4.63125 0 5.9375V16.625C0 17.9312 1.125 19 2.5 19H11.25C12.625 19 13.75 17.9312 13.75 16.625H12.5C12.5 17.2188 11.875 17.8125 11.25 17.8125ZM12.5 0H6.25C4.875 0 3.75 1.06875 3.75 2.375V13.0625C3.75 14.3687 4.875 15.4375 6.25 15.4375H15C16.375 15.4375 17.5 14.3687 17.5 13.0625V4.75L12.5 0ZM10.625 14.25H5.625C5.25 14.25 5 14.0125 5 13.6562C5 13.3 5.25 13.0625 5.625 13.0625H10.625C11 13.0625 11.25 13.3 11.25 13.6562C11.25 14.0125 11 14.25 10.625 14.25ZM14.375 11.875H5.625C5.25 11.875 5 11.6375 5 11.2812C5 10.925 5.25 10.6875 5.625 10.6875H14.375C14.75 10.6875 15 10.925 15 11.2812C15 11.6375 14.75 11.875 14.375 11.875ZM14.375 9.5H5.625C5.25 9.5 5 9.2625 5 8.90625C5 8.55 5.25 8.3125 5.625 8.3125H14.375C14.75 8.3125 15 8.55 15 8.90625C15 9.2625 14.75 9.5 14.375 9.5ZM12.5 4.75V1.78125L15.625 4.75H12.5Z" fill="#60A9FE"/>
</svg>
