<svg width="16" height="17" viewBox="0 0 16 17" fill="none" xmlns="http://www.w3.org/2000/svg">
<path d="M7.85562 1.41034L5.87857 0.556934C5.67963 0.479672 5.45848 0.482514 5.26159 0.564866C5.0647 0.647217 4.90739 0.802667 4.8227 0.998563C4.73801 1.19446 4.73253 1.41555 4.80741 1.6154C4.8823 1.81525 5.03172 1.9783 5.2243 2.0703C3.87502 2.63348 2.73603 3.60512 1.96727 4.8488C1.19852 6.09247 0.838613 7.5457 0.938098 9.0044C1.03758 10.4631 1.59146 11.854 2.52196 12.9818C3.45245 14.1096 4.71281 14.9176 6.12606 15.2923C6.19681 15.31 6.26934 15.3195 6.34225 15.3208C6.54216 15.3204 6.73514 15.2475 6.88532 15.1156C7.0355 14.9836 7.13267 14.8017 7.15874 14.6035C7.18482 14.4053 7.13804 14.2043 7.02711 14.038C6.91617 13.8717 6.74862 13.7514 6.5556 13.6993C5.45875 13.4074 4.48313 12.7743 3.76976 11.8915C3.05638 11.0087 2.64221 9.9219 2.58711 8.78821C2.53201 7.65453 2.83883 6.53269 3.46323 5.58485C4.08763 4.63701 4.99726 3.91227 6.06063 3.51539L5.92977 3.81977C5.88712 3.9193 5.86454 4.02627 5.86334 4.13454C5.86214 4.24281 5.88235 4.35025 5.92279 4.4507C5.96323 4.55114 6.02311 4.6426 6.099 4.71984C6.17489 4.79707 6.26529 4.85855 6.36501 4.90075C6.46632 4.94537 6.57575 4.96861 6.68646 4.96902C6.84661 4.97042 7.00371 4.92517 7.13859 4.83879C7.27346 4.75241 7.38027 4.62864 7.44599 4.48258L8.28516 2.49131C8.3701 2.29085 8.37265 2.06499 8.29225 1.86266C8.21185 1.66034 8.05498 1.49783 7.85562 1.41034ZM15.047 8.46513C15.0882 6.92741 14.6227 5.4188 13.7221 4.17173C12.8215 2.92466 11.5358 2.00834 10.0631 1.56395C9.95811 1.52796 9.84695 1.51351 9.73626 1.52149C9.62558 1.52946 9.51763 1.55968 9.4189 1.61035C9.32017 1.66101 9.23267 1.73108 9.16165 1.81635C9.09062 1.90162 9.03754 2.00034 9.00556 2.10661C8.97359 2.21288 8.96338 2.3245 8.97555 2.43481C8.98773 2.54511 9.02203 2.65183 9.07641 2.74856C9.13079 2.8453 9.20413 2.93007 9.29204 2.9978C9.37995 3.06553 9.48062 3.11483 9.58802 3.14274C10.6087 3.44701 11.5153 4.04877 12.1921 4.87108C12.8689 5.69339 13.2851 6.69888 13.3874 7.75897C13.4897 8.81905 13.2735 9.88557 12.7665 10.8221C12.2594 11.7587 11.4846 12.5228 10.541 13.0166C10.5929 12.9219 10.6257 12.8179 10.6374 12.7105C10.6491 12.6032 10.6396 12.4946 10.6094 12.3909C10.5791 12.2872 10.5288 12.1905 10.4611 12.1063C10.3935 12.0221 10.31 11.952 10.2153 11.9001C10.1206 11.8481 10.0166 11.8154 9.90921 11.8036C9.80185 11.7919 9.69323 11.8014 9.58955 11.8317C9.48587 11.8619 9.38916 11.9123 9.30495 11.9799C9.22074 12.0475 9.15067 12.1311 9.09874 12.2258L7.97509 14.0578C7.9171 14.1499 7.87806 14.2527 7.86025 14.3601C7.84245 14.4676 7.84624 14.5775 7.8714 14.6834C7.89656 14.7894 7.94259 14.8892 8.0068 14.9772C8.071 15.0651 8.1521 15.1394 8.24534 15.1956L10.0745 16.3335C10.1665 16.4029 10.272 16.4523 10.3843 16.4785C10.4966 16.5047 10.6131 16.507 10.7263 16.4854C10.8395 16.4638 10.947 16.4186 11.0417 16.3529C11.1364 16.2872 11.2163 16.2024 11.2762 16.1039C11.3362 16.0054 11.3748 15.8955 11.3896 15.7812C11.4044 15.6669 11.3951 15.5507 11.3623 15.4402C11.3295 15.3297 11.2739 15.2273 11.199 15.1396C11.1242 15.0519 11.0318 14.9809 10.9279 14.9311L10.6775 14.7746C11.9405 14.2617 13.0265 13.3917 13.8025 12.271C14.5786 11.1504 15.011 9.82778 15.047 8.46513Z" fill="#AAAAAA"/>
</svg>
