<svg width="16" height="14" viewBox="0 0 16 14" fill="none" xmlns="http://www.w3.org/2000/svg">
<path d="M7.70506 9.1489C7.70506 7.46381 8.54667 5.97775 9.82025 5.10707C9.84258 4.71903 9.83257 4.0017 9.45275 4.0017C9.45275 4.0017 9.23596 4.04524 9.32275 3.74068C9.36614 3.17528 9.36614 2.65323 9.32275 2.13136C9.27936 1.78327 9.36614 0.782892 8.67239 0.652469C8.41221 0.609115 8.15203 0.609115 7.89202 0.652469C7.58845 0.652469 7.28506 -2.06433e-09 6.85148 -1.94147e-09L5.89773 0.130422C5.46415 0.130422 5.50754 0.260845 5.29076 0.304378C5.07397 0.304378 4.81379 0.347912 4.597 0.391267C3.90325 0.565223 3.64325 1.52225 3.59985 1.87016C3.55646 2.17454 3.55646 3.1751 3.55646 3.69697C3.64325 4.00153 3.38307 4.00153 3.38307 4.00153C2.94949 3.95799 3.12289 5.34982 3.12289 5.34982C3.20967 5.65438 3.12289 5.82833 3.77325 6.08936C3.99003 6.65476 4.38022 7.08974 4.85718 7.3943C4.85718 7.3943 4.90058 7.9597 4.90058 8.35132C4.85718 8.30779 5.11736 9.3517 3.12306 9.65626C1.12859 9.96082 0.738406 10.6131 0.348225 10.9612C-0.0419564 11.3526 0.00143662 13.0055 0.00143662 13.0055L9.57489 13.0055C8.44114 12.1182 7.70506 10.7217 7.70506 9.1489Z" fill="#AAAAAA"/>
<path d="M12.013 5C9.81076 5 8.02588 6.79066 8.02588 9C8.02588 11.2087 9.81076 13 12.013 13C14.2152 13 16 11.2089 16 9.00021C16 6.79087 14.2152 5 12.013 5ZM14.0618 10.2118C14.3042 10.4627 14.3042 10.8696 14.0618 11.1207C13.8194 11.3716 13.4262 11.3716 13.1836 11.1207L12.013 9.90907L10.8421 11.1207C10.5997 11.3716 10.2065 11.3716 9.96391 11.1207C9.7215 10.8698 9.7215 10.4627 9.96391 10.2118L11.1348 9.00021L9.96391 7.78839C9.7215 7.53751 9.7215 7.13061 9.96391 6.87952C10.2063 6.62864 10.5995 6.62864 10.8421 6.87952L12.013 8.09134L13.1836 6.87952C13.426 6.62864 13.8192 6.62864 14.0618 6.87952C14.3042 7.1304 14.3042 7.5373 14.0618 7.78839L12.8911 9.00021L14.0618 10.2118Z" fill="#AAAAAA"/>
</svg>
