<svg width="13" height="16" viewBox="0 0 13 16" fill="none" xmlns="http://www.w3.org/2000/svg">
<path d="M1.44847 0C1.25825 0 1.0699 0.0394145 0.894163 0.115993C0.718427 0.192572 0.558749 0.304815 0.424247 0.446313C0.289744 0.587812 0.183051 0.755796 0.110258 0.940673C0.0374659 1.12555 -2.22909e-09 1.3237 0 1.52381V13.7143C-2.22909e-09 13.9144 0.0374659 14.1125 0.110258 14.2974C0.183051 14.4823 0.289744 14.6503 0.424247 14.7918C0.558749 14.9333 0.718427 15.0455 0.894163 15.1221C1.0699 15.1987 1.25825 15.2381 1.44847 15.2381H4.3454V13.7905L11.5877 6.17143V4.57143L7.24234 0H1.44847ZM6.51811 1.14286L10.5014 5.33333H6.51811V1.14286ZM11.6602 8.38095C11.5513 8.40003 11.4503 8.45312 11.3705 8.53333L10.6462 9.29524L12.1671 10.8952L12.8914 10.1333C13.0362 9.9581 13.0362 9.69905 12.8914 9.52381L11.9499 8.53333C11.9154 8.48686 11.8715 8.44907 11.8214 8.42271C11.7713 8.39635 11.7162 8.38208 11.6602 8.38095ZM10.2117 9.75238L5.79387 14.4V16H7.31476L11.7326 11.3524L10.2117 9.75238Z" fill="#60A9FE"/>
</svg>
