<svg width="13" height="14" viewBox="0 0 13 14" fill="none" xmlns="http://www.w3.org/2000/svg">
<path d="M2.01741 0C1.85097 0 1.68616 0.0344877 1.53239 0.101494C1.37862 0.1685 1.23891 0.266713 1.12122 0.390524C1.00353 0.514336 0.910169 0.661321 0.846476 0.823089C0.782783 0.984856 0.75 1.15824 0.75 1.33333V12C0.75 12.1751 0.782783 12.3485 0.846476 12.5102C0.910169 12.672 1.00353 12.819 1.12122 12.9428C1.23891 13.0666 1.37862 13.1648 1.53239 13.2318C1.68616 13.2988 1.85097 13.3333 2.01741 13.3333H4.55223V12.0667L10.8893 5.4V4L7.08705 0H2.01741ZM6.45334 1L9.93872 4.66667H6.45334V1ZM10.9526 7.33333C10.8574 7.35003 10.769 7.39648 10.6992 7.46667L10.0655 8.13333L11.3962 9.53333L12.0299 8.86667C12.1567 8.71333 12.1567 8.48667 12.0299 8.33333L11.2061 7.46667C11.176 7.426 11.1376 7.39293 11.0937 7.36987C11.0499 7.3468 11.0017 7.33432 10.9526 7.33333ZM9.68524 8.53333L5.81964 12.6V14H7.15042L11.016 9.93333L9.68524 8.53333Z" fill="#AAAAAA"/>
</svg>
