<svg width="14" height="14" viewBox="0 0 14 14" fill="none" xmlns="http://www.w3.org/2000/svg">
<g clip-path="url(#clip0_17225_165787)">
<path d="M1.79402 2.19511H1.77994C1.61369 2.19511 1.47438 2.31281 1.44211 2.46864L1.43514 2.53747V9.35887C1.43514 9.52394 1.55367 9.6624 1.71063 9.6943L1.77994 9.70122H12.3473C12.5136 9.70122 12.6529 9.58353 12.6852 9.42769L12.6921 9.35873V2.53054C12.6921 2.36548 12.5736 2.22701 12.4167 2.19973L12.3472 2.19511L1.79389 2.18819M1.96957 1L12.8105 1.00692C13.4333 1.00692 13.9438 1.47742 13.9958 2.08054L14 2.19511V9.70136C14 10.2281 13.6973 10.8214 13.0186 10.8788L13.0227 10.8825H1.18959C0.573535 10.8825 0.0634375 10.412 0.00546875 9.81471L0 9.70136V2.18805C0 1.76873 0.610586 1.00692 1.33861 1.00692M9.48684 12C9.84791 12 10.1434 12.2933 10.1434 12.652C10.1434 13.0105 9.84791 13.304 9.48684 13.304H5C4.63893 13.304 4.34348 13.0106 4.34348 12.652C4.34348 12.2935 4.63893 12 5 12H9.48684Z" fill="#AAAAAA"/>
<path d="M1.79402 2.19511H1.77994C1.61369 2.19511 1.47438 2.31281 1.44211 2.46864L1.43514 2.53747V9.35887C1.43514 9.52394 1.55367 9.6624 1.71063 9.6943L1.77994 9.70122H12.3473C12.5136 9.70122 12.6529 9.58353 12.6852 9.42769L12.6921 9.35873V2.53054C12.6921 2.36548 12.5736 2.22701 12.4167 2.19973L12.3472 2.19511L1.79389 2.18819M1.96957 1L12.8105 1.00692C13.4333 1.00692 13.9438 1.47742 13.9958 2.08054L14 2.19511V9.70136C14 10.2281 13.6973 10.8214 13.0186 10.8788L13.0227 10.8825H1.18959C0.573535 10.8825 0.0634375 10.412 0.00546875 9.81471L0 9.70136V2.18805C0 1.76873 0.610586 1.00692 1.33861 1.00692M9.48684 12C9.84791 12 10.1434 12.2933 10.1434 12.652C10.1434 13.0105 9.84791 13.304 9.48684 13.304H5C4.63893 13.304 4.34348 13.0106 4.34348 12.652C4.34348 12.2935 4.63893 12 5 12H9.48684Z" stroke="#AAAAAA" stroke-width="0.2"/>
</g>
<defs>
<clipPath id="clip0_17225_165787">
<rect width="14" height="14" fill="white"/>
</clipPath>
</defs>
</svg>
