<svg width="13" height="13" viewBox="0 0 13 13" fill="none" xmlns="http://www.w3.org/2000/svg">
<path d="M9.97118 9.51912C9.97118 8.72774 9.05752 7.75313 8.33096 7.64314L9.31652 5.98701H7.03598C7.44605 5.38614 7.71945 4.59463 7.71945 3.71528V3.51009C8.60436 3.34887 9.17985 3.09239 9.17985 2.83592C9.17985 2.55749 8.5396 2.30095 7.56117 2.13973C7.51802 1.9052 6.85616 0.00727124 6.07923 0.00727124C5.73393 0.00727124 5.46046 0.190441 5.28064 0.468929C5.28064 0.608207 5.14397 0.747352 4.96408 0.747352C4.8058 0.747352 4.66913 0.630086 4.64758 0.490875C4.48918 0.212519 4.19423 0 3.84892 0C3.09354 0 2.38846 1.74404 2.23025 2.18375C1.38856 2.34498 0.841753 2.57944 0.841753 2.85793C0.841753 3.13635 1.4101 3.37082 2.30221 3.53211V3.73729C2.30221 4.61665 2.55401 5.40809 2.98569 6.00902H0.705084L1.68351 7.63586C0.956812 7.6358 0 8.65443 0 9.54113L0.02161 12.2086C0.02161 12.6483 0.359713 13 0.798598 13H9.22301C9.32516 13.0004 9.42639 12.9803 9.52085 12.9406C9.61531 12.901 9.70114 12.8427 9.77338 12.7692C9.84561 12.6956 9.90283 12.6082 9.94172 12.5119C9.98062 12.4157 10.0004 12.3126 9.99999 12.2086L9.97118 9.51912ZM4.39566 12.3478H4.02875L3.34527 7.2181L4.77699 8.49314L4.39566 12.3478V12.3478ZM5.96398 12.3478H5.59706L5.20854 8.49314L6.64739 7.19609L5.96398 12.3478ZM6.82728 4.25024V4.41146H6.64745C6.64745 4.41146 6.53233 5.40809 5.92082 5.40809C5.30212 5.40809 5.18706 4.41146 5.18706 4.41146H4.77705C4.68354 5.22485 4.27346 5.40809 4.05042 5.40809C3.50368 5.40809 3.34534 4.66794 3.32379 4.41146H3.13676V4.08908H4.50365V4.25031H5.41737V4.08908H6.78425V4.25031H6.82728V4.25024Z" fill="url(#paint0_linear_9966_192559)"/>
<path d="M10.0002 1.99805H13.0002V3.26292H10.0002V1.99805V1.99805ZM10.0002 4.35016H11.834V5.63566H10.0002V4.35016ZM10.0002 6.71255H12.6268V7.99805H10.0002V6.71255V6.71255Z" fill="url(#paint1_linear_9966_192559)"/>
<defs>
<linearGradient id="paint0_linear_9966_192559" x1="0" y1="0" x2="12.5651" y2="9.66543" gradientUnits="userSpaceOnUse">
<stop stop-color="#57CCEF"/>
<stop offset="1" stop-color="#86E5C9"/>
</linearGradient>
<linearGradient id="paint1_linear_9966_192559" x1="10.0002" y1="1.99805" x2="14.8002" y2="4.39805" gradientUnits="userSpaceOnUse">
<stop stop-color="#57CCEF"/>
<stop offset="1" stop-color="#86E5C9"/>
</linearGradient>
</defs>
</svg>
