<svg width="14" height="16" viewBox="0 0 14 16" fill="none" xmlns="http://www.w3.org/2000/svg">
<path d="M2.79958 0C3.44294 0.00032565 4.06657 0.230825 4.56561 0.652737C5.06464 1.07465 5.40862 1.66224 5.53972 2.31669C5.67082 2.97114 5.58103 3.65254 5.28546 4.2463C4.98989 4.84005 4.50655 5.30995 3.91674 5.57696C4.29473 6.31445 4.98561 6.76174 6.99945 7.22867C9.27473 7.75669 10.9746 8.71237 11.6183 10.2135C12.1946 10.304 12.7294 10.5792 13.148 11.0005C13.5667 11.4219 13.8484 11.9685 13.9538 12.5642C14.0592 13.1598 13.9831 13.7748 13.7361 14.3234C13.4891 14.8719 13.0835 15.3268 12.5759 15.6244C12.0683 15.922 11.4839 16.0477 10.9043 15.9838C10.3246 15.9199 9.77866 15.6696 9.34244 15.2679C8.90622 14.8662 8.6015 14.3331 8.47079 13.7429C8.34008 13.1527 8.38988 12.5348 8.61325 11.9754C8.85999 11.3579 9.29573 10.8626 9.83436 10.5506C9.28523 9.67786 8.84634 9.24257 6.95115 8.74619C5.4602 8.46472 4.30523 8.00325 3.49886 7.35413L3.49991 10.2724C4.05241 10.4206 4.54818 10.7405 4.92084 11.1895C5.2935 11.6385 5.52526 12.195 5.58509 12.7846C5.64492 13.3743 5.52997 13.9688 5.25563 14.4886C4.98129 15.0085 4.56064 15.4289 4.05002 15.6935C3.53939 15.9581 2.96316 16.0543 2.39846 15.9692C1.83376 15.8841 1.30755 15.6218 0.890273 15.2175C0.473 14.8131 0.184582 14.2859 0.0636323 13.7065C-0.0573172 13.1271 -0.00502561 12.5231 0.213506 11.9754C0.379625 11.5595 0.636407 11.1892 0.963635 10.8939C1.29086 10.5986 1.6796 10.3862 2.09925 10.2735V5.72424C1.44146 5.54527 0.868819 5.12374 0.488186 4.5383C0.107553 3.95286 -0.0550631 3.24352 0.030684 2.54265C0.116431 1.84178 0.444684 1.19727 0.954183 0.729406C1.46368 0.261538 2.11962 0.00227473 2.79958 0ZM2.79958 11.6372C2.42838 11.6372 2.07238 11.7904 1.80991 12.0632C1.54743 12.3359 1.39997 12.7058 1.39997 13.0915C1.39997 13.4772 1.54743 13.847 1.80991 14.1198C2.07238 14.3925 2.42838 14.5457 2.79958 14.5457C3.17078 14.5457 3.52677 14.3925 3.78925 14.1198C4.05173 13.847 4.19918 13.4772 4.19918 13.0915C4.19918 12.7058 4.05173 12.3359 3.78925 12.0632C3.52677 11.7904 3.17078 11.6372 2.79958 11.6372ZM11.1993 11.6372C10.8281 11.6372 10.4721 11.7904 10.2096 12.0632C9.94717 12.3359 9.79971 12.7058 9.79971 13.0915C9.79971 13.4772 9.94717 13.847 10.2096 14.1198C10.4721 14.3925 10.8281 14.5457 11.1993 14.5457C11.5705 14.5457 11.9265 14.3925 12.189 14.1198C12.4515 13.847 12.5989 13.4772 12.5989 13.0915C12.5989 12.7058 12.4515 12.3359 12.189 12.0632C11.9265 11.7904 11.5705 11.6372 11.1993 11.6372ZM2.79958 1.45424C2.61571 1.45424 2.43364 1.49187 2.26377 1.56498C2.0939 1.63809 1.93955 1.74525 1.80953 1.88034C1.67952 2.01543 1.57639 2.17581 1.50602 2.35231C1.43566 2.52881 1.39945 2.71799 1.39945 2.90903C1.39945 3.10008 1.43566 3.28925 1.50602 3.46576C1.57639 3.64226 1.67952 3.80263 1.80953 3.93772C1.93955 4.07281 2.0939 4.17997 2.26377 4.25308C2.43364 4.32619 2.61571 4.36382 2.79958 4.36382C3.17092 4.36382 3.52704 4.21055 3.78962 3.93772C4.0522 3.6649 4.19971 3.29487 4.19971 2.90903C4.19971 2.5232 4.0522 2.15317 3.78962 1.88034C3.52704 1.60752 3.17092 1.45424 2.79958 1.45424Z" fill="#6dd8dd"/>
</svg>
