<svg width="12" height="9" viewBox="0 0 12 9" fill="none" xmlns="http://www.w3.org/2000/svg">
  <path d="M9.23996 5.37623C9.23996 5.17623 9.17196 5.00423 9.03196 4.85223L4.93596 0.764234C4.79196 0.620234 4.59196 0.496234 4.35196 0.392234C4.10396 0.288234 3.88396 0.240234 3.68396 0.240234H1.29996C1.09996 0.240234 0.927965 0.316234 0.783965 0.460234C0.639965 0.604234 0.563965 0.776234 0.563965 0.976234V3.35223C0.563965 3.55223 0.611965 3.78023 0.715965 4.02023C0.819965 4.26823 0.935965 4.46023 1.08796 4.60423L5.18396 8.70023C5.32796 8.84423 5.49996 8.90823 5.69996 8.90823C5.89996 8.90823 6.07196 8.84023 6.22396 8.70023L9.03196 5.89223C9.16396 5.74824 9.23996 5.57623 9.23996 5.37623ZM2.91196 2.59623C2.76796 2.74023 2.59596 2.80823 2.39596 2.80823C2.19596 2.80823 2.02396 2.74023 1.87996 2.59623C1.73596 2.45223 1.66796 2.28023 1.66796 2.08023C1.66796 1.88023 1.73596 1.70823 1.87996 1.56423C2.02396 1.42023 2.19596 1.35223 2.39596 1.35223C2.59596 1.35223 2.76796 1.42023 2.91196 1.56423C3.05596 1.70823 3.11996 1.88023 3.11996 2.08023C3.13196 2.28423 3.05596 2.45223 2.91196 2.59623ZM11.228 4.84823L7.13196 0.764234C6.98796 0.620234 6.78796 0.496234 6.54797 0.392234C6.29996 0.288234 6.07996 0.240234 5.87996 0.240234H4.59196C4.79196 0.240234 5.01996 0.288234 5.25996 0.392234C5.50796 0.496234 5.69996 0.612234 5.84396 0.764234L9.93996 4.84823C10.084 5.00023 10.152 5.17223 10.152 5.37223C10.152 5.57223 10.084 5.74423 9.93996 5.88823L7.25596 8.58023C7.37196 8.69623 7.47596 8.78024 7.55996 8.83624C7.64396 8.89223 7.75996 8.91224 7.89596 8.91224C8.09596 8.91224 8.26796 8.84423 8.41996 8.70023L11.228 5.88423C11.372 5.74023 11.436 5.56823 11.436 5.36824C11.436 5.16823 11.368 5.00423 11.228 4.84823Z" fill="url(#paint0_linear_9644_212311)"/>
  <defs>
  <linearGradient id="paint0_linear_9644_212311" x1="0.563965" y1="0.240234" x2="9.01895" y2="10.8402" gradientUnits="userSpaceOnUse">
  <stop stop-color="#57CCEF"/>
  <stop offset="1" stop-color="#86E5C9"/>
  </linearGradient>
  </defs>
  </svg>
  