<svg width="10" height="10" viewBox="0 0 10 10" fill="none" xmlns="http://www.w3.org/2000/svg">
  <path d="M7.67014 7.3224C7.67014 6.71365 6.96733 5.96395 6.40843 5.87933L7.16655 4.60539H5.41229C5.72773 4.14319 5.93804 3.53433 5.93804 2.8579V2.70007C6.61874 2.57605 7.06142 2.37876 7.06142 2.18147C7.06142 1.9673 6.56892 1.76996 5.81629 1.64595C5.78309 1.46554 5.27397 0.00559326 4.67633 0.00559326C4.41071 0.00559326 4.20035 0.146493 4.06203 0.360715C4.06203 0.467851 3.9569 0.574886 3.81852 0.574886C3.69677 0.574886 3.59164 0.484682 3.57506 0.377596C3.45321 0.163476 3.22633 0 2.96071 0C2.37965 0 1.83728 1.34157 1.71557 1.67981C1.06812 1.80383 0.647502 1.98419 0.647502 2.19841C0.647502 2.41258 1.08469 2.59294 1.77093 2.717V2.87484C1.77093 3.55127 1.96462 4.16007 2.29668 4.62232H0.542372L1.295 5.87374C0.736009 5.87369 0 6.65726 0 7.33933L0.0166231 9.39119C0.0166231 9.72943 0.276702 9.99999 0.614306 9.99999H7.09462C7.1732 10.0003 7.25107 9.98481 7.32373 9.95434C7.3964 9.92386 7.46242 9.87903 7.51798 9.82243C7.57355 9.76583 7.61756 9.69858 7.64748 9.62457C7.6774 9.55055 7.69263 9.47124 7.6923 9.39119L7.67014 7.3224ZM3.38128 9.49828H3.09904L2.57329 5.55238L3.6746 6.53319L3.38128 9.49828ZM4.58768 9.49828H4.30543L4.00657 6.53319L5.11338 5.53545L4.58768 9.49828ZM5.25175 3.26942V3.39343H5.11343C5.11343 3.39343 5.02487 4.16007 4.55448 4.16007C4.07855 4.16007 3.99004 3.39343 3.99004 3.39343H3.67465C3.60272 4.01912 3.28728 4.16007 3.11571 4.16007C2.69514 4.16007 2.57334 3.59072 2.55676 3.39343H2.4129V3.14545H3.46434V3.26947H4.16721V3.14545H5.21866V3.26947H5.25175V3.26942Z" fill="url(#paint0_linear_8915_187982)"/>
  <path d="M7.69238 1.53711H10.0001V2.51009H7.69238V1.53711ZM7.69238 3.34643H9.10298V4.33527H7.69238V3.34643ZM7.69238 5.16365H9.7128V6.15249H7.69238V5.16365Z" fill="url(#paint1_linear_8915_187982)"/>
  <defs>
  <linearGradient id="paint0_linear_8915_187982" x1="0" y1="0" x2="9.66543" y2="7.43494" gradientUnits="userSpaceOnUse">
  <stop stop-color="#57CCEF"/>
  <stop offset="1" stop-color="#86E5C9"/>
  </linearGradient>
  <linearGradient id="paint1_linear_8915_187982" x1="7.69238" y1="1.53711" x2="11.3847" y2="3.38326" gradientUnits="userSpaceOnUse">
  <stop stop-color="#57CCEF"/>
  <stop offset="1" stop-color="#86E5C9"/>
  </linearGradient>
  </defs>
  </svg>
  