<svg width="51" height="42" viewBox="0 0 51 42" fill="none" xmlns="http://www.w3.org/2000/svg">
  <path
    d="M36.1515 35.7179C35.6391 35.7179 35.1999 35.2674 35.1999 34.7418C35.1999 34.2161 35.6391 33.7656 36.1515 33.7656H39.6654C44.5703 33.7656 48.5966 29.6355 48.5966 24.6044C48.5966 19.5733 44.5703 15.5183 39.6654 15.5183C39.2262 15.5183 38.7138 15.5934 38.2745 15.5934L37.1764 15.7436V14.467C37.1764 7.78388 31.9056 2.37729 25.3902 2.37729C18.8748 2.37729 13.6772 7.85897 13.6772 14.5421V15.7436L12.5791 15.6685C12.213 15.5183 11.7738 15.5183 11.3346 15.5183C6.42972 15.5183 2.40337 19.5733 2.40337 24.6044C2.40337 29.6355 6.35651 33.7656 11.2613 33.7656H14.7753C15.2877 33.7656 15.7269 34.2161 15.7269 34.7418C15.7269 35.2674 15.2877 35.7179 14.7753 35.7179H11.2613C5.33162 35.7179 0.5 30.7619 0.5 24.6044C0.5 18.522 5.33162 13.5659 11.2613 13.5659H11.7738L11.847 13.0403C12.6523 5.90659 18.4356 0.5 25.4634 0.5C32.4912 0.5 38.3477 5.90659 39.0798 13.0403L39.153 13.5659H39.7386C45.6684 13.5659 50.5732 18.522 50.5732 24.6795C50.5732 30.7619 45.7416 35.793 39.7386 35.793H36.1515V35.7179Z"
    fill="#60A9FE"
  />
  <path
    d="M25.5364 41.4987C25.024 41.4987 24.5847 41.0481 24.5847 40.5225V25.9547C24.5847 25.4291 25.024 24.9785 25.5364 24.9785C26.0488 24.9785 26.4881 25.4291 26.4881 25.9547V40.5225C26.4881 41.0481 26.0488 41.4987 25.5364 41.4987Z"
    fill="#60A9FE"
  />
  <path
    d="M31.8324 32.4126C31.6128 32.4126 31.3932 32.3375 31.2468 32.1873L24.8778 26.7807C24.4386 26.4053 24.4386 25.8045 24.7314 25.354C24.8778 25.1287 25.1707 24.9785 25.4635 24.9785C25.6831 24.9785 25.9027 25.0536 26.0491 25.2038L32.4181 30.6104C32.8573 30.9858 32.8573 31.5866 32.5645 32.0371C32.4181 32.2624 32.1253 32.4126 31.8324 32.4126Z"
    fill="#60A9FE"
  />
  <path
    d="M19.1676 32.3375C18.8748 32.3375 18.5819 32.1873 18.4355 31.962C18.0695 31.5115 18.1427 30.9108 18.5819 30.6104L24.9509 25.2038C25.0973 25.0536 25.3169 24.9785 25.5366 24.9785C25.8294 24.9785 26.1222 25.1287 26.2686 25.354C26.415 25.5792 26.4882 25.8045 26.4882 26.1049C26.4882 26.3302 26.3418 26.6305 26.1222 26.7807L19.7532 32.1873C19.6068 32.2624 19.3872 32.3375 19.1676 32.3375Z"
    fill="#60A9FE"
  />
</svg>
