<svg width="15" height="14" viewBox="0 0 15 14" fill="none" xmlns="http://www.w3.org/2000/svg">
  <path d="M1.875 5.40909C1.875 3.87267 3.06338 2.61903 4.55527 2.54874C4.28119 3.49132 4.32053 4.49967 4.66718 5.41715C5.01384 6.33462 5.64839 7.10983 6.47226 7.62234C5.96967 8.04376 5.33858 8.27373 4.6875 8.27273C3.13418 8.27273 1.875 6.99065 1.875 5.40909ZM2.17012 11.2408C2.45763 10.5502 2.93789 9.96072 3.55136 9.54545H2.65625C1.95177 9.54545 1.27614 9.8304 0.777997 10.3376C0.279854 10.8448 0 11.5327 0 12.25L0 12.5682C0.000232624 12.7791 0.0826173 12.9813 0.22908 13.1304C0.375542 13.2795 0.574121 13.3634 0.781249 13.3636H1.88369C1.87793 13.3108 1.87503 13.2577 1.875 13.2045V12.7273C1.87414 12.2166 1.97452 11.711 2.17012 11.2408ZM14.0847 10.4774C13.7952 10.181 13.4508 9.94606 13.0715 9.78609C12.6922 9.62612 12.2855 9.54433 11.875 9.54545H5.625C4.7962 9.54545 4.00134 9.88068 3.41529 10.4774C2.82924 11.0741 2.5 11.8834 2.5 12.7273V13.2045C2.50023 13.4154 2.58262 13.6176 2.72908 13.7668C2.87554 13.9159 3.07412 13.9998 3.28125 14H14.2187C14.4259 13.9998 14.6244 13.9159 14.7709 13.7668C14.9174 13.6176 14.9998 13.4154 15 13.2045V12.7273C15.0011 12.3093 14.9208 11.8952 14.7637 11.509C14.6065 11.1228 14.3758 10.7722 14.0847 10.4774ZM12.5 3.81818C12.5 5.92693 10.8211 7.63636 8.74999 7.63636C6.6789 7.63636 5 5.92693 5 3.81818C5 1.70943 6.6789 0 8.74999 0C10.8211 0 12.5 1.70943 12.5 3.81818Z" fill="#AAAAAA"/>
  </svg>
  