<svg width="24" height="24" viewBox="0 0 24 24" fill="none" xmlns="http://www.w3.org/2000/svg">
  <path d="M17.1263 13.7578C17.1263 13.4968 17.0394 13.2731 16.8529 13.0743L11.5214 7.75509C11.335 7.56867 11.0739 7.40709 10.7632 7.27034C10.4401 7.1337 10.1543 7.07156 9.89331 7.07156H6.78638C6.52535 7.07156 6.30174 7.17101 6.11521 7.35742C5.92879 7.54384 5.82935 7.76756 5.82935 8.02859V11.1232C5.82935 11.3842 5.89148 11.6824 6.02812 11.9931C6.16487 12.3163 6.31398 12.5648 6.51287 12.7512L11.8444 18.0828C12.0308 18.2692 12.2546 18.3562 12.5155 18.3562C12.7765 18.3562 13.0001 18.2692 13.199 18.0828L16.8528 14.429C17.027 14.2425 17.1263 14.0188 17.1263 13.7578ZM8.88661 10.1413C8.7002 10.3277 8.47659 10.4147 8.21556 10.4147C7.95453 10.4147 7.73093 10.3277 7.54451 10.1413C7.3581 9.95489 7.27101 9.73129 7.27101 9.47014C7.27101 9.20911 7.35798 8.9855 7.54451 8.79909C7.73093 8.61267 7.95453 8.52558 8.21556 8.52558C8.47659 8.52558 8.70032 8.61255 8.88661 8.79909C9.07303 8.9855 9.16 9.20911 9.16 9.47014C9.17247 9.73117 9.07315 9.95489 8.88661 10.1413ZM19.7114 13.0743L14.3799 7.75509C14.1935 7.56867 13.9324 7.40709 13.6217 7.27034C13.2986 7.1337 13.0128 7.07156 12.7518 7.07156H11.0739C11.335 7.07156 11.6333 7.1337 11.944 7.27034C12.2672 7.40709 12.5156 7.5562 12.702 7.75509L18.0336 13.0743C18.22 13.2731 18.3071 13.4969 18.3071 13.7578C18.3071 14.0188 18.2201 14.2425 18.0336 14.429L14.5413 17.9337C14.6905 18.0828 14.8272 18.1947 14.939 18.2692C15.0509 18.3437 15.2 18.3686 15.374 18.3686C15.635 18.3686 15.8586 18.2816 16.0575 18.0952L19.7113 14.429C19.8977 14.2426 19.9847 14.0188 19.9847 13.7578C19.9848 13.4968 19.8979 13.2731 19.7114 13.0743Z" fill="#57CCEF"/>
  <circle cx="12" cy="12" r="11.5" stroke="#57CCEF"/>
  </svg>
  