<svg width="8" height="8" viewBox="0 0 8 8" fill="none" xmlns="http://www.w3.org/2000/svg">
<path d="M0.159282 0.159172C0.0572939 0.26112 0 0.399373 0 0.543528C0 0.687684 0.0572939 0.825937 0.159282 0.927885L3.2368 4.00328L0.159282 7.07868C0.0601845 7.18121 0.00535011 7.31854 0.00658989 7.46108C0.00782919 7.60362 0.065043 7.73997 0.165909 7.84077C0.266775 7.94157 0.403222 7.99874 0.545862 7.99998C0.688502 8.00122 0.825923 7.94642 0.928527 7.84739L4.00605 4.772L7.08357 7.84739C7.18664 7.94397 7.32326 7.9967 7.46453 7.9944C7.6058 7.99211 7.74064 7.93498 7.84052 7.83511C7.94039 7.73524 7.99746 7.60045 7.99965 7.45927C8.00185 7.3181 7.94899 7.1816 7.85227 7.07868L4.77529 4.00328L7.85282 0.927885C7.94946 0.824891 8.00222 0.688362 7.99993 0.547187C7.99763 0.406012 7.94047 0.271267 7.84052 0.171463C7.74058 0.0716595 7.6057 0.0146275 7.46443 0.0124349C7.32315 0.0102424 7.18657 0.0630613 7.08357 0.159715L4.00605 3.23457L0.928527 0.159172C0.826508 0.0572542 0.688159 0 0.543904 0C0.39965 0 0.261301 0.0572542 0.159282 0.159172Z" fill="#57CCEF"/>
</svg>
