<svg width="146" height="165" viewBox="0 0 146 165" fill="none" xmlns="http://www.w3.org/2000/svg">
<g clip-path="url(#clip0_15671_214380)">
<path fill-rule="evenodd" clip-rule="evenodd" d="M4.57667 74.0105L46.6472 56.9652C49.2579 55.9073 52.2335 57.162 53.2933 59.7673L75.9383 115.434C76.9984 118.039 75.7412 121.009 73.1305 122.067L31.06 139.112C28.4493 140.169 25.4736 138.915 24.4136 136.309L1.76854 80.6431C0.70881 78.0377 1.96601 75.0681 4.57667 74.0105Z" fill="url(#paint0_linear_15671_214380)" stroke="#57CCEF" stroke-width="3"/>
<path fill-rule="evenodd" clip-rule="evenodd" d="M16.015 64.1562C15.3666 62.9129 15 61.4993 15 60C15 55.0294 19.0294 51 24 51C28.076 51 31.5192 53.7096 32.6265 57.4258L37.9696 55.261C38.7531 54.9437 39.6456 55.3201 39.9636 56.1016L42.2666 61.7627C42.5846 62.5443 42.2074 63.435 41.424 63.7523L14.2435 74.7647C13.4603 75.0824 12.5678 74.7057 12.2498 73.9241L9.94679 68.2634C9.62884 67.4815 10.006 66.5907 10.7894 66.2734L16.015 64.1562Z" fill="url(#paint1_linear_15671_214380)"/>
<path d="M16.015 64.1562L16.5783 65.5464L18.1085 64.9264L17.345 63.4625L16.015 64.1562ZM32.6265 57.4258L31.1889 57.8542L31.6602 59.4358L33.1898 58.8161L32.6265 57.4258ZM37.9696 55.261L37.4065 53.8707L37.4063 53.8708L37.9696 55.261ZM39.9636 56.1016L41.353 55.5364L41.353 55.5364L39.9636 56.1016ZM42.2666 61.7627L40.8772 62.328L40.8772 62.328L42.2666 61.7627ZM41.424 63.7523L40.8609 62.362L40.8607 62.3621L41.424 63.7523ZM14.2435 74.7647L13.6802 73.3745L13.6796 73.3747L14.2435 74.7647ZM12.2498 73.9241L13.6392 73.3589L13.6392 73.3588L12.2498 73.9241ZM9.94679 68.2634L8.55729 68.8284L8.55738 68.8286L9.94679 68.2634ZM10.7894 66.2734L11.3525 67.6637L11.3527 67.6636L10.7894 66.2734ZM17.345 63.4625C16.8056 62.4283 16.5 61.252 16.5 60H13.5C13.5 61.7465 13.9276 63.3975 14.6851 64.8498L17.345 63.4625ZM16.5 60C16.5 55.8579 19.8579 52.5 24 52.5V49.5C18.201 49.5 13.5 54.201 13.5 60H16.5ZM24 52.5C27.3945 52.5 30.2659 54.7563 31.1889 57.8542L34.064 56.9975C32.7725 52.663 28.7576 49.5 24 49.5V52.5ZM33.1898 58.8161L38.5329 56.6513L37.4063 53.8708L32.0632 56.0356L33.1898 58.8161ZM38.5327 56.6513C38.5395 56.6485 38.5431 56.6484 38.5453 56.6484C38.5486 56.6485 38.5532 56.6492 38.5584 56.6514C38.5637 56.6536 38.5671 56.6563 38.5689 56.6581C38.57 56.6592 38.5718 56.661 38.5742 56.6669L41.353 55.5364C40.7223 53.9862 38.9548 53.2436 37.4065 53.8707L38.5327 56.6513ZM38.5742 56.6669L40.8772 62.328L43.656 61.1975L41.353 55.5364L38.5742 56.6669ZM40.8772 62.328C40.8796 62.3338 40.8794 62.3361 40.8794 62.3369C40.8794 62.3388 40.8789 62.3423 40.8771 62.3467C40.8752 62.3511 40.8729 62.3542 40.8711 62.356C40.87 62.3571 40.8677 62.3593 40.8609 62.362L41.987 65.1426C43.5372 64.5148 44.2873 62.7493 43.656 61.1975L40.8772 62.328ZM40.8607 62.3621L13.6802 73.3745L14.8067 76.1549L41.9872 65.1426L40.8607 62.3621ZM13.6796 73.3747C13.673 73.3774 13.6698 73.3775 13.6678 73.3774C13.6648 73.3774 13.6603 73.3767 13.6551 73.3745C13.65 73.3723 13.6465 73.3697 13.6446 73.3678C13.6435 73.3667 13.6416 73.3647 13.6392 73.3589L10.8604 74.4894C11.4907 76.0387 13.2581 76.7831 14.8073 76.1547L13.6796 73.3747ZM13.6392 73.3588L11.3362 67.6981L8.55738 68.8286L10.8604 74.4894L13.6392 73.3588ZM11.3363 67.6983C11.3339 67.6923 11.334 67.6899 11.334 67.689C11.334 67.687 11.3345 67.6834 11.3364 67.679C11.3382 67.6746 11.3406 67.6715 11.3424 67.6697C11.3434 67.6687 11.3457 67.6665 11.3525 67.6637L10.2264 64.8831C8.676 65.511 7.92626 67.2766 8.55729 68.8284L11.3363 67.6983ZM11.3527 67.6636L16.5783 65.5464L15.4518 62.766L10.2262 64.8832L11.3527 67.6636Z" fill="#57CCEF"/>
<path fill-rule="evenodd" clip-rule="evenodd" d="M27.0845 84.6712L51.9014 74.6165C52.6849 74.2992 53.5774 74.6755 53.8954 75.4571C54.2133 76.239 53.8362 77.1297 53.0531 77.447L28.2358 87.5018C27.4527 87.8191 26.5602 87.4427 26.2422 86.6612C25.9243 85.8793 26.3014 84.9885 27.0845 84.6712Z" fill="#57CCEF"/>
<path fill-rule="evenodd" clip-rule="evenodd" d="M16.5599 87.1843C17.8388 86.6649 19.2966 87.281 19.8159 88.56C20.3349 89.839 19.7192 91.2967 18.4402 91.8157C17.1613 92.3351 15.7036 91.719 15.1843 90.44C14.6649 89.161 15.281 87.7036 16.5599 87.1843Z" fill="#57CCEF"/>
<path fill-rule="evenodd" clip-rule="evenodd" d="M23.5599 103.184C24.8388 102.665 26.2966 103.281 26.8159 104.56C27.3349 105.839 26.7192 107.297 25.4402 107.816C24.1613 108.335 22.7036 107.719 22.1843 106.44C21.6649 105.161 22.281 103.704 23.5599 103.184Z" fill="#57CCEF"/>
<path fill-rule="evenodd" clip-rule="evenodd" d="M29.5599 118.184C30.8388 117.665 32.2966 118.281 32.8159 119.56C33.3349 120.839 32.7192 122.297 31.4402 122.816C30.1613 123.335 28.7036 122.719 28.1843 121.44C27.6649 120.161 28.281 118.704 29.5599 118.184Z" fill="#57CCEF"/>
<path fill-rule="evenodd" clip-rule="evenodd" d="M33.3217 100.006L51.048 92.8235C51.8311 92.5062 52.7237 92.8826 53.0416 93.6645C53.3596 94.446 52.9825 95.3368 52.1994 95.6541L34.473 102.836C33.6899 103.153 32.797 102.777 32.479 101.995C32.1611 101.214 32.5382 100.323 33.3217 100.006Z" fill="#57CCEF"/>
<path fill-rule="evenodd" clip-rule="evenodd" d="M39.2705 114.63L52.27 109.363C53.0531 109.045 53.946 109.422 54.264 110.204C54.5819 110.985 54.2048 111.876 53.4213 112.193L40.4222 117.46C39.6388 117.777 38.7462 117.401 38.4282 116.619C38.1103 115.838 38.4874 114.947 39.2705 114.63Z" fill="#57CCEF"/>
<circle cx="26" cy="63" r="3" fill="white"/>
</g>
<g filter="url(#filter0_d_15671_214380)">
<path fill-rule="evenodd" clip-rule="evenodd" d="M59.696 31.501L128.826 40.0059C133.115 40.5334 136.164 44.4288 135.634 48.7059L124.325 140.093C123.796 144.37 119.889 147.41 115.6 146.882L46.4701 138.377C42.1805 137.849 39.1322 133.954 39.6612 129.677L50.9705 38.2899C51.4996 34.0125 55.4065 30.9731 59.696 31.501Z" fill="url(#paint2_linear_15671_214380)"/>
</g>
<path fill-rule="evenodd" clip-rule="evenodd" d="M121.729 26.5C127.566 26.5 131.357 26.5 131.357 26.5C135.795 26.5 139.393 30.0656 139.393 34.4643V128.442C139.393 132.841 135.795 136.407 131.357 136.407H59.8394C55.4013 136.407 51.8037 132.841 51.8037 128.442V34.4643C51.8037 30.0656 55.4013 26.5 59.8394 26.5C59.8394 26.5 64.4258 26.5 71.2755 26.5" fill="url(#paint3_linear_15671_214380)"/>
<path d="M121.729 26.5C127.566 26.5 131.357 26.5 131.357 26.5C135.795 26.5 139.393 30.0656 139.393 34.4643V128.442C139.393 132.841 135.795 136.407 131.357 136.407H59.8394C55.4013 136.407 51.8037 132.841 51.8037 128.442V34.4643C51.8037 30.0656 55.4013 26.5 59.8394 26.5C59.8394 26.5 64.4258 26.5 71.2755 26.5" stroke="#57CCEF" stroke-width="4"/>
<path fill-rule="evenodd" clip-rule="evenodd" d="M111.882 18.9336C111.901 18.6248 111.911 18.3135 111.911 18C111.911 9.71573 105.195 3 96.9106 3C88.6264 3 81.9106 9.71573 81.9106 18C81.9106 18.3135 81.9203 18.6248 81.9392 18.9336H73.4107C72.0792 18.9336 71 20.0032 71 21.3229V30.88C71 32.1997 72.0792 33.2693 73.4107 33.2693H119.616C120.948 33.2693 122.027 32.1997 122.027 30.88V21.3229C122.027 20.0032 120.948 18.9336 119.616 18.9336H111.882Z" fill="url(#paint4_linear_15671_214380)"/>
<path d="M111.882 18.9336L109.886 18.811L109.755 20.9336H111.882V18.9336ZM81.9392 18.9336V20.9336H84.0658L83.9355 18.811L81.9392 18.9336ZM109.911 18C109.911 18.2726 109.902 18.543 109.886 18.811L113.878 19.0562C113.9 18.7066 113.911 18.3545 113.911 18H109.911ZM96.9106 5C104.09 5 109.911 10.8203 109.911 18H113.911C113.911 8.61116 106.299 1 96.9106 1V5ZM83.9106 18C83.9106 10.8203 89.7309 5 96.9106 5V1C87.5218 1 79.9106 8.61116 79.9106 18H83.9106ZM83.9355 18.811C83.919 18.543 83.9106 18.2726 83.9106 18H79.9106C79.9106 18.3545 79.9215 18.7066 79.943 19.0562L83.9355 18.811ZM73.4107 20.9336H81.9392V16.9336H73.4107V20.9336ZM73 21.3229C73 21.1246 73.1669 20.9336 73.4107 20.9336V16.9336C70.9915 16.9336 69 18.8818 69 21.3229H73ZM73 30.88V21.3229H69V30.88H73ZM73.4107 31.2693C73.1669 31.2693 73 31.0783 73 30.88H69C69 33.321 70.9915 35.2693 73.4107 35.2693V31.2693ZM119.616 31.2693H73.4107V35.2693H119.616V31.2693ZM120.027 30.88C120.027 31.0783 119.86 31.2693 119.616 31.2693V35.2693C122.035 35.2693 124.027 33.321 124.027 30.88H120.027ZM120.027 21.3229V30.88H124.027V21.3229H120.027ZM119.616 20.9336C119.86 20.9336 120.027 21.1246 120.027 21.3229H124.027C124.027 18.8818 122.035 16.9336 119.616 16.9336V20.9336ZM111.882 20.9336H119.616V16.9336H111.882V20.9336Z" fill="#57CCEF"/>
<path fill-rule="evenodd" clip-rule="evenodd" d="M84.4107 55H126.598C127.93 55 129.009 55.8953 129.009 57C129.009 58.1047 127.93 59 126.598 59H84.4107C83.0792 59 82 58.1047 82 57C82 55.8953 83.0792 55 84.4107 55Z" fill="#57CCEF"/>
<path fill-rule="evenodd" clip-rule="evenodd" d="M84.4107 81H111.598C112.93 81 114.009 81.8953 114.009 83C114.009 84.1047 112.93 85 111.598 85H84.4107C83.0792 85 82 84.1047 82 83C82 81.8953 83.0792 81 84.4107 81Z" fill="#57CCEF"/>
<path fill-rule="evenodd" clip-rule="evenodd" d="M84.4107 107H99.5982C100.93 107 102.009 107.895 102.009 109C102.009 110.105 100.93 111 99.5982 111H84.4107C83.0792 111 82 110.105 82 109C82 107.895 83.0792 107 84.4107 107Z" fill="#57CCEF"/>
<path fill-rule="evenodd" clip-rule="evenodd" d="M70 53C72.2092 53 74 54.7908 74 57C74 59.2092 72.2092 61 70 61C67.7908 61 66 59.2092 66 57C66 54.7908 67.7908 53 70 53Z" fill="#57CCEF"/>
<path fill-rule="evenodd" clip-rule="evenodd" d="M70 79C72.2092 79 74 80.7908 74 83C74 85.2092 72.2092 87 70 87C67.7908 87 66 85.2092 66 83C66 80.7908 67.7908 79 70 79Z" fill="#57CCEF"/>
<path fill-rule="evenodd" clip-rule="evenodd" d="M70 105C72.2092 105 74 106.791 74 109C74 111.209 72.2092 113 70 113C67.7908 113 66 111.209 66 109C66 106.791 67.7908 105 70 105Z" fill="#57CCEF"/>
<circle cx="97" cy="22" r="5" fill="white"/>
<defs>
<filter id="filter0_d_15671_214380" x="33.6016" y="31.4414" width="108.093" height="133.5" filterUnits="userSpaceOnUse" color-interpolation-filters="sRGB">
<feFlood flood-opacity="0" result="BackgroundImageFix"/>
<feColorMatrix in="SourceAlpha" type="matrix" values="0 0 0 0 0 0 0 0 0 0 0 0 0 0 0 0 0 0 127 0" result="hardAlpha"/>
<feOffset dy="12"/>
<feGaussianBlur stdDeviation="3"/>
<feComposite in2="hardAlpha" operator="out"/>
<feColorMatrix type="matrix" values="0 0 0 0 0.603922 0 0 0 0 0.886275 0 0 0 0 0.972549 0 0 0 0.2 0"/>
<feBlend mode="normal" in2="BackgroundImageFix" result="effect1_dropShadow_15671_214380"/>
<feBlend mode="normal" in="SourceGraphic" in2="effect1_dropShadow_15671_214380" result="shape"/>
</filter>
<linearGradient id="paint0_linear_15671_214380" x1="38.8535" y1="56.5898" x2="38.8535" y2="139.487" gradientUnits="userSpaceOnUse">
<stop stop-color="#EBFAFE"/>
<stop offset="1" stop-color="#F1FDF9"/>
</linearGradient>
<linearGradient id="paint1_linear_15671_214380" x1="9.83398" y1="51" x2="32.6104" y2="82.0447" gradientUnits="userSpaceOnUse">
<stop stop-color="#8CDFF8"/>
<stop offset="1" stop-color="#D7FAEF"/>
</linearGradient>
<linearGradient id="paint2_linear_15671_214380" x1="39.6016" y1="31.4414" x2="153.174" y2="125.931" gradientUnits="userSpaceOnUse">
<stop stop-color="#8CDFF8"/>
<stop offset="1" stop-color="#D7FAEF"/>
</linearGradient>
<linearGradient id="paint3_linear_15671_214380" x1="95.5984" y1="26.5" x2="95.5984" y2="136.407" gradientUnits="userSpaceOnUse">
<stop stop-color="#EBFAFE"/>
<stop offset="1" stop-color="#F1FDF9"/>
</linearGradient>
<linearGradient id="paint4_linear_15671_214380" x1="71" y1="18.9336" x2="78.4658" y2="45.5075" gradientUnits="userSpaceOnUse">
<stop stop-color="#8CDFF8"/>
<stop offset="1" stop-color="#D7FAEF"/>
</linearGradient>
<clipPath id="clip0_15671_214380">
<rect width="79" height="107" fill="white" transform="translate(0 47)"/>
</clipPath>
</defs>
</svg>
