<svg width="38" height="38" viewBox="0 0 38 38" fill="none" xmlns="http://www.w3.org/2000/svg">
  <rect width="38" height="38" rx="6"/>
  <path d="M13.7476 19.0612C13.7476 18.4726 13.8466 17.9083 14.0221 17.3791L10.9396 15.0476C10.3196 16.2945 9.99791 17.6686 10 19.0612C10 20.5034 10.3375 21.8638 10.9378 23.0716L14.0194 20.7361C13.8394 20.1961 13.7481 19.6304 13.7476 19.0612Z" fill="#FBBC05"/>
  <path d="M19.1625 13.7081C20.3906 13.7057 21.5819 14.1272 22.5352 14.9015L25.2006 12.2663C23.5765 10.8668 21.4943 10.0015 19.1625 10.0015C15.5418 10.0015 12.4296 12.0521 10.9396 15.0478L14.0244 17.3792C14.7345 15.2435 16.7595 13.7077 19.1634 13.7077" fill="#EA4335"/>
  <path d="M19.2016 24.2951C16.7851 24.2951 14.7502 22.7691 14.0356 20.6465L10.9374 22.964C12.4345 25.9412 15.562 27.9783 19.2016 27.9783C21.4467 27.9783 23.5905 27.198 25.2001 25.7346L22.2585 23.508C21.4291 24.0197 20.3838 24.2955 19.2007 24.2955" fill="#34A853"/>
  <path d="M27.9901 18.9757C27.9901 18.4438 27.906 17.8705 27.7809 17.3386H19.2007V20.8171H24.139C23.8929 22.0033 23.221 22.915 22.2589 23.5081L25.2001 25.7347C26.8908 24.1989 27.9901 21.9106 27.9901 18.9757Z" fill="#4285F4"/>
  </svg>
  