<svg width="23" height="41" viewBox="0 0 23 41" fill="none" xmlns="http://www.w3.org/2000/svg">
<path d="M20.1369 0.000998799C19.7613 -0.00885123 19.388 0.0628422 19.0427 0.211135C18.6975 0.359428 18.3884 0.580798 18.1369 0.86L0.959946 18.037C0.688496 18.2954 0.472391 18.6063 0.324722 18.9508C0.177053 19.2953 0.100906 19.6662 0.100906 20.041C0.100906 20.4158 0.177053 20.7867 0.324722 21.1312C0.472391 21.4757 0.688496 21.7866 0.959946 22.045L18.1329 39.221C18.6644 39.7525 19.3853 40.0511 20.1369 40.0511C20.8886 40.0511 21.6095 39.7525 22.1409 39.221C22.6724 38.6895 22.971 37.9686 22.971 37.217C22.971 36.4654 22.6724 35.7445 22.1409 35.213L6.96794 20.041L22.1409 4.868C22.4124 4.60956 22.6285 4.29866 22.7762 3.95418C22.9239 3.60969 23 3.2388 23 2.864C23 2.4892 22.9239 2.1183 22.7762 1.77382C22.6285 1.42933 22.4124 1.11844 22.1409 0.86C21.889 0.580277 21.5794 0.3586 21.2334 0.210288C20.8873 0.0619764 20.5133 -0.00943454 20.1369 0.000998799Z" fill="#CCCCCC"/>
</svg>
