<svg width="23" height="41" viewBox="0 0 23 41" fill="none" xmlns="http://www.w3.org/2000/svg">
<path d="M2.86305 0.000998799C3.23869 -0.00885123 3.61199 0.0628422 3.95726 0.211135C4.30253 0.359428 4.61156 0.580798 4.86305 0.86L22.0401 18.037C22.3115 18.2954 22.5276 18.6063 22.6753 18.9508C22.8229 19.2953 22.8991 19.6662 22.8991 20.041C22.8991 20.4158 22.8229 20.7867 22.6753 21.1312C22.5276 21.4757 22.3115 21.7866 22.0401 22.045L4.86705 39.221C4.33556 39.7525 3.6147 40.0511 2.86305 40.0511C2.11141 40.0511 1.39055 39.7525 0.859055 39.221C0.327561 38.6895 0.0289765 37.9686 0.0289764 37.217C0.0289764 36.4654 0.327561 35.7445 0.859055 35.213L16.0321 20.041L0.859055 4.868C0.587604 4.60956 0.37147 4.29866 0.223801 3.95418C0.076131 3.60969 0 3.2388 0 2.864C0 2.4892 0.076131 2.1183 0.223801 1.77382C0.37147 1.42933 0.587604 1.11844 0.859055 0.86C1.11099 0.580277 1.42064 0.3586 1.76665 0.210288C2.11265 0.0619764 2.48675 -0.00943454 2.86305 0.000998799V0.000998799Z" fill="#57CCEF"/>
</svg>
